M48
;DRILL file {KiCad 4.0.2+dfsg1-stable} date Mon 23 Oct 2017 16:48:45 CEST
;FORMAT={-:-/ absolute / inch / decimal}
FMAT,2
INCH,TZ
T1C0.031
T2C0.032
T3C0.032
T4C0.039
T5C0.040
T6C0.047
T7C0.051
%
G90
G05
M72
T1
X5.175Y-3.85
X5.175Y-4.15
X5.275Y-3.775
X5.275Y-3.85
X5.275Y-4.15
X5.375Y-3.85
X5.375Y-4.15
X5.475Y-3.85
X5.475Y-4.15
X5.475Y-4.225
X5.975Y-4.125
X6.525Y-3.85
X6.525Y-4.15
X6.625Y-3.7734
X6.625Y-3.85
X6.625Y-4.15
X6.725Y-3.85
X6.725Y-4.15
X6.825Y-3.85
X6.825Y-4.15
X6.825Y-4.2266
X7.3463Y-4.425
X7.3463Y-4.675
X7.425Y-4.425
X7.425Y-4.675
T2
X5.275Y-3.6766
X5.475Y-4.3234
X6.625Y-3.675
X6.825Y-4.325
T3
X6.05Y-4.75
X6.05Y-4.85
X6.05Y-4.95
T4
X4.675Y-3.5
X4.875Y-3.8
X4.875Y-4.2
X5.075Y-3.5
X5.65Y-4.35
X5.725Y-3.8
X5.725Y-4.2
X5.875Y-3.8
X5.875Y-4.2
X6.05Y-4.35
X6.225Y-3.8
X6.225Y-4.2
X6.225Y-4.35
X6.225Y-4.5
X6.625Y-4.35
X6.625Y-4.5
X7.2Y-3.8
X7.2Y-4.2
X7.35Y-3.8
X7.35Y-4.2
T5
X5.75Y-3.575
X5.85Y-3.575
X6.1Y-3.575
X6.2Y-3.575
T6
X5.375Y-3.5
X6.325Y-4.725
X6.725Y-3.5
T7
X5.1Y-3.125
X5.2969Y-3.125
X5.525Y-4.875
X5.7219Y-4.875
X5.9031Y-3.125
X6.1Y-3.125
X6.6031Y-4.875
X6.7031Y-3.125
X6.8Y-4.875
X6.9Y-3.125
X6.9969Y-4.875
T0
M30
