G04 #@! TF.FileFunction,Legend,Top*
%FSLAX46Y46*%
G04 Gerber Fmt 4.6, Leading zero omitted, Abs format (unit mm)*
G04 Created by KiCad (PCBNEW 4.0.2+dfsg1-stable) date Mon 23 Oct 2017 16:48:42 CEST*
%MOMM*%
G01*
G04 APERTURE LIST*
%ADD10C,0.100000*%
%ADD11C,0.150000*%
%ADD12C,0.200000*%
%ADD13C,0.300000*%
%ADD14C,8.000000*%
%ADD15C,0.010000*%
G04 APERTURE END LIST*
D10*
D11*
X123036669Y-127456667D02*
X123036669Y-126756667D01*
X123270002Y-127256667D01*
X123503335Y-126756667D01*
X123503335Y-127456667D01*
X124136669Y-127456667D02*
X124136669Y-127090000D01*
X124103335Y-127023333D01*
X124036669Y-126990000D01*
X123903335Y-126990000D01*
X123836669Y-127023333D01*
X124136669Y-127423333D02*
X124070002Y-127456667D01*
X123903335Y-127456667D01*
X123836669Y-127423333D01*
X123803335Y-127356667D01*
X123803335Y-127290000D01*
X123836669Y-127223333D01*
X123903335Y-127190000D01*
X124070002Y-127190000D01*
X124136669Y-127156667D01*
X124770002Y-126990000D02*
X124770002Y-127556667D01*
X124736668Y-127623333D01*
X124703335Y-127656667D01*
X124636668Y-127690000D01*
X124536668Y-127690000D01*
X124470002Y-127656667D01*
X124770002Y-127423333D02*
X124703335Y-127456667D01*
X124570002Y-127456667D01*
X124503335Y-127423333D01*
X124470002Y-127390000D01*
X124436668Y-127323333D01*
X124436668Y-127123333D01*
X124470002Y-127056667D01*
X124503335Y-127023333D01*
X124570002Y-126990000D01*
X124703335Y-126990000D01*
X124770002Y-127023333D01*
X125103335Y-126990000D02*
X125103335Y-127456667D01*
X125103335Y-127056667D02*
X125136668Y-127023333D01*
X125203335Y-126990000D01*
X125303335Y-126990000D01*
X125370001Y-127023333D01*
X125403335Y-127090000D01*
X125403335Y-127456667D01*
X126003334Y-127423333D02*
X125936668Y-127456667D01*
X125803334Y-127456667D01*
X125736668Y-127423333D01*
X125703334Y-127356667D01*
X125703334Y-127090000D01*
X125736668Y-127023333D01*
X125803334Y-126990000D01*
X125936668Y-126990000D01*
X126003334Y-127023333D01*
X126036668Y-127090000D01*
X126036668Y-127156667D01*
X125703334Y-127223333D01*
X126236668Y-126990000D02*
X126503334Y-126990000D01*
X126336668Y-126756667D02*
X126336668Y-127356667D01*
X126370001Y-127423333D01*
X126436668Y-127456667D01*
X126503334Y-127456667D01*
X126836668Y-127456667D02*
X126770001Y-127423333D01*
X126736668Y-127390000D01*
X126703334Y-127323333D01*
X126703334Y-127123333D01*
X126736668Y-127056667D01*
X126770001Y-127023333D01*
X126836668Y-126990000D01*
X126936668Y-126990000D01*
X127003334Y-127023333D01*
X127036668Y-127056667D01*
X127070001Y-127123333D01*
X127070001Y-127323333D01*
X127036668Y-127390000D01*
X127003334Y-127423333D01*
X126936668Y-127456667D01*
X126836668Y-127456667D01*
X127370001Y-127456667D02*
X127370001Y-126990000D01*
X127370001Y-127056667D02*
X127403334Y-127023333D01*
X127470001Y-126990000D01*
X127570001Y-126990000D01*
X127636667Y-127023333D01*
X127670001Y-127090000D01*
X127670001Y-127456667D01*
X127670001Y-127090000D02*
X127703334Y-127023333D01*
X127770001Y-126990000D01*
X127870001Y-126990000D01*
X127936667Y-127023333D01*
X127970001Y-127090000D01*
X127970001Y-127456667D01*
X128570000Y-127423333D02*
X128503334Y-127456667D01*
X128370000Y-127456667D01*
X128303334Y-127423333D01*
X128270000Y-127356667D01*
X128270000Y-127090000D01*
X128303334Y-127023333D01*
X128370000Y-126990000D01*
X128503334Y-126990000D01*
X128570000Y-127023333D01*
X128603334Y-127090000D01*
X128603334Y-127156667D01*
X128270000Y-127223333D01*
X128803334Y-126990000D02*
X129070000Y-126990000D01*
X128903334Y-126756667D02*
X128903334Y-127356667D01*
X128936667Y-127423333D01*
X129003334Y-127456667D01*
X129070000Y-127456667D01*
X129570000Y-127423333D02*
X129503334Y-127456667D01*
X129370000Y-127456667D01*
X129303334Y-127423333D01*
X129270000Y-127356667D01*
X129270000Y-127090000D01*
X129303334Y-127023333D01*
X129370000Y-126990000D01*
X129503334Y-126990000D01*
X129570000Y-127023333D01*
X129603334Y-127090000D01*
X129603334Y-127156667D01*
X129270000Y-127223333D01*
X129903334Y-127456667D02*
X129903334Y-126990000D01*
X129903334Y-127123333D02*
X129936667Y-127056667D01*
X129970000Y-127023333D01*
X130036667Y-126990000D01*
X130103334Y-126990000D01*
X130870000Y-127456667D02*
X130870000Y-126756667D01*
X130870000Y-127023333D02*
X130936666Y-126990000D01*
X131070000Y-126990000D01*
X131136666Y-127023333D01*
X131170000Y-127056667D01*
X131203333Y-127123333D01*
X131203333Y-127323333D01*
X131170000Y-127390000D01*
X131136666Y-127423333D01*
X131070000Y-127456667D01*
X130936666Y-127456667D01*
X130870000Y-127423333D01*
X131603333Y-127456667D02*
X131536666Y-127423333D01*
X131503333Y-127390000D01*
X131469999Y-127323333D01*
X131469999Y-127123333D01*
X131503333Y-127056667D01*
X131536666Y-127023333D01*
X131603333Y-126990000D01*
X131703333Y-126990000D01*
X131769999Y-127023333D01*
X131803333Y-127056667D01*
X131836666Y-127123333D01*
X131836666Y-127323333D01*
X131803333Y-127390000D01*
X131769999Y-127423333D01*
X131703333Y-127456667D01*
X131603333Y-127456667D01*
X132436666Y-127456667D02*
X132436666Y-127090000D01*
X132403332Y-127023333D01*
X132336666Y-126990000D01*
X132203332Y-126990000D01*
X132136666Y-127023333D01*
X132436666Y-127423333D02*
X132369999Y-127456667D01*
X132203332Y-127456667D01*
X132136666Y-127423333D01*
X132103332Y-127356667D01*
X132103332Y-127290000D01*
X132136666Y-127223333D01*
X132203332Y-127190000D01*
X132369999Y-127190000D01*
X132436666Y-127156667D01*
X132769999Y-127456667D02*
X132769999Y-126990000D01*
X132769999Y-127123333D02*
X132803332Y-127056667D01*
X132836665Y-127023333D01*
X132903332Y-126990000D01*
X132969999Y-126990000D01*
X133503332Y-127456667D02*
X133503332Y-126756667D01*
X133503332Y-127423333D02*
X133436665Y-127456667D01*
X133303332Y-127456667D01*
X133236665Y-127423333D01*
X133203332Y-127390000D01*
X133169998Y-127323333D01*
X133169998Y-127123333D01*
X133203332Y-127056667D01*
X133236665Y-127023333D01*
X133303332Y-126990000D01*
X133436665Y-126990000D01*
X133503332Y-127023333D01*
X123103336Y-128586667D02*
X123103336Y-127886667D01*
X123103336Y-128153333D02*
X123170002Y-128120000D01*
X123303336Y-128120000D01*
X123370002Y-128153333D01*
X123403336Y-128186667D01*
X123436669Y-128253333D01*
X123436669Y-128453333D01*
X123403336Y-128520000D01*
X123370002Y-128553333D01*
X123303336Y-128586667D01*
X123170002Y-128586667D01*
X123103336Y-128553333D01*
X123670002Y-128120000D02*
X123836669Y-128586667D01*
X124003335Y-128120000D02*
X123836669Y-128586667D01*
X123770002Y-128753333D01*
X123736669Y-128786667D01*
X123670002Y-128820000D01*
X124770001Y-128553333D02*
X124870001Y-128586667D01*
X125036668Y-128586667D01*
X125103335Y-128553333D01*
X125136668Y-128520000D01*
X125170001Y-128453333D01*
X125170001Y-128386667D01*
X125136668Y-128320000D01*
X125103335Y-128286667D01*
X125036668Y-128253333D01*
X124903335Y-128220000D01*
X124836668Y-128186667D01*
X124803335Y-128153333D01*
X124770001Y-128086667D01*
X124770001Y-128020000D01*
X124803335Y-127953333D01*
X124836668Y-127920000D01*
X124903335Y-127886667D01*
X125070001Y-127886667D01*
X125170001Y-127920000D01*
X125736668Y-128553333D02*
X125670002Y-128586667D01*
X125536668Y-128586667D01*
X125470002Y-128553333D01*
X125436668Y-128486667D01*
X125436668Y-128220000D01*
X125470002Y-128153333D01*
X125536668Y-128120000D01*
X125670002Y-128120000D01*
X125736668Y-128153333D01*
X125770002Y-128220000D01*
X125770002Y-128286667D01*
X125436668Y-128353333D01*
X126370002Y-128586667D02*
X126370002Y-128220000D01*
X126336668Y-128153333D01*
X126270002Y-128120000D01*
X126136668Y-128120000D01*
X126070002Y-128153333D01*
X126370002Y-128553333D02*
X126303335Y-128586667D01*
X126136668Y-128586667D01*
X126070002Y-128553333D01*
X126036668Y-128486667D01*
X126036668Y-128420000D01*
X126070002Y-128353333D01*
X126136668Y-128320000D01*
X126303335Y-128320000D01*
X126370002Y-128286667D01*
X126703335Y-128120000D02*
X126703335Y-128586667D01*
X126703335Y-128186667D02*
X126736668Y-128153333D01*
X126803335Y-128120000D01*
X126903335Y-128120000D01*
X126970001Y-128153333D01*
X127003335Y-128220000D01*
X127003335Y-128586667D01*
X128203334Y-128586667D02*
X127870001Y-128586667D01*
X127870001Y-127886667D01*
X128703334Y-128553333D02*
X128636668Y-128586667D01*
X128503334Y-128586667D01*
X128436668Y-128553333D01*
X128403334Y-128486667D01*
X128403334Y-128220000D01*
X128436668Y-128153333D01*
X128503334Y-128120000D01*
X128636668Y-128120000D01*
X128703334Y-128153333D01*
X128736668Y-128220000D01*
X128736668Y-128286667D01*
X128403334Y-128353333D01*
X129336668Y-128586667D02*
X129336668Y-128220000D01*
X129303334Y-128153333D01*
X129236668Y-128120000D01*
X129103334Y-128120000D01*
X129036668Y-128153333D01*
X129336668Y-128553333D02*
X129270001Y-128586667D01*
X129103334Y-128586667D01*
X129036668Y-128553333D01*
X129003334Y-128486667D01*
X129003334Y-128420000D01*
X129036668Y-128353333D01*
X129103334Y-128320000D01*
X129270001Y-128320000D01*
X129336668Y-128286667D01*
X129603334Y-128120000D02*
X129770001Y-128586667D01*
X129936667Y-128120000D01*
X130470000Y-128553333D02*
X130403334Y-128586667D01*
X130270000Y-128586667D01*
X130203334Y-128553333D01*
X130170000Y-128486667D01*
X130170000Y-128220000D01*
X130203334Y-128153333D01*
X130270000Y-128120000D01*
X130403334Y-128120000D01*
X130470000Y-128153333D01*
X130503334Y-128220000D01*
X130503334Y-128286667D01*
X130170000Y-128353333D01*
X130736667Y-128120000D02*
X130903334Y-128586667D01*
X131070000Y-128120000D02*
X130903334Y-128586667D01*
X130836667Y-128753333D01*
X130803334Y-128786667D01*
X130736667Y-128820000D01*
X132170000Y-128586667D02*
X132170000Y-128220000D01*
X132136666Y-128153333D01*
X132070000Y-128120000D01*
X131936666Y-128120000D01*
X131870000Y-128153333D01*
X132170000Y-128553333D02*
X132103333Y-128586667D01*
X131936666Y-128586667D01*
X131870000Y-128553333D01*
X131836666Y-128486667D01*
X131836666Y-128420000D01*
X131870000Y-128353333D01*
X131936666Y-128320000D01*
X132103333Y-128320000D01*
X132170000Y-128286667D01*
X132503333Y-128120000D02*
X132503333Y-128586667D01*
X132503333Y-128186667D02*
X132536666Y-128153333D01*
X132603333Y-128120000D01*
X132703333Y-128120000D01*
X132769999Y-128153333D01*
X132803333Y-128220000D01*
X132803333Y-128586667D01*
X133436666Y-128586667D02*
X133436666Y-127886667D01*
X133436666Y-128553333D02*
X133369999Y-128586667D01*
X133236666Y-128586667D01*
X133169999Y-128553333D01*
X133136666Y-128520000D01*
X133103332Y-128453333D01*
X133103332Y-128253333D01*
X133136666Y-128186667D01*
X133169999Y-128153333D01*
X133236666Y-128120000D01*
X133369999Y-128120000D01*
X133436666Y-128153333D01*
X125503335Y-129716667D02*
X125503335Y-129016667D01*
X125503335Y-129350000D02*
X125903335Y-129350000D01*
X125903335Y-129716667D02*
X125903335Y-129016667D01*
X126536668Y-129250000D02*
X126536668Y-129716667D01*
X126236668Y-129250000D02*
X126236668Y-129616667D01*
X126270001Y-129683333D01*
X126336668Y-129716667D01*
X126436668Y-129716667D01*
X126503334Y-129683333D01*
X126536668Y-129650000D01*
X127170001Y-129250000D02*
X127170001Y-129816667D01*
X127136667Y-129883333D01*
X127103334Y-129916667D01*
X127036667Y-129950000D01*
X126936667Y-129950000D01*
X126870001Y-129916667D01*
X127170001Y-129683333D02*
X127103334Y-129716667D01*
X126970001Y-129716667D01*
X126903334Y-129683333D01*
X126870001Y-129650000D01*
X126836667Y-129583333D01*
X126836667Y-129383333D01*
X126870001Y-129316667D01*
X126903334Y-129283333D01*
X126970001Y-129250000D01*
X127103334Y-129250000D01*
X127170001Y-129283333D01*
X127503334Y-129716667D02*
X127503334Y-129016667D01*
X127803334Y-129716667D02*
X127803334Y-129350000D01*
X127770000Y-129283333D01*
X127703334Y-129250000D01*
X127603334Y-129250000D01*
X127536667Y-129283333D01*
X127503334Y-129316667D01*
X128670000Y-129716667D02*
X128670000Y-129016667D01*
X128936666Y-129016667D01*
X129003333Y-129050000D01*
X129036666Y-129083333D01*
X129070000Y-129150000D01*
X129070000Y-129250000D01*
X129036666Y-129316667D01*
X129003333Y-129350000D01*
X128936666Y-129383333D01*
X128670000Y-129383333D01*
X129470000Y-129716667D02*
X129403333Y-129683333D01*
X129370000Y-129650000D01*
X129336666Y-129583333D01*
X129336666Y-129383333D01*
X129370000Y-129316667D01*
X129403333Y-129283333D01*
X129470000Y-129250000D01*
X129570000Y-129250000D01*
X129636666Y-129283333D01*
X129670000Y-129316667D01*
X129703333Y-129383333D01*
X129703333Y-129583333D01*
X129670000Y-129650000D01*
X129636666Y-129683333D01*
X129570000Y-129716667D01*
X129470000Y-129716667D01*
X129903333Y-129250000D02*
X130169999Y-129250000D01*
X130003333Y-129016667D02*
X130003333Y-129616667D01*
X130036666Y-129683333D01*
X130103333Y-129716667D01*
X130169999Y-129716667D01*
X130303333Y-129250000D02*
X130569999Y-129250000D01*
X130403333Y-129016667D02*
X130403333Y-129616667D01*
X130436666Y-129683333D01*
X130503333Y-129716667D01*
X130569999Y-129716667D01*
X130769999Y-129683333D02*
X130836666Y-129716667D01*
X130969999Y-129716667D01*
X131036666Y-129683333D01*
X131069999Y-129616667D01*
X131069999Y-129583333D01*
X131036666Y-129516667D01*
X130969999Y-129483333D01*
X130869999Y-129483333D01*
X130803333Y-129450000D01*
X130769999Y-129383333D01*
X130769999Y-129350000D01*
X130803333Y-129283333D01*
X130869999Y-129250000D01*
X130969999Y-129250000D01*
X131036666Y-129283333D01*
D12*
X176038095Y-117546429D02*
X176800000Y-117546429D01*
X177800000Y-117927381D02*
X177228571Y-117927381D01*
X177514285Y-117927381D02*
X177514285Y-116927381D01*
X177419047Y-117070238D01*
X177323809Y-117165476D01*
X177228571Y-117213095D01*
X178180952Y-117022619D02*
X178228571Y-116975000D01*
X178323809Y-116927381D01*
X178561905Y-116927381D01*
X178657143Y-116975000D01*
X178704762Y-117022619D01*
X178752381Y-117117857D01*
X178752381Y-117213095D01*
X178704762Y-117355952D01*
X178133333Y-117927381D01*
X178752381Y-117927381D01*
X179038095Y-116927381D02*
X179371428Y-117927381D01*
X179704762Y-116927381D01*
X171958096Y-116975000D02*
X171862858Y-116927381D01*
X171720001Y-116927381D01*
X171577143Y-116975000D01*
X171481905Y-117070238D01*
X171434286Y-117165476D01*
X171386667Y-117355952D01*
X171386667Y-117498810D01*
X171434286Y-117689286D01*
X171481905Y-117784524D01*
X171577143Y-117879762D01*
X171720001Y-117927381D01*
X171815239Y-117927381D01*
X171958096Y-117879762D01*
X172005715Y-117832143D01*
X172005715Y-117498810D01*
X171815239Y-117498810D01*
X172434286Y-117927381D02*
X172434286Y-116927381D01*
X173005715Y-117927381D01*
X173005715Y-116927381D01*
X173481905Y-117927381D02*
X173481905Y-116927381D01*
X173720000Y-116927381D01*
X173862858Y-116975000D01*
X173958096Y-117070238D01*
X174005715Y-117165476D01*
X174053334Y-117355952D01*
X174053334Y-117498810D01*
X174005715Y-117689286D01*
X173958096Y-117784524D01*
X173862858Y-117879762D01*
X173720000Y-117927381D01*
X173481905Y-117927381D01*
X165878095Y-117546429D02*
X166640000Y-117546429D01*
X166259048Y-117927381D02*
X166259048Y-117165476D01*
X167640000Y-117927381D02*
X167068571Y-117927381D01*
X167354285Y-117927381D02*
X167354285Y-116927381D01*
X167259047Y-117070238D01*
X167163809Y-117165476D01*
X167068571Y-117213095D01*
X168020952Y-117022619D02*
X168068571Y-116975000D01*
X168163809Y-116927381D01*
X168401905Y-116927381D01*
X168497143Y-116975000D01*
X168544762Y-117022619D01*
X168592381Y-117117857D01*
X168592381Y-117213095D01*
X168544762Y-117355952D01*
X167973333Y-117927381D01*
X168592381Y-117927381D01*
X168878095Y-116927381D02*
X169211428Y-117927381D01*
X169544762Y-116927381D01*
X138549286Y-116927381D02*
X138882619Y-117927381D01*
X139215953Y-116927381D01*
X139549286Y-117403571D02*
X139882620Y-117403571D01*
X140025477Y-117927381D02*
X139549286Y-117927381D01*
X139549286Y-116927381D01*
X140025477Y-116927381D01*
X141025477Y-117927381D02*
X140692143Y-117451190D01*
X140454048Y-117927381D02*
X140454048Y-116927381D01*
X140835001Y-116927381D01*
X140930239Y-116975000D01*
X140977858Y-117022619D01*
X141025477Y-117117857D01*
X141025477Y-117260714D01*
X140977858Y-117355952D01*
X140930239Y-117403571D01*
X140835001Y-117451190D01*
X140454048Y-117451190D01*
X142025477Y-117927381D02*
X141692143Y-117451190D01*
X141454048Y-117927381D02*
X141454048Y-116927381D01*
X141835001Y-116927381D01*
X141930239Y-116975000D01*
X141977858Y-117022619D01*
X142025477Y-117117857D01*
X142025477Y-117260714D01*
X141977858Y-117355952D01*
X141930239Y-117403571D01*
X141835001Y-117451190D01*
X141454048Y-117451190D01*
X144653096Y-116975000D02*
X144557858Y-116927381D01*
X144415001Y-116927381D01*
X144272143Y-116975000D01*
X144176905Y-117070238D01*
X144129286Y-117165476D01*
X144081667Y-117355952D01*
X144081667Y-117498810D01*
X144129286Y-117689286D01*
X144176905Y-117784524D01*
X144272143Y-117879762D01*
X144415001Y-117927381D01*
X144510239Y-117927381D01*
X144653096Y-117879762D01*
X144700715Y-117832143D01*
X144700715Y-117498810D01*
X144510239Y-117498810D01*
X145129286Y-117927381D02*
X145129286Y-116927381D01*
X145700715Y-117927381D01*
X145700715Y-116927381D01*
X146176905Y-117927381D02*
X146176905Y-116927381D01*
X146415000Y-116927381D01*
X146557858Y-116975000D01*
X146653096Y-117070238D01*
X146700715Y-117165476D01*
X146748334Y-117355952D01*
X146748334Y-117498810D01*
X146700715Y-117689286D01*
X146653096Y-117784524D01*
X146557858Y-117879762D01*
X146415000Y-117927381D01*
X146176905Y-117927381D01*
X169799048Y-85796429D02*
X170560953Y-85796429D01*
X174879048Y-85796429D02*
X175640953Y-85796429D01*
X175260001Y-86177381D02*
X175260001Y-85415476D01*
X154559048Y-85796429D02*
X155320953Y-85796429D01*
X154940001Y-86177381D02*
X154940001Y-85415476D01*
X149479048Y-85796429D02*
X150240953Y-85796429D01*
X134239048Y-85796429D02*
X135000953Y-85796429D01*
X134620001Y-86177381D02*
X134620001Y-85415476D01*
X129159048Y-85796429D02*
X129920953Y-85796429D01*
D13*
X173684285Y-72346429D02*
X174398571Y-72346429D01*
X174398571Y-73846429D01*
X173184285Y-73132143D02*
X172684285Y-73132143D01*
X172469999Y-72346429D02*
X173184285Y-72346429D01*
X173184285Y-73846429D01*
X172469999Y-73846429D01*
X171827142Y-72346429D02*
X171827142Y-73846429D01*
X171469999Y-73846429D01*
X171255714Y-73775000D01*
X171112856Y-73632143D01*
X171041428Y-73489286D01*
X170969999Y-73203571D01*
X170969999Y-72989286D01*
X171041428Y-72703571D01*
X171112856Y-72560714D01*
X171255714Y-72417857D01*
X171469999Y-72346429D01*
X171827142Y-72346429D01*
X158292857Y-72346429D02*
X158292857Y-73846429D01*
X157721429Y-73846429D01*
X157578571Y-73775000D01*
X157507143Y-73703571D01*
X157435714Y-73560714D01*
X157435714Y-73346429D01*
X157507143Y-73203571D01*
X157578571Y-73132143D01*
X157721429Y-73060714D01*
X158292857Y-73060714D01*
X156792857Y-72346429D02*
X156792857Y-73846429D01*
X156150000Y-72346429D02*
X156150000Y-73132143D01*
X156221429Y-73275000D01*
X156364286Y-73346429D01*
X156578571Y-73346429D01*
X156721429Y-73275000D01*
X156792857Y-73203571D01*
X155221428Y-72346429D02*
X155364286Y-72417857D01*
X155435714Y-72489286D01*
X155507143Y-72632143D01*
X155507143Y-73060714D01*
X155435714Y-73203571D01*
X155364286Y-73275000D01*
X155221428Y-73346429D01*
X155007143Y-73346429D01*
X154864286Y-73275000D01*
X154792857Y-73203571D01*
X154721428Y-73060714D01*
X154721428Y-72632143D01*
X154792857Y-72489286D01*
X154864286Y-72417857D01*
X155007143Y-72346429D01*
X155221428Y-72346429D01*
X154292857Y-73346429D02*
X153721428Y-73346429D01*
X154078571Y-73846429D02*
X154078571Y-72560714D01*
X154007143Y-72417857D01*
X153864285Y-72346429D01*
X153721428Y-72346429D01*
X153007142Y-72346429D02*
X153150000Y-72417857D01*
X153221428Y-72489286D01*
X153292857Y-72632143D01*
X153292857Y-73060714D01*
X153221428Y-73203571D01*
X153150000Y-73275000D01*
X153007142Y-73346429D01*
X152792857Y-73346429D01*
X152650000Y-73275000D01*
X152578571Y-73203571D01*
X152507142Y-73060714D01*
X152507142Y-72632143D01*
X152578571Y-72489286D01*
X152650000Y-72417857D01*
X152792857Y-72346429D01*
X153007142Y-72346429D01*
X151221428Y-72346429D02*
X151221428Y-73846429D01*
X151221428Y-72417857D02*
X151364285Y-72346429D01*
X151649999Y-72346429D01*
X151792857Y-72417857D01*
X151864285Y-72489286D01*
X151935714Y-72632143D01*
X151935714Y-73060714D01*
X151864285Y-73203571D01*
X151792857Y-73275000D01*
X151649999Y-73346429D01*
X151364285Y-73346429D01*
X151221428Y-73275000D01*
X150507142Y-72346429D02*
X150507142Y-73346429D01*
X150507142Y-73846429D02*
X150578571Y-73775000D01*
X150507142Y-73703571D01*
X150435714Y-73775000D01*
X150507142Y-73846429D01*
X150507142Y-73703571D01*
X149578570Y-72346429D02*
X149721428Y-72417857D01*
X149792856Y-72489286D01*
X149864285Y-72632143D01*
X149864285Y-73060714D01*
X149792856Y-73203571D01*
X149721428Y-73275000D01*
X149578570Y-73346429D01*
X149364285Y-73346429D01*
X149221428Y-73275000D01*
X149149999Y-73203571D01*
X149078570Y-73060714D01*
X149078570Y-72632143D01*
X149149999Y-72489286D01*
X149221428Y-72417857D01*
X149364285Y-72346429D01*
X149578570Y-72346429D01*
X147792856Y-72346429D02*
X147792856Y-73846429D01*
X147792856Y-72417857D02*
X147935713Y-72346429D01*
X148221427Y-72346429D01*
X148364285Y-72417857D01*
X148435713Y-72489286D01*
X148507142Y-72632143D01*
X148507142Y-73060714D01*
X148435713Y-73203571D01*
X148364285Y-73275000D01*
X148221427Y-73346429D01*
X147935713Y-73346429D01*
X147792856Y-73275000D01*
X146507142Y-72417857D02*
X146649999Y-72346429D01*
X146935713Y-72346429D01*
X147078570Y-72417857D01*
X147149999Y-72560714D01*
X147149999Y-73132143D01*
X147078570Y-73275000D01*
X146935713Y-73346429D01*
X146649999Y-73346429D01*
X146507142Y-73275000D01*
X146435713Y-73132143D01*
X146435713Y-72989286D01*
X147149999Y-72846429D01*
X133044285Y-72489286D02*
X133115714Y-72417857D01*
X133330000Y-72346429D01*
X133472857Y-72346429D01*
X133687142Y-72417857D01*
X133830000Y-72560714D01*
X133901428Y-72703571D01*
X133972857Y-72989286D01*
X133972857Y-73203571D01*
X133901428Y-73489286D01*
X133830000Y-73632143D01*
X133687142Y-73775000D01*
X133472857Y-73846429D01*
X133330000Y-73846429D01*
X133115714Y-73775000D01*
X133044285Y-73703571D01*
X132187142Y-72346429D02*
X132330000Y-72417857D01*
X132401428Y-72489286D01*
X132472857Y-72632143D01*
X132472857Y-73060714D01*
X132401428Y-73203571D01*
X132330000Y-73275000D01*
X132187142Y-73346429D01*
X131972857Y-73346429D01*
X131830000Y-73275000D01*
X131758571Y-73203571D01*
X131687142Y-73060714D01*
X131687142Y-72632143D01*
X131758571Y-72489286D01*
X131830000Y-72417857D01*
X131972857Y-72346429D01*
X132187142Y-72346429D01*
X131044285Y-72346429D02*
X131044285Y-73346429D01*
X131044285Y-73846429D02*
X131115714Y-73775000D01*
X131044285Y-73703571D01*
X130972857Y-73775000D01*
X131044285Y-73846429D01*
X131044285Y-73703571D01*
X130115713Y-72346429D02*
X130258571Y-72417857D01*
X130329999Y-72560714D01*
X130329999Y-73846429D01*
X169755715Y-130853571D02*
X169755715Y-129353571D01*
X170327143Y-129353571D01*
X170470001Y-129425000D01*
X170541429Y-129496429D01*
X170612858Y-129639286D01*
X170612858Y-129853571D01*
X170541429Y-129996429D01*
X170470001Y-130067857D01*
X170327143Y-130139286D01*
X169755715Y-130139286D01*
X171470001Y-130853571D02*
X171327143Y-130782143D01*
X171255715Y-130710714D01*
X171184286Y-130567857D01*
X171184286Y-130139286D01*
X171255715Y-129996429D01*
X171327143Y-129925000D01*
X171470001Y-129853571D01*
X171684286Y-129853571D01*
X171827143Y-129925000D01*
X171898572Y-129996429D01*
X171970001Y-130139286D01*
X171970001Y-130567857D01*
X171898572Y-130710714D01*
X171827143Y-130782143D01*
X171684286Y-130853571D01*
X171470001Y-130853571D01*
X172470001Y-129853571D02*
X172755715Y-130853571D01*
X173041429Y-130139286D01*
X173327144Y-130853571D01*
X173612858Y-129853571D01*
X174755715Y-130782143D02*
X174612858Y-130853571D01*
X174327144Y-130853571D01*
X174184287Y-130782143D01*
X174112858Y-130639286D01*
X174112858Y-130067857D01*
X174184287Y-129925000D01*
X174327144Y-129853571D01*
X174612858Y-129853571D01*
X174755715Y-129925000D01*
X174827144Y-130067857D01*
X174827144Y-130210714D01*
X174112858Y-130353571D01*
X175470001Y-130853571D02*
X175470001Y-129853571D01*
X175470001Y-130139286D02*
X175541429Y-129996429D01*
X175612858Y-129925000D01*
X175755715Y-129853571D01*
X175898572Y-129853571D01*
X139089286Y-130853571D02*
X139089286Y-129353571D01*
X139589286Y-130425000D01*
X140089286Y-129353571D01*
X140089286Y-130853571D01*
X141017858Y-130853571D02*
X140875000Y-130782143D01*
X140803572Y-130710714D01*
X140732143Y-130567857D01*
X140732143Y-130139286D01*
X140803572Y-129996429D01*
X140875000Y-129925000D01*
X141017858Y-129853571D01*
X141232143Y-129853571D01*
X141375000Y-129925000D01*
X141446429Y-129996429D01*
X141517858Y-130139286D01*
X141517858Y-130567857D01*
X141446429Y-130710714D01*
X141375000Y-130782143D01*
X141232143Y-130853571D01*
X141017858Y-130853571D01*
X142160715Y-129853571D02*
X142160715Y-130853571D01*
X142160715Y-129996429D02*
X142232143Y-129925000D01*
X142375001Y-129853571D01*
X142589286Y-129853571D01*
X142732143Y-129925000D01*
X142803572Y-130067857D01*
X142803572Y-130853571D01*
X143517858Y-130853571D02*
X143517858Y-129853571D01*
X143517858Y-129353571D02*
X143446429Y-129425000D01*
X143517858Y-129496429D01*
X143589286Y-129425000D01*
X143517858Y-129353571D01*
X143517858Y-129496429D01*
X144017858Y-129853571D02*
X144589287Y-129853571D01*
X144232144Y-129353571D02*
X144232144Y-130639286D01*
X144303572Y-130782143D01*
X144446430Y-130853571D01*
X144589287Y-130853571D01*
X145303573Y-130853571D02*
X145160715Y-130782143D01*
X145089287Y-130710714D01*
X145017858Y-130567857D01*
X145017858Y-130139286D01*
X145089287Y-129996429D01*
X145160715Y-129925000D01*
X145303573Y-129853571D01*
X145517858Y-129853571D01*
X145660715Y-129925000D01*
X145732144Y-129996429D01*
X145803573Y-130139286D01*
X145803573Y-130567857D01*
X145732144Y-130710714D01*
X145660715Y-130782143D01*
X145517858Y-130853571D01*
X145303573Y-130853571D01*
X146446430Y-130853571D02*
X146446430Y-129853571D01*
X146446430Y-130139286D02*
X146517858Y-129996429D01*
X146589287Y-129925000D01*
X146732144Y-129853571D01*
X146875001Y-129853571D01*
X115475000Y-109192143D02*
X115689286Y-109263571D01*
X116046429Y-109263571D01*
X116189286Y-109192143D01*
X116260715Y-109120714D01*
X116332143Y-108977857D01*
X116332143Y-108835000D01*
X116260715Y-108692143D01*
X116189286Y-108620714D01*
X116046429Y-108549286D01*
X115760715Y-108477857D01*
X115617857Y-108406429D01*
X115546429Y-108335000D01*
X115475000Y-108192143D01*
X115475000Y-108049286D01*
X115546429Y-107906429D01*
X115617857Y-107835000D01*
X115760715Y-107763571D01*
X116117857Y-107763571D01*
X116332143Y-107835000D01*
X118046428Y-107692143D02*
X116760714Y-109620714D01*
X118546429Y-109263571D02*
X118546429Y-107763571D01*
X119403572Y-109263571D01*
X119403572Y-107763571D01*
D14*
X117475000Y-114300000D02*
X133985000Y-114300000D01*
D11*
X187520000Y-114894000D02*
X187520000Y-109896000D01*
X187380000Y-114886000D02*
X187380000Y-112549000D01*
X187380000Y-112241000D02*
X187380000Y-109904000D01*
X187240000Y-114870000D02*
X187240000Y-112868000D01*
X187240000Y-111922000D02*
X187240000Y-109920000D01*
X187100000Y-114846000D02*
X187100000Y-113015000D01*
X187100000Y-111775000D02*
X187100000Y-109944000D01*
X186960000Y-114813000D02*
X186960000Y-113107000D01*
X186960000Y-111683000D02*
X186960000Y-109977000D01*
X186820000Y-114772000D02*
X186820000Y-113163000D01*
X186820000Y-111627000D02*
X186820000Y-110018000D01*
X186680000Y-114722000D02*
X186680000Y-113190000D01*
X186680000Y-111600000D02*
X186680000Y-110068000D01*
X186540000Y-114661000D02*
X186540000Y-113193000D01*
X186540000Y-111597000D02*
X186540000Y-110129000D01*
X186400000Y-114591000D02*
X186400000Y-113171000D01*
X186400000Y-111619000D02*
X186400000Y-110199000D01*
X186260000Y-114509000D02*
X186260000Y-113121000D01*
X186260000Y-111669000D02*
X186260000Y-110281000D01*
X186120000Y-114414000D02*
X186120000Y-113039000D01*
X186120000Y-111751000D02*
X186120000Y-110376000D01*
X185980000Y-114303000D02*
X185980000Y-112907000D01*
X185980000Y-111883000D02*
X185980000Y-110487000D01*
X185840000Y-114175000D02*
X185840000Y-112660000D01*
X185840000Y-112130000D02*
X185840000Y-110615000D01*
X185700000Y-114026000D02*
X185700000Y-110764000D01*
X185560000Y-113847000D02*
X185560000Y-110943000D01*
X185420000Y-113628000D02*
X185420000Y-111162000D01*
X185280000Y-113339000D02*
X185280000Y-111451000D01*
X185140000Y-112867000D02*
X185140000Y-111923000D01*
X187395000Y-112395000D02*
G75*
G03X187395000Y-112395000I-800000J0D01*
G01*
X190132500Y-112395000D02*
G75*
G03X190132500Y-112395000I-2537500J0D01*
G01*
X187670000Y-116246000D02*
X187670000Y-121244000D01*
X187810000Y-116254000D02*
X187810000Y-118591000D01*
X187810000Y-118899000D02*
X187810000Y-121236000D01*
X187950000Y-116270000D02*
X187950000Y-118272000D01*
X187950000Y-119218000D02*
X187950000Y-121220000D01*
X188090000Y-116294000D02*
X188090000Y-118125000D01*
X188090000Y-119365000D02*
X188090000Y-121196000D01*
X188230000Y-116327000D02*
X188230000Y-118033000D01*
X188230000Y-119457000D02*
X188230000Y-121163000D01*
X188370000Y-116368000D02*
X188370000Y-117977000D01*
X188370000Y-119513000D02*
X188370000Y-121122000D01*
X188510000Y-116418000D02*
X188510000Y-117950000D01*
X188510000Y-119540000D02*
X188510000Y-121072000D01*
X188650000Y-116479000D02*
X188650000Y-117947000D01*
X188650000Y-119543000D02*
X188650000Y-121011000D01*
X188790000Y-116549000D02*
X188790000Y-117969000D01*
X188790000Y-119521000D02*
X188790000Y-120941000D01*
X188930000Y-116631000D02*
X188930000Y-118019000D01*
X188930000Y-119471000D02*
X188930000Y-120859000D01*
X189070000Y-116726000D02*
X189070000Y-118101000D01*
X189070000Y-119389000D02*
X189070000Y-120764000D01*
X189210000Y-116837000D02*
X189210000Y-118233000D01*
X189210000Y-119257000D02*
X189210000Y-120653000D01*
X189350000Y-116965000D02*
X189350000Y-118480000D01*
X189350000Y-119010000D02*
X189350000Y-120525000D01*
X189490000Y-117114000D02*
X189490000Y-120376000D01*
X189630000Y-117293000D02*
X189630000Y-120197000D01*
X189770000Y-117512000D02*
X189770000Y-119978000D01*
X189910000Y-117801000D02*
X189910000Y-119689000D01*
X190050000Y-118273000D02*
X190050000Y-119217000D01*
X189395000Y-118745000D02*
G75*
G03X189395000Y-118745000I-800000J0D01*
G01*
X190132500Y-118745000D02*
G75*
G03X190132500Y-118745000I-2537500J0D01*
G01*
X167025000Y-96095000D02*
X167025000Y-93095000D01*
X169525000Y-93095000D02*
X169525000Y-96095000D01*
X174605000Y-107105000D02*
X174605000Y-110105000D01*
X172105000Y-110105000D02*
X172105000Y-107105000D01*
X132735000Y-96135000D02*
X132735000Y-93135000D01*
X135235000Y-93135000D02*
X135235000Y-96135000D01*
X140315000Y-107065000D02*
X140315000Y-110065000D01*
X137815000Y-110065000D02*
X137815000Y-107065000D01*
X156210000Y-92075000D02*
X153670000Y-92075000D01*
X159030000Y-92355000D02*
X157480000Y-92355000D01*
X156210000Y-92075000D02*
X156210000Y-89535000D01*
X157480000Y-89255000D02*
X159030000Y-89255000D01*
X159030000Y-89255000D02*
X159030000Y-92355000D01*
X156210000Y-89535000D02*
X153670000Y-89535000D01*
X153670000Y-89535000D02*
X153670000Y-92075000D01*
X147320000Y-89535000D02*
X149860000Y-89535000D01*
X144500000Y-89255000D02*
X146050000Y-89255000D01*
X147320000Y-89535000D02*
X147320000Y-92075000D01*
X146050000Y-92355000D02*
X144500000Y-92355000D01*
X144500000Y-92355000D02*
X144500000Y-89255000D01*
X147320000Y-92075000D02*
X149860000Y-92075000D01*
X149860000Y-92075000D02*
X149860000Y-89535000D01*
X179720000Y-123925000D02*
G75*
G03X179720000Y-123925000I-2000000J0D01*
G01*
X175220000Y-127925000D02*
X175220000Y-128425000D01*
X170220000Y-127925000D02*
X170220000Y-128425000D01*
X174720000Y-123925000D02*
G75*
G03X174720000Y-123925000I-2000000J0D01*
G01*
X169720000Y-123925000D02*
G75*
G03X169720000Y-123925000I-2000000J0D01*
G01*
X165220000Y-126425000D02*
X180220000Y-126425000D01*
X165220000Y-121525000D02*
X180220000Y-121525000D01*
X165220000Y-127925000D02*
X180220000Y-127925000D01*
X165220000Y-128425000D02*
X180220000Y-128425000D01*
X180220000Y-128425000D02*
X180220000Y-118625000D01*
X180220000Y-118625000D02*
X165220000Y-118625000D01*
X165220000Y-118625000D02*
X165220000Y-128425000D01*
X172760000Y-75275000D02*
X172760000Y-74775000D01*
X172260000Y-79275000D02*
G75*
G03X172260000Y-79275000I-2000000J0D01*
G01*
X177260000Y-79275000D02*
G75*
G03X177260000Y-79275000I-2000000J0D01*
G01*
X177760000Y-76775000D02*
X167760000Y-76775000D01*
X177760000Y-81675000D02*
X167760000Y-81675000D01*
X177760000Y-75275000D02*
X167760000Y-75275000D01*
X177760000Y-74775000D02*
X167760000Y-74775000D01*
X167760000Y-74775000D02*
X167760000Y-84575000D01*
X167760000Y-84575000D02*
X177760000Y-84575000D01*
X177760000Y-84575000D02*
X177760000Y-74775000D01*
X152440000Y-75275000D02*
X152440000Y-74775000D01*
X151940000Y-79275000D02*
G75*
G03X151940000Y-79275000I-2000000J0D01*
G01*
X156940000Y-79275000D02*
G75*
G03X156940000Y-79275000I-2000000J0D01*
G01*
X157440000Y-76775000D02*
X147440000Y-76775000D01*
X157440000Y-81675000D02*
X147440000Y-81675000D01*
X157440000Y-75275000D02*
X147440000Y-75275000D01*
X157440000Y-74775000D02*
X147440000Y-74775000D01*
X147440000Y-74775000D02*
X147440000Y-84575000D01*
X147440000Y-84575000D02*
X157440000Y-84575000D01*
X157440000Y-84575000D02*
X157440000Y-74775000D01*
X142835000Y-127925000D02*
X142835000Y-128425000D01*
X147335000Y-123925000D02*
G75*
G03X147335000Y-123925000I-2000000J0D01*
G01*
X142335000Y-123925000D02*
G75*
G03X142335000Y-123925000I-2000000J0D01*
G01*
X137835000Y-126425000D02*
X147835000Y-126425000D01*
X137835000Y-121525000D02*
X147835000Y-121525000D01*
X137835000Y-127925000D02*
X147835000Y-127925000D01*
X137835000Y-128425000D02*
X147835000Y-128425000D01*
X147835000Y-128425000D02*
X147835000Y-118625000D01*
X147835000Y-118625000D02*
X137835000Y-118625000D01*
X137835000Y-118625000D02*
X137835000Y-128425000D01*
X132040000Y-75275000D02*
X132040000Y-74775000D01*
X131540000Y-79275000D02*
G75*
G03X131540000Y-79275000I-2000000J0D01*
G01*
X136540000Y-79275000D02*
G75*
G03X136540000Y-79275000I-2000000J0D01*
G01*
X137040000Y-76775000D02*
X127040000Y-76775000D01*
X137040000Y-81675000D02*
X127040000Y-81675000D01*
X137040000Y-75275000D02*
X127040000Y-75275000D01*
X137040000Y-74775000D02*
X127040000Y-74775000D01*
X127040000Y-74775000D02*
X127040000Y-84575000D01*
X127040000Y-84575000D02*
X137040000Y-84575000D01*
X137040000Y-84575000D02*
X137040000Y-74775000D01*
X181610000Y-104140000D02*
X181610000Y-99060000D01*
X181610000Y-99060000D02*
X184150000Y-99060000D01*
X184150000Y-99060000D02*
X184150000Y-104140000D01*
X184150000Y-104140000D02*
X181610000Y-104140000D01*
X182880000Y-104140000D02*
X182880000Y-105410000D01*
X182880000Y-99060000D02*
X182880000Y-97790000D01*
X185420000Y-104140000D02*
X185420000Y-99060000D01*
X185420000Y-99060000D02*
X187960000Y-99060000D01*
X187960000Y-99060000D02*
X187960000Y-104140000D01*
X187960000Y-104140000D02*
X185420000Y-104140000D01*
X186690000Y-104140000D02*
X186690000Y-105410000D01*
X186690000Y-99060000D02*
X186690000Y-97790000D01*
X165735000Y-115570000D02*
X160655000Y-115570000D01*
X160655000Y-115570000D02*
X160655000Y-113030000D01*
X160655000Y-113030000D02*
X165735000Y-113030000D01*
X165735000Y-113030000D02*
X165735000Y-115570000D01*
X165735000Y-114300000D02*
X167005000Y-114300000D01*
X160655000Y-114300000D02*
X159385000Y-114300000D01*
X165735000Y-111760000D02*
X160655000Y-111760000D01*
X160655000Y-111760000D02*
X160655000Y-109220000D01*
X160655000Y-109220000D02*
X165735000Y-109220000D01*
X165735000Y-109220000D02*
X165735000Y-111760000D01*
X165735000Y-110490000D02*
X167005000Y-110490000D01*
X160655000Y-110490000D02*
X159385000Y-110490000D01*
X159385000Y-99060000D02*
X159385000Y-104140000D01*
X159385000Y-104140000D02*
X156845000Y-104140000D01*
X156845000Y-104140000D02*
X156845000Y-99060000D01*
X156845000Y-99060000D02*
X159385000Y-99060000D01*
X158115000Y-99060000D02*
X158115000Y-97790000D01*
X158115000Y-104140000D02*
X158115000Y-105410000D01*
X144145000Y-104140000D02*
X144145000Y-99060000D01*
X144145000Y-99060000D02*
X146685000Y-99060000D01*
X146685000Y-99060000D02*
X146685000Y-104140000D01*
X146685000Y-104140000D02*
X144145000Y-104140000D01*
X145415000Y-104140000D02*
X145415000Y-105410000D01*
X145415000Y-99060000D02*
X145415000Y-97790000D01*
X147955000Y-104140000D02*
X147955000Y-99060000D01*
X147955000Y-99060000D02*
X150495000Y-99060000D01*
X150495000Y-99060000D02*
X150495000Y-104140000D01*
X150495000Y-104140000D02*
X147955000Y-104140000D01*
X149225000Y-104140000D02*
X149225000Y-105410000D01*
X149225000Y-99060000D02*
X149225000Y-97790000D01*
X146050000Y-109220000D02*
X151130000Y-109220000D01*
X151130000Y-109220000D02*
X151130000Y-111760000D01*
X151130000Y-111760000D02*
X146050000Y-111760000D01*
X146050000Y-111760000D02*
X146050000Y-109220000D01*
X146050000Y-110490000D02*
X144780000Y-110490000D01*
X151130000Y-110490000D02*
X152400000Y-110490000D01*
X125095000Y-99060000D02*
X125095000Y-104140000D01*
X125095000Y-104140000D02*
X122555000Y-104140000D01*
X122555000Y-104140000D02*
X122555000Y-99060000D01*
X122555000Y-99060000D02*
X125095000Y-99060000D01*
X123825000Y-99060000D02*
X123825000Y-97790000D01*
X123825000Y-104140000D02*
X123825000Y-105410000D01*
X126365000Y-90170000D02*
X121285000Y-90170000D01*
X121285000Y-90170000D02*
X121285000Y-87630000D01*
X121285000Y-87630000D02*
X126365000Y-87630000D01*
X126365000Y-87630000D02*
X126365000Y-90170000D01*
X126365000Y-88900000D02*
X127635000Y-88900000D01*
X121285000Y-88900000D02*
X120015000Y-88900000D01*
X155702000Y-119634000D02*
X154432000Y-119634000D01*
X154952700Y-120421400D02*
X155206700Y-120383300D01*
X155206700Y-120383300D02*
X155486100Y-120205500D01*
X155486100Y-120205500D02*
X155702000Y-119888000D01*
X155702000Y-119888000D02*
X155714700Y-119443500D01*
X155714700Y-119443500D02*
X155511500Y-119087900D01*
X155511500Y-119087900D02*
X155219400Y-118910100D01*
X155219400Y-118910100D02*
X154901900Y-118859300D01*
X154901900Y-118859300D02*
X154495500Y-118960900D01*
X154495500Y-118960900D02*
X154241500Y-119303800D01*
X154241500Y-119303800D02*
X154152600Y-119481600D01*
X151892000Y-128016000D02*
X151892000Y-118364000D01*
X154940000Y-118364000D02*
X156210000Y-118364000D01*
X156210000Y-118364000D02*
X156210000Y-128016000D01*
X156210000Y-128016000D02*
X151130000Y-128016000D01*
X151130000Y-118364000D02*
X153670000Y-118364000D01*
X153670000Y-118364000D02*
X154940000Y-118364000D01*
X163440000Y-105275000D02*
X164710000Y-105275000D01*
X163440000Y-97925000D02*
X164710000Y-97925000D01*
X175650000Y-97925000D02*
X174380000Y-97925000D01*
X175650000Y-105275000D02*
X174380000Y-105275000D01*
X163440000Y-105275000D02*
X163440000Y-97925000D01*
X175650000Y-105275000D02*
X175650000Y-97925000D01*
X164710000Y-105275000D02*
X164710000Y-106210000D01*
X129150000Y-105275000D02*
X130420000Y-105275000D01*
X129150000Y-97925000D02*
X130420000Y-97925000D01*
X141360000Y-97925000D02*
X140090000Y-97925000D01*
X141360000Y-105275000D02*
X140090000Y-105275000D01*
X129150000Y-105275000D02*
X129150000Y-97925000D01*
X141360000Y-105275000D02*
X141360000Y-97925000D01*
X130420000Y-105275000D02*
X130420000Y-106210000D01*
D15*
G36*
X181004909Y-90539560D02*
X181057412Y-90565499D01*
X181122158Y-90610700D01*
X181169347Y-90659991D01*
X181201665Y-90721885D01*
X181221797Y-90804896D01*
X181232430Y-90917538D01*
X181236247Y-91068324D01*
X181236470Y-91133149D01*
X181235818Y-91275221D01*
X181233112Y-91376757D01*
X181227224Y-91447015D01*
X181217027Y-91495256D01*
X181201394Y-91530738D01*
X181185128Y-91554943D01*
X181081295Y-91657929D01*
X180959021Y-91719874D01*
X180827114Y-91738506D01*
X180694384Y-91711549D01*
X180652333Y-91692486D01*
X180551666Y-91640015D01*
X180551666Y-92462259D01*
X180625135Y-92424267D01*
X180721941Y-92394872D01*
X180840928Y-92387342D01*
X180959745Y-92401245D01*
X181049473Y-92432476D01*
X181123899Y-92491954D01*
X181187490Y-92577066D01*
X181192271Y-92585805D01*
X181212437Y-92626966D01*
X181227165Y-92668454D01*
X181237303Y-92718713D01*
X181243699Y-92786184D01*
X181247201Y-92879309D01*
X181248658Y-93006531D01*
X181248921Y-93149701D01*
X181248921Y-93606471D01*
X180975000Y-93606471D01*
X180975000Y-92764231D01*
X180898383Y-92699763D01*
X180818793Y-92648194D01*
X180743422Y-92638818D01*
X180667633Y-92662947D01*
X180627241Y-92686574D01*
X180597179Y-92720227D01*
X180575797Y-92771087D01*
X180561450Y-92846334D01*
X180552490Y-92953146D01*
X180547270Y-93098704D01*
X180545431Y-93195588D01*
X180539215Y-93594020D01*
X180408480Y-93601547D01*
X180277745Y-93609073D01*
X180277745Y-91136582D01*
X180551666Y-91136582D01*
X180558650Y-91274423D01*
X180582182Y-91370107D01*
X180626135Y-91429641D01*
X180694382Y-91459029D01*
X180763333Y-91464902D01*
X180841386Y-91458154D01*
X180893189Y-91431594D01*
X180925583Y-91396499D01*
X180951084Y-91358752D01*
X180966265Y-91316700D01*
X180973019Y-91257779D01*
X180973241Y-91169428D01*
X180970968Y-91095448D01*
X180965749Y-90984000D01*
X180957979Y-90910833D01*
X180944895Y-90864422D01*
X180923732Y-90833244D01*
X180903760Y-90815223D01*
X180820314Y-90775925D01*
X180721551Y-90769579D01*
X180664841Y-90783116D01*
X180608692Y-90831233D01*
X180571499Y-90924833D01*
X180553472Y-91063254D01*
X180551666Y-91136582D01*
X180277745Y-91136582D01*
X180277745Y-90518628D01*
X180414705Y-90518628D01*
X180496935Y-90521879D01*
X180539360Y-90533426D01*
X180551661Y-90555952D01*
X180551666Y-90556620D01*
X180557374Y-90578681D01*
X180582547Y-90576176D01*
X180632598Y-90551935D01*
X180749219Y-90514851D01*
X180880429Y-90510953D01*
X181004909Y-90539560D01*
X181004909Y-90539560D01*
G37*
X181004909Y-90539560D02*
X181057412Y-90565499D01*
X181122158Y-90610700D01*
X181169347Y-90659991D01*
X181201665Y-90721885D01*
X181221797Y-90804896D01*
X181232430Y-90917538D01*
X181236247Y-91068324D01*
X181236470Y-91133149D01*
X181235818Y-91275221D01*
X181233112Y-91376757D01*
X181227224Y-91447015D01*
X181217027Y-91495256D01*
X181201394Y-91530738D01*
X181185128Y-91554943D01*
X181081295Y-91657929D01*
X180959021Y-91719874D01*
X180827114Y-91738506D01*
X180694384Y-91711549D01*
X180652333Y-91692486D01*
X180551666Y-91640015D01*
X180551666Y-92462259D01*
X180625135Y-92424267D01*
X180721941Y-92394872D01*
X180840928Y-92387342D01*
X180959745Y-92401245D01*
X181049473Y-92432476D01*
X181123899Y-92491954D01*
X181187490Y-92577066D01*
X181192271Y-92585805D01*
X181212437Y-92626966D01*
X181227165Y-92668454D01*
X181237303Y-92718713D01*
X181243699Y-92786184D01*
X181247201Y-92879309D01*
X181248658Y-93006531D01*
X181248921Y-93149701D01*
X181248921Y-93606471D01*
X180975000Y-93606471D01*
X180975000Y-92764231D01*
X180898383Y-92699763D01*
X180818793Y-92648194D01*
X180743422Y-92638818D01*
X180667633Y-92662947D01*
X180627241Y-92686574D01*
X180597179Y-92720227D01*
X180575797Y-92771087D01*
X180561450Y-92846334D01*
X180552490Y-92953146D01*
X180547270Y-93098704D01*
X180545431Y-93195588D01*
X180539215Y-93594020D01*
X180408480Y-93601547D01*
X180277745Y-93609073D01*
X180277745Y-91136582D01*
X180551666Y-91136582D01*
X180558650Y-91274423D01*
X180582182Y-91370107D01*
X180626135Y-91429641D01*
X180694382Y-91459029D01*
X180763333Y-91464902D01*
X180841386Y-91458154D01*
X180893189Y-91431594D01*
X180925583Y-91396499D01*
X180951084Y-91358752D01*
X180966265Y-91316700D01*
X180973019Y-91257779D01*
X180973241Y-91169428D01*
X180970968Y-91095448D01*
X180965749Y-90984000D01*
X180957979Y-90910833D01*
X180944895Y-90864422D01*
X180923732Y-90833244D01*
X180903760Y-90815223D01*
X180820314Y-90775925D01*
X180721551Y-90769579D01*
X180664841Y-90783116D01*
X180608692Y-90831233D01*
X180571499Y-90924833D01*
X180553472Y-91063254D01*
X180551666Y-91136582D01*
X180277745Y-91136582D01*
X180277745Y-90518628D01*
X180414705Y-90518628D01*
X180496935Y-90521879D01*
X180539360Y-90533426D01*
X180551661Y-90555952D01*
X180551666Y-90556620D01*
X180557374Y-90578681D01*
X180582547Y-90576176D01*
X180632598Y-90551935D01*
X180749219Y-90514851D01*
X180880429Y-90510953D01*
X181004909Y-90539560D01*
G36*
X182043720Y-92395922D02*
X182160870Y-92427180D01*
X182250051Y-92483837D01*
X182312984Y-92558045D01*
X182332548Y-92589716D01*
X182346992Y-92622891D01*
X182357089Y-92665329D01*
X182363615Y-92724788D01*
X182367342Y-92809029D01*
X182369046Y-92925810D01*
X182369500Y-93082890D01*
X182369509Y-93124565D01*
X182369509Y-93606471D01*
X182249980Y-93606471D01*
X182173739Y-93601131D01*
X182117366Y-93587604D01*
X182103242Y-93579262D01*
X182064630Y-93564864D01*
X182025192Y-93579262D01*
X181960262Y-93597237D01*
X181865945Y-93604472D01*
X181761407Y-93601333D01*
X181665811Y-93588186D01*
X181610000Y-93571318D01*
X181501998Y-93501986D01*
X181434503Y-93405772D01*
X181404159Y-93277844D01*
X181403877Y-93274559D01*
X181406540Y-93217808D01*
X181647353Y-93217808D01*
X181668405Y-93282358D01*
X181702697Y-93318686D01*
X181771532Y-93346162D01*
X181862390Y-93357129D01*
X181955042Y-93351731D01*
X182029256Y-93330110D01*
X182050049Y-93316239D01*
X182086381Y-93252143D01*
X182095588Y-93179278D01*
X182095588Y-93083530D01*
X181957827Y-93083530D01*
X181826953Y-93093605D01*
X181727741Y-93122148D01*
X181666023Y-93166639D01*
X181647353Y-93217808D01*
X181406540Y-93217808D01*
X181410436Y-93134790D01*
X181456534Y-93024282D01*
X181543200Y-92940712D01*
X181555179Y-92933110D01*
X181606655Y-92908357D01*
X181670368Y-92893368D01*
X181759435Y-92886082D01*
X181865245Y-92884407D01*
X182095588Y-92884314D01*
X182095588Y-92787755D01*
X182085817Y-92712836D01*
X182060884Y-92662644D01*
X182057965Y-92659972D01*
X182002481Y-92638015D01*
X181918727Y-92629505D01*
X181826167Y-92633687D01*
X181744270Y-92649809D01*
X181695673Y-92673990D01*
X181669341Y-92693359D01*
X181641535Y-92697057D01*
X181603161Y-92681188D01*
X181545125Y-92641855D01*
X181458331Y-92575164D01*
X181450365Y-92568916D01*
X181454447Y-92545800D01*
X181488501Y-92507352D01*
X181540260Y-92464627D01*
X181597455Y-92428679D01*
X181615425Y-92420191D01*
X181680972Y-92403252D01*
X181777020Y-92391170D01*
X181884329Y-92386323D01*
X181889347Y-92386313D01*
X182043720Y-92395922D01*
X182043720Y-92395922D01*
G37*
X182043720Y-92395922D02*
X182160870Y-92427180D01*
X182250051Y-92483837D01*
X182312984Y-92558045D01*
X182332548Y-92589716D01*
X182346992Y-92622891D01*
X182357089Y-92665329D01*
X182363615Y-92724788D01*
X182367342Y-92809029D01*
X182369046Y-92925810D01*
X182369500Y-93082890D01*
X182369509Y-93124565D01*
X182369509Y-93606471D01*
X182249980Y-93606471D01*
X182173739Y-93601131D01*
X182117366Y-93587604D01*
X182103242Y-93579262D01*
X182064630Y-93564864D01*
X182025192Y-93579262D01*
X181960262Y-93597237D01*
X181865945Y-93604472D01*
X181761407Y-93601333D01*
X181665811Y-93588186D01*
X181610000Y-93571318D01*
X181501998Y-93501986D01*
X181434503Y-93405772D01*
X181404159Y-93277844D01*
X181403877Y-93274559D01*
X181406540Y-93217808D01*
X181647353Y-93217808D01*
X181668405Y-93282358D01*
X181702697Y-93318686D01*
X181771532Y-93346162D01*
X181862390Y-93357129D01*
X181955042Y-93351731D01*
X182029256Y-93330110D01*
X182050049Y-93316239D01*
X182086381Y-93252143D01*
X182095588Y-93179278D01*
X182095588Y-93083530D01*
X181957827Y-93083530D01*
X181826953Y-93093605D01*
X181727741Y-93122148D01*
X181666023Y-93166639D01*
X181647353Y-93217808D01*
X181406540Y-93217808D01*
X181410436Y-93134790D01*
X181456534Y-93024282D01*
X181543200Y-92940712D01*
X181555179Y-92933110D01*
X181606655Y-92908357D01*
X181670368Y-92893368D01*
X181759435Y-92886082D01*
X181865245Y-92884407D01*
X182095588Y-92884314D01*
X182095588Y-92787755D01*
X182085817Y-92712836D01*
X182060884Y-92662644D01*
X182057965Y-92659972D01*
X182002481Y-92638015D01*
X181918727Y-92629505D01*
X181826167Y-92633687D01*
X181744270Y-92649809D01*
X181695673Y-92673990D01*
X181669341Y-92693359D01*
X181641535Y-92697057D01*
X181603161Y-92681188D01*
X181545125Y-92641855D01*
X181458331Y-92575164D01*
X181450365Y-92568916D01*
X181454447Y-92545800D01*
X181488501Y-92507352D01*
X181540260Y-92464627D01*
X181597455Y-92428679D01*
X181615425Y-92420191D01*
X181680972Y-92403252D01*
X181777020Y-92391170D01*
X181884329Y-92386323D01*
X181889347Y-92386313D01*
X182043720Y-92395922D01*
G36*
X182817764Y-92388921D02*
X182855030Y-92400091D01*
X182867043Y-92424633D01*
X182867549Y-92435712D01*
X182869704Y-92466572D01*
X182884551Y-92471417D01*
X182924657Y-92450260D01*
X182948480Y-92435806D01*
X183023638Y-92404850D01*
X183113406Y-92389544D01*
X183207529Y-92388367D01*
X183295754Y-92399799D01*
X183367826Y-92422320D01*
X183413492Y-92454409D01*
X183422498Y-92494545D01*
X183417953Y-92505415D01*
X183384821Y-92550534D01*
X183333445Y-92606026D01*
X183324152Y-92614996D01*
X183275182Y-92656245D01*
X183232931Y-92669572D01*
X183173841Y-92660271D01*
X183150169Y-92654090D01*
X183076504Y-92639246D01*
X183024710Y-92645921D01*
X182980969Y-92669465D01*
X182940902Y-92701061D01*
X182911392Y-92740798D01*
X182890884Y-92796252D01*
X182877824Y-92875003D01*
X182870656Y-92984629D01*
X182867824Y-93132706D01*
X182867549Y-93222111D01*
X182867549Y-93606471D01*
X182618529Y-93606471D01*
X182618529Y-92386275D01*
X182743039Y-92386275D01*
X182817764Y-92388921D01*
X182817764Y-92388921D01*
G37*
X182817764Y-92388921D02*
X182855030Y-92400091D01*
X182867043Y-92424633D01*
X182867549Y-92435712D01*
X182869704Y-92466572D01*
X182884551Y-92471417D01*
X182924657Y-92450260D01*
X182948480Y-92435806D01*
X183023638Y-92404850D01*
X183113406Y-92389544D01*
X183207529Y-92388367D01*
X183295754Y-92399799D01*
X183367826Y-92422320D01*
X183413492Y-92454409D01*
X183422498Y-92494545D01*
X183417953Y-92505415D01*
X183384821Y-92550534D01*
X183333445Y-92606026D01*
X183324152Y-92614996D01*
X183275182Y-92656245D01*
X183232931Y-92669572D01*
X183173841Y-92660271D01*
X183150169Y-92654090D01*
X183076504Y-92639246D01*
X183024710Y-92645921D01*
X182980969Y-92669465D01*
X182940902Y-92701061D01*
X182911392Y-92740798D01*
X182890884Y-92796252D01*
X182877824Y-92875003D01*
X182870656Y-92984629D01*
X182867824Y-93132706D01*
X182867549Y-93222111D01*
X182867549Y-93606471D01*
X182618529Y-93606471D01*
X182618529Y-92386275D01*
X182743039Y-92386275D01*
X182817764Y-92388921D01*
G36*
X184386568Y-93606471D02*
X184249607Y-93606471D01*
X184170111Y-93604140D01*
X184128708Y-93594488D01*
X184113801Y-93573525D01*
X184112647Y-93559351D01*
X184110133Y-93530927D01*
X184094280Y-93525475D01*
X184052621Y-93542998D01*
X184020224Y-93559351D01*
X183895849Y-93598103D01*
X183760646Y-93600346D01*
X183650726Y-93571444D01*
X183548366Y-93501619D01*
X183470340Y-93398555D01*
X183427614Y-93276989D01*
X183426526Y-93270192D01*
X183420178Y-93196032D01*
X183417021Y-93089570D01*
X183417275Y-93009052D01*
X183689289Y-93009052D01*
X183695590Y-93116070D01*
X183709925Y-93204278D01*
X183729331Y-93254090D01*
X183802746Y-93322162D01*
X183889914Y-93346564D01*
X183979804Y-93326831D01*
X184056617Y-93267968D01*
X184085708Y-93228379D01*
X184102717Y-93181138D01*
X184110684Y-93112181D01*
X184112647Y-93008607D01*
X184109134Y-92906039D01*
X184099857Y-92815921D01*
X184086706Y-92755613D01*
X184084514Y-92750208D01*
X184031478Y-92685940D01*
X183954067Y-92650656D01*
X183867454Y-92644959D01*
X183786807Y-92669453D01*
X183727297Y-92724742D01*
X183721124Y-92735743D01*
X183701801Y-92802827D01*
X183691274Y-92899284D01*
X183689289Y-93009052D01*
X183417275Y-93009052D01*
X183417404Y-92968225D01*
X183419194Y-92902918D01*
X183431373Y-92741355D01*
X183456685Y-92620053D01*
X183498793Y-92530379D01*
X183561359Y-92463699D01*
X183622100Y-92424557D01*
X183706964Y-92397040D01*
X183812515Y-92387603D01*
X183920598Y-92395290D01*
X184013058Y-92419146D01*
X184061910Y-92447685D01*
X184112647Y-92493601D01*
X184112647Y-91913137D01*
X184386568Y-91913137D01*
X184386568Y-93606471D01*
X184386568Y-93606471D01*
G37*
X184386568Y-93606471D02*
X184249607Y-93606471D01*
X184170111Y-93604140D01*
X184128708Y-93594488D01*
X184113801Y-93573525D01*
X184112647Y-93559351D01*
X184110133Y-93530927D01*
X184094280Y-93525475D01*
X184052621Y-93542998D01*
X184020224Y-93559351D01*
X183895849Y-93598103D01*
X183760646Y-93600346D01*
X183650726Y-93571444D01*
X183548366Y-93501619D01*
X183470340Y-93398555D01*
X183427614Y-93276989D01*
X183426526Y-93270192D01*
X183420178Y-93196032D01*
X183417021Y-93089570D01*
X183417275Y-93009052D01*
X183689289Y-93009052D01*
X183695590Y-93116070D01*
X183709925Y-93204278D01*
X183729331Y-93254090D01*
X183802746Y-93322162D01*
X183889914Y-93346564D01*
X183979804Y-93326831D01*
X184056617Y-93267968D01*
X184085708Y-93228379D01*
X184102717Y-93181138D01*
X184110684Y-93112181D01*
X184112647Y-93008607D01*
X184109134Y-92906039D01*
X184099857Y-92815921D01*
X184086706Y-92755613D01*
X184084514Y-92750208D01*
X184031478Y-92685940D01*
X183954067Y-92650656D01*
X183867454Y-92644959D01*
X183786807Y-92669453D01*
X183727297Y-92724742D01*
X183721124Y-92735743D01*
X183701801Y-92802827D01*
X183691274Y-92899284D01*
X183689289Y-93009052D01*
X183417275Y-93009052D01*
X183417404Y-92968225D01*
X183419194Y-92902918D01*
X183431373Y-92741355D01*
X183456685Y-92620053D01*
X183498793Y-92530379D01*
X183561359Y-92463699D01*
X183622100Y-92424557D01*
X183706964Y-92397040D01*
X183812515Y-92387603D01*
X183920598Y-92395290D01*
X184013058Y-92419146D01*
X184061910Y-92447685D01*
X184112647Y-92493601D01*
X184112647Y-91913137D01*
X184386568Y-91913137D01*
X184386568Y-93606471D01*
G36*
X185342528Y-92391332D02*
X185441014Y-92398726D01*
X185569776Y-92784706D01*
X185698537Y-93170686D01*
X185738911Y-93033726D01*
X185763207Y-92949083D01*
X185795167Y-92834697D01*
X185829679Y-92708963D01*
X185847928Y-92641520D01*
X185916571Y-92386275D01*
X186199773Y-92386275D01*
X186115122Y-92653971D01*
X186073435Y-92785638D01*
X186023074Y-92944458D01*
X185970481Y-93110128D01*
X185923530Y-93257843D01*
X185816589Y-93594020D01*
X185585661Y-93609044D01*
X185523050Y-93402316D01*
X185484438Y-93273896D01*
X185442300Y-93132322D01*
X185405472Y-93007285D01*
X185404018Y-93002309D01*
X185376511Y-92917586D01*
X185352242Y-92859778D01*
X185335243Y-92837918D01*
X185331750Y-92840446D01*
X185319490Y-92874336D01*
X185296195Y-92946930D01*
X185264700Y-93049101D01*
X185227842Y-93171720D01*
X185207899Y-93239167D01*
X185099895Y-93606471D01*
X184870679Y-93606471D01*
X184687439Y-93027500D01*
X184635963Y-92865091D01*
X184589070Y-92717602D01*
X184548977Y-92591960D01*
X184517897Y-92495095D01*
X184498045Y-92433934D01*
X184492011Y-92416065D01*
X184496788Y-92397768D01*
X184534297Y-92389755D01*
X184612355Y-92390557D01*
X184624574Y-92391163D01*
X184769326Y-92398726D01*
X184864130Y-92747353D01*
X184898977Y-92874497D01*
X184930117Y-92986265D01*
X184954809Y-93072953D01*
X184970312Y-93124856D01*
X184973176Y-93133318D01*
X184985046Y-93123587D01*
X185008983Y-93073172D01*
X185042239Y-92988935D01*
X185082064Y-92877741D01*
X185115730Y-92777297D01*
X185244041Y-92383939D01*
X185342528Y-92391332D01*
X185342528Y-92391332D01*
G37*
X185342528Y-92391332D02*
X185441014Y-92398726D01*
X185569776Y-92784706D01*
X185698537Y-93170686D01*
X185738911Y-93033726D01*
X185763207Y-92949083D01*
X185795167Y-92834697D01*
X185829679Y-92708963D01*
X185847928Y-92641520D01*
X185916571Y-92386275D01*
X186199773Y-92386275D01*
X186115122Y-92653971D01*
X186073435Y-92785638D01*
X186023074Y-92944458D01*
X185970481Y-93110128D01*
X185923530Y-93257843D01*
X185816589Y-93594020D01*
X185585661Y-93609044D01*
X185523050Y-93402316D01*
X185484438Y-93273896D01*
X185442300Y-93132322D01*
X185405472Y-93007285D01*
X185404018Y-93002309D01*
X185376511Y-92917586D01*
X185352242Y-92859778D01*
X185335243Y-92837918D01*
X185331750Y-92840446D01*
X185319490Y-92874336D01*
X185296195Y-92946930D01*
X185264700Y-93049101D01*
X185227842Y-93171720D01*
X185207899Y-93239167D01*
X185099895Y-93606471D01*
X184870679Y-93606471D01*
X184687439Y-93027500D01*
X184635963Y-92865091D01*
X184589070Y-92717602D01*
X184548977Y-92591960D01*
X184517897Y-92495095D01*
X184498045Y-92433934D01*
X184492011Y-92416065D01*
X184496788Y-92397768D01*
X184534297Y-92389755D01*
X184612355Y-92390557D01*
X184624574Y-92391163D01*
X184769326Y-92398726D01*
X184864130Y-92747353D01*
X184898977Y-92874497D01*
X184930117Y-92986265D01*
X184954809Y-93072953D01*
X184970312Y-93124856D01*
X184973176Y-93133318D01*
X184985046Y-93123587D01*
X185008983Y-93073172D01*
X185042239Y-92988935D01*
X185082064Y-92877741D01*
X185115730Y-92777297D01*
X185244041Y-92383939D01*
X185342528Y-92391332D01*
G36*
X186841459Y-92393669D02*
X186946420Y-92419163D01*
X186976761Y-92432669D01*
X187035573Y-92468046D01*
X187080709Y-92507890D01*
X187114106Y-92559120D01*
X187137701Y-92628654D01*
X187153433Y-92723409D01*
X187163239Y-92850305D01*
X187169057Y-93016258D01*
X187171266Y-93127108D01*
X187179396Y-93606471D01*
X187040531Y-93606471D01*
X186956287Y-93602938D01*
X186912884Y-93590866D01*
X186901666Y-93570594D01*
X186895744Y-93548674D01*
X186869266Y-93552865D01*
X186833186Y-93570441D01*
X186742862Y-93597382D01*
X186626777Y-93604642D01*
X186504680Y-93592767D01*
X186396321Y-93562305D01*
X186386602Y-93558077D01*
X186287568Y-93488505D01*
X186222281Y-93391789D01*
X186192240Y-93278738D01*
X186194535Y-93238122D01*
X186439633Y-93238122D01*
X186461229Y-93292782D01*
X186525259Y-93331952D01*
X186628565Y-93352974D01*
X186683774Y-93355766D01*
X186775782Y-93348620D01*
X186836941Y-93320848D01*
X186851862Y-93307647D01*
X186892287Y-93235829D01*
X186901666Y-93170686D01*
X186901666Y-93083530D01*
X186780269Y-93083530D01*
X186639153Y-93090722D01*
X186540173Y-93113345D01*
X186477633Y-93152964D01*
X186463631Y-93170628D01*
X186439633Y-93238122D01*
X186194535Y-93238122D01*
X186198941Y-93160157D01*
X186243880Y-93046855D01*
X186305196Y-92970285D01*
X186342332Y-92937181D01*
X186378687Y-92915425D01*
X186425990Y-92902161D01*
X186495973Y-92894528D01*
X186600364Y-92889670D01*
X186641770Y-92888273D01*
X186901666Y-92879780D01*
X186901285Y-92801116D01*
X186891219Y-92718428D01*
X186854829Y-92668431D01*
X186781311Y-92636489D01*
X186779339Y-92635920D01*
X186675105Y-92623361D01*
X186573108Y-92639766D01*
X186497305Y-92679657D01*
X186466890Y-92699354D01*
X186434132Y-92696629D01*
X186383721Y-92668091D01*
X186354119Y-92647950D01*
X186296218Y-92604919D01*
X186260352Y-92572662D01*
X186254597Y-92563427D01*
X186278295Y-92515636D01*
X186348313Y-92458562D01*
X186378725Y-92439305D01*
X186466155Y-92406140D01*
X186583983Y-92387350D01*
X186714866Y-92383129D01*
X186841459Y-92393669D01*
X186841459Y-92393669D01*
G37*
X186841459Y-92393669D02*
X186946420Y-92419163D01*
X186976761Y-92432669D01*
X187035573Y-92468046D01*
X187080709Y-92507890D01*
X187114106Y-92559120D01*
X187137701Y-92628654D01*
X187153433Y-92723409D01*
X187163239Y-92850305D01*
X187169057Y-93016258D01*
X187171266Y-93127108D01*
X187179396Y-93606471D01*
X187040531Y-93606471D01*
X186956287Y-93602938D01*
X186912884Y-93590866D01*
X186901666Y-93570594D01*
X186895744Y-93548674D01*
X186869266Y-93552865D01*
X186833186Y-93570441D01*
X186742862Y-93597382D01*
X186626777Y-93604642D01*
X186504680Y-93592767D01*
X186396321Y-93562305D01*
X186386602Y-93558077D01*
X186287568Y-93488505D01*
X186222281Y-93391789D01*
X186192240Y-93278738D01*
X186194535Y-93238122D01*
X186439633Y-93238122D01*
X186461229Y-93292782D01*
X186525259Y-93331952D01*
X186628565Y-93352974D01*
X186683774Y-93355766D01*
X186775782Y-93348620D01*
X186836941Y-93320848D01*
X186851862Y-93307647D01*
X186892287Y-93235829D01*
X186901666Y-93170686D01*
X186901666Y-93083530D01*
X186780269Y-93083530D01*
X186639153Y-93090722D01*
X186540173Y-93113345D01*
X186477633Y-93152964D01*
X186463631Y-93170628D01*
X186439633Y-93238122D01*
X186194535Y-93238122D01*
X186198941Y-93160157D01*
X186243880Y-93046855D01*
X186305196Y-92970285D01*
X186342332Y-92937181D01*
X186378687Y-92915425D01*
X186425990Y-92902161D01*
X186495973Y-92894528D01*
X186600364Y-92889670D01*
X186641770Y-92888273D01*
X186901666Y-92879780D01*
X186901285Y-92801116D01*
X186891219Y-92718428D01*
X186854829Y-92668431D01*
X186781311Y-92636489D01*
X186779339Y-92635920D01*
X186675105Y-92623361D01*
X186573108Y-92639766D01*
X186497305Y-92679657D01*
X186466890Y-92699354D01*
X186434132Y-92696629D01*
X186383721Y-92668091D01*
X186354119Y-92647950D01*
X186296218Y-92604919D01*
X186260352Y-92572662D01*
X186254597Y-92563427D01*
X186278295Y-92515636D01*
X186348313Y-92458562D01*
X186378725Y-92439305D01*
X186466155Y-92406140D01*
X186583983Y-92387350D01*
X186714866Y-92383129D01*
X186841459Y-92393669D01*
G36*
X188023446Y-92385883D02*
X188119177Y-92404755D01*
X188173677Y-92432699D01*
X188231008Y-92479123D01*
X188149441Y-92582111D01*
X188099150Y-92644479D01*
X188065001Y-92674907D01*
X188031063Y-92679555D01*
X187981406Y-92664586D01*
X187958096Y-92656117D01*
X187863063Y-92643622D01*
X187776032Y-92670406D01*
X187712138Y-92730915D01*
X187701759Y-92750208D01*
X187690456Y-92801314D01*
X187681732Y-92895500D01*
X187675997Y-93026089D01*
X187673660Y-93186405D01*
X187673627Y-93209211D01*
X187673627Y-93606471D01*
X187399705Y-93606471D01*
X187399705Y-92386275D01*
X187536666Y-92386275D01*
X187615638Y-92388337D01*
X187656779Y-92397513D01*
X187671992Y-92418290D01*
X187673627Y-92437886D01*
X187673627Y-92489497D01*
X187739240Y-92437886D01*
X187814475Y-92402675D01*
X187915544Y-92385265D01*
X188023446Y-92385883D01*
X188023446Y-92385883D01*
G37*
X188023446Y-92385883D02*
X188119177Y-92404755D01*
X188173677Y-92432699D01*
X188231008Y-92479123D01*
X188149441Y-92582111D01*
X188099150Y-92644479D01*
X188065001Y-92674907D01*
X188031063Y-92679555D01*
X187981406Y-92664586D01*
X187958096Y-92656117D01*
X187863063Y-92643622D01*
X187776032Y-92670406D01*
X187712138Y-92730915D01*
X187701759Y-92750208D01*
X187690456Y-92801314D01*
X187681732Y-92895500D01*
X187675997Y-93026089D01*
X187673660Y-93186405D01*
X187673627Y-93209211D01*
X187673627Y-93606471D01*
X187399705Y-93606471D01*
X187399705Y-92386275D01*
X187536666Y-92386275D01*
X187615638Y-92388337D01*
X187656779Y-92397513D01*
X187671992Y-92418290D01*
X187673627Y-92437886D01*
X187673627Y-92489497D01*
X187739240Y-92437886D01*
X187814475Y-92402675D01*
X187915544Y-92385265D01*
X188023446Y-92385883D01*
G36*
X188810307Y-92392784D02*
X188929337Y-92423731D01*
X189029021Y-92487600D01*
X189077288Y-92535313D01*
X189156408Y-92648106D01*
X189201752Y-92778950D01*
X189217330Y-92939792D01*
X189217410Y-92952794D01*
X189217549Y-93083530D01*
X188465091Y-93083530D01*
X188481130Y-93152010D01*
X188510091Y-93214031D01*
X188560778Y-93278654D01*
X188571379Y-93288971D01*
X188662494Y-93344805D01*
X188766400Y-93354275D01*
X188886000Y-93317540D01*
X188906274Y-93307647D01*
X188968456Y-93277574D01*
X189010106Y-93260440D01*
X189017373Y-93258855D01*
X189042740Y-93274242D01*
X189091120Y-93311887D01*
X189115679Y-93332459D01*
X189166570Y-93379714D01*
X189183281Y-93410917D01*
X189171683Y-93439620D01*
X189165483Y-93447468D01*
X189123493Y-93481819D01*
X189054206Y-93523565D01*
X189005882Y-93547935D01*
X188868711Y-93590873D01*
X188716847Y-93604786D01*
X188573024Y-93588300D01*
X188532745Y-93576496D01*
X188408078Y-93509689D01*
X188315671Y-93406892D01*
X188254990Y-93267105D01*
X188225498Y-93089330D01*
X188222260Y-92996373D01*
X188231714Y-92861033D01*
X188470490Y-92861033D01*
X188493584Y-92871038D01*
X188555662Y-92878888D01*
X188645914Y-92883521D01*
X188707058Y-92884314D01*
X188817040Y-92883549D01*
X188886457Y-92879970D01*
X188924538Y-92871649D01*
X188940515Y-92856657D01*
X188943627Y-92834903D01*
X188922278Y-92767892D01*
X188868529Y-92701664D01*
X188797822Y-92650832D01*
X188727089Y-92630038D01*
X188631016Y-92648484D01*
X188547849Y-92701811D01*
X188490186Y-92778677D01*
X188470490Y-92861033D01*
X188231714Y-92861033D01*
X188236028Y-92799291D01*
X188278520Y-92642271D01*
X188350635Y-92524069D01*
X188453273Y-92443440D01*
X188587332Y-92399139D01*
X188659957Y-92390607D01*
X188810307Y-92392784D01*
X188810307Y-92392784D01*
G37*
X188810307Y-92392784D02*
X188929337Y-92423731D01*
X189029021Y-92487600D01*
X189077288Y-92535313D01*
X189156408Y-92648106D01*
X189201752Y-92778950D01*
X189217330Y-92939792D01*
X189217410Y-92952794D01*
X189217549Y-93083530D01*
X188465091Y-93083530D01*
X188481130Y-93152010D01*
X188510091Y-93214031D01*
X188560778Y-93278654D01*
X188571379Y-93288971D01*
X188662494Y-93344805D01*
X188766400Y-93354275D01*
X188886000Y-93317540D01*
X188906274Y-93307647D01*
X188968456Y-93277574D01*
X189010106Y-93260440D01*
X189017373Y-93258855D01*
X189042740Y-93274242D01*
X189091120Y-93311887D01*
X189115679Y-93332459D01*
X189166570Y-93379714D01*
X189183281Y-93410917D01*
X189171683Y-93439620D01*
X189165483Y-93447468D01*
X189123493Y-93481819D01*
X189054206Y-93523565D01*
X189005882Y-93547935D01*
X188868711Y-93590873D01*
X188716847Y-93604786D01*
X188573024Y-93588300D01*
X188532745Y-93576496D01*
X188408078Y-93509689D01*
X188315671Y-93406892D01*
X188254990Y-93267105D01*
X188225498Y-93089330D01*
X188222260Y-92996373D01*
X188231714Y-92861033D01*
X188470490Y-92861033D01*
X188493584Y-92871038D01*
X188555662Y-92878888D01*
X188645914Y-92883521D01*
X188707058Y-92884314D01*
X188817040Y-92883549D01*
X188886457Y-92879970D01*
X188924538Y-92871649D01*
X188940515Y-92856657D01*
X188943627Y-92834903D01*
X188922278Y-92767892D01*
X188868529Y-92701664D01*
X188797822Y-92650832D01*
X188727089Y-92630038D01*
X188631016Y-92648484D01*
X188547849Y-92701811D01*
X188490186Y-92778677D01*
X188470490Y-92861033D01*
X188231714Y-92861033D01*
X188236028Y-92799291D01*
X188278520Y-92642271D01*
X188350635Y-92524069D01*
X188453273Y-92443440D01*
X188587332Y-92399139D01*
X188659957Y-92390607D01*
X188810307Y-92392784D01*
G36*
X179758247Y-90531568D02*
X179888522Y-90589163D01*
X179987419Y-90685334D01*
X180055082Y-90820229D01*
X180091655Y-90993996D01*
X180094276Y-91021126D01*
X180096330Y-91212408D01*
X180069699Y-91380073D01*
X180016001Y-91515967D01*
X179987247Y-91559681D01*
X179887091Y-91652198D01*
X179759537Y-91712119D01*
X179616837Y-91736985D01*
X179471240Y-91724339D01*
X179360562Y-91685391D01*
X179265384Y-91619755D01*
X179187594Y-91533699D01*
X179186249Y-91531685D01*
X179154657Y-91478570D01*
X179134127Y-91425160D01*
X179121695Y-91357754D01*
X179114397Y-91262653D01*
X179111182Y-91184666D01*
X179109844Y-91113944D01*
X179358814Y-91113944D01*
X179361247Y-91184348D01*
X179370080Y-91278068D01*
X179385664Y-91338214D01*
X179413766Y-91381006D01*
X179440086Y-91406002D01*
X179533392Y-91458338D01*
X179631020Y-91465333D01*
X179721942Y-91427676D01*
X179767402Y-91385479D01*
X179800162Y-91342956D01*
X179819323Y-91302267D01*
X179827733Y-91249314D01*
X179828237Y-91169997D01*
X179825645Y-91096950D01*
X179820071Y-90992601D01*
X179811234Y-90924920D01*
X179795307Y-90880774D01*
X179768462Y-90847031D01*
X179747189Y-90827746D01*
X179658206Y-90777086D01*
X179562211Y-90774560D01*
X179481719Y-90804567D01*
X179413053Y-90867231D01*
X179372144Y-90970168D01*
X179358814Y-91113944D01*
X179109844Y-91113944D01*
X179108246Y-91029582D01*
X179113260Y-90913600D01*
X179128283Y-90826367D01*
X179155376Y-90757530D01*
X179196600Y-90696737D01*
X179211885Y-90678686D01*
X179307454Y-90588746D01*
X179409961Y-90536211D01*
X179535321Y-90514201D01*
X179596450Y-90512402D01*
X179758247Y-90531568D01*
X179758247Y-90531568D01*
G37*
X179758247Y-90531568D02*
X179888522Y-90589163D01*
X179987419Y-90685334D01*
X180055082Y-90820229D01*
X180091655Y-90993996D01*
X180094276Y-91021126D01*
X180096330Y-91212408D01*
X180069699Y-91380073D01*
X180016001Y-91515967D01*
X179987247Y-91559681D01*
X179887091Y-91652198D01*
X179759537Y-91712119D01*
X179616837Y-91736985D01*
X179471240Y-91724339D01*
X179360562Y-91685391D01*
X179265384Y-91619755D01*
X179187594Y-91533699D01*
X179186249Y-91531685D01*
X179154657Y-91478570D01*
X179134127Y-91425160D01*
X179121695Y-91357754D01*
X179114397Y-91262653D01*
X179111182Y-91184666D01*
X179109844Y-91113944D01*
X179358814Y-91113944D01*
X179361247Y-91184348D01*
X179370080Y-91278068D01*
X179385664Y-91338214D01*
X179413766Y-91381006D01*
X179440086Y-91406002D01*
X179533392Y-91458338D01*
X179631020Y-91465333D01*
X179721942Y-91427676D01*
X179767402Y-91385479D01*
X179800162Y-91342956D01*
X179819323Y-91302267D01*
X179827733Y-91249314D01*
X179828237Y-91169997D01*
X179825645Y-91096950D01*
X179820071Y-90992601D01*
X179811234Y-90924920D01*
X179795307Y-90880774D01*
X179768462Y-90847031D01*
X179747189Y-90827746D01*
X179658206Y-90777086D01*
X179562211Y-90774560D01*
X179481719Y-90804567D01*
X179413053Y-90867231D01*
X179372144Y-90970168D01*
X179358814Y-91113944D01*
X179109844Y-91113944D01*
X179108246Y-91029582D01*
X179113260Y-90913600D01*
X179128283Y-90826367D01*
X179155376Y-90757530D01*
X179196600Y-90696737D01*
X179211885Y-90678686D01*
X179307454Y-90588746D01*
X179409961Y-90536211D01*
X179535321Y-90514201D01*
X179596450Y-90512402D01*
X179758247Y-90531568D01*
G36*
X182098204Y-90546354D02*
X182123019Y-90558037D01*
X182208906Y-90620951D01*
X182290121Y-90712769D01*
X182350764Y-90813868D01*
X182368012Y-90860349D01*
X182383749Y-90943376D01*
X182393133Y-91043713D01*
X182394272Y-91085147D01*
X182394411Y-91215882D01*
X181641953Y-91215882D01*
X181657993Y-91284363D01*
X181697363Y-91365355D01*
X181766194Y-91435351D01*
X181848081Y-91480441D01*
X181900263Y-91489804D01*
X181971029Y-91478441D01*
X182055460Y-91449943D01*
X182084142Y-91436831D01*
X182190209Y-91383858D01*
X182280728Y-91452901D01*
X182332961Y-91499597D01*
X182360753Y-91538140D01*
X182362160Y-91549452D01*
X182337332Y-91576868D01*
X182282917Y-91618532D01*
X182233528Y-91651037D01*
X182100252Y-91709468D01*
X181950839Y-91735915D01*
X181802751Y-91729039D01*
X181684705Y-91693096D01*
X181563018Y-91616101D01*
X181476540Y-91514728D01*
X181422441Y-91383570D01*
X181397891Y-91217224D01*
X181395714Y-91141108D01*
X181404427Y-90966685D01*
X181405497Y-90961611D01*
X181654827Y-90961611D01*
X181661694Y-90977968D01*
X181689917Y-90986988D01*
X181748127Y-90990854D01*
X181844958Y-90991749D01*
X181882243Y-90991765D01*
X181995683Y-90990413D01*
X182067622Y-90985505D01*
X182106313Y-90975760D01*
X182120005Y-90959899D01*
X182120490Y-90954805D01*
X182104863Y-90914326D01*
X182065753Y-90857621D01*
X182048939Y-90837766D01*
X181986519Y-90781611D01*
X181921453Y-90759532D01*
X181886397Y-90757686D01*
X181791558Y-90780766D01*
X181712027Y-90842759D01*
X181661577Y-90932802D01*
X181660683Y-90935735D01*
X181654827Y-90961611D01*
X181405497Y-90961611D01*
X181433399Y-90829343D01*
X181485590Y-90719461D01*
X181549421Y-90641461D01*
X181667433Y-90556882D01*
X181806158Y-90511686D01*
X181953710Y-90507600D01*
X182098204Y-90546354D01*
X182098204Y-90546354D01*
G37*
X182098204Y-90546354D02*
X182123019Y-90558037D01*
X182208906Y-90620951D01*
X182290121Y-90712769D01*
X182350764Y-90813868D01*
X182368012Y-90860349D01*
X182383749Y-90943376D01*
X182393133Y-91043713D01*
X182394272Y-91085147D01*
X182394411Y-91215882D01*
X181641953Y-91215882D01*
X181657993Y-91284363D01*
X181697363Y-91365355D01*
X181766194Y-91435351D01*
X181848081Y-91480441D01*
X181900263Y-91489804D01*
X181971029Y-91478441D01*
X182055460Y-91449943D01*
X182084142Y-91436831D01*
X182190209Y-91383858D01*
X182280728Y-91452901D01*
X182332961Y-91499597D01*
X182360753Y-91538140D01*
X182362160Y-91549452D01*
X182337332Y-91576868D01*
X182282917Y-91618532D01*
X182233528Y-91651037D01*
X182100252Y-91709468D01*
X181950839Y-91735915D01*
X181802751Y-91729039D01*
X181684705Y-91693096D01*
X181563018Y-91616101D01*
X181476540Y-91514728D01*
X181422441Y-91383570D01*
X181397891Y-91217224D01*
X181395714Y-91141108D01*
X181404427Y-90966685D01*
X181405497Y-90961611D01*
X181654827Y-90961611D01*
X181661694Y-90977968D01*
X181689917Y-90986988D01*
X181748127Y-90990854D01*
X181844958Y-90991749D01*
X181882243Y-90991765D01*
X181995683Y-90990413D01*
X182067622Y-90985505D01*
X182106313Y-90975760D01*
X182120005Y-90959899D01*
X182120490Y-90954805D01*
X182104863Y-90914326D01*
X182065753Y-90857621D01*
X182048939Y-90837766D01*
X181986519Y-90781611D01*
X181921453Y-90759532D01*
X181886397Y-90757686D01*
X181791558Y-90780766D01*
X181712027Y-90842759D01*
X181661577Y-90932802D01*
X181660683Y-90935735D01*
X181654827Y-90961611D01*
X181405497Y-90961611D01*
X181433399Y-90829343D01*
X181485590Y-90719461D01*
X181549421Y-90641461D01*
X181667433Y-90556882D01*
X181806158Y-90511686D01*
X181953710Y-90507600D01*
X182098204Y-90546354D01*
G36*
X184812759Y-90514345D02*
X184907059Y-90532229D01*
X185004890Y-90569633D01*
X185015343Y-90574402D01*
X185089531Y-90613412D01*
X185140910Y-90649664D01*
X185157517Y-90672887D01*
X185141702Y-90710761D01*
X185103288Y-90766644D01*
X185086237Y-90787505D01*
X185015969Y-90869618D01*
X184925379Y-90816168D01*
X184839164Y-90780561D01*
X184739549Y-90761529D01*
X184644019Y-90760326D01*
X184570061Y-90778210D01*
X184552312Y-90789373D01*
X184518512Y-90840553D01*
X184514404Y-90899509D01*
X184539696Y-90945567D01*
X184554656Y-90954499D01*
X184599486Y-90965592D01*
X184678286Y-90978630D01*
X184775426Y-90991088D01*
X184793346Y-90993042D01*
X184949365Y-91020030D01*
X185062523Y-91065873D01*
X185137569Y-91134803D01*
X185179253Y-91231054D01*
X185192238Y-91348617D01*
X185174299Y-91482254D01*
X185116050Y-91587195D01*
X185017255Y-91663630D01*
X184877682Y-91711748D01*
X184722745Y-91730732D01*
X184596398Y-91730504D01*
X184493913Y-91713262D01*
X184423921Y-91689457D01*
X184335483Y-91647978D01*
X184253754Y-91599842D01*
X184224705Y-91578655D01*
X184150000Y-91517676D01*
X184240098Y-91426508D01*
X184330196Y-91335339D01*
X184432632Y-91403128D01*
X184535374Y-91454042D01*
X184645087Y-91480673D01*
X184750551Y-91483483D01*
X184840546Y-91462935D01*
X184903854Y-91419493D01*
X184924296Y-91382838D01*
X184921229Y-91324053D01*
X184870434Y-91279099D01*
X184772048Y-91248057D01*
X184664256Y-91233710D01*
X184498365Y-91206337D01*
X184375124Y-91154693D01*
X184292886Y-91077266D01*
X184250001Y-90972544D01*
X184244060Y-90848387D01*
X184273406Y-90718702D01*
X184340309Y-90620677D01*
X184445371Y-90553866D01*
X184589190Y-90517820D01*
X184695738Y-90510754D01*
X184812759Y-90514345D01*
X184812759Y-90514345D01*
G37*
X184812759Y-90514345D02*
X184907059Y-90532229D01*
X185004890Y-90569633D01*
X185015343Y-90574402D01*
X185089531Y-90613412D01*
X185140910Y-90649664D01*
X185157517Y-90672887D01*
X185141702Y-90710761D01*
X185103288Y-90766644D01*
X185086237Y-90787505D01*
X185015969Y-90869618D01*
X184925379Y-90816168D01*
X184839164Y-90780561D01*
X184739549Y-90761529D01*
X184644019Y-90760326D01*
X184570061Y-90778210D01*
X184552312Y-90789373D01*
X184518512Y-90840553D01*
X184514404Y-90899509D01*
X184539696Y-90945567D01*
X184554656Y-90954499D01*
X184599486Y-90965592D01*
X184678286Y-90978630D01*
X184775426Y-90991088D01*
X184793346Y-90993042D01*
X184949365Y-91020030D01*
X185062523Y-91065873D01*
X185137569Y-91134803D01*
X185179253Y-91231054D01*
X185192238Y-91348617D01*
X185174299Y-91482254D01*
X185116050Y-91587195D01*
X185017255Y-91663630D01*
X184877682Y-91711748D01*
X184722745Y-91730732D01*
X184596398Y-91730504D01*
X184493913Y-91713262D01*
X184423921Y-91689457D01*
X184335483Y-91647978D01*
X184253754Y-91599842D01*
X184224705Y-91578655D01*
X184150000Y-91517676D01*
X184240098Y-91426508D01*
X184330196Y-91335339D01*
X184432632Y-91403128D01*
X184535374Y-91454042D01*
X184645087Y-91480673D01*
X184750551Y-91483483D01*
X184840546Y-91462935D01*
X184903854Y-91419493D01*
X184924296Y-91382838D01*
X184921229Y-91324053D01*
X184870434Y-91279099D01*
X184772048Y-91248057D01*
X184664256Y-91233710D01*
X184498365Y-91206337D01*
X184375124Y-91154693D01*
X184292886Y-91077266D01*
X184250001Y-90972544D01*
X184244060Y-90848387D01*
X184273406Y-90718702D01*
X184340309Y-90620677D01*
X184445371Y-90553866D01*
X184589190Y-90517820D01*
X184695738Y-90510754D01*
X184812759Y-90514345D01*
G36*
X185994547Y-90533364D02*
X186120502Y-90601959D01*
X186219047Y-90710245D01*
X186265478Y-90798315D01*
X186285412Y-90876101D01*
X186298328Y-90986993D01*
X186303863Y-91114738D01*
X186301654Y-91243084D01*
X186291337Y-91355779D01*
X186279286Y-91415969D01*
X186238634Y-91498311D01*
X186168230Y-91585770D01*
X186083382Y-91662251D01*
X185999397Y-91711655D01*
X185997349Y-91712439D01*
X185893134Y-91734027D01*
X185769627Y-91734562D01*
X185652261Y-91714908D01*
X185606942Y-91699155D01*
X185490220Y-91632966D01*
X185406624Y-91546246D01*
X185351701Y-91431438D01*
X185320995Y-91280982D01*
X185314047Y-91202173D01*
X185314933Y-91103145D01*
X185581862Y-91103145D01*
X185590854Y-91247645D01*
X185616736Y-91357760D01*
X185657868Y-91428116D01*
X185687172Y-91448235D01*
X185762251Y-91462265D01*
X185851494Y-91458111D01*
X185928650Y-91437922D01*
X185948883Y-91426815D01*
X186002265Y-91362123D01*
X186037500Y-91263119D01*
X186052498Y-91142632D01*
X186045172Y-91013494D01*
X186028799Y-90935775D01*
X185981790Y-90845771D01*
X185907582Y-90789509D01*
X185818209Y-90770057D01*
X185725707Y-90790481D01*
X185654653Y-90840437D01*
X185617312Y-90881655D01*
X185595518Y-90922281D01*
X185585130Y-90977264D01*
X185582006Y-91061549D01*
X185581862Y-91103145D01*
X185314933Y-91103145D01*
X185315930Y-90991874D01*
X185350180Y-90819423D01*
X185416802Y-90684814D01*
X185515799Y-90588040D01*
X185647175Y-90529094D01*
X185675385Y-90522259D01*
X185844926Y-90506213D01*
X185994547Y-90533364D01*
X185994547Y-90533364D01*
G37*
X185994547Y-90533364D02*
X186120502Y-90601959D01*
X186219047Y-90710245D01*
X186265478Y-90798315D01*
X186285412Y-90876101D01*
X186298328Y-90986993D01*
X186303863Y-91114738D01*
X186301654Y-91243084D01*
X186291337Y-91355779D01*
X186279286Y-91415969D01*
X186238634Y-91498311D01*
X186168230Y-91585770D01*
X186083382Y-91662251D01*
X185999397Y-91711655D01*
X185997349Y-91712439D01*
X185893134Y-91734027D01*
X185769627Y-91734562D01*
X185652261Y-91714908D01*
X185606942Y-91699155D01*
X185490220Y-91632966D01*
X185406624Y-91546246D01*
X185351701Y-91431438D01*
X185320995Y-91280982D01*
X185314047Y-91202173D01*
X185314933Y-91103145D01*
X185581862Y-91103145D01*
X185590854Y-91247645D01*
X185616736Y-91357760D01*
X185657868Y-91428116D01*
X185687172Y-91448235D01*
X185762251Y-91462265D01*
X185851494Y-91458111D01*
X185928650Y-91437922D01*
X185948883Y-91426815D01*
X186002265Y-91362123D01*
X186037500Y-91263119D01*
X186052498Y-91142632D01*
X186045172Y-91013494D01*
X186028799Y-90935775D01*
X185981790Y-90845771D01*
X185907582Y-90789509D01*
X185818209Y-90770057D01*
X185725707Y-90790481D01*
X185654653Y-90840437D01*
X185617312Y-90881655D01*
X185595518Y-90922281D01*
X185585130Y-90977264D01*
X185582006Y-91061549D01*
X185581862Y-91103145D01*
X185314933Y-91103145D01*
X185315930Y-90991874D01*
X185350180Y-90819423D01*
X185416802Y-90684814D01*
X185515799Y-90588040D01*
X185647175Y-90529094D01*
X185675385Y-90522259D01*
X185844926Y-90506213D01*
X185994547Y-90533364D01*
G36*
X186752254Y-90906245D02*
X186754608Y-91088879D01*
X186763207Y-91227600D01*
X186780360Y-91328147D01*
X186808374Y-91396254D01*
X186849557Y-91437659D01*
X186906217Y-91458097D01*
X186976372Y-91463318D01*
X187049848Y-91457468D01*
X187105657Y-91436093D01*
X187146109Y-91393458D01*
X187173509Y-91323825D01*
X187190167Y-91221460D01*
X187198389Y-91080624D01*
X187200490Y-90906245D01*
X187200490Y-90518628D01*
X187474411Y-90518628D01*
X187474411Y-91713922D01*
X187337451Y-91713922D01*
X187254884Y-91710576D01*
X187212368Y-91698826D01*
X187200490Y-91676520D01*
X187193336Y-91656654D01*
X187164865Y-91660857D01*
X187107476Y-91688971D01*
X186975945Y-91732342D01*
X186836438Y-91729270D01*
X186702765Y-91682174D01*
X186639108Y-91644971D01*
X186590553Y-91604691D01*
X186555081Y-91554291D01*
X186530674Y-91486729D01*
X186515313Y-91394965D01*
X186506982Y-91271955D01*
X186503662Y-91110659D01*
X186503235Y-90985928D01*
X186503235Y-90518628D01*
X186752254Y-90518628D01*
X186752254Y-90906245D01*
X186752254Y-90906245D01*
G37*
X186752254Y-90906245D02*
X186754608Y-91088879D01*
X186763207Y-91227600D01*
X186780360Y-91328147D01*
X186808374Y-91396254D01*
X186849557Y-91437659D01*
X186906217Y-91458097D01*
X186976372Y-91463318D01*
X187049848Y-91457468D01*
X187105657Y-91436093D01*
X187146109Y-91393458D01*
X187173509Y-91323825D01*
X187190167Y-91221460D01*
X187198389Y-91080624D01*
X187200490Y-90906245D01*
X187200490Y-90518628D01*
X187474411Y-90518628D01*
X187474411Y-91713922D01*
X187337451Y-91713922D01*
X187254884Y-91710576D01*
X187212368Y-91698826D01*
X187200490Y-91676520D01*
X187193336Y-91656654D01*
X187164865Y-91660857D01*
X187107476Y-91688971D01*
X186975945Y-91732342D01*
X186836438Y-91729270D01*
X186702765Y-91682174D01*
X186639108Y-91644971D01*
X186590553Y-91604691D01*
X186555081Y-91554291D01*
X186530674Y-91486729D01*
X186515313Y-91394965D01*
X186506982Y-91271955D01*
X186503662Y-91110659D01*
X186503235Y-90985928D01*
X186503235Y-90518628D01*
X186752254Y-90518628D01*
X186752254Y-90906245D01*
G36*
X189175976Y-90529056D02*
X189320256Y-90590348D01*
X189365699Y-90620185D01*
X189423779Y-90666036D01*
X189460238Y-90702089D01*
X189466568Y-90713832D01*
X189448693Y-90739889D01*
X189402950Y-90784105D01*
X189366328Y-90814965D01*
X189266088Y-90895520D01*
X189186935Y-90828918D01*
X189125769Y-90785921D01*
X189066129Y-90771079D01*
X188997872Y-90774704D01*
X188889482Y-90801652D01*
X188814872Y-90857587D01*
X188769530Y-90948014D01*
X188748947Y-91078435D01*
X188748942Y-91078517D01*
X188750722Y-91224290D01*
X188778387Y-91331245D01*
X188833571Y-91404064D01*
X188871192Y-91428723D01*
X188971105Y-91459431D01*
X189077822Y-91459449D01*
X189170669Y-91429655D01*
X189192647Y-91415098D01*
X189247765Y-91377914D01*
X189290859Y-91371820D01*
X189337335Y-91399496D01*
X189388716Y-91449205D01*
X189470046Y-91533116D01*
X189379749Y-91607546D01*
X189240236Y-91691549D01*
X189082912Y-91732947D01*
X188918503Y-91729950D01*
X188810531Y-91702500D01*
X188684331Y-91634620D01*
X188583401Y-91527831D01*
X188537548Y-91452451D01*
X188500410Y-91344297D01*
X188481827Y-91207318D01*
X188481684Y-91058864D01*
X188499865Y-90916281D01*
X188536255Y-90796918D01*
X188541987Y-90784680D01*
X188626865Y-90664655D01*
X188741782Y-90577267D01*
X188877659Y-90524329D01*
X189025417Y-90507654D01*
X189175976Y-90529056D01*
X189175976Y-90529056D01*
G37*
X189175976Y-90529056D02*
X189320256Y-90590348D01*
X189365699Y-90620185D01*
X189423779Y-90666036D01*
X189460238Y-90702089D01*
X189466568Y-90713832D01*
X189448693Y-90739889D01*
X189402950Y-90784105D01*
X189366328Y-90814965D01*
X189266088Y-90895520D01*
X189186935Y-90828918D01*
X189125769Y-90785921D01*
X189066129Y-90771079D01*
X188997872Y-90774704D01*
X188889482Y-90801652D01*
X188814872Y-90857587D01*
X188769530Y-90948014D01*
X188748947Y-91078435D01*
X188748942Y-91078517D01*
X188750722Y-91224290D01*
X188778387Y-91331245D01*
X188833571Y-91404064D01*
X188871192Y-91428723D01*
X188971105Y-91459431D01*
X189077822Y-91459449D01*
X189170669Y-91429655D01*
X189192647Y-91415098D01*
X189247765Y-91377914D01*
X189290859Y-91371820D01*
X189337335Y-91399496D01*
X189388716Y-91449205D01*
X189470046Y-91533116D01*
X189379749Y-91607546D01*
X189240236Y-91691549D01*
X189082912Y-91732947D01*
X188918503Y-91729950D01*
X188810531Y-91702500D01*
X188684331Y-91634620D01*
X188583401Y-91527831D01*
X188537548Y-91452451D01*
X188500410Y-91344297D01*
X188481827Y-91207318D01*
X188481684Y-91058864D01*
X188499865Y-90916281D01*
X188536255Y-90796918D01*
X188541987Y-90784680D01*
X188626865Y-90664655D01*
X188741782Y-90577267D01*
X188877659Y-90524329D01*
X189025417Y-90507654D01*
X189175976Y-90529056D01*
G36*
X190088287Y-90514355D02*
X190152051Y-90529845D01*
X190274300Y-90586569D01*
X190378834Y-90673202D01*
X190451180Y-90777074D01*
X190461119Y-90800396D01*
X190474754Y-90861484D01*
X190484298Y-90951853D01*
X190487549Y-91043190D01*
X190487549Y-91215882D01*
X190126470Y-91215882D01*
X189977546Y-91216445D01*
X189872632Y-91219864D01*
X189805937Y-91228731D01*
X189771666Y-91245641D01*
X189764028Y-91273189D01*
X189777229Y-91313968D01*
X189800877Y-91361683D01*
X189866843Y-91441314D01*
X189958512Y-91480987D01*
X190070555Y-91479695D01*
X190197472Y-91436514D01*
X190307158Y-91383224D01*
X190398173Y-91455191D01*
X190489188Y-91527157D01*
X190403563Y-91606269D01*
X190289250Y-91681017D01*
X190148666Y-91726084D01*
X189997449Y-91738696D01*
X189851236Y-91716079D01*
X189827647Y-91708405D01*
X189699141Y-91641296D01*
X189603551Y-91541247D01*
X189538861Y-91405271D01*
X189503057Y-91230380D01*
X189502640Y-91226632D01*
X189499434Y-91036032D01*
X189512393Y-90968035D01*
X189765392Y-90968035D01*
X189788627Y-90978491D01*
X189851710Y-90986500D01*
X189944706Y-90991073D01*
X190003638Y-90991765D01*
X190113537Y-90991332D01*
X190182252Y-90988578D01*
X190218405Y-90981321D01*
X190230615Y-90967376D01*
X190227504Y-90944562D01*
X190224894Y-90935735D01*
X190180344Y-90852800D01*
X190110279Y-90785960D01*
X190048446Y-90756589D01*
X189966301Y-90758362D01*
X189883062Y-90794990D01*
X189813238Y-90855634D01*
X189771337Y-90929456D01*
X189765392Y-90968035D01*
X189512393Y-90968035D01*
X189531385Y-90868395D01*
X189594773Y-90727711D01*
X189685878Y-90617974D01*
X189800978Y-90543174D01*
X189936355Y-90507304D01*
X190088287Y-90514355D01*
X190088287Y-90514355D01*
G37*
X190088287Y-90514355D02*
X190152051Y-90529845D01*
X190274300Y-90586569D01*
X190378834Y-90673202D01*
X190451180Y-90777074D01*
X190461119Y-90800396D01*
X190474754Y-90861484D01*
X190484298Y-90951853D01*
X190487549Y-91043190D01*
X190487549Y-91215882D01*
X190126470Y-91215882D01*
X189977546Y-91216445D01*
X189872632Y-91219864D01*
X189805937Y-91228731D01*
X189771666Y-91245641D01*
X189764028Y-91273189D01*
X189777229Y-91313968D01*
X189800877Y-91361683D01*
X189866843Y-91441314D01*
X189958512Y-91480987D01*
X190070555Y-91479695D01*
X190197472Y-91436514D01*
X190307158Y-91383224D01*
X190398173Y-91455191D01*
X190489188Y-91527157D01*
X190403563Y-91606269D01*
X190289250Y-91681017D01*
X190148666Y-91726084D01*
X189997449Y-91738696D01*
X189851236Y-91716079D01*
X189827647Y-91708405D01*
X189699141Y-91641296D01*
X189603551Y-91541247D01*
X189538861Y-91405271D01*
X189503057Y-91230380D01*
X189502640Y-91226632D01*
X189499434Y-91036032D01*
X189512393Y-90968035D01*
X189765392Y-90968035D01*
X189788627Y-90978491D01*
X189851710Y-90986500D01*
X189944706Y-90991073D01*
X190003638Y-90991765D01*
X190113537Y-90991332D01*
X190182252Y-90988578D01*
X190218405Y-90981321D01*
X190230615Y-90967376D01*
X190227504Y-90944562D01*
X190224894Y-90935735D01*
X190180344Y-90852800D01*
X190110279Y-90785960D01*
X190048446Y-90756589D01*
X189966301Y-90758362D01*
X189883062Y-90794990D01*
X189813238Y-90855634D01*
X189771337Y-90929456D01*
X189765392Y-90968035D01*
X189512393Y-90968035D01*
X189531385Y-90868395D01*
X189594773Y-90727711D01*
X189685878Y-90617974D01*
X189800978Y-90543174D01*
X189936355Y-90507304D01*
X190088287Y-90514355D01*
G36*
X183291760Y-90539199D02*
X183353736Y-90568802D01*
X183413759Y-90611561D01*
X183459486Y-90660775D01*
X183492793Y-90723544D01*
X183515555Y-90806971D01*
X183529647Y-90918159D01*
X183536942Y-91064209D01*
X183539318Y-91252223D01*
X183539355Y-91271912D01*
X183539902Y-91713922D01*
X183265980Y-91713922D01*
X183265980Y-91306435D01*
X183265785Y-91155471D01*
X183264436Y-91046056D01*
X183260788Y-90969933D01*
X183253696Y-90918848D01*
X183242013Y-90884545D01*
X183224594Y-90858768D01*
X183200329Y-90833298D01*
X183115435Y-90778571D01*
X183022761Y-90768416D01*
X182934473Y-90803017D01*
X182903770Y-90828770D01*
X182881229Y-90852982D01*
X182865046Y-90878912D01*
X182854168Y-90914708D01*
X182847542Y-90968519D01*
X182844115Y-91048493D01*
X182842834Y-91162779D01*
X182842647Y-91301907D01*
X182842647Y-91713922D01*
X182568725Y-91713922D01*
X182568725Y-90518628D01*
X182705686Y-90518628D01*
X182787916Y-90521879D01*
X182830340Y-90533426D01*
X182842641Y-90555952D01*
X182842647Y-90556620D01*
X182848354Y-90578681D01*
X182873527Y-90576177D01*
X182923578Y-90551937D01*
X183037094Y-90516271D01*
X183166945Y-90512305D01*
X183291760Y-90539199D01*
X183291760Y-90539199D01*
G37*
X183291760Y-90539199D02*
X183353736Y-90568802D01*
X183413759Y-90611561D01*
X183459486Y-90660775D01*
X183492793Y-90723544D01*
X183515555Y-90806971D01*
X183529647Y-90918159D01*
X183536942Y-91064209D01*
X183539318Y-91252223D01*
X183539355Y-91271912D01*
X183539902Y-91713922D01*
X183265980Y-91713922D01*
X183265980Y-91306435D01*
X183265785Y-91155471D01*
X183264436Y-91046056D01*
X183260788Y-90969933D01*
X183253696Y-90918848D01*
X183242013Y-90884545D01*
X183224594Y-90858768D01*
X183200329Y-90833298D01*
X183115435Y-90778571D01*
X183022761Y-90768416D01*
X182934473Y-90803017D01*
X182903770Y-90828770D01*
X182881229Y-90852982D01*
X182865046Y-90878912D01*
X182854168Y-90914708D01*
X182847542Y-90968519D01*
X182844115Y-91048493D01*
X182842834Y-91162779D01*
X182842647Y-91301907D01*
X182842647Y-91713922D01*
X182568725Y-91713922D01*
X182568725Y-90518628D01*
X182705686Y-90518628D01*
X182787916Y-90521879D01*
X182830340Y-90533426D01*
X182842641Y-90555952D01*
X182842647Y-90556620D01*
X182848354Y-90578681D01*
X182873527Y-90576177D01*
X182923578Y-90551937D01*
X183037094Y-90516271D01*
X183166945Y-90512305D01*
X183291760Y-90539199D01*
G36*
X188348637Y-90517472D02*
X188434290Y-90543641D01*
X188489437Y-90576707D01*
X188507401Y-90602855D01*
X188502457Y-90633852D01*
X188470372Y-90682547D01*
X188443243Y-90717035D01*
X188387317Y-90779383D01*
X188345299Y-90805615D01*
X188309480Y-90803903D01*
X188203224Y-90776863D01*
X188125189Y-90778091D01*
X188061820Y-90808735D01*
X188040546Y-90826670D01*
X187972451Y-90889779D01*
X187972451Y-91713922D01*
X187698529Y-91713922D01*
X187698529Y-90518628D01*
X187835490Y-90518628D01*
X187917719Y-90521879D01*
X187960144Y-90533426D01*
X187972445Y-90555952D01*
X187972451Y-90556620D01*
X187978260Y-90580215D01*
X188004531Y-90577138D01*
X188040931Y-90560115D01*
X188116111Y-90528439D01*
X188177158Y-90509381D01*
X188255708Y-90504496D01*
X188348637Y-90517472D01*
X188348637Y-90517472D01*
G37*
X188348637Y-90517472D02*
X188434290Y-90543641D01*
X188489437Y-90576707D01*
X188507401Y-90602855D01*
X188502457Y-90633852D01*
X188470372Y-90682547D01*
X188443243Y-90717035D01*
X188387317Y-90779383D01*
X188345299Y-90805615D01*
X188309480Y-90803903D01*
X188203224Y-90776863D01*
X188125189Y-90778091D01*
X188061820Y-90808735D01*
X188040546Y-90826670D01*
X187972451Y-90889779D01*
X187972451Y-91713922D01*
X187698529Y-91713922D01*
X187698529Y-90518628D01*
X187835490Y-90518628D01*
X187917719Y-90521879D01*
X187960144Y-90533426D01*
X187972445Y-90555952D01*
X187972451Y-90556620D01*
X187978260Y-90580215D01*
X188004531Y-90577138D01*
X188040931Y-90560115D01*
X188116111Y-90528439D01*
X188177158Y-90509381D01*
X188255708Y-90504496D01*
X188348637Y-90517472D01*
G36*
X185531535Y-82263172D02*
X185644117Y-82860363D01*
X186059531Y-83031610D01*
X186474944Y-83202857D01*
X186973302Y-82863978D01*
X187112868Y-82769622D01*
X187239028Y-82685375D01*
X187345895Y-82615083D01*
X187427582Y-82562592D01*
X187478201Y-82531749D01*
X187491986Y-82525098D01*
X187516820Y-82542203D01*
X187569888Y-82589489D01*
X187645240Y-82660917D01*
X187736929Y-82750445D01*
X187839007Y-82852034D01*
X187945526Y-82959643D01*
X188050536Y-83067232D01*
X188148091Y-83168760D01*
X188232242Y-83258186D01*
X188297040Y-83329471D01*
X188336538Y-83376573D01*
X188345980Y-83392337D01*
X188332391Y-83421398D01*
X188294293Y-83485066D01*
X188235694Y-83577112D01*
X188160597Y-83691309D01*
X188073009Y-83821429D01*
X188022254Y-83895646D01*
X187929745Y-84031167D01*
X187847540Y-84153461D01*
X187779630Y-84256440D01*
X187730000Y-84334018D01*
X187702640Y-84380106D01*
X187698529Y-84389792D01*
X187707849Y-84417319D01*
X187733254Y-84481473D01*
X187770911Y-84573235D01*
X187816986Y-84683584D01*
X187867646Y-84803500D01*
X187919059Y-84923964D01*
X187967389Y-85035954D01*
X188008806Y-85130452D01*
X188039474Y-85198437D01*
X188055562Y-85230888D01*
X188056511Y-85232165D01*
X188081772Y-85238362D01*
X188149046Y-85252185D01*
X188251360Y-85272277D01*
X188381741Y-85297279D01*
X188533216Y-85325831D01*
X188621594Y-85342296D01*
X188783452Y-85373114D01*
X188929649Y-85402439D01*
X189052787Y-85428666D01*
X189145469Y-85450191D01*
X189200301Y-85465410D01*
X189211323Y-85470238D01*
X189222119Y-85502919D01*
X189230829Y-85576730D01*
X189237460Y-85683037D01*
X189242018Y-85813212D01*
X189244509Y-85958621D01*
X189244938Y-86110635D01*
X189243311Y-86260622D01*
X189239635Y-86399951D01*
X189233915Y-86519990D01*
X189226158Y-86612110D01*
X189216368Y-86667677D01*
X189210496Y-86679245D01*
X189175399Y-86693110D01*
X189101028Y-86712933D01*
X188997223Y-86736384D01*
X188873819Y-86761136D01*
X188830741Y-86769143D01*
X188623047Y-86807186D01*
X188458984Y-86837824D01*
X188333130Y-86862274D01*
X188240065Y-86881754D01*
X188174367Y-86897481D01*
X188130617Y-86910673D01*
X188103392Y-86922549D01*
X188087272Y-86934325D01*
X188085017Y-86936653D01*
X188062503Y-86974145D01*
X188028158Y-87047110D01*
X187985411Y-87146612D01*
X187937692Y-87263718D01*
X187888430Y-87389493D01*
X187841055Y-87515002D01*
X187798995Y-87631310D01*
X187765680Y-87729484D01*
X187744541Y-87800588D01*
X187739005Y-87835687D01*
X187739466Y-87836917D01*
X187758223Y-87865606D01*
X187800776Y-87928730D01*
X187862653Y-88019718D01*
X187939382Y-88132000D01*
X188026491Y-88259005D01*
X188051299Y-88295098D01*
X188139753Y-88425948D01*
X188217588Y-88545336D01*
X188280566Y-88646407D01*
X188324445Y-88722304D01*
X188344985Y-88766172D01*
X188345980Y-88771562D01*
X188328722Y-88799889D01*
X188281036Y-88856006D01*
X188209050Y-88933882D01*
X188118897Y-89027485D01*
X188016705Y-89130786D01*
X187908606Y-89237751D01*
X187800728Y-89342351D01*
X187699204Y-89438554D01*
X187610162Y-89520329D01*
X187539733Y-89581645D01*
X187494047Y-89616471D01*
X187481409Y-89622157D01*
X187451991Y-89608765D01*
X187391761Y-89572644D01*
X187310530Y-89519881D01*
X187248030Y-89477412D01*
X187134785Y-89399485D01*
X187000674Y-89307729D01*
X186866155Y-89216120D01*
X186793833Y-89167091D01*
X186549038Y-89001515D01*
X186343551Y-89112620D01*
X186249936Y-89161293D01*
X186170330Y-89199126D01*
X186116467Y-89220703D01*
X186102757Y-89223706D01*
X186086270Y-89201538D01*
X186053745Y-89138894D01*
X186007609Y-89041554D01*
X185950290Y-88915294D01*
X185884216Y-88765895D01*
X185811815Y-88599133D01*
X185735516Y-88420787D01*
X185657746Y-88236636D01*
X185580934Y-88052457D01*
X185507506Y-87874030D01*
X185439892Y-87707132D01*
X185380520Y-87557542D01*
X185331816Y-87431038D01*
X185296210Y-87333399D01*
X185276130Y-87270402D01*
X185272900Y-87248766D01*
X185298496Y-87221169D01*
X185354539Y-87176370D01*
X185429311Y-87123679D01*
X185435587Y-87119510D01*
X185628845Y-86964814D01*
X185784674Y-86784336D01*
X185901724Y-86583847D01*
X185978645Y-86369119D01*
X186014086Y-86145922D01*
X186006697Y-85920026D01*
X185955127Y-85697204D01*
X185858026Y-85483224D01*
X185829458Y-85436409D01*
X185680868Y-85247363D01*
X185505327Y-85095557D01*
X185308910Y-84981779D01*
X185097693Y-84906820D01*
X184877753Y-84871467D01*
X184655163Y-84876512D01*
X184436001Y-84922744D01*
X184226342Y-85010951D01*
X184032261Y-85141924D01*
X183972226Y-85195082D01*
X183819435Y-85361484D01*
X183708097Y-85536657D01*
X183631723Y-85733011D01*
X183589187Y-85927462D01*
X183578686Y-86146087D01*
X183613701Y-86365797D01*
X183690673Y-86579165D01*
X183806047Y-86778767D01*
X183956266Y-86957174D01*
X184137773Y-87106962D01*
X184161627Y-87122751D01*
X184237201Y-87174457D01*
X184294651Y-87219257D01*
X184322117Y-87247862D01*
X184322517Y-87248766D01*
X184316620Y-87279709D01*
X184293245Y-87349936D01*
X184254821Y-87453670D01*
X184203777Y-87585135D01*
X184142542Y-87738552D01*
X184073544Y-87908146D01*
X183999214Y-88088138D01*
X183921978Y-88272753D01*
X183844268Y-88456213D01*
X183768511Y-88632741D01*
X183697137Y-88796559D01*
X183632574Y-88941892D01*
X183577252Y-89062962D01*
X183533600Y-89153992D01*
X183504046Y-89209205D01*
X183492144Y-89223706D01*
X183455777Y-89212414D01*
X183387730Y-89182130D01*
X183299737Y-89138265D01*
X183251351Y-89112620D01*
X183045863Y-89001515D01*
X182801068Y-89167091D01*
X182676106Y-89251915D01*
X182539295Y-89345261D01*
X182411089Y-89433153D01*
X182346871Y-89477412D01*
X182256551Y-89538063D01*
X182180071Y-89586126D01*
X182127407Y-89615515D01*
X182110302Y-89621727D01*
X182085405Y-89604968D01*
X182030305Y-89558181D01*
X181950343Y-89486225D01*
X181850861Y-89393957D01*
X181737200Y-89286235D01*
X181665315Y-89217071D01*
X181539551Y-89093502D01*
X181430863Y-88982979D01*
X181343645Y-88890230D01*
X181282289Y-88819982D01*
X181251191Y-88776965D01*
X181248208Y-88768235D01*
X181262053Y-88735029D01*
X181300312Y-88667887D01*
X181358742Y-88573608D01*
X181433097Y-88458990D01*
X181519135Y-88330828D01*
X181543603Y-88295098D01*
X181632755Y-88165234D01*
X181712738Y-88048314D01*
X181779080Y-87950907D01*
X181827311Y-87879584D01*
X181852957Y-87840915D01*
X181855435Y-87836917D01*
X181851729Y-87806100D01*
X181832061Y-87738344D01*
X181799860Y-87642584D01*
X181758555Y-87527754D01*
X181711575Y-87402789D01*
X181662349Y-87276624D01*
X181614308Y-87158193D01*
X181570881Y-87056430D01*
X181535496Y-86980271D01*
X181511584Y-86938649D01*
X181509884Y-86936653D01*
X181495262Y-86924758D01*
X181470565Y-86912995D01*
X181430372Y-86900146D01*
X181369263Y-86884994D01*
X181281817Y-86866321D01*
X181162612Y-86842910D01*
X181006227Y-86813542D01*
X180807243Y-86777000D01*
X180764160Y-86769143D01*
X180636471Y-86744472D01*
X180525153Y-86720338D01*
X180440045Y-86699069D01*
X180390983Y-86682993D01*
X180384405Y-86679245D01*
X180373564Y-86646018D01*
X180364753Y-86571766D01*
X180357976Y-86465121D01*
X180353240Y-86334712D01*
X180350550Y-86189172D01*
X180349913Y-86037131D01*
X180351334Y-85887221D01*
X180354820Y-85748073D01*
X180360376Y-85628317D01*
X180368008Y-85536586D01*
X180377722Y-85481511D01*
X180383578Y-85470238D01*
X180416180Y-85458868D01*
X180490418Y-85440369D01*
X180598896Y-85416347D01*
X180734217Y-85388407D01*
X180888985Y-85358153D01*
X180973308Y-85342296D01*
X181133296Y-85312389D01*
X181275967Y-85285295D01*
X181394348Y-85262376D01*
X181481465Y-85244988D01*
X181530345Y-85234492D01*
X181538390Y-85232165D01*
X181551987Y-85205931D01*
X181580729Y-85142740D01*
X181620785Y-85051622D01*
X181668324Y-84941602D01*
X181719515Y-84821710D01*
X181770526Y-84700972D01*
X181817526Y-84588416D01*
X181856684Y-84493071D01*
X181884169Y-84423962D01*
X181896149Y-84390119D01*
X181896372Y-84388640D01*
X181882791Y-84361942D01*
X181844715Y-84300505D01*
X181786147Y-84210434D01*
X181711088Y-84097835D01*
X181623540Y-83968815D01*
X181572647Y-83894706D01*
X181479909Y-83758822D01*
X181397541Y-83635454D01*
X181329561Y-83530842D01*
X181279988Y-83451228D01*
X181252842Y-83402852D01*
X181248921Y-83392007D01*
X181265775Y-83366765D01*
X181312368Y-83312869D01*
X181382749Y-83236358D01*
X181470965Y-83143268D01*
X181571065Y-83039640D01*
X181677098Y-82931509D01*
X181783111Y-82824915D01*
X181883152Y-82725895D01*
X181971270Y-82640487D01*
X182041513Y-82574730D01*
X182087928Y-82534661D01*
X182103456Y-82525098D01*
X182128739Y-82538545D01*
X182189211Y-82576320D01*
X182278992Y-82634580D01*
X182392203Y-82709479D01*
X182522964Y-82797170D01*
X182621600Y-82863978D01*
X183119957Y-83202857D01*
X183535371Y-83031610D01*
X183950784Y-82860363D01*
X184063366Y-82263172D01*
X184175949Y-81665980D01*
X185418952Y-81665980D01*
X185531535Y-82263172D01*
X185531535Y-82263172D01*
G37*
X185531535Y-82263172D02*
X185644117Y-82860363D01*
X186059531Y-83031610D01*
X186474944Y-83202857D01*
X186973302Y-82863978D01*
X187112868Y-82769622D01*
X187239028Y-82685375D01*
X187345895Y-82615083D01*
X187427582Y-82562592D01*
X187478201Y-82531749D01*
X187491986Y-82525098D01*
X187516820Y-82542203D01*
X187569888Y-82589489D01*
X187645240Y-82660917D01*
X187736929Y-82750445D01*
X187839007Y-82852034D01*
X187945526Y-82959643D01*
X188050536Y-83067232D01*
X188148091Y-83168760D01*
X188232242Y-83258186D01*
X188297040Y-83329471D01*
X188336538Y-83376573D01*
X188345980Y-83392337D01*
X188332391Y-83421398D01*
X188294293Y-83485066D01*
X188235694Y-83577112D01*
X188160597Y-83691309D01*
X188073009Y-83821429D01*
X188022254Y-83895646D01*
X187929745Y-84031167D01*
X187847540Y-84153461D01*
X187779630Y-84256440D01*
X187730000Y-84334018D01*
X187702640Y-84380106D01*
X187698529Y-84389792D01*
X187707849Y-84417319D01*
X187733254Y-84481473D01*
X187770911Y-84573235D01*
X187816986Y-84683584D01*
X187867646Y-84803500D01*
X187919059Y-84923964D01*
X187967389Y-85035954D01*
X188008806Y-85130452D01*
X188039474Y-85198437D01*
X188055562Y-85230888D01*
X188056511Y-85232165D01*
X188081772Y-85238362D01*
X188149046Y-85252185D01*
X188251360Y-85272277D01*
X188381741Y-85297279D01*
X188533216Y-85325831D01*
X188621594Y-85342296D01*
X188783452Y-85373114D01*
X188929649Y-85402439D01*
X189052787Y-85428666D01*
X189145469Y-85450191D01*
X189200301Y-85465410D01*
X189211323Y-85470238D01*
X189222119Y-85502919D01*
X189230829Y-85576730D01*
X189237460Y-85683037D01*
X189242018Y-85813212D01*
X189244509Y-85958621D01*
X189244938Y-86110635D01*
X189243311Y-86260622D01*
X189239635Y-86399951D01*
X189233915Y-86519990D01*
X189226158Y-86612110D01*
X189216368Y-86667677D01*
X189210496Y-86679245D01*
X189175399Y-86693110D01*
X189101028Y-86712933D01*
X188997223Y-86736384D01*
X188873819Y-86761136D01*
X188830741Y-86769143D01*
X188623047Y-86807186D01*
X188458984Y-86837824D01*
X188333130Y-86862274D01*
X188240065Y-86881754D01*
X188174367Y-86897481D01*
X188130617Y-86910673D01*
X188103392Y-86922549D01*
X188087272Y-86934325D01*
X188085017Y-86936653D01*
X188062503Y-86974145D01*
X188028158Y-87047110D01*
X187985411Y-87146612D01*
X187937692Y-87263718D01*
X187888430Y-87389493D01*
X187841055Y-87515002D01*
X187798995Y-87631310D01*
X187765680Y-87729484D01*
X187744541Y-87800588D01*
X187739005Y-87835687D01*
X187739466Y-87836917D01*
X187758223Y-87865606D01*
X187800776Y-87928730D01*
X187862653Y-88019718D01*
X187939382Y-88132000D01*
X188026491Y-88259005D01*
X188051299Y-88295098D01*
X188139753Y-88425948D01*
X188217588Y-88545336D01*
X188280566Y-88646407D01*
X188324445Y-88722304D01*
X188344985Y-88766172D01*
X188345980Y-88771562D01*
X188328722Y-88799889D01*
X188281036Y-88856006D01*
X188209050Y-88933882D01*
X188118897Y-89027485D01*
X188016705Y-89130786D01*
X187908606Y-89237751D01*
X187800728Y-89342351D01*
X187699204Y-89438554D01*
X187610162Y-89520329D01*
X187539733Y-89581645D01*
X187494047Y-89616471D01*
X187481409Y-89622157D01*
X187451991Y-89608765D01*
X187391761Y-89572644D01*
X187310530Y-89519881D01*
X187248030Y-89477412D01*
X187134785Y-89399485D01*
X187000674Y-89307729D01*
X186866155Y-89216120D01*
X186793833Y-89167091D01*
X186549038Y-89001515D01*
X186343551Y-89112620D01*
X186249936Y-89161293D01*
X186170330Y-89199126D01*
X186116467Y-89220703D01*
X186102757Y-89223706D01*
X186086270Y-89201538D01*
X186053745Y-89138894D01*
X186007609Y-89041554D01*
X185950290Y-88915294D01*
X185884216Y-88765895D01*
X185811815Y-88599133D01*
X185735516Y-88420787D01*
X185657746Y-88236636D01*
X185580934Y-88052457D01*
X185507506Y-87874030D01*
X185439892Y-87707132D01*
X185380520Y-87557542D01*
X185331816Y-87431038D01*
X185296210Y-87333399D01*
X185276130Y-87270402D01*
X185272900Y-87248766D01*
X185298496Y-87221169D01*
X185354539Y-87176370D01*
X185429311Y-87123679D01*
X185435587Y-87119510D01*
X185628845Y-86964814D01*
X185784674Y-86784336D01*
X185901724Y-86583847D01*
X185978645Y-86369119D01*
X186014086Y-86145922D01*
X186006697Y-85920026D01*
X185955127Y-85697204D01*
X185858026Y-85483224D01*
X185829458Y-85436409D01*
X185680868Y-85247363D01*
X185505327Y-85095557D01*
X185308910Y-84981779D01*
X185097693Y-84906820D01*
X184877753Y-84871467D01*
X184655163Y-84876512D01*
X184436001Y-84922744D01*
X184226342Y-85010951D01*
X184032261Y-85141924D01*
X183972226Y-85195082D01*
X183819435Y-85361484D01*
X183708097Y-85536657D01*
X183631723Y-85733011D01*
X183589187Y-85927462D01*
X183578686Y-86146087D01*
X183613701Y-86365797D01*
X183690673Y-86579165D01*
X183806047Y-86778767D01*
X183956266Y-86957174D01*
X184137773Y-87106962D01*
X184161627Y-87122751D01*
X184237201Y-87174457D01*
X184294651Y-87219257D01*
X184322117Y-87247862D01*
X184322517Y-87248766D01*
X184316620Y-87279709D01*
X184293245Y-87349936D01*
X184254821Y-87453670D01*
X184203777Y-87585135D01*
X184142542Y-87738552D01*
X184073544Y-87908146D01*
X183999214Y-88088138D01*
X183921978Y-88272753D01*
X183844268Y-88456213D01*
X183768511Y-88632741D01*
X183697137Y-88796559D01*
X183632574Y-88941892D01*
X183577252Y-89062962D01*
X183533600Y-89153992D01*
X183504046Y-89209205D01*
X183492144Y-89223706D01*
X183455777Y-89212414D01*
X183387730Y-89182130D01*
X183299737Y-89138265D01*
X183251351Y-89112620D01*
X183045863Y-89001515D01*
X182801068Y-89167091D01*
X182676106Y-89251915D01*
X182539295Y-89345261D01*
X182411089Y-89433153D01*
X182346871Y-89477412D01*
X182256551Y-89538063D01*
X182180071Y-89586126D01*
X182127407Y-89615515D01*
X182110302Y-89621727D01*
X182085405Y-89604968D01*
X182030305Y-89558181D01*
X181950343Y-89486225D01*
X181850861Y-89393957D01*
X181737200Y-89286235D01*
X181665315Y-89217071D01*
X181539551Y-89093502D01*
X181430863Y-88982979D01*
X181343645Y-88890230D01*
X181282289Y-88819982D01*
X181251191Y-88776965D01*
X181248208Y-88768235D01*
X181262053Y-88735029D01*
X181300312Y-88667887D01*
X181358742Y-88573608D01*
X181433097Y-88458990D01*
X181519135Y-88330828D01*
X181543603Y-88295098D01*
X181632755Y-88165234D01*
X181712738Y-88048314D01*
X181779080Y-87950907D01*
X181827311Y-87879584D01*
X181852957Y-87840915D01*
X181855435Y-87836917D01*
X181851729Y-87806100D01*
X181832061Y-87738344D01*
X181799860Y-87642584D01*
X181758555Y-87527754D01*
X181711575Y-87402789D01*
X181662349Y-87276624D01*
X181614308Y-87158193D01*
X181570881Y-87056430D01*
X181535496Y-86980271D01*
X181511584Y-86938649D01*
X181509884Y-86936653D01*
X181495262Y-86924758D01*
X181470565Y-86912995D01*
X181430372Y-86900146D01*
X181369263Y-86884994D01*
X181281817Y-86866321D01*
X181162612Y-86842910D01*
X181006227Y-86813542D01*
X180807243Y-86777000D01*
X180764160Y-86769143D01*
X180636471Y-86744472D01*
X180525153Y-86720338D01*
X180440045Y-86699069D01*
X180390983Y-86682993D01*
X180384405Y-86679245D01*
X180373564Y-86646018D01*
X180364753Y-86571766D01*
X180357976Y-86465121D01*
X180353240Y-86334712D01*
X180350550Y-86189172D01*
X180349913Y-86037131D01*
X180351334Y-85887221D01*
X180354820Y-85748073D01*
X180360376Y-85628317D01*
X180368008Y-85536586D01*
X180377722Y-85481511D01*
X180383578Y-85470238D01*
X180416180Y-85458868D01*
X180490418Y-85440369D01*
X180598896Y-85416347D01*
X180734217Y-85388407D01*
X180888985Y-85358153D01*
X180973308Y-85342296D01*
X181133296Y-85312389D01*
X181275967Y-85285295D01*
X181394348Y-85262376D01*
X181481465Y-85244988D01*
X181530345Y-85234492D01*
X181538390Y-85232165D01*
X181551987Y-85205931D01*
X181580729Y-85142740D01*
X181620785Y-85051622D01*
X181668324Y-84941602D01*
X181719515Y-84821710D01*
X181770526Y-84700972D01*
X181817526Y-84588416D01*
X181856684Y-84493071D01*
X181884169Y-84423962D01*
X181896149Y-84390119D01*
X181896372Y-84388640D01*
X181882791Y-84361942D01*
X181844715Y-84300505D01*
X181786147Y-84210434D01*
X181711088Y-84097835D01*
X181623540Y-83968815D01*
X181572647Y-83894706D01*
X181479909Y-83758822D01*
X181397541Y-83635454D01*
X181329561Y-83530842D01*
X181279988Y-83451228D01*
X181252842Y-83402852D01*
X181248921Y-83392007D01*
X181265775Y-83366765D01*
X181312368Y-83312869D01*
X181382749Y-83236358D01*
X181470965Y-83143268D01*
X181571065Y-83039640D01*
X181677098Y-82931509D01*
X181783111Y-82824915D01*
X181883152Y-82725895D01*
X181971270Y-82640487D01*
X182041513Y-82574730D01*
X182087928Y-82534661D01*
X182103456Y-82525098D01*
X182128739Y-82538545D01*
X182189211Y-82576320D01*
X182278992Y-82634580D01*
X182392203Y-82709479D01*
X182522964Y-82797170D01*
X182621600Y-82863978D01*
X183119957Y-83202857D01*
X183535371Y-83031610D01*
X183950784Y-82860363D01*
X184063366Y-82263172D01*
X184175949Y-81665980D01*
X185418952Y-81665980D01*
X185531535Y-82263172D01*
D11*
X183348334Y-112752143D02*
X183300715Y-112799762D01*
X183157858Y-112847381D01*
X183062620Y-112847381D01*
X182919762Y-112799762D01*
X182824524Y-112704524D01*
X182776905Y-112609286D01*
X182729286Y-112418810D01*
X182729286Y-112275952D01*
X182776905Y-112085476D01*
X182824524Y-111990238D01*
X182919762Y-111895000D01*
X183062620Y-111847381D01*
X183157858Y-111847381D01*
X183300715Y-111895000D01*
X183348334Y-111942619D01*
X184300715Y-112847381D02*
X183729286Y-112847381D01*
X184015000Y-112847381D02*
X184015000Y-111847381D01*
X183919762Y-111990238D01*
X183824524Y-112085476D01*
X183729286Y-112133095D01*
X183253334Y-119102143D02*
X183205715Y-119149762D01*
X183062858Y-119197381D01*
X182967620Y-119197381D01*
X182824762Y-119149762D01*
X182729524Y-119054524D01*
X182681905Y-118959286D01*
X182634286Y-118768810D01*
X182634286Y-118625952D01*
X182681905Y-118435476D01*
X182729524Y-118340238D01*
X182824762Y-118245000D01*
X182967620Y-118197381D01*
X183062858Y-118197381D01*
X183205715Y-118245000D01*
X183253334Y-118292619D01*
X183634286Y-118292619D02*
X183681905Y-118245000D01*
X183777143Y-118197381D01*
X184015239Y-118197381D01*
X184110477Y-118245000D01*
X184158096Y-118292619D01*
X184205715Y-118387857D01*
X184205715Y-118483095D01*
X184158096Y-118625952D01*
X183586667Y-119197381D01*
X184205715Y-119197381D01*
X165568334Y-94972143D02*
X165520715Y-95019762D01*
X165377858Y-95067381D01*
X165282620Y-95067381D01*
X165139762Y-95019762D01*
X165044524Y-94924524D01*
X164996905Y-94829286D01*
X164949286Y-94638810D01*
X164949286Y-94495952D01*
X164996905Y-94305476D01*
X165044524Y-94210238D01*
X165139762Y-94115000D01*
X165282620Y-94067381D01*
X165377858Y-94067381D01*
X165520715Y-94115000D01*
X165568334Y-94162619D01*
X165901667Y-94067381D02*
X166520715Y-94067381D01*
X166187381Y-94448333D01*
X166330239Y-94448333D01*
X166425477Y-94495952D01*
X166473096Y-94543571D01*
X166520715Y-94638810D01*
X166520715Y-94876905D01*
X166473096Y-94972143D01*
X166425477Y-95019762D01*
X166330239Y-95067381D01*
X166044524Y-95067381D01*
X165949286Y-95019762D01*
X165901667Y-94972143D01*
X170648334Y-108962143D02*
X170600715Y-109009762D01*
X170457858Y-109057381D01*
X170362620Y-109057381D01*
X170219762Y-109009762D01*
X170124524Y-108914524D01*
X170076905Y-108819286D01*
X170029286Y-108628810D01*
X170029286Y-108485952D01*
X170076905Y-108295476D01*
X170124524Y-108200238D01*
X170219762Y-108105000D01*
X170362620Y-108057381D01*
X170457858Y-108057381D01*
X170600715Y-108105000D01*
X170648334Y-108152619D01*
X171505477Y-108390714D02*
X171505477Y-109057381D01*
X171267381Y-108009762D02*
X171029286Y-108724048D01*
X171648334Y-108724048D01*
X131318334Y-94992143D02*
X131270715Y-95039762D01*
X131127858Y-95087381D01*
X131032620Y-95087381D01*
X130889762Y-95039762D01*
X130794524Y-94944524D01*
X130746905Y-94849286D01*
X130699286Y-94658810D01*
X130699286Y-94515952D01*
X130746905Y-94325476D01*
X130794524Y-94230238D01*
X130889762Y-94135000D01*
X131032620Y-94087381D01*
X131127858Y-94087381D01*
X131270715Y-94135000D01*
X131318334Y-94182619D01*
X132223096Y-94087381D02*
X131746905Y-94087381D01*
X131699286Y-94563571D01*
X131746905Y-94515952D01*
X131842143Y-94468333D01*
X132080239Y-94468333D01*
X132175477Y-94515952D01*
X132223096Y-94563571D01*
X132270715Y-94658810D01*
X132270715Y-94896905D01*
X132223096Y-94992143D01*
X132175477Y-95039762D01*
X132080239Y-95087381D01*
X131842143Y-95087381D01*
X131746905Y-95039762D01*
X131699286Y-94992143D01*
X136358334Y-108922143D02*
X136310715Y-108969762D01*
X136167858Y-109017381D01*
X136072620Y-109017381D01*
X135929762Y-108969762D01*
X135834524Y-108874524D01*
X135786905Y-108779286D01*
X135739286Y-108588810D01*
X135739286Y-108445952D01*
X135786905Y-108255476D01*
X135834524Y-108160238D01*
X135929762Y-108065000D01*
X136072620Y-108017381D01*
X136167858Y-108017381D01*
X136310715Y-108065000D01*
X136358334Y-108112619D01*
X137215477Y-108017381D02*
X137025000Y-108017381D01*
X136929762Y-108065000D01*
X136882143Y-108112619D01*
X136786905Y-108255476D01*
X136739286Y-108445952D01*
X136739286Y-108826905D01*
X136786905Y-108922143D01*
X136834524Y-108969762D01*
X136929762Y-109017381D01*
X137120239Y-109017381D01*
X137215477Y-108969762D01*
X137263096Y-108922143D01*
X137310715Y-108826905D01*
X137310715Y-108588810D01*
X137263096Y-108493571D01*
X137215477Y-108445952D01*
X137120239Y-108398333D01*
X136929762Y-108398333D01*
X136834524Y-108445952D01*
X136786905Y-108493571D01*
X136739286Y-108588810D01*
X159821667Y-90257381D02*
X159821667Y-90971667D01*
X159774047Y-91114524D01*
X159678809Y-91209762D01*
X159535952Y-91257381D01*
X159440714Y-91257381D01*
X160297857Y-91257381D02*
X160297857Y-90257381D01*
X160678810Y-90257381D01*
X160774048Y-90305000D01*
X160821667Y-90352619D01*
X160869286Y-90447857D01*
X160869286Y-90590714D01*
X160821667Y-90685952D01*
X160774048Y-90733571D01*
X160678810Y-90781190D01*
X160297857Y-90781190D01*
X161821667Y-91257381D02*
X161250238Y-91257381D01*
X161535952Y-91257381D02*
X161535952Y-90257381D01*
X161440714Y-90400238D01*
X161345476Y-90495476D01*
X161250238Y-90543095D01*
X142041667Y-90257381D02*
X142041667Y-90971667D01*
X141994047Y-91114524D01*
X141898809Y-91209762D01*
X141755952Y-91257381D01*
X141660714Y-91257381D01*
X142517857Y-91257381D02*
X142517857Y-90257381D01*
X142898810Y-90257381D01*
X142994048Y-90305000D01*
X143041667Y-90352619D01*
X143089286Y-90447857D01*
X143089286Y-90590714D01*
X143041667Y-90685952D01*
X142994048Y-90733571D01*
X142898810Y-90781190D01*
X142517857Y-90781190D01*
X143470238Y-90352619D02*
X143517857Y-90305000D01*
X143613095Y-90257381D01*
X143851191Y-90257381D01*
X143946429Y-90305000D01*
X143994048Y-90352619D01*
X144041667Y-90447857D01*
X144041667Y-90543095D01*
X143994048Y-90685952D01*
X143422619Y-91257381D01*
X144041667Y-91257381D01*
X163011905Y-124277381D02*
X163011905Y-123277381D01*
X163392858Y-123277381D01*
X163488096Y-123325000D01*
X163535715Y-123372619D01*
X163583334Y-123467857D01*
X163583334Y-123610714D01*
X163535715Y-123705952D01*
X163488096Y-123753571D01*
X163392858Y-123801190D01*
X163011905Y-123801190D01*
X164535715Y-124277381D02*
X163964286Y-124277381D01*
X164250000Y-124277381D02*
X164250000Y-123277381D01*
X164154762Y-123420238D01*
X164059524Y-123515476D01*
X163964286Y-123563095D01*
X165711905Y-79827381D02*
X165711905Y-78827381D01*
X166092858Y-78827381D01*
X166188096Y-78875000D01*
X166235715Y-78922619D01*
X166283334Y-79017857D01*
X166283334Y-79160714D01*
X166235715Y-79255952D01*
X166188096Y-79303571D01*
X166092858Y-79351190D01*
X165711905Y-79351190D01*
X166664286Y-78922619D02*
X166711905Y-78875000D01*
X166807143Y-78827381D01*
X167045239Y-78827381D01*
X167140477Y-78875000D01*
X167188096Y-78922619D01*
X167235715Y-79017857D01*
X167235715Y-79113095D01*
X167188096Y-79255952D01*
X166616667Y-79827381D01*
X167235715Y-79827381D01*
X145311905Y-79827381D02*
X145311905Y-78827381D01*
X145692858Y-78827381D01*
X145788096Y-78875000D01*
X145835715Y-78922619D01*
X145883334Y-79017857D01*
X145883334Y-79160714D01*
X145835715Y-79255952D01*
X145788096Y-79303571D01*
X145692858Y-79351190D01*
X145311905Y-79351190D01*
X146216667Y-78827381D02*
X146835715Y-78827381D01*
X146502381Y-79208333D01*
X146645239Y-79208333D01*
X146740477Y-79255952D01*
X146788096Y-79303571D01*
X146835715Y-79398810D01*
X146835715Y-79636905D01*
X146788096Y-79732143D01*
X146740477Y-79779762D01*
X146645239Y-79827381D01*
X146359524Y-79827381D01*
X146264286Y-79779762D01*
X146216667Y-79732143D01*
X135706905Y-124277381D02*
X135706905Y-123277381D01*
X136087858Y-123277381D01*
X136183096Y-123325000D01*
X136230715Y-123372619D01*
X136278334Y-123467857D01*
X136278334Y-123610714D01*
X136230715Y-123705952D01*
X136183096Y-123753571D01*
X136087858Y-123801190D01*
X135706905Y-123801190D01*
X137135477Y-123610714D02*
X137135477Y-124277381D01*
X136897381Y-123229762D02*
X136659286Y-123944048D01*
X137278334Y-123944048D01*
X124911905Y-79827381D02*
X124911905Y-78827381D01*
X125292858Y-78827381D01*
X125388096Y-78875000D01*
X125435715Y-78922619D01*
X125483334Y-79017857D01*
X125483334Y-79160714D01*
X125435715Y-79255952D01*
X125388096Y-79303571D01*
X125292858Y-79351190D01*
X124911905Y-79351190D01*
X126388096Y-78827381D02*
X125911905Y-78827381D01*
X125864286Y-79303571D01*
X125911905Y-79255952D01*
X126007143Y-79208333D01*
X126245239Y-79208333D01*
X126340477Y-79255952D01*
X126388096Y-79303571D01*
X126435715Y-79398810D01*
X126435715Y-79636905D01*
X126388096Y-79732143D01*
X126340477Y-79779762D01*
X126245239Y-79827381D01*
X126007143Y-79827381D01*
X125911905Y-79779762D01*
X125864286Y-79732143D01*
X180173334Y-102052381D02*
X179840000Y-101576190D01*
X179601905Y-102052381D02*
X179601905Y-101052381D01*
X179982858Y-101052381D01*
X180078096Y-101100000D01*
X180125715Y-101147619D01*
X180173334Y-101242857D01*
X180173334Y-101385714D01*
X180125715Y-101480952D01*
X180078096Y-101528571D01*
X179982858Y-101576190D01*
X179601905Y-101576190D01*
X181125715Y-102052381D02*
X180554286Y-102052381D01*
X180840000Y-102052381D02*
X180840000Y-101052381D01*
X180744762Y-101195238D01*
X180649524Y-101290476D01*
X180554286Y-101338095D01*
X189063334Y-102052381D02*
X188730000Y-101576190D01*
X188491905Y-102052381D02*
X188491905Y-101052381D01*
X188872858Y-101052381D01*
X188968096Y-101100000D01*
X189015715Y-101147619D01*
X189063334Y-101242857D01*
X189063334Y-101385714D01*
X189015715Y-101480952D01*
X188968096Y-101528571D01*
X188872858Y-101576190D01*
X188491905Y-101576190D01*
X189444286Y-101147619D02*
X189491905Y-101100000D01*
X189587143Y-101052381D01*
X189825239Y-101052381D01*
X189920477Y-101100000D01*
X189968096Y-101147619D01*
X190015715Y-101242857D01*
X190015715Y-101338095D01*
X189968096Y-101480952D01*
X189396667Y-102052381D01*
X190015715Y-102052381D01*
X163028334Y-117292381D02*
X162695000Y-116816190D01*
X162456905Y-117292381D02*
X162456905Y-116292381D01*
X162837858Y-116292381D01*
X162933096Y-116340000D01*
X162980715Y-116387619D01*
X163028334Y-116482857D01*
X163028334Y-116625714D01*
X162980715Y-116720952D01*
X162933096Y-116768571D01*
X162837858Y-116816190D01*
X162456905Y-116816190D01*
X163361667Y-116292381D02*
X163980715Y-116292381D01*
X163647381Y-116673333D01*
X163790239Y-116673333D01*
X163885477Y-116720952D01*
X163933096Y-116768571D01*
X163980715Y-116863810D01*
X163980715Y-117101905D01*
X163933096Y-117197143D01*
X163885477Y-117244762D01*
X163790239Y-117292381D01*
X163504524Y-117292381D01*
X163409286Y-117244762D01*
X163361667Y-117197143D01*
X163028334Y-108402381D02*
X162695000Y-107926190D01*
X162456905Y-108402381D02*
X162456905Y-107402381D01*
X162837858Y-107402381D01*
X162933096Y-107450000D01*
X162980715Y-107497619D01*
X163028334Y-107592857D01*
X163028334Y-107735714D01*
X162980715Y-107830952D01*
X162933096Y-107878571D01*
X162837858Y-107926190D01*
X162456905Y-107926190D01*
X163885477Y-107735714D02*
X163885477Y-108402381D01*
X163647381Y-107354762D02*
X163409286Y-108069048D01*
X164028334Y-108069048D01*
X155408334Y-102052381D02*
X155075000Y-101576190D01*
X154836905Y-102052381D02*
X154836905Y-101052381D01*
X155217858Y-101052381D01*
X155313096Y-101100000D01*
X155360715Y-101147619D01*
X155408334Y-101242857D01*
X155408334Y-101385714D01*
X155360715Y-101480952D01*
X155313096Y-101528571D01*
X155217858Y-101576190D01*
X154836905Y-101576190D01*
X156313096Y-101052381D02*
X155836905Y-101052381D01*
X155789286Y-101528571D01*
X155836905Y-101480952D01*
X155932143Y-101433333D01*
X156170239Y-101433333D01*
X156265477Y-101480952D01*
X156313096Y-101528571D01*
X156360715Y-101623810D01*
X156360715Y-101861905D01*
X156313096Y-101957143D01*
X156265477Y-102004762D01*
X156170239Y-102052381D01*
X155932143Y-102052381D01*
X155836905Y-102004762D01*
X155789286Y-101957143D01*
X142708334Y-102052381D02*
X142375000Y-101576190D01*
X142136905Y-102052381D02*
X142136905Y-101052381D01*
X142517858Y-101052381D01*
X142613096Y-101100000D01*
X142660715Y-101147619D01*
X142708334Y-101242857D01*
X142708334Y-101385714D01*
X142660715Y-101480952D01*
X142613096Y-101528571D01*
X142517858Y-101576190D01*
X142136905Y-101576190D01*
X143565477Y-101052381D02*
X143375000Y-101052381D01*
X143279762Y-101100000D01*
X143232143Y-101147619D01*
X143136905Y-101290476D01*
X143089286Y-101480952D01*
X143089286Y-101861905D01*
X143136905Y-101957143D01*
X143184524Y-102004762D01*
X143279762Y-102052381D01*
X143470239Y-102052381D01*
X143565477Y-102004762D01*
X143613096Y-101957143D01*
X143660715Y-101861905D01*
X143660715Y-101623810D01*
X143613096Y-101528571D01*
X143565477Y-101480952D01*
X143470239Y-101433333D01*
X143279762Y-101433333D01*
X143184524Y-101480952D01*
X143136905Y-101528571D01*
X143089286Y-101623810D01*
X151598334Y-102052381D02*
X151265000Y-101576190D01*
X151026905Y-102052381D02*
X151026905Y-101052381D01*
X151407858Y-101052381D01*
X151503096Y-101100000D01*
X151550715Y-101147619D01*
X151598334Y-101242857D01*
X151598334Y-101385714D01*
X151550715Y-101480952D01*
X151503096Y-101528571D01*
X151407858Y-101576190D01*
X151026905Y-101576190D01*
X151931667Y-101052381D02*
X152598334Y-101052381D01*
X152169762Y-102052381D01*
X148672254Y-107442261D02*
X148338920Y-106966070D01*
X148100825Y-107442261D02*
X148100825Y-106442261D01*
X148481778Y-106442261D01*
X148577016Y-106489880D01*
X148624635Y-106537499D01*
X148672254Y-106632737D01*
X148672254Y-106775594D01*
X148624635Y-106870832D01*
X148577016Y-106918451D01*
X148481778Y-106966070D01*
X148100825Y-106966070D01*
X149243682Y-106870832D02*
X149148444Y-106823213D01*
X149100825Y-106775594D01*
X149053206Y-106680356D01*
X149053206Y-106632737D01*
X149100825Y-106537499D01*
X149148444Y-106489880D01*
X149243682Y-106442261D01*
X149434159Y-106442261D01*
X149529397Y-106489880D01*
X149577016Y-106537499D01*
X149624635Y-106632737D01*
X149624635Y-106680356D01*
X149577016Y-106775594D01*
X149529397Y-106823213D01*
X149434159Y-106870832D01*
X149243682Y-106870832D01*
X149148444Y-106918451D01*
X149100825Y-106966070D01*
X149053206Y-107061309D01*
X149053206Y-107251785D01*
X149100825Y-107347023D01*
X149148444Y-107394642D01*
X149243682Y-107442261D01*
X149434159Y-107442261D01*
X149529397Y-107394642D01*
X149577016Y-107347023D01*
X149624635Y-107251785D01*
X149624635Y-107061309D01*
X149577016Y-106966070D01*
X149529397Y-106918451D01*
X149434159Y-106870832D01*
X121118334Y-102052381D02*
X120785000Y-101576190D01*
X120546905Y-102052381D02*
X120546905Y-101052381D01*
X120927858Y-101052381D01*
X121023096Y-101100000D01*
X121070715Y-101147619D01*
X121118334Y-101242857D01*
X121118334Y-101385714D01*
X121070715Y-101480952D01*
X121023096Y-101528571D01*
X120927858Y-101576190D01*
X120546905Y-101576190D01*
X121594524Y-102052381D02*
X121785000Y-102052381D01*
X121880239Y-102004762D01*
X121927858Y-101957143D01*
X122023096Y-101814286D01*
X122070715Y-101623810D01*
X122070715Y-101242857D01*
X122023096Y-101147619D01*
X121975477Y-101100000D01*
X121880239Y-101052381D01*
X121689762Y-101052381D01*
X121594524Y-101100000D01*
X121546905Y-101147619D01*
X121499286Y-101242857D01*
X121499286Y-101480952D01*
X121546905Y-101576190D01*
X121594524Y-101623810D01*
X121689762Y-101671429D01*
X121880239Y-101671429D01*
X121975477Y-101623810D01*
X122023096Y-101576190D01*
X122070715Y-101480952D01*
X123182143Y-91892381D02*
X122848809Y-91416190D01*
X122610714Y-91892381D02*
X122610714Y-90892381D01*
X122991667Y-90892381D01*
X123086905Y-90940000D01*
X123134524Y-90987619D01*
X123182143Y-91082857D01*
X123182143Y-91225714D01*
X123134524Y-91320952D01*
X123086905Y-91368571D01*
X122991667Y-91416190D01*
X122610714Y-91416190D01*
X124134524Y-91892381D02*
X123563095Y-91892381D01*
X123848809Y-91892381D02*
X123848809Y-90892381D01*
X123753571Y-91035238D01*
X123658333Y-91130476D01*
X123563095Y-91178095D01*
X124753571Y-90892381D02*
X124848810Y-90892381D01*
X124944048Y-90940000D01*
X124991667Y-90987619D01*
X125039286Y-91082857D01*
X125086905Y-91273333D01*
X125086905Y-91511429D01*
X125039286Y-91701905D01*
X124991667Y-91797143D01*
X124944048Y-91844762D01*
X124848810Y-91892381D01*
X124753571Y-91892381D01*
X124658333Y-91844762D01*
X124610714Y-91797143D01*
X124563095Y-91701905D01*
X124515476Y-91511429D01*
X124515476Y-91273333D01*
X124563095Y-91082857D01*
X124610714Y-90987619D01*
X124658333Y-90940000D01*
X124753571Y-90892381D01*
X153074762Y-129992381D02*
X152741428Y-129516190D01*
X152503333Y-129992381D02*
X152503333Y-128992381D01*
X152884286Y-128992381D01*
X152979524Y-129040000D01*
X153027143Y-129087619D01*
X153074762Y-129182857D01*
X153074762Y-129325714D01*
X153027143Y-129420952D01*
X152979524Y-129468571D01*
X152884286Y-129516190D01*
X152503333Y-129516190D01*
X153360476Y-128992381D02*
X153693809Y-129992381D01*
X154027143Y-128992381D01*
X154884286Y-129992381D02*
X154312857Y-129992381D01*
X154598571Y-129992381D02*
X154598571Y-128992381D01*
X154503333Y-129135238D01*
X154408095Y-129230476D01*
X154312857Y-129278095D01*
X161163095Y-101052381D02*
X161163095Y-101861905D01*
X161210714Y-101957143D01*
X161258333Y-102004762D01*
X161353571Y-102052381D01*
X161544048Y-102052381D01*
X161639286Y-102004762D01*
X161686905Y-101957143D01*
X161734524Y-101861905D01*
X161734524Y-101052381D01*
X162734524Y-102052381D02*
X162163095Y-102052381D01*
X162448809Y-102052381D02*
X162448809Y-101052381D01*
X162353571Y-101195238D01*
X162258333Y-101290476D01*
X162163095Y-101338095D01*
X126873095Y-101052381D02*
X126873095Y-101861905D01*
X126920714Y-101957143D01*
X126968333Y-102004762D01*
X127063571Y-102052381D01*
X127254048Y-102052381D01*
X127349286Y-102004762D01*
X127396905Y-101957143D01*
X127444524Y-101861905D01*
X127444524Y-101052381D01*
X127873095Y-101147619D02*
X127920714Y-101100000D01*
X128015952Y-101052381D01*
X128254048Y-101052381D01*
X128349286Y-101100000D01*
X128396905Y-101147619D01*
X128444524Y-101242857D01*
X128444524Y-101338095D01*
X128396905Y-101480952D01*
X127825476Y-102052381D01*
X128444524Y-102052381D01*
X159750238Y-122642381D02*
X159988333Y-123642381D01*
X160178810Y-122928095D01*
X160369286Y-123642381D01*
X160607381Y-122642381D01*
X161512143Y-123642381D02*
X160940714Y-123642381D01*
X161226428Y-123642381D02*
X161226428Y-122642381D01*
X161131190Y-122785238D01*
X161035952Y-122880476D01*
X160940714Y-122928095D01*
X169910238Y-91527381D02*
X170148333Y-92527381D01*
X170338810Y-91813095D01*
X170529286Y-92527381D01*
X170767381Y-91527381D01*
X171100714Y-91622619D02*
X171148333Y-91575000D01*
X171243571Y-91527381D01*
X171481667Y-91527381D01*
X171576905Y-91575000D01*
X171624524Y-91622619D01*
X171672143Y-91717857D01*
X171672143Y-91813095D01*
X171624524Y-91955952D01*
X171053095Y-92527381D01*
X171672143Y-92527381D01*
X135620238Y-91527381D02*
X135858333Y-92527381D01*
X136048810Y-91813095D01*
X136239286Y-92527381D01*
X136477381Y-91527381D01*
X136763095Y-91527381D02*
X137382143Y-91527381D01*
X137048809Y-91908333D01*
X137191667Y-91908333D01*
X137286905Y-91955952D01*
X137334524Y-92003571D01*
X137382143Y-92098810D01*
X137382143Y-92336905D01*
X137334524Y-92432143D01*
X137286905Y-92479762D01*
X137191667Y-92527381D01*
X136905952Y-92527381D01*
X136810714Y-92479762D01*
X136763095Y-92432143D01*
M02*
