G04 #@! TF.FileFunction,Soldermask,Top*
%FSLAX46Y46*%
G04 Gerber Fmt 4.6, Leading zero omitted, Abs format (unit mm)*
G04 Created by KiCad (PCBNEW 4.0.2+dfsg1-stable) date Mon 23 Oct 2017 16:48:42 CEST*
%MOMM*%
G01*
G04 APERTURE LIST*
%ADD10C,0.100000*%
%ADD11R,1.700000X1.700000*%
%ADD12C,1.700000*%
%ADD13R,2.432000X2.432000*%
%ADD14O,2.432000X2.432000*%
%ADD15C,2.900000*%
%ADD16R,2.900000X2.900000*%
%ADD17C,2.398980*%
%ADD18C,1.924000*%
%ADD19O,2.000000X2.000000*%
%ADD20C,3.900120*%
%ADD21C,3.900000*%
G04 APERTURE END LIST*
D10*
D11*
X188595000Y-112395000D03*
D12*
X186595000Y-112395000D03*
D11*
X186595000Y-118745000D03*
D12*
X188595000Y-118745000D03*
D11*
X168275000Y-95845000D03*
D12*
X168275000Y-93345000D03*
D11*
X173355000Y-107355000D03*
D12*
X173355000Y-109855000D03*
D11*
X133985000Y-95885000D03*
D12*
X133985000Y-93385000D03*
D11*
X139065000Y-107315000D03*
D12*
X139065000Y-109815000D03*
D13*
X157480000Y-90805000D03*
D14*
X154940000Y-90805000D03*
D13*
X146050000Y-90805000D03*
D14*
X148590000Y-90805000D03*
D15*
X177720000Y-123825000D03*
D16*
X167720000Y-123825000D03*
D15*
X172720000Y-123825000D03*
D16*
X175260000Y-79375000D03*
D15*
X170260000Y-79375000D03*
D16*
X154940000Y-79375000D03*
D15*
X149940000Y-79375000D03*
D16*
X140335000Y-123825000D03*
D15*
X145335000Y-123825000D03*
D16*
X134540000Y-79375000D03*
D15*
X129540000Y-79375000D03*
D17*
X182880000Y-106680000D03*
X182880000Y-96520000D03*
X186690000Y-106680000D03*
X186690000Y-96520000D03*
X168275000Y-114300000D03*
X158115000Y-114300000D03*
X168275000Y-110490000D03*
X158115000Y-110490000D03*
X158115000Y-96520000D03*
X158115000Y-106680000D03*
X145415000Y-106680000D03*
X145415000Y-96520000D03*
X149225000Y-106680000D03*
X149225000Y-96520000D03*
X143510000Y-110490000D03*
X153670000Y-110490000D03*
X123825000Y-96520000D03*
X123825000Y-106680000D03*
X128905000Y-88900000D03*
X118745000Y-88900000D03*
D18*
X153670000Y-123190000D03*
X153670000Y-125730000D03*
X153670000Y-120650000D03*
D19*
X165735000Y-105410000D03*
X168275000Y-105410000D03*
X170815000Y-105410000D03*
X173355000Y-105410000D03*
X173355000Y-97790000D03*
X170815000Y-97790000D03*
X168275000Y-97790000D03*
X165735000Y-97790000D03*
X131445000Y-105410000D03*
X133985000Y-105410000D03*
X136525000Y-105410000D03*
X139065000Y-105410000D03*
X139065000Y-97790000D03*
X136525000Y-97790000D03*
X133985000Y-97790000D03*
X131445000Y-97790000D03*
D20*
X160655000Y-120015000D03*
X170815000Y-88900000D03*
X136525000Y-88900000D03*
D21*
X117400000Y-76600000D03*
X187400000Y-76600000D03*
X187400000Y-126600000D03*
X117400000Y-126600000D03*
M02*
