G04 #@! TF.FileFunction,Copper,L2,Bot,Signal*
%FSLAX46Y46*%
G04 Gerber Fmt 4.6, Leading zero omitted, Abs format (unit mm)*
G04 Created by KiCad (PCBNEW 4.0.2+dfsg1-stable) date Mon 23 Oct 2017 16:48:42 CEST*
%MOMM*%
G01*
G04 APERTURE LIST*
%ADD10C,0.100000*%
%ADD11R,1.300000X1.300000*%
%ADD12C,1.300000*%
%ADD13R,2.032000X2.032000*%
%ADD14O,2.032000X2.032000*%
%ADD15C,2.500000*%
%ADD16R,2.500000X2.500000*%
%ADD17C,1.998980*%
%ADD18C,1.524000*%
%ADD19O,1.600000X1.600000*%
%ADD20C,3.500120*%
%ADD21C,1.200000*%
%ADD22C,0.500000*%
%ADD23C,0.254000*%
G04 APERTURE END LIST*
D10*
D11*
X188595000Y-112395000D03*
D12*
X186595000Y-112395000D03*
D11*
X186595000Y-118745000D03*
D12*
X188595000Y-118745000D03*
D11*
X168275000Y-95845000D03*
D12*
X168275000Y-93345000D03*
D11*
X173355000Y-107355000D03*
D12*
X173355000Y-109855000D03*
D11*
X133985000Y-95885000D03*
D12*
X133985000Y-93385000D03*
D11*
X139065000Y-107315000D03*
D12*
X139065000Y-109815000D03*
D13*
X157480000Y-90805000D03*
D14*
X154940000Y-90805000D03*
D13*
X146050000Y-90805000D03*
D14*
X148590000Y-90805000D03*
D15*
X177720000Y-123825000D03*
D16*
X167720000Y-123825000D03*
D15*
X172720000Y-123825000D03*
D16*
X175260000Y-79375000D03*
D15*
X170260000Y-79375000D03*
D16*
X154940000Y-79375000D03*
D15*
X149940000Y-79375000D03*
D16*
X140335000Y-123825000D03*
D15*
X145335000Y-123825000D03*
D16*
X134540000Y-79375000D03*
D15*
X129540000Y-79375000D03*
D17*
X182880000Y-106680000D03*
X182880000Y-96520000D03*
X186690000Y-106680000D03*
X186690000Y-96520000D03*
X168275000Y-114300000D03*
X158115000Y-114300000D03*
X168275000Y-110490000D03*
X158115000Y-110490000D03*
X158115000Y-96520000D03*
X158115000Y-106680000D03*
X145415000Y-106680000D03*
X145415000Y-96520000D03*
X149225000Y-106680000D03*
X149225000Y-96520000D03*
X143510000Y-110490000D03*
X153670000Y-110490000D03*
X123825000Y-96520000D03*
X123825000Y-106680000D03*
X128905000Y-88900000D03*
X118745000Y-88900000D03*
D18*
X153670000Y-123190000D03*
X153670000Y-125730000D03*
X153670000Y-120650000D03*
D19*
X165735000Y-105410000D03*
X168275000Y-105410000D03*
X170815000Y-105410000D03*
X173355000Y-105410000D03*
X173355000Y-97790000D03*
X170815000Y-97790000D03*
X168275000Y-97790000D03*
X165735000Y-97790000D03*
X131445000Y-105410000D03*
X133985000Y-105410000D03*
X136525000Y-105410000D03*
X139065000Y-105410000D03*
X139065000Y-97790000D03*
X136525000Y-97790000D03*
X133985000Y-97790000D03*
X131445000Y-97790000D03*
D20*
X160655000Y-120015000D03*
X170815000Y-88900000D03*
X136525000Y-88900000D03*
D21*
X151765000Y-104775000D03*
D22*
X182880000Y-106680000D02*
X175895000Y-99695000D01*
X175895000Y-99695000D02*
X168910000Y-99695000D01*
X167720000Y-123825000D02*
X167720000Y-125575000D01*
X167720000Y-125575000D02*
X171685000Y-129540000D01*
X171685000Y-129540000D02*
X187960000Y-129540000D01*
X187960000Y-129540000D02*
X190500000Y-127000000D01*
X190500000Y-127000000D02*
X190500000Y-115450000D01*
X190500000Y-115450000D02*
X188595000Y-113545000D01*
X188595000Y-113545000D02*
X188595000Y-112395000D01*
X168275000Y-121520000D02*
X168275000Y-114300000D01*
X167720000Y-123825000D02*
X167720000Y-122075000D01*
X167720000Y-122075000D02*
X168275000Y-121520000D01*
X133985000Y-97790000D02*
X133985000Y-95885000D01*
X168910000Y-99695000D02*
X168275000Y-99695000D01*
X168275000Y-99695000D02*
X167640000Y-99695000D01*
X168275000Y-99060000D02*
X168275000Y-99695000D01*
X167640000Y-99695000D02*
X134620000Y-99695000D01*
X168275000Y-99060000D02*
X167640000Y-99695000D01*
X133985000Y-99060000D02*
X133985000Y-97790000D01*
X134620000Y-99695000D02*
X133985000Y-99060000D01*
X168275000Y-97790000D02*
X168275000Y-95845000D01*
X168275000Y-99060000D02*
X168275000Y-97790000D01*
X168910000Y-99695000D02*
X168275000Y-99060000D01*
X186690000Y-106680000D02*
X182880000Y-106680000D01*
X188595000Y-112395000D02*
X188595000Y-107315000D01*
X188595000Y-107315000D02*
X187960000Y-106680000D01*
X187960000Y-106680000D02*
X186690000Y-106680000D01*
X155575000Y-112395000D02*
X155575000Y-110490000D01*
X155575000Y-117667370D02*
X155575000Y-110490000D01*
X155575000Y-110490000D02*
X155575000Y-104140000D01*
X153670000Y-120650000D02*
X153670000Y-119572370D01*
X153670000Y-119572370D02*
X155575000Y-117667370D01*
X188595000Y-118745000D02*
X188595000Y-120650000D01*
X185420000Y-123825000D02*
X177720000Y-123825000D01*
X188595000Y-120650000D02*
X185420000Y-123825000D01*
X186690000Y-115570000D02*
X182245000Y-115570000D01*
X188595000Y-118745000D02*
X188595000Y-117475000D01*
X186690000Y-115570000D02*
X188595000Y-117475000D01*
X182245000Y-115570000D02*
X179070000Y-112395000D01*
X179070000Y-112395000D02*
X179070000Y-106680000D01*
X179070000Y-106680000D02*
X175895000Y-103505000D01*
X175895000Y-103505000D02*
X174625000Y-103505000D01*
X151765000Y-103505000D02*
X151130000Y-103505000D01*
X151130000Y-103505000D02*
X139700000Y-103505000D01*
X151765000Y-104140000D02*
X151130000Y-103505000D01*
X151765000Y-104140000D02*
X151765000Y-103505000D01*
X151765000Y-104775000D02*
X151765000Y-104140000D01*
X154940000Y-103505000D02*
X152400000Y-103505000D01*
X152400000Y-103505000D02*
X151765000Y-103505000D01*
X151765000Y-104140000D02*
X152400000Y-103505000D01*
X155575000Y-103505000D02*
X154940000Y-103505000D01*
X156210000Y-103505000D02*
X155575000Y-103505000D01*
X155575000Y-103505000D02*
X155575000Y-104140000D01*
X155575000Y-104140000D02*
X154940000Y-103505000D01*
X172720000Y-103505000D02*
X156210000Y-103505000D01*
X155575000Y-104140000D02*
X156210000Y-103505000D01*
X139065000Y-105410000D02*
X139065000Y-107315000D01*
X173355000Y-103505000D02*
X174625000Y-103505000D01*
X172720000Y-103505000D02*
X173355000Y-103505000D01*
X173355000Y-103505000D02*
X173355000Y-104140000D01*
X174625000Y-103505000D02*
X173990000Y-103505000D01*
X173355000Y-104140000D02*
X172720000Y-103505000D01*
X139700000Y-103505000D02*
X139065000Y-104140000D01*
X139065000Y-104140000D02*
X139065000Y-105410000D01*
X173990000Y-103505000D02*
X173355000Y-104140000D01*
X173355000Y-104140000D02*
X173355000Y-105410000D01*
X173355000Y-105410000D02*
X173355000Y-107355000D01*
X163195000Y-90805000D02*
X165100000Y-88900000D01*
X165100000Y-88900000D02*
X170815000Y-88900000D01*
X157480000Y-90805000D02*
X163195000Y-90805000D01*
X157480000Y-93345000D02*
X158115000Y-93980000D01*
X158115000Y-93980000D02*
X158115000Y-96520000D01*
X157480000Y-90805000D02*
X157480000Y-93345000D01*
X170815000Y-88900000D02*
X170815000Y-97790000D01*
X154305000Y-88265000D02*
X154940000Y-88900000D01*
X154940000Y-88900000D02*
X154940000Y-90805000D01*
X146685000Y-88265000D02*
X154305000Y-88265000D01*
X146050000Y-88900000D02*
X146685000Y-88265000D01*
X146050000Y-90805000D02*
X146050000Y-88900000D01*
X146050000Y-93345000D02*
X145415000Y-93980000D01*
X145415000Y-93980000D02*
X145415000Y-96520000D01*
X146050000Y-90805000D02*
X146050000Y-93345000D01*
X148590000Y-90805000D02*
X148590000Y-93345000D01*
X148590000Y-93345000D02*
X149225000Y-93980000D01*
X149225000Y-93980000D02*
X149225000Y-96520000D01*
X182880000Y-96520000D02*
X182880000Y-85245000D01*
X182880000Y-85245000D02*
X177010000Y-79375000D01*
X177010000Y-79375000D02*
X175260000Y-79375000D01*
X186690000Y-96520000D02*
X182880000Y-96520000D01*
X158115000Y-114300000D02*
X158115000Y-117475000D01*
X158115000Y-117475000D02*
X160655000Y-120015000D01*
X158115000Y-110490000D02*
X158115000Y-114300000D01*
X136525000Y-85725000D02*
X134540000Y-83740000D01*
X134540000Y-83740000D02*
X134540000Y-79375000D01*
X136525000Y-88900000D02*
X136525000Y-85725000D01*
X128905000Y-88900000D02*
X136525000Y-88900000D01*
X168275000Y-107950000D02*
X168275000Y-106680000D01*
X167005000Y-107950000D02*
X167640000Y-107950000D01*
X168275000Y-108585000D02*
X168275000Y-107950000D01*
X159385000Y-107950000D02*
X167005000Y-107950000D01*
X168275000Y-107950000D02*
X167005000Y-107950000D01*
X168275000Y-110490000D02*
X168275000Y-108585000D01*
X167640000Y-107950000D02*
X168275000Y-108585000D01*
X168275000Y-107315000D02*
X168275000Y-106680000D01*
X168275000Y-106680000D02*
X168275000Y-105410000D01*
X167640000Y-107950000D02*
X168275000Y-107315000D01*
X158115000Y-106680000D02*
X159385000Y-107950000D01*
X137160000Y-111760000D02*
X142240000Y-111760000D01*
X133985000Y-108585000D02*
X137160000Y-111760000D01*
X133985000Y-107950000D02*
X133985000Y-108585000D01*
X133985000Y-107315000D02*
X133985000Y-107950000D01*
X125095000Y-107950000D02*
X132715000Y-107950000D01*
X132715000Y-107950000D02*
X133350000Y-107950000D01*
X133985000Y-107950000D02*
X132715000Y-107950000D01*
X133350000Y-107950000D02*
X133985000Y-108585000D01*
X133985000Y-105410000D02*
X133985000Y-107315000D01*
X123825000Y-106680000D02*
X125095000Y-107950000D01*
X133350000Y-107950000D02*
X133985000Y-107315000D01*
X142240000Y-111760000D02*
X143510000Y-110490000D01*
X145415000Y-106680000D02*
X149225000Y-106680000D01*
X143510000Y-110490000D02*
X145415000Y-108585000D01*
X145415000Y-108585000D02*
X145415000Y-106680000D01*
X152400000Y-123190000D02*
X153670000Y-123190000D01*
X151130000Y-121920000D02*
X152400000Y-123190000D01*
X153670000Y-110490000D02*
X151130000Y-113030000D01*
X151130000Y-113030000D02*
X151130000Y-121920000D01*
X123825000Y-91440000D02*
X123190000Y-91440000D01*
X124460000Y-91440000D02*
X123825000Y-91440000D01*
X123825000Y-91440000D02*
X123825000Y-92075000D01*
X118745000Y-90805000D02*
X118745000Y-88900000D01*
X123825000Y-92075000D02*
X123190000Y-91440000D01*
X123190000Y-91440000D02*
X119380000Y-91440000D01*
X119380000Y-91440000D02*
X118745000Y-90805000D01*
X124460000Y-91440000D02*
X123825000Y-92075000D01*
X123825000Y-92075000D02*
X123825000Y-96520000D01*
X135890000Y-91440000D02*
X124460000Y-91440000D01*
X136525000Y-92075000D02*
X135890000Y-91440000D01*
X136525000Y-97790000D02*
X136525000Y-92075000D01*
D23*
G36*
X191752500Y-73012106D02*
X191752500Y-130187894D01*
X190987894Y-130952500D01*
X113812106Y-130952500D01*
X113047500Y-130187894D01*
X113047500Y-127072325D01*
X115014587Y-127072325D01*
X115376916Y-127949229D01*
X116047242Y-128620726D01*
X116923513Y-128984585D01*
X117872325Y-128985413D01*
X118749229Y-128623084D01*
X119420726Y-127952758D01*
X119784585Y-127076487D01*
X119784904Y-126710213D01*
X152869392Y-126710213D01*
X152938857Y-126952397D01*
X153462302Y-127139144D01*
X154017368Y-127111362D01*
X154401143Y-126952397D01*
X154470608Y-126710213D01*
X153670000Y-125909605D01*
X152869392Y-126710213D01*
X119784904Y-126710213D01*
X119785413Y-126127675D01*
X119423084Y-125250771D01*
X118752758Y-124579274D01*
X117876487Y-124215415D01*
X116927675Y-124214587D01*
X116050771Y-124576916D01*
X115379274Y-125247242D01*
X115015415Y-126123513D01*
X115014587Y-127072325D01*
X113047500Y-127072325D01*
X113047500Y-122575000D01*
X138437560Y-122575000D01*
X138437560Y-125075000D01*
X138481838Y-125310317D01*
X138620910Y-125526441D01*
X138833110Y-125671431D01*
X139085000Y-125722440D01*
X141585000Y-125722440D01*
X141820317Y-125678162D01*
X142036441Y-125539090D01*
X142181431Y-125326890D01*
X142215567Y-125158320D01*
X144181285Y-125158320D01*
X144310533Y-125451123D01*
X145010806Y-125719388D01*
X145760435Y-125699250D01*
X146187625Y-125522302D01*
X152260856Y-125522302D01*
X152288638Y-126077368D01*
X152447603Y-126461143D01*
X152689787Y-126530608D01*
X153490395Y-125730000D01*
X153849605Y-125730000D01*
X154650213Y-126530608D01*
X154892397Y-126461143D01*
X155079144Y-125937698D01*
X155051362Y-125382632D01*
X154892397Y-124998857D01*
X154650213Y-124929392D01*
X153849605Y-125730000D01*
X153490395Y-125730000D01*
X152689787Y-124929392D01*
X152447603Y-124998857D01*
X152260856Y-125522302D01*
X146187625Y-125522302D01*
X146359467Y-125451123D01*
X146488715Y-125158320D01*
X145335000Y-124004605D01*
X144181285Y-125158320D01*
X142215567Y-125158320D01*
X142232440Y-125075000D01*
X142232440Y-123500806D01*
X143440612Y-123500806D01*
X143460750Y-124250435D01*
X143708877Y-124849467D01*
X144001680Y-124978715D01*
X145155395Y-123825000D01*
X145514605Y-123825000D01*
X146668320Y-124978715D01*
X146961123Y-124849467D01*
X147229388Y-124149194D01*
X147209250Y-123399565D01*
X146961123Y-122800533D01*
X146668320Y-122671285D01*
X145514605Y-123825000D01*
X145155395Y-123825000D01*
X144001680Y-122671285D01*
X143708877Y-122800533D01*
X143440612Y-123500806D01*
X142232440Y-123500806D01*
X142232440Y-122575000D01*
X142216763Y-122491680D01*
X144181285Y-122491680D01*
X145335000Y-123645395D01*
X146488715Y-122491680D01*
X146359467Y-122198877D01*
X145659194Y-121930612D01*
X144909565Y-121950750D01*
X144310533Y-122198877D01*
X144181285Y-122491680D01*
X142216763Y-122491680D01*
X142188162Y-122339683D01*
X142049090Y-122123559D01*
X141836890Y-121978569D01*
X141585000Y-121927560D01*
X139085000Y-121927560D01*
X138849683Y-121971838D01*
X138633559Y-122110910D01*
X138488569Y-122323110D01*
X138437560Y-122575000D01*
X113047500Y-122575000D01*
X113047500Y-107003694D01*
X122190226Y-107003694D01*
X122438538Y-107604655D01*
X122897927Y-108064846D01*
X123498453Y-108314206D01*
X124148694Y-108314774D01*
X124190798Y-108297377D01*
X124469208Y-108575787D01*
X124469210Y-108575790D01*
X124693102Y-108725389D01*
X124756325Y-108767633D01*
X125095000Y-108835001D01*
X125095005Y-108835000D01*
X132983420Y-108835000D01*
X133359208Y-109210787D01*
X133359210Y-109210790D01*
X136534208Y-112385787D01*
X136534210Y-112385790D01*
X136821325Y-112577633D01*
X136877516Y-112588810D01*
X137160000Y-112645001D01*
X137160005Y-112645000D01*
X142239995Y-112645000D01*
X142240000Y-112645001D01*
X142522484Y-112588810D01*
X142578675Y-112577633D01*
X142865790Y-112385790D01*
X143143828Y-112107752D01*
X143183453Y-112124206D01*
X143833694Y-112124774D01*
X144434655Y-111876462D01*
X144894846Y-111417073D01*
X145144206Y-110816547D01*
X145144774Y-110166306D01*
X145127377Y-110124202D01*
X146040787Y-109210792D01*
X146040790Y-109210790D01*
X146232633Y-108923675D01*
X146246248Y-108855226D01*
X146300001Y-108585000D01*
X146300000Y-108584995D01*
X146300000Y-108082847D01*
X146339655Y-108066462D01*
X146799846Y-107607073D01*
X146817316Y-107565000D01*
X147822153Y-107565000D01*
X147838538Y-107604655D01*
X148297927Y-108064846D01*
X148898453Y-108314206D01*
X149548694Y-108314774D01*
X150149655Y-108066462D01*
X150609846Y-107607073D01*
X150859206Y-107006547D01*
X150859774Y-106356306D01*
X150611462Y-105755345D01*
X150152073Y-105295154D01*
X149551547Y-105045794D01*
X148901306Y-105045226D01*
X148300345Y-105293538D01*
X147840154Y-105752927D01*
X147822684Y-105795000D01*
X146817847Y-105795000D01*
X146801462Y-105755345D01*
X146342073Y-105295154D01*
X145741547Y-105045794D01*
X145091306Y-105045226D01*
X144490345Y-105293538D01*
X144030154Y-105752927D01*
X143780794Y-106353453D01*
X143780226Y-107003694D01*
X144028538Y-107604655D01*
X144487927Y-108064846D01*
X144530000Y-108082316D01*
X144530000Y-108218421D01*
X143876173Y-108872248D01*
X143836547Y-108855794D01*
X143186306Y-108855226D01*
X142585345Y-109103538D01*
X142125154Y-109562927D01*
X141875794Y-110163453D01*
X141875226Y-110813694D01*
X141892623Y-110855797D01*
X141873420Y-110875000D01*
X139745538Y-110875000D01*
X139784410Y-110714016D01*
X139065000Y-109994605D01*
X138345590Y-110714016D01*
X138384462Y-110875000D01*
X137526579Y-110875000D01*
X136285658Y-109634078D01*
X137767378Y-109634078D01*
X137796917Y-110144428D01*
X137935389Y-110478729D01*
X138165984Y-110534410D01*
X138885395Y-109815000D01*
X139244605Y-109815000D01*
X139964016Y-110534410D01*
X140194611Y-110478729D01*
X140362622Y-109995922D01*
X140333083Y-109485572D01*
X140194611Y-109151271D01*
X139964016Y-109095590D01*
X139244605Y-109815000D01*
X138885395Y-109815000D01*
X138165984Y-109095590D01*
X137935389Y-109151271D01*
X137767378Y-109634078D01*
X136285658Y-109634078D01*
X134870000Y-108218420D01*
X134870000Y-107315005D01*
X134870001Y-107315000D01*
X134870000Y-107314995D01*
X134870000Y-106539473D01*
X134999698Y-106452811D01*
X135269986Y-106048297D01*
X135372611Y-106265134D01*
X135787577Y-106641041D01*
X136175961Y-106801904D01*
X136398000Y-106679915D01*
X136398000Y-105537000D01*
X136378000Y-105537000D01*
X136378000Y-105283000D01*
X136398000Y-105283000D01*
X136398000Y-104140085D01*
X136175961Y-104018096D01*
X135787577Y-104178959D01*
X135372611Y-104554866D01*
X135269986Y-104771703D01*
X134999698Y-104367189D01*
X134534151Y-104056120D01*
X133985000Y-103946887D01*
X133435849Y-104056120D01*
X132970302Y-104367189D01*
X132715000Y-104749275D01*
X132459698Y-104367189D01*
X131994151Y-104056120D01*
X131445000Y-103946887D01*
X130895849Y-104056120D01*
X130430302Y-104367189D01*
X130119233Y-104832736D01*
X130010000Y-105381887D01*
X130010000Y-105438113D01*
X130119233Y-105987264D01*
X130430302Y-106452811D01*
X130895849Y-106763880D01*
X131445000Y-106873113D01*
X131994151Y-106763880D01*
X132459698Y-106452811D01*
X132715000Y-106070725D01*
X132970302Y-106452811D01*
X133100000Y-106539473D01*
X133100000Y-106948421D01*
X132983420Y-107065000D01*
X125461579Y-107065000D01*
X125442752Y-107046173D01*
X125459206Y-107006547D01*
X125459774Y-106356306D01*
X125211462Y-105755345D01*
X124752073Y-105295154D01*
X124151547Y-105045794D01*
X123501306Y-105045226D01*
X122900345Y-105293538D01*
X122440154Y-105752927D01*
X122190794Y-106353453D01*
X122190226Y-107003694D01*
X113047500Y-107003694D01*
X113047500Y-89223694D01*
X117110226Y-89223694D01*
X117358538Y-89824655D01*
X117817927Y-90284846D01*
X117860000Y-90302316D01*
X117860000Y-90804995D01*
X117859999Y-90805000D01*
X117883029Y-90920776D01*
X117927367Y-91143675D01*
X118021560Y-91284645D01*
X118119210Y-91430790D01*
X118754208Y-92065787D01*
X118754210Y-92065790D01*
X118946054Y-92193975D01*
X119041326Y-92257634D01*
X119380000Y-92325001D01*
X119380005Y-92325000D01*
X122823420Y-92325000D01*
X122940000Y-92441579D01*
X122940000Y-95117153D01*
X122900345Y-95133538D01*
X122440154Y-95592927D01*
X122190794Y-96193453D01*
X122190226Y-96843694D01*
X122438538Y-97444655D01*
X122897927Y-97904846D01*
X123498453Y-98154206D01*
X124148694Y-98154774D01*
X124749655Y-97906462D01*
X125209846Y-97447073D01*
X125459206Y-96846547D01*
X125459774Y-96196306D01*
X125211462Y-95595345D01*
X124752073Y-95135154D01*
X124710000Y-95117684D01*
X124710000Y-93204078D01*
X132687378Y-93204078D01*
X132716917Y-93714428D01*
X132855389Y-94048729D01*
X133085984Y-94104410D01*
X133805395Y-93385000D01*
X134164605Y-93385000D01*
X134884016Y-94104410D01*
X135114611Y-94048729D01*
X135282622Y-93565922D01*
X135253083Y-93055572D01*
X135114611Y-92721271D01*
X134884016Y-92665590D01*
X134164605Y-93385000D01*
X133805395Y-93385000D01*
X133085984Y-92665590D01*
X132855389Y-92721271D01*
X132687378Y-93204078D01*
X124710000Y-93204078D01*
X124710000Y-92441580D01*
X124826579Y-92325000D01*
X133304462Y-92325000D01*
X133265590Y-92485984D01*
X133985000Y-93205395D01*
X134704410Y-92485984D01*
X134665538Y-92325000D01*
X135523420Y-92325000D01*
X135640000Y-92441579D01*
X135640000Y-96660527D01*
X135510302Y-96747189D01*
X135255000Y-97129275D01*
X135127682Y-96938731D01*
X135231431Y-96786890D01*
X135282440Y-96535000D01*
X135282440Y-95235000D01*
X135238162Y-94999683D01*
X135099090Y-94783559D01*
X134886890Y-94638569D01*
X134635000Y-94587560D01*
X134472615Y-94587560D01*
X134648729Y-94514611D01*
X134704410Y-94284016D01*
X133985000Y-93564605D01*
X133265590Y-94284016D01*
X133321271Y-94514611D01*
X133530902Y-94587560D01*
X133335000Y-94587560D01*
X133099683Y-94631838D01*
X132883559Y-94770910D01*
X132738569Y-94983110D01*
X132687560Y-95235000D01*
X132687560Y-96535000D01*
X132731838Y-96770317D01*
X132841244Y-96940338D01*
X132715000Y-97129275D01*
X132459698Y-96747189D01*
X131994151Y-96436120D01*
X131445000Y-96326887D01*
X130895849Y-96436120D01*
X130430302Y-96747189D01*
X130119233Y-97212736D01*
X130010000Y-97761887D01*
X130010000Y-97818113D01*
X130119233Y-98367264D01*
X130430302Y-98832811D01*
X130895849Y-99143880D01*
X131445000Y-99253113D01*
X131994151Y-99143880D01*
X132459698Y-98832811D01*
X132715000Y-98450725D01*
X132970302Y-98832811D01*
X133100000Y-98919473D01*
X133100000Y-99059995D01*
X133099999Y-99060000D01*
X133156190Y-99342484D01*
X133167367Y-99398675D01*
X133359209Y-99685789D01*
X133359210Y-99685790D01*
X133994208Y-100320787D01*
X133994210Y-100320790D01*
X134186054Y-100448975D01*
X134281326Y-100512634D01*
X134620000Y-100580001D01*
X134620005Y-100580000D01*
X167639995Y-100580000D01*
X167640000Y-100580001D01*
X167640005Y-100580000D01*
X168909995Y-100580000D01*
X168910000Y-100580001D01*
X168910005Y-100580000D01*
X175528420Y-100580000D01*
X181262248Y-106313827D01*
X181245794Y-106353453D01*
X181245226Y-107003694D01*
X181493538Y-107604655D01*
X181952927Y-108064846D01*
X182553453Y-108314206D01*
X183203694Y-108314774D01*
X183804655Y-108066462D01*
X184264846Y-107607073D01*
X184282316Y-107565000D01*
X185287153Y-107565000D01*
X185303538Y-107604655D01*
X185762927Y-108064846D01*
X186363453Y-108314206D01*
X187013694Y-108314774D01*
X187614655Y-108066462D01*
X187710000Y-107971283D01*
X187710000Y-111141778D01*
X187709683Y-111141838D01*
X187493559Y-111280910D01*
X187416063Y-111394329D01*
X187314410Y-111495982D01*
X187258729Y-111265389D01*
X186775922Y-111097378D01*
X186265572Y-111126917D01*
X185931271Y-111265389D01*
X185875590Y-111495984D01*
X186595000Y-112215395D01*
X186609142Y-112201252D01*
X186788748Y-112380858D01*
X186774605Y-112395000D01*
X186788748Y-112409142D01*
X186609142Y-112588748D01*
X186595000Y-112574605D01*
X185875590Y-113294016D01*
X185931271Y-113524611D01*
X186414078Y-113692622D01*
X186924428Y-113663083D01*
X187258729Y-113524611D01*
X187314410Y-113294018D01*
X187416072Y-113395680D01*
X187480910Y-113496441D01*
X187693110Y-113641431D01*
X187730695Y-113649042D01*
X187739364Y-113692622D01*
X187777367Y-113883675D01*
X187839261Y-113976306D01*
X187969210Y-114170790D01*
X189615000Y-115816579D01*
X189615000Y-117947929D01*
X189480000Y-117812693D01*
X189480000Y-117475005D01*
X189480001Y-117475000D01*
X189412633Y-117136326D01*
X189412633Y-117136325D01*
X189220790Y-116849210D01*
X189220787Y-116849208D01*
X187315790Y-114944210D01*
X187288222Y-114925790D01*
X187028675Y-114752367D01*
X186972484Y-114741190D01*
X186690000Y-114684999D01*
X186689995Y-114685000D01*
X182611579Y-114685000D01*
X180140658Y-112214078D01*
X185297378Y-112214078D01*
X185326917Y-112724428D01*
X185465389Y-113058729D01*
X185695984Y-113114410D01*
X186415395Y-112395000D01*
X185695984Y-111675590D01*
X185465389Y-111731271D01*
X185297378Y-112214078D01*
X180140658Y-112214078D01*
X179955000Y-112028420D01*
X179955000Y-106680005D01*
X179955001Y-106680000D01*
X179887633Y-106341326D01*
X179887633Y-106341325D01*
X179695790Y-106054210D01*
X179695787Y-106054208D01*
X176520790Y-102879210D01*
X176233675Y-102687367D01*
X176177484Y-102676190D01*
X175895000Y-102619999D01*
X175894995Y-102620000D01*
X173990005Y-102620000D01*
X173990000Y-102619999D01*
X173989995Y-102620000D01*
X172720005Y-102620000D01*
X172720000Y-102619999D01*
X172719995Y-102620000D01*
X156210005Y-102620000D01*
X156210000Y-102619999D01*
X156209995Y-102620000D01*
X154940005Y-102620000D01*
X154940000Y-102619999D01*
X154939995Y-102620000D01*
X152400005Y-102620000D01*
X152400000Y-102619999D01*
X152399995Y-102620000D01*
X151130005Y-102620000D01*
X151130000Y-102619999D01*
X151129995Y-102620000D01*
X139700005Y-102620000D01*
X139700000Y-102619999D01*
X139361326Y-102687366D01*
X139361324Y-102687367D01*
X139361325Y-102687367D01*
X139074210Y-102879210D01*
X139074208Y-102879213D01*
X138439210Y-103514210D01*
X138247367Y-103801325D01*
X138247367Y-103801326D01*
X138179999Y-104140000D01*
X138180000Y-104140005D01*
X138180000Y-104280527D01*
X138050302Y-104367189D01*
X137780014Y-104771703D01*
X137677389Y-104554866D01*
X137262423Y-104178959D01*
X136874039Y-104018096D01*
X136652000Y-104140085D01*
X136652000Y-105283000D01*
X136672000Y-105283000D01*
X136672000Y-105537000D01*
X136652000Y-105537000D01*
X136652000Y-106679915D01*
X136874039Y-106801904D01*
X137262423Y-106641041D01*
X137677389Y-106265134D01*
X137780014Y-106048297D01*
X137922318Y-106261269D01*
X137818569Y-106413110D01*
X137767560Y-106665000D01*
X137767560Y-107965000D01*
X137811838Y-108200317D01*
X137950910Y-108416441D01*
X138163110Y-108561431D01*
X138415000Y-108612440D01*
X138577385Y-108612440D01*
X138401271Y-108685389D01*
X138345590Y-108915984D01*
X139065000Y-109635395D01*
X139784410Y-108915984D01*
X139728729Y-108685389D01*
X139519098Y-108612440D01*
X139715000Y-108612440D01*
X139950317Y-108568162D01*
X140166441Y-108429090D01*
X140311431Y-108216890D01*
X140362440Y-107965000D01*
X140362440Y-106665000D01*
X140318162Y-106429683D01*
X140208756Y-106259662D01*
X140390767Y-105987264D01*
X140500000Y-105438113D01*
X140500000Y-105381887D01*
X140390767Y-104832736D01*
X140094940Y-104390000D01*
X150587628Y-104390000D01*
X150530215Y-104528266D01*
X150529786Y-105019579D01*
X150717408Y-105473657D01*
X151064515Y-105821371D01*
X151518266Y-106009785D01*
X152009579Y-106010214D01*
X152463657Y-105822592D01*
X152811371Y-105475485D01*
X152999785Y-105021734D01*
X153000214Y-104530421D01*
X152942193Y-104390000D01*
X154573420Y-104390000D01*
X154690000Y-104506579D01*
X154690000Y-109198243D01*
X154597073Y-109105154D01*
X153996547Y-108855794D01*
X153346306Y-108855226D01*
X152745345Y-109103538D01*
X152285154Y-109562927D01*
X152035794Y-110163453D01*
X152035226Y-110813694D01*
X152052623Y-110855798D01*
X150504210Y-112404210D01*
X150312367Y-112691325D01*
X150312367Y-112691326D01*
X150244999Y-113030000D01*
X150245000Y-113030005D01*
X150245000Y-121919995D01*
X150244999Y-121920000D01*
X150300472Y-122198877D01*
X150312367Y-122258675D01*
X150468055Y-122491680D01*
X150504210Y-122545790D01*
X151774208Y-123815787D01*
X151774210Y-123815790D01*
X152020423Y-123980303D01*
X152061325Y-124007633D01*
X152400000Y-124075001D01*
X152400005Y-124075000D01*
X152579522Y-124075000D01*
X152877630Y-124373629D01*
X153069727Y-124453395D01*
X152938857Y-124507603D01*
X152869392Y-124749787D01*
X153670000Y-125550395D01*
X154470608Y-124749787D01*
X154401143Y-124507603D01*
X154260682Y-124457491D01*
X154460303Y-124375010D01*
X154853629Y-123982370D01*
X155066757Y-123469100D01*
X155067242Y-122913339D01*
X154855010Y-122399697D01*
X154462370Y-122006371D01*
X154254488Y-121920051D01*
X154460303Y-121835010D01*
X154853629Y-121442370D01*
X155066757Y-120929100D01*
X155067242Y-120373339D01*
X154855010Y-119859697D01*
X154744728Y-119749222D01*
X156200787Y-118293162D01*
X156200790Y-118293160D01*
X156392633Y-118006045D01*
X156408283Y-117927367D01*
X156460001Y-117667370D01*
X156460000Y-117667365D01*
X156460000Y-110813694D01*
X156480226Y-110813694D01*
X156728538Y-111414655D01*
X157187927Y-111874846D01*
X157230000Y-111892316D01*
X157230000Y-112897153D01*
X157190345Y-112913538D01*
X156730154Y-113372927D01*
X156480794Y-113973453D01*
X156480226Y-114623694D01*
X156728538Y-115224655D01*
X157187927Y-115684846D01*
X157230000Y-115702316D01*
X157230000Y-117474995D01*
X157229999Y-117475000D01*
X157260737Y-117629527D01*
X157297367Y-117813675D01*
X157425903Y-118006044D01*
X157489210Y-118100790D01*
X158462994Y-119074574D01*
X158270355Y-119538501D01*
X158269527Y-120487336D01*
X158631866Y-121364263D01*
X159302208Y-122035776D01*
X160178501Y-122399645D01*
X161127336Y-122400473D01*
X162004263Y-122038134D01*
X162675776Y-121367792D01*
X163039645Y-120491499D01*
X163040473Y-119542664D01*
X162678134Y-118665737D01*
X162007792Y-117994224D01*
X161131499Y-117630355D01*
X160182664Y-117629527D01*
X159714534Y-117822954D01*
X159000000Y-117108420D01*
X159000000Y-115702847D01*
X159039655Y-115686462D01*
X159499846Y-115227073D01*
X159749206Y-114626547D01*
X159749774Y-113976306D01*
X159501462Y-113375345D01*
X159042073Y-112915154D01*
X159000000Y-112897684D01*
X159000000Y-111892847D01*
X159039655Y-111876462D01*
X159499846Y-111417073D01*
X159749206Y-110816547D01*
X159749774Y-110166306D01*
X159501462Y-109565345D01*
X159042073Y-109105154D01*
X158441547Y-108855794D01*
X157791306Y-108855226D01*
X157190345Y-109103538D01*
X156730154Y-109562927D01*
X156480794Y-110163453D01*
X156480226Y-110813694D01*
X156460000Y-110813694D01*
X156460000Y-104506580D01*
X156576579Y-104390000D01*
X164705060Y-104390000D01*
X164409233Y-104832736D01*
X164300000Y-105381887D01*
X164300000Y-105438113D01*
X164409233Y-105987264D01*
X164720302Y-106452811D01*
X165185849Y-106763880D01*
X165735000Y-106873113D01*
X166284151Y-106763880D01*
X166749698Y-106452811D01*
X167005000Y-106070725D01*
X167260302Y-106452811D01*
X167390000Y-106539473D01*
X167390000Y-106948421D01*
X167273420Y-107065000D01*
X159751579Y-107065000D01*
X159732752Y-107046173D01*
X159749206Y-107006547D01*
X159749774Y-106356306D01*
X159501462Y-105755345D01*
X159042073Y-105295154D01*
X158441547Y-105045794D01*
X157791306Y-105045226D01*
X157190345Y-105293538D01*
X156730154Y-105752927D01*
X156480794Y-106353453D01*
X156480226Y-107003694D01*
X156728538Y-107604655D01*
X157187927Y-108064846D01*
X157788453Y-108314206D01*
X158438694Y-108314774D01*
X158480798Y-108297377D01*
X158759208Y-108575787D01*
X158759210Y-108575790D01*
X158983102Y-108725389D01*
X159046325Y-108767633D01*
X159385000Y-108835001D01*
X159385005Y-108835000D01*
X167273420Y-108835000D01*
X167390000Y-108951579D01*
X167390000Y-109087153D01*
X167350345Y-109103538D01*
X166890154Y-109562927D01*
X166640794Y-110163453D01*
X166640226Y-110813694D01*
X166888538Y-111414655D01*
X167347927Y-111874846D01*
X167948453Y-112124206D01*
X168598694Y-112124774D01*
X169199655Y-111876462D01*
X169659846Y-111417073D01*
X169909206Y-110816547D01*
X169909260Y-110754016D01*
X172635590Y-110754016D01*
X172691271Y-110984611D01*
X173174078Y-111152622D01*
X173684428Y-111123083D01*
X174018729Y-110984611D01*
X174074410Y-110754016D01*
X173355000Y-110034605D01*
X172635590Y-110754016D01*
X169909260Y-110754016D01*
X169909774Y-110166306D01*
X169706390Y-109674078D01*
X172057378Y-109674078D01*
X172086917Y-110184428D01*
X172225389Y-110518729D01*
X172455984Y-110574410D01*
X173175395Y-109855000D01*
X173534605Y-109855000D01*
X174254016Y-110574410D01*
X174484611Y-110518729D01*
X174652622Y-110035922D01*
X174623083Y-109525572D01*
X174484611Y-109191271D01*
X174254016Y-109135590D01*
X173534605Y-109855000D01*
X173175395Y-109855000D01*
X172455984Y-109135590D01*
X172225389Y-109191271D01*
X172057378Y-109674078D01*
X169706390Y-109674078D01*
X169661462Y-109565345D01*
X169202073Y-109105154D01*
X169160000Y-109087684D01*
X169160000Y-108585005D01*
X169160001Y-108585000D01*
X169160000Y-108584995D01*
X169160000Y-107315005D01*
X169160001Y-107315000D01*
X169160000Y-107314995D01*
X169160000Y-106539473D01*
X169289698Y-106452811D01*
X169559986Y-106048297D01*
X169662611Y-106265134D01*
X170077577Y-106641041D01*
X170465961Y-106801904D01*
X170688000Y-106679915D01*
X170688000Y-105537000D01*
X170668000Y-105537000D01*
X170668000Y-105283000D01*
X170688000Y-105283000D01*
X170688000Y-105263000D01*
X170942000Y-105263000D01*
X170942000Y-105283000D01*
X170962000Y-105283000D01*
X170962000Y-105537000D01*
X170942000Y-105537000D01*
X170942000Y-106679915D01*
X171164039Y-106801904D01*
X171552423Y-106641041D01*
X171967389Y-106265134D01*
X172070014Y-106048297D01*
X172225830Y-106281492D01*
X172108569Y-106453110D01*
X172057560Y-106705000D01*
X172057560Y-108005000D01*
X172101838Y-108240317D01*
X172240910Y-108456441D01*
X172453110Y-108601431D01*
X172705000Y-108652440D01*
X172867385Y-108652440D01*
X172691271Y-108725389D01*
X172635590Y-108955984D01*
X173355000Y-109675395D01*
X174074410Y-108955984D01*
X174018729Y-108725389D01*
X173809098Y-108652440D01*
X174005000Y-108652440D01*
X174240317Y-108608162D01*
X174456441Y-108469090D01*
X174601431Y-108256890D01*
X174652440Y-108005000D01*
X174652440Y-106705000D01*
X174608162Y-106469683D01*
X174485644Y-106279285D01*
X174680767Y-105987264D01*
X174790000Y-105438113D01*
X174790000Y-105381887D01*
X174680767Y-104832736D01*
X174384940Y-104390000D01*
X175528420Y-104390000D01*
X178185000Y-107046579D01*
X178185000Y-112394995D01*
X178184999Y-112395000D01*
X178237712Y-112659999D01*
X178252367Y-112733675D01*
X178372547Y-112913538D01*
X178444210Y-113020790D01*
X181619208Y-116195787D01*
X181619210Y-116195790D01*
X181906325Y-116387633D01*
X181962516Y-116398810D01*
X182245000Y-116455001D01*
X182245005Y-116455000D01*
X186323420Y-116455000D01*
X187328421Y-117460000D01*
X186880750Y-117460000D01*
X186722000Y-117618750D01*
X186722000Y-118618000D01*
X186742000Y-118618000D01*
X186742000Y-118872000D01*
X186722000Y-118872000D01*
X186722000Y-119871250D01*
X186880750Y-120030000D01*
X187371309Y-120030000D01*
X187604698Y-119933327D01*
X187710000Y-119828026D01*
X187710000Y-120283421D01*
X185053420Y-122940000D01*
X179393898Y-122940000D01*
X179318957Y-122758628D01*
X178789161Y-122227907D01*
X178096595Y-121940328D01*
X177346695Y-121939674D01*
X176653628Y-122226043D01*
X176122907Y-122755839D01*
X175835328Y-123448405D01*
X175834674Y-124198305D01*
X176121043Y-124891372D01*
X176650839Y-125422093D01*
X177343405Y-125709672D01*
X178093305Y-125710326D01*
X178786372Y-125423957D01*
X179317093Y-124894161D01*
X179393563Y-124710000D01*
X185419995Y-124710000D01*
X185420000Y-124710001D01*
X185702484Y-124653810D01*
X185758675Y-124642633D01*
X186045790Y-124450790D01*
X189220787Y-121275792D01*
X189220790Y-121275790D01*
X189412633Y-120988675D01*
X189443672Y-120832633D01*
X189480001Y-120650000D01*
X189480000Y-120649995D01*
X189480000Y-119677224D01*
X189615000Y-119542460D01*
X189615000Y-125715244D01*
X189423084Y-125250771D01*
X188752758Y-124579274D01*
X187876487Y-124215415D01*
X186927675Y-124214587D01*
X186050771Y-124576916D01*
X185379274Y-125247242D01*
X185015415Y-126123513D01*
X185014587Y-127072325D01*
X185376916Y-127949229D01*
X186047242Y-128620726D01*
X186129783Y-128655000D01*
X172051579Y-128655000D01*
X169095420Y-125698841D01*
X169205317Y-125678162D01*
X169421441Y-125539090D01*
X169566431Y-125326890D01*
X169600567Y-125158320D01*
X171566285Y-125158320D01*
X171695533Y-125451123D01*
X172395806Y-125719388D01*
X173145435Y-125699250D01*
X173744467Y-125451123D01*
X173873715Y-125158320D01*
X172720000Y-124004605D01*
X171566285Y-125158320D01*
X169600567Y-125158320D01*
X169617440Y-125075000D01*
X169617440Y-123500806D01*
X170825612Y-123500806D01*
X170845750Y-124250435D01*
X171093877Y-124849467D01*
X171386680Y-124978715D01*
X172540395Y-123825000D01*
X172899605Y-123825000D01*
X174053320Y-124978715D01*
X174346123Y-124849467D01*
X174614388Y-124149194D01*
X174594250Y-123399565D01*
X174346123Y-122800533D01*
X174053320Y-122671285D01*
X172899605Y-123825000D01*
X172540395Y-123825000D01*
X171386680Y-122671285D01*
X171093877Y-122800533D01*
X170825612Y-123500806D01*
X169617440Y-123500806D01*
X169617440Y-122575000D01*
X169601763Y-122491680D01*
X171566285Y-122491680D01*
X172720000Y-123645395D01*
X173873715Y-122491680D01*
X173744467Y-122198877D01*
X173044194Y-121930612D01*
X172294565Y-121950750D01*
X171695533Y-122198877D01*
X171566285Y-122491680D01*
X169601763Y-122491680D01*
X169573162Y-122339683D01*
X169434090Y-122123559D01*
X169221890Y-121978569D01*
X169037476Y-121941224D01*
X169092633Y-121858675D01*
X169092634Y-121858674D01*
X169160001Y-121520000D01*
X169160000Y-121519995D01*
X169160000Y-119030750D01*
X185310000Y-119030750D01*
X185310000Y-119521310D01*
X185406673Y-119754699D01*
X185585302Y-119933327D01*
X185818691Y-120030000D01*
X186309250Y-120030000D01*
X186468000Y-119871250D01*
X186468000Y-118872000D01*
X185468750Y-118872000D01*
X185310000Y-119030750D01*
X169160000Y-119030750D01*
X169160000Y-117968690D01*
X185310000Y-117968690D01*
X185310000Y-118459250D01*
X185468750Y-118618000D01*
X186468000Y-118618000D01*
X186468000Y-117618750D01*
X186309250Y-117460000D01*
X185818691Y-117460000D01*
X185585302Y-117556673D01*
X185406673Y-117735301D01*
X185310000Y-117968690D01*
X169160000Y-117968690D01*
X169160000Y-115702847D01*
X169199655Y-115686462D01*
X169659846Y-115227073D01*
X169909206Y-114626547D01*
X169909774Y-113976306D01*
X169661462Y-113375345D01*
X169202073Y-112915154D01*
X168601547Y-112665794D01*
X167951306Y-112665226D01*
X167350345Y-112913538D01*
X166890154Y-113372927D01*
X166640794Y-113973453D01*
X166640226Y-114623694D01*
X166888538Y-115224655D01*
X167347927Y-115684846D01*
X167390000Y-115702316D01*
X167390000Y-121153421D01*
X167094210Y-121449210D01*
X166902367Y-121736325D01*
X166902367Y-121736326D01*
X166864327Y-121927560D01*
X166470000Y-121927560D01*
X166234683Y-121971838D01*
X166018559Y-122110910D01*
X165873569Y-122323110D01*
X165822560Y-122575000D01*
X165822560Y-125075000D01*
X165866838Y-125310317D01*
X166005910Y-125526441D01*
X166218110Y-125671431D01*
X166470000Y-125722440D01*
X166864327Y-125722440D01*
X166891190Y-125857484D01*
X166902367Y-125913675D01*
X167081900Y-126182367D01*
X167094210Y-126200790D01*
X171059208Y-130165787D01*
X171059210Y-130165790D01*
X171346325Y-130357633D01*
X171402516Y-130368810D01*
X171685000Y-130425001D01*
X171685005Y-130425000D01*
X187959995Y-130425000D01*
X187960000Y-130425001D01*
X188242484Y-130368810D01*
X188298675Y-130357633D01*
X188585790Y-130165790D01*
X191125787Y-127625792D01*
X191125790Y-127625790D01*
X191317633Y-127338675D01*
X191385000Y-127000000D01*
X191385000Y-115450005D01*
X191385001Y-115450000D01*
X191317633Y-115111326D01*
X191317633Y-115111325D01*
X191125790Y-114824210D01*
X191125787Y-114824208D01*
X189742809Y-113441229D01*
X189841431Y-113296890D01*
X189892440Y-113045000D01*
X189892440Y-111745000D01*
X189848162Y-111509683D01*
X189709090Y-111293559D01*
X189496890Y-111148569D01*
X189480000Y-111145149D01*
X189480000Y-107315005D01*
X189480001Y-107315000D01*
X189412634Y-106976326D01*
X189296089Y-106801904D01*
X189220790Y-106689210D01*
X189220787Y-106689208D01*
X188585790Y-106054210D01*
X188519303Y-106009785D01*
X188298675Y-105862367D01*
X188242484Y-105851190D01*
X188104743Y-105823791D01*
X188076462Y-105755345D01*
X187617073Y-105295154D01*
X187016547Y-105045794D01*
X186366306Y-105045226D01*
X185765345Y-105293538D01*
X185305154Y-105752927D01*
X185287684Y-105795000D01*
X184282847Y-105795000D01*
X184266462Y-105755345D01*
X183807073Y-105295154D01*
X183206547Y-105045794D01*
X182556306Y-105045226D01*
X182514202Y-105062623D01*
X176520790Y-99069210D01*
X176507006Y-99060000D01*
X176233675Y-98877367D01*
X176177484Y-98866190D01*
X175895000Y-98809999D01*
X175894995Y-98810000D01*
X174384940Y-98810000D01*
X174680767Y-98367264D01*
X174790000Y-97818113D01*
X174790000Y-97761887D01*
X174680767Y-97212736D01*
X174369698Y-96747189D01*
X173904151Y-96436120D01*
X173355000Y-96326887D01*
X172805849Y-96436120D01*
X172340302Y-96747189D01*
X172085000Y-97129275D01*
X171829698Y-96747189D01*
X171700000Y-96660527D01*
X171700000Y-91114964D01*
X172164263Y-90923134D01*
X172835776Y-90252792D01*
X173199645Y-89376499D01*
X173200473Y-88427664D01*
X172838134Y-87550737D01*
X172167792Y-86879224D01*
X171291499Y-86515355D01*
X170342664Y-86514527D01*
X169465737Y-86876866D01*
X168794224Y-87547208D01*
X168599980Y-88015000D01*
X165100005Y-88015000D01*
X165100000Y-88014999D01*
X164817516Y-88071190D01*
X164761325Y-88082367D01*
X164474210Y-88274210D01*
X164474208Y-88274213D01*
X162828420Y-89920000D01*
X159143440Y-89920000D01*
X159143440Y-89789000D01*
X159099162Y-89553683D01*
X158960090Y-89337559D01*
X158747890Y-89192569D01*
X158496000Y-89141560D01*
X156464000Y-89141560D01*
X156228683Y-89185838D01*
X156012559Y-89324910D01*
X155910802Y-89473837D01*
X155825000Y-89416506D01*
X155825000Y-88900005D01*
X155825001Y-88900000D01*
X155757634Y-88561326D01*
X155665542Y-88423501D01*
X155565790Y-88274210D01*
X155565787Y-88274208D01*
X154930790Y-87639210D01*
X154793098Y-87547208D01*
X154643675Y-87447367D01*
X154587484Y-87436190D01*
X154305000Y-87379999D01*
X154304995Y-87380000D01*
X146685005Y-87380000D01*
X146685000Y-87379999D01*
X146346326Y-87447366D01*
X146346324Y-87447367D01*
X146346325Y-87447367D01*
X146059210Y-87639210D01*
X146059208Y-87639213D01*
X145424210Y-88274210D01*
X145232367Y-88561325D01*
X145232367Y-88561326D01*
X145164999Y-88900000D01*
X145165000Y-88900005D01*
X145165000Y-89141560D01*
X145034000Y-89141560D01*
X144798683Y-89185838D01*
X144582559Y-89324910D01*
X144437569Y-89537110D01*
X144386560Y-89789000D01*
X144386560Y-91821000D01*
X144430838Y-92056317D01*
X144569910Y-92272441D01*
X144782110Y-92417431D01*
X145034000Y-92468440D01*
X145165000Y-92468440D01*
X145165000Y-92978421D01*
X144789210Y-93354210D01*
X144597367Y-93641325D01*
X144597367Y-93641326D01*
X144529999Y-93980000D01*
X144530000Y-93980005D01*
X144530000Y-95117153D01*
X144490345Y-95133538D01*
X144030154Y-95592927D01*
X143780794Y-96193453D01*
X143780226Y-96843694D01*
X144028538Y-97444655D01*
X144487927Y-97904846D01*
X145088453Y-98154206D01*
X145738694Y-98154774D01*
X146339655Y-97906462D01*
X146799846Y-97447073D01*
X147049206Y-96846547D01*
X147049774Y-96196306D01*
X146801462Y-95595345D01*
X146342073Y-95135154D01*
X146300000Y-95117684D01*
X146300000Y-94346580D01*
X146675787Y-93970792D01*
X146675790Y-93970790D01*
X146867633Y-93683675D01*
X146867634Y-93683674D01*
X146935001Y-93345000D01*
X146935000Y-93344995D01*
X146935000Y-92468440D01*
X147066000Y-92468440D01*
X147301317Y-92424162D01*
X147517441Y-92285090D01*
X147619198Y-92136163D01*
X147705000Y-92193494D01*
X147705000Y-93344995D01*
X147704999Y-93345000D01*
X147748682Y-93564605D01*
X147772367Y-93683675D01*
X147964209Y-93970789D01*
X147964210Y-93970790D01*
X148340000Y-94346579D01*
X148340000Y-95117153D01*
X148300345Y-95133538D01*
X147840154Y-95592927D01*
X147590794Y-96193453D01*
X147590226Y-96843694D01*
X147838538Y-97444655D01*
X148297927Y-97904846D01*
X148898453Y-98154206D01*
X149548694Y-98154774D01*
X150149655Y-97906462D01*
X150609846Y-97447073D01*
X150859206Y-96846547D01*
X150859774Y-96196306D01*
X150611462Y-95595345D01*
X150152073Y-95135154D01*
X150110000Y-95117684D01*
X150110000Y-93980005D01*
X150110001Y-93980000D01*
X150042634Y-93641326D01*
X149871363Y-93385000D01*
X149850790Y-93354210D01*
X149850787Y-93354208D01*
X149475000Y-92978420D01*
X149475000Y-92193494D01*
X149757433Y-92004778D01*
X150115325Y-91469155D01*
X150241000Y-90837345D01*
X150241000Y-90772655D01*
X150115325Y-90140845D01*
X149757433Y-89605222D01*
X149221810Y-89247330D01*
X148732500Y-89150000D01*
X153938420Y-89150000D01*
X154055000Y-89266579D01*
X154055000Y-89416506D01*
X153772567Y-89605222D01*
X153414675Y-90140845D01*
X153289000Y-90772655D01*
X153289000Y-90837345D01*
X153414675Y-91469155D01*
X153772567Y-92004778D01*
X154308190Y-92362670D01*
X154940000Y-92488345D01*
X155571810Y-92362670D01*
X155911792Y-92135501D01*
X155999910Y-92272441D01*
X156212110Y-92417431D01*
X156464000Y-92468440D01*
X156595000Y-92468440D01*
X156595000Y-93344995D01*
X156594999Y-93345000D01*
X156638682Y-93564605D01*
X156662367Y-93683675D01*
X156854209Y-93970789D01*
X156854210Y-93970790D01*
X157230000Y-94346579D01*
X157230000Y-95117153D01*
X157190345Y-95133538D01*
X156730154Y-95592927D01*
X156480794Y-96193453D01*
X156480226Y-96843694D01*
X156728538Y-97444655D01*
X157187927Y-97904846D01*
X157788453Y-98154206D01*
X158438694Y-98154774D01*
X159039655Y-97906462D01*
X159499846Y-97447073D01*
X159749206Y-96846547D01*
X159749774Y-96196306D01*
X159501462Y-95595345D01*
X159042073Y-95135154D01*
X159000000Y-95117684D01*
X159000000Y-93980005D01*
X159000001Y-93980000D01*
X158932634Y-93641326D01*
X158761363Y-93385000D01*
X158740790Y-93354210D01*
X158740787Y-93354208D01*
X158550658Y-93164078D01*
X166977378Y-93164078D01*
X167006917Y-93674428D01*
X167145389Y-94008729D01*
X167375984Y-94064410D01*
X168095395Y-93345000D01*
X168454605Y-93345000D01*
X169174016Y-94064410D01*
X169404611Y-94008729D01*
X169572622Y-93525922D01*
X169543083Y-93015572D01*
X169404611Y-92681271D01*
X169174016Y-92625590D01*
X168454605Y-93345000D01*
X168095395Y-93345000D01*
X167375984Y-92625590D01*
X167145389Y-92681271D01*
X166977378Y-93164078D01*
X158550658Y-93164078D01*
X158365000Y-92978420D01*
X158365000Y-92468440D01*
X158496000Y-92468440D01*
X158615343Y-92445984D01*
X167555590Y-92445984D01*
X168275000Y-93165395D01*
X168994410Y-92445984D01*
X168938729Y-92215389D01*
X168455922Y-92047378D01*
X167945572Y-92076917D01*
X167611271Y-92215389D01*
X167555590Y-92445984D01*
X158615343Y-92445984D01*
X158731317Y-92424162D01*
X158947441Y-92285090D01*
X159092431Y-92072890D01*
X159143440Y-91821000D01*
X159143440Y-91690000D01*
X163194995Y-91690000D01*
X163195000Y-91690001D01*
X163477484Y-91633810D01*
X163533675Y-91622633D01*
X163820790Y-91430790D01*
X165466579Y-89785000D01*
X168600036Y-89785000D01*
X168791866Y-90249263D01*
X169462208Y-90920776D01*
X169930000Y-91115020D01*
X169930000Y-96660527D01*
X169800302Y-96747189D01*
X169545000Y-97129275D01*
X169404170Y-96918508D01*
X169521431Y-96746890D01*
X169572440Y-96495000D01*
X169572440Y-95195000D01*
X169528162Y-94959683D01*
X169389090Y-94743559D01*
X169176890Y-94598569D01*
X168925000Y-94547560D01*
X168762615Y-94547560D01*
X168938729Y-94474611D01*
X168994410Y-94244016D01*
X168275000Y-93524605D01*
X167555590Y-94244016D01*
X167611271Y-94474611D01*
X167820902Y-94547560D01*
X167625000Y-94547560D01*
X167389683Y-94591838D01*
X167173559Y-94730910D01*
X167028569Y-94943110D01*
X166977560Y-95195000D01*
X166977560Y-96495000D01*
X167021838Y-96730317D01*
X167144356Y-96920715D01*
X167005000Y-97129275D01*
X166749698Y-96747189D01*
X166284151Y-96436120D01*
X165735000Y-96326887D01*
X165185849Y-96436120D01*
X164720302Y-96747189D01*
X164409233Y-97212736D01*
X164300000Y-97761887D01*
X164300000Y-97818113D01*
X164409233Y-98367264D01*
X164705060Y-98810000D01*
X140094940Y-98810000D01*
X140390767Y-98367264D01*
X140500000Y-97818113D01*
X140500000Y-97761887D01*
X140390767Y-97212736D01*
X140079698Y-96747189D01*
X139614151Y-96436120D01*
X139065000Y-96326887D01*
X138515849Y-96436120D01*
X138050302Y-96747189D01*
X137795000Y-97129275D01*
X137539698Y-96747189D01*
X137410000Y-96660527D01*
X137410000Y-92075005D01*
X137410001Y-92075000D01*
X137342634Y-91736326D01*
X137266667Y-91622633D01*
X137150790Y-91449210D01*
X137150787Y-91449208D01*
X136987043Y-91285464D01*
X136997336Y-91285473D01*
X137874263Y-90923134D01*
X138545776Y-90252792D01*
X138909645Y-89376499D01*
X138910473Y-88427664D01*
X138548134Y-87550737D01*
X137877792Y-86879224D01*
X137410000Y-86684980D01*
X137410000Y-85725005D01*
X137410001Y-85725000D01*
X137342633Y-85386326D01*
X137342633Y-85386325D01*
X137150790Y-85099210D01*
X137150787Y-85099208D01*
X135425000Y-83373420D01*
X135425000Y-81272440D01*
X135790000Y-81272440D01*
X136025317Y-81228162D01*
X136241441Y-81089090D01*
X136386431Y-80876890D01*
X136437440Y-80625000D01*
X136437440Y-79748305D01*
X148054674Y-79748305D01*
X148341043Y-80441372D01*
X148870839Y-80972093D01*
X149563405Y-81259672D01*
X150313305Y-81260326D01*
X151006372Y-80973957D01*
X151537093Y-80444161D01*
X151824672Y-79751595D01*
X151825326Y-79001695D01*
X151538957Y-78308628D01*
X151355650Y-78125000D01*
X153042560Y-78125000D01*
X153042560Y-80625000D01*
X153086838Y-80860317D01*
X153225910Y-81076441D01*
X153438110Y-81221431D01*
X153690000Y-81272440D01*
X156190000Y-81272440D01*
X156425317Y-81228162D01*
X156641441Y-81089090D01*
X156786431Y-80876890D01*
X156820567Y-80708320D01*
X169106285Y-80708320D01*
X169235533Y-81001123D01*
X169935806Y-81269388D01*
X170685435Y-81249250D01*
X171284467Y-81001123D01*
X171413715Y-80708320D01*
X170260000Y-79554605D01*
X169106285Y-80708320D01*
X156820567Y-80708320D01*
X156837440Y-80625000D01*
X156837440Y-79050806D01*
X168365612Y-79050806D01*
X168385750Y-79800435D01*
X168633877Y-80399467D01*
X168926680Y-80528715D01*
X170080395Y-79375000D01*
X170439605Y-79375000D01*
X171593320Y-80528715D01*
X171886123Y-80399467D01*
X172154388Y-79699194D01*
X172134250Y-78949565D01*
X171886123Y-78350533D01*
X171593320Y-78221285D01*
X170439605Y-79375000D01*
X170080395Y-79375000D01*
X168926680Y-78221285D01*
X168633877Y-78350533D01*
X168365612Y-79050806D01*
X156837440Y-79050806D01*
X156837440Y-78125000D01*
X156821763Y-78041680D01*
X169106285Y-78041680D01*
X170260000Y-79195395D01*
X171330395Y-78125000D01*
X173362560Y-78125000D01*
X173362560Y-80625000D01*
X173406838Y-80860317D01*
X173545910Y-81076441D01*
X173758110Y-81221431D01*
X174010000Y-81272440D01*
X176510000Y-81272440D01*
X176745317Y-81228162D01*
X176961441Y-81089090D01*
X177106431Y-80876890D01*
X177132345Y-80748925D01*
X181995000Y-85611579D01*
X181995000Y-95117153D01*
X181955345Y-95133538D01*
X181495154Y-95592927D01*
X181245794Y-96193453D01*
X181245226Y-96843694D01*
X181493538Y-97444655D01*
X181952927Y-97904846D01*
X182553453Y-98154206D01*
X183203694Y-98154774D01*
X183804655Y-97906462D01*
X184264846Y-97447073D01*
X184282316Y-97405000D01*
X185287153Y-97405000D01*
X185303538Y-97444655D01*
X185762927Y-97904846D01*
X186363453Y-98154206D01*
X187013694Y-98154774D01*
X187614655Y-97906462D01*
X188074846Y-97447073D01*
X188324206Y-96846547D01*
X188324774Y-96196306D01*
X188076462Y-95595345D01*
X187617073Y-95135154D01*
X187016547Y-94885794D01*
X186366306Y-94885226D01*
X185765345Y-95133538D01*
X185305154Y-95592927D01*
X185287684Y-95635000D01*
X184282847Y-95635000D01*
X184266462Y-95595345D01*
X183807073Y-95135154D01*
X183765000Y-95117684D01*
X183765000Y-85245005D01*
X183765001Y-85245000D01*
X183697634Y-84906326D01*
X183633975Y-84811054D01*
X183505790Y-84619210D01*
X183505787Y-84619208D01*
X177635790Y-78749210D01*
X177348675Y-78557367D01*
X177292484Y-78546190D01*
X177157440Y-78519327D01*
X177157440Y-78125000D01*
X177113162Y-77889683D01*
X176974090Y-77673559D01*
X176761890Y-77528569D01*
X176510000Y-77477560D01*
X174010000Y-77477560D01*
X173774683Y-77521838D01*
X173558559Y-77660910D01*
X173413569Y-77873110D01*
X173362560Y-78125000D01*
X171330395Y-78125000D01*
X171413715Y-78041680D01*
X171284467Y-77748877D01*
X170584194Y-77480612D01*
X169834565Y-77500750D01*
X169235533Y-77748877D01*
X169106285Y-78041680D01*
X156821763Y-78041680D01*
X156793162Y-77889683D01*
X156654090Y-77673559D01*
X156441890Y-77528569D01*
X156190000Y-77477560D01*
X153690000Y-77477560D01*
X153454683Y-77521838D01*
X153238559Y-77660910D01*
X153093569Y-77873110D01*
X153042560Y-78125000D01*
X151355650Y-78125000D01*
X151009161Y-77777907D01*
X150316595Y-77490328D01*
X149566695Y-77489674D01*
X148873628Y-77776043D01*
X148342907Y-78305839D01*
X148055328Y-78998405D01*
X148054674Y-79748305D01*
X136437440Y-79748305D01*
X136437440Y-78125000D01*
X136393162Y-77889683D01*
X136254090Y-77673559D01*
X136041890Y-77528569D01*
X135790000Y-77477560D01*
X133290000Y-77477560D01*
X133054683Y-77521838D01*
X132838559Y-77660910D01*
X132693569Y-77873110D01*
X132642560Y-78125000D01*
X132642560Y-80625000D01*
X132686838Y-80860317D01*
X132825910Y-81076441D01*
X133038110Y-81221431D01*
X133290000Y-81272440D01*
X133655000Y-81272440D01*
X133655000Y-83739995D01*
X133654999Y-83740000D01*
X133711190Y-84022484D01*
X133722367Y-84078675D01*
X133910341Y-84360000D01*
X133914210Y-84365790D01*
X135640000Y-86091579D01*
X135640000Y-86685036D01*
X135175737Y-86876866D01*
X134504224Y-87547208D01*
X134309980Y-88015000D01*
X130307847Y-88015000D01*
X130291462Y-87975345D01*
X129832073Y-87515154D01*
X129231547Y-87265794D01*
X128581306Y-87265226D01*
X127980345Y-87513538D01*
X127520154Y-87972927D01*
X127270794Y-88573453D01*
X127270226Y-89223694D01*
X127518538Y-89824655D01*
X127977927Y-90284846D01*
X128578453Y-90534206D01*
X129228694Y-90534774D01*
X129829655Y-90286462D01*
X130289846Y-89827073D01*
X130307316Y-89785000D01*
X134310036Y-89785000D01*
X134501866Y-90249263D01*
X134807070Y-90555000D01*
X124460005Y-90555000D01*
X124460000Y-90554999D01*
X124459995Y-90555000D01*
X123190005Y-90555000D01*
X123190000Y-90554999D01*
X123189995Y-90555000D01*
X119746579Y-90555000D01*
X119630000Y-90438420D01*
X119630000Y-90302847D01*
X119669655Y-90286462D01*
X120129846Y-89827073D01*
X120379206Y-89226547D01*
X120379774Y-88576306D01*
X120131462Y-87975345D01*
X119672073Y-87515154D01*
X119071547Y-87265794D01*
X118421306Y-87265226D01*
X117820345Y-87513538D01*
X117360154Y-87972927D01*
X117110794Y-88573453D01*
X117110226Y-89223694D01*
X113047500Y-89223694D01*
X113047500Y-80708320D01*
X128386285Y-80708320D01*
X128515533Y-81001123D01*
X129215806Y-81269388D01*
X129965435Y-81249250D01*
X130564467Y-81001123D01*
X130693715Y-80708320D01*
X129540000Y-79554605D01*
X128386285Y-80708320D01*
X113047500Y-80708320D01*
X113047500Y-79050806D01*
X127645612Y-79050806D01*
X127665750Y-79800435D01*
X127913877Y-80399467D01*
X128206680Y-80528715D01*
X129360395Y-79375000D01*
X129719605Y-79375000D01*
X130873320Y-80528715D01*
X131166123Y-80399467D01*
X131434388Y-79699194D01*
X131414250Y-78949565D01*
X131166123Y-78350533D01*
X130873320Y-78221285D01*
X129719605Y-79375000D01*
X129360395Y-79375000D01*
X128206680Y-78221285D01*
X127913877Y-78350533D01*
X127645612Y-79050806D01*
X113047500Y-79050806D01*
X113047500Y-77072325D01*
X115014587Y-77072325D01*
X115376916Y-77949229D01*
X116047242Y-78620726D01*
X116923513Y-78984585D01*
X117872325Y-78985413D01*
X118749229Y-78623084D01*
X119331648Y-78041680D01*
X128386285Y-78041680D01*
X129540000Y-79195395D01*
X130693715Y-78041680D01*
X130564467Y-77748877D01*
X129864194Y-77480612D01*
X129114565Y-77500750D01*
X128515533Y-77748877D01*
X128386285Y-78041680D01*
X119331648Y-78041680D01*
X119420726Y-77952758D01*
X119784585Y-77076487D01*
X119784588Y-77072325D01*
X185014587Y-77072325D01*
X185376916Y-77949229D01*
X186047242Y-78620726D01*
X186923513Y-78984585D01*
X187872325Y-78985413D01*
X188749229Y-78623084D01*
X189420726Y-77952758D01*
X189784585Y-77076487D01*
X189785413Y-76127675D01*
X189423084Y-75250771D01*
X188752758Y-74579274D01*
X187876487Y-74215415D01*
X186927675Y-74214587D01*
X186050771Y-74576916D01*
X185379274Y-75247242D01*
X185015415Y-76123513D01*
X185014587Y-77072325D01*
X119784588Y-77072325D01*
X119785413Y-76127675D01*
X119423084Y-75250771D01*
X118752758Y-74579274D01*
X117876487Y-74215415D01*
X116927675Y-74214587D01*
X116050771Y-74576916D01*
X115379274Y-75247242D01*
X115015415Y-76123513D01*
X115014587Y-77072325D01*
X113047500Y-77072325D01*
X113047500Y-73012106D01*
X113812106Y-72247500D01*
X190987894Y-72247500D01*
X191752500Y-73012106D01*
X191752500Y-73012106D01*
G37*
X191752500Y-73012106D02*
X191752500Y-130187894D01*
X190987894Y-130952500D01*
X113812106Y-130952500D01*
X113047500Y-130187894D01*
X113047500Y-127072325D01*
X115014587Y-127072325D01*
X115376916Y-127949229D01*
X116047242Y-128620726D01*
X116923513Y-128984585D01*
X117872325Y-128985413D01*
X118749229Y-128623084D01*
X119420726Y-127952758D01*
X119784585Y-127076487D01*
X119784904Y-126710213D01*
X152869392Y-126710213D01*
X152938857Y-126952397D01*
X153462302Y-127139144D01*
X154017368Y-127111362D01*
X154401143Y-126952397D01*
X154470608Y-126710213D01*
X153670000Y-125909605D01*
X152869392Y-126710213D01*
X119784904Y-126710213D01*
X119785413Y-126127675D01*
X119423084Y-125250771D01*
X118752758Y-124579274D01*
X117876487Y-124215415D01*
X116927675Y-124214587D01*
X116050771Y-124576916D01*
X115379274Y-125247242D01*
X115015415Y-126123513D01*
X115014587Y-127072325D01*
X113047500Y-127072325D01*
X113047500Y-122575000D01*
X138437560Y-122575000D01*
X138437560Y-125075000D01*
X138481838Y-125310317D01*
X138620910Y-125526441D01*
X138833110Y-125671431D01*
X139085000Y-125722440D01*
X141585000Y-125722440D01*
X141820317Y-125678162D01*
X142036441Y-125539090D01*
X142181431Y-125326890D01*
X142215567Y-125158320D01*
X144181285Y-125158320D01*
X144310533Y-125451123D01*
X145010806Y-125719388D01*
X145760435Y-125699250D01*
X146187625Y-125522302D01*
X152260856Y-125522302D01*
X152288638Y-126077368D01*
X152447603Y-126461143D01*
X152689787Y-126530608D01*
X153490395Y-125730000D01*
X153849605Y-125730000D01*
X154650213Y-126530608D01*
X154892397Y-126461143D01*
X155079144Y-125937698D01*
X155051362Y-125382632D01*
X154892397Y-124998857D01*
X154650213Y-124929392D01*
X153849605Y-125730000D01*
X153490395Y-125730000D01*
X152689787Y-124929392D01*
X152447603Y-124998857D01*
X152260856Y-125522302D01*
X146187625Y-125522302D01*
X146359467Y-125451123D01*
X146488715Y-125158320D01*
X145335000Y-124004605D01*
X144181285Y-125158320D01*
X142215567Y-125158320D01*
X142232440Y-125075000D01*
X142232440Y-123500806D01*
X143440612Y-123500806D01*
X143460750Y-124250435D01*
X143708877Y-124849467D01*
X144001680Y-124978715D01*
X145155395Y-123825000D01*
X145514605Y-123825000D01*
X146668320Y-124978715D01*
X146961123Y-124849467D01*
X147229388Y-124149194D01*
X147209250Y-123399565D01*
X146961123Y-122800533D01*
X146668320Y-122671285D01*
X145514605Y-123825000D01*
X145155395Y-123825000D01*
X144001680Y-122671285D01*
X143708877Y-122800533D01*
X143440612Y-123500806D01*
X142232440Y-123500806D01*
X142232440Y-122575000D01*
X142216763Y-122491680D01*
X144181285Y-122491680D01*
X145335000Y-123645395D01*
X146488715Y-122491680D01*
X146359467Y-122198877D01*
X145659194Y-121930612D01*
X144909565Y-121950750D01*
X144310533Y-122198877D01*
X144181285Y-122491680D01*
X142216763Y-122491680D01*
X142188162Y-122339683D01*
X142049090Y-122123559D01*
X141836890Y-121978569D01*
X141585000Y-121927560D01*
X139085000Y-121927560D01*
X138849683Y-121971838D01*
X138633559Y-122110910D01*
X138488569Y-122323110D01*
X138437560Y-122575000D01*
X113047500Y-122575000D01*
X113047500Y-107003694D01*
X122190226Y-107003694D01*
X122438538Y-107604655D01*
X122897927Y-108064846D01*
X123498453Y-108314206D01*
X124148694Y-108314774D01*
X124190798Y-108297377D01*
X124469208Y-108575787D01*
X124469210Y-108575790D01*
X124693102Y-108725389D01*
X124756325Y-108767633D01*
X125095000Y-108835001D01*
X125095005Y-108835000D01*
X132983420Y-108835000D01*
X133359208Y-109210787D01*
X133359210Y-109210790D01*
X136534208Y-112385787D01*
X136534210Y-112385790D01*
X136821325Y-112577633D01*
X136877516Y-112588810D01*
X137160000Y-112645001D01*
X137160005Y-112645000D01*
X142239995Y-112645000D01*
X142240000Y-112645001D01*
X142522484Y-112588810D01*
X142578675Y-112577633D01*
X142865790Y-112385790D01*
X143143828Y-112107752D01*
X143183453Y-112124206D01*
X143833694Y-112124774D01*
X144434655Y-111876462D01*
X144894846Y-111417073D01*
X145144206Y-110816547D01*
X145144774Y-110166306D01*
X145127377Y-110124202D01*
X146040787Y-109210792D01*
X146040790Y-109210790D01*
X146232633Y-108923675D01*
X146246248Y-108855226D01*
X146300001Y-108585000D01*
X146300000Y-108584995D01*
X146300000Y-108082847D01*
X146339655Y-108066462D01*
X146799846Y-107607073D01*
X146817316Y-107565000D01*
X147822153Y-107565000D01*
X147838538Y-107604655D01*
X148297927Y-108064846D01*
X148898453Y-108314206D01*
X149548694Y-108314774D01*
X150149655Y-108066462D01*
X150609846Y-107607073D01*
X150859206Y-107006547D01*
X150859774Y-106356306D01*
X150611462Y-105755345D01*
X150152073Y-105295154D01*
X149551547Y-105045794D01*
X148901306Y-105045226D01*
X148300345Y-105293538D01*
X147840154Y-105752927D01*
X147822684Y-105795000D01*
X146817847Y-105795000D01*
X146801462Y-105755345D01*
X146342073Y-105295154D01*
X145741547Y-105045794D01*
X145091306Y-105045226D01*
X144490345Y-105293538D01*
X144030154Y-105752927D01*
X143780794Y-106353453D01*
X143780226Y-107003694D01*
X144028538Y-107604655D01*
X144487927Y-108064846D01*
X144530000Y-108082316D01*
X144530000Y-108218421D01*
X143876173Y-108872248D01*
X143836547Y-108855794D01*
X143186306Y-108855226D01*
X142585345Y-109103538D01*
X142125154Y-109562927D01*
X141875794Y-110163453D01*
X141875226Y-110813694D01*
X141892623Y-110855797D01*
X141873420Y-110875000D01*
X139745538Y-110875000D01*
X139784410Y-110714016D01*
X139065000Y-109994605D01*
X138345590Y-110714016D01*
X138384462Y-110875000D01*
X137526579Y-110875000D01*
X136285658Y-109634078D01*
X137767378Y-109634078D01*
X137796917Y-110144428D01*
X137935389Y-110478729D01*
X138165984Y-110534410D01*
X138885395Y-109815000D01*
X139244605Y-109815000D01*
X139964016Y-110534410D01*
X140194611Y-110478729D01*
X140362622Y-109995922D01*
X140333083Y-109485572D01*
X140194611Y-109151271D01*
X139964016Y-109095590D01*
X139244605Y-109815000D01*
X138885395Y-109815000D01*
X138165984Y-109095590D01*
X137935389Y-109151271D01*
X137767378Y-109634078D01*
X136285658Y-109634078D01*
X134870000Y-108218420D01*
X134870000Y-107315005D01*
X134870001Y-107315000D01*
X134870000Y-107314995D01*
X134870000Y-106539473D01*
X134999698Y-106452811D01*
X135269986Y-106048297D01*
X135372611Y-106265134D01*
X135787577Y-106641041D01*
X136175961Y-106801904D01*
X136398000Y-106679915D01*
X136398000Y-105537000D01*
X136378000Y-105537000D01*
X136378000Y-105283000D01*
X136398000Y-105283000D01*
X136398000Y-104140085D01*
X136175961Y-104018096D01*
X135787577Y-104178959D01*
X135372611Y-104554866D01*
X135269986Y-104771703D01*
X134999698Y-104367189D01*
X134534151Y-104056120D01*
X133985000Y-103946887D01*
X133435849Y-104056120D01*
X132970302Y-104367189D01*
X132715000Y-104749275D01*
X132459698Y-104367189D01*
X131994151Y-104056120D01*
X131445000Y-103946887D01*
X130895849Y-104056120D01*
X130430302Y-104367189D01*
X130119233Y-104832736D01*
X130010000Y-105381887D01*
X130010000Y-105438113D01*
X130119233Y-105987264D01*
X130430302Y-106452811D01*
X130895849Y-106763880D01*
X131445000Y-106873113D01*
X131994151Y-106763880D01*
X132459698Y-106452811D01*
X132715000Y-106070725D01*
X132970302Y-106452811D01*
X133100000Y-106539473D01*
X133100000Y-106948421D01*
X132983420Y-107065000D01*
X125461579Y-107065000D01*
X125442752Y-107046173D01*
X125459206Y-107006547D01*
X125459774Y-106356306D01*
X125211462Y-105755345D01*
X124752073Y-105295154D01*
X124151547Y-105045794D01*
X123501306Y-105045226D01*
X122900345Y-105293538D01*
X122440154Y-105752927D01*
X122190794Y-106353453D01*
X122190226Y-107003694D01*
X113047500Y-107003694D01*
X113047500Y-89223694D01*
X117110226Y-89223694D01*
X117358538Y-89824655D01*
X117817927Y-90284846D01*
X117860000Y-90302316D01*
X117860000Y-90804995D01*
X117859999Y-90805000D01*
X117883029Y-90920776D01*
X117927367Y-91143675D01*
X118021560Y-91284645D01*
X118119210Y-91430790D01*
X118754208Y-92065787D01*
X118754210Y-92065790D01*
X118946054Y-92193975D01*
X119041326Y-92257634D01*
X119380000Y-92325001D01*
X119380005Y-92325000D01*
X122823420Y-92325000D01*
X122940000Y-92441579D01*
X122940000Y-95117153D01*
X122900345Y-95133538D01*
X122440154Y-95592927D01*
X122190794Y-96193453D01*
X122190226Y-96843694D01*
X122438538Y-97444655D01*
X122897927Y-97904846D01*
X123498453Y-98154206D01*
X124148694Y-98154774D01*
X124749655Y-97906462D01*
X125209846Y-97447073D01*
X125459206Y-96846547D01*
X125459774Y-96196306D01*
X125211462Y-95595345D01*
X124752073Y-95135154D01*
X124710000Y-95117684D01*
X124710000Y-93204078D01*
X132687378Y-93204078D01*
X132716917Y-93714428D01*
X132855389Y-94048729D01*
X133085984Y-94104410D01*
X133805395Y-93385000D01*
X134164605Y-93385000D01*
X134884016Y-94104410D01*
X135114611Y-94048729D01*
X135282622Y-93565922D01*
X135253083Y-93055572D01*
X135114611Y-92721271D01*
X134884016Y-92665590D01*
X134164605Y-93385000D01*
X133805395Y-93385000D01*
X133085984Y-92665590D01*
X132855389Y-92721271D01*
X132687378Y-93204078D01*
X124710000Y-93204078D01*
X124710000Y-92441580D01*
X124826579Y-92325000D01*
X133304462Y-92325000D01*
X133265590Y-92485984D01*
X133985000Y-93205395D01*
X134704410Y-92485984D01*
X134665538Y-92325000D01*
X135523420Y-92325000D01*
X135640000Y-92441579D01*
X135640000Y-96660527D01*
X135510302Y-96747189D01*
X135255000Y-97129275D01*
X135127682Y-96938731D01*
X135231431Y-96786890D01*
X135282440Y-96535000D01*
X135282440Y-95235000D01*
X135238162Y-94999683D01*
X135099090Y-94783559D01*
X134886890Y-94638569D01*
X134635000Y-94587560D01*
X134472615Y-94587560D01*
X134648729Y-94514611D01*
X134704410Y-94284016D01*
X133985000Y-93564605D01*
X133265590Y-94284016D01*
X133321271Y-94514611D01*
X133530902Y-94587560D01*
X133335000Y-94587560D01*
X133099683Y-94631838D01*
X132883559Y-94770910D01*
X132738569Y-94983110D01*
X132687560Y-95235000D01*
X132687560Y-96535000D01*
X132731838Y-96770317D01*
X132841244Y-96940338D01*
X132715000Y-97129275D01*
X132459698Y-96747189D01*
X131994151Y-96436120D01*
X131445000Y-96326887D01*
X130895849Y-96436120D01*
X130430302Y-96747189D01*
X130119233Y-97212736D01*
X130010000Y-97761887D01*
X130010000Y-97818113D01*
X130119233Y-98367264D01*
X130430302Y-98832811D01*
X130895849Y-99143880D01*
X131445000Y-99253113D01*
X131994151Y-99143880D01*
X132459698Y-98832811D01*
X132715000Y-98450725D01*
X132970302Y-98832811D01*
X133100000Y-98919473D01*
X133100000Y-99059995D01*
X133099999Y-99060000D01*
X133156190Y-99342484D01*
X133167367Y-99398675D01*
X133359209Y-99685789D01*
X133359210Y-99685790D01*
X133994208Y-100320787D01*
X133994210Y-100320790D01*
X134186054Y-100448975D01*
X134281326Y-100512634D01*
X134620000Y-100580001D01*
X134620005Y-100580000D01*
X167639995Y-100580000D01*
X167640000Y-100580001D01*
X167640005Y-100580000D01*
X168909995Y-100580000D01*
X168910000Y-100580001D01*
X168910005Y-100580000D01*
X175528420Y-100580000D01*
X181262248Y-106313827D01*
X181245794Y-106353453D01*
X181245226Y-107003694D01*
X181493538Y-107604655D01*
X181952927Y-108064846D01*
X182553453Y-108314206D01*
X183203694Y-108314774D01*
X183804655Y-108066462D01*
X184264846Y-107607073D01*
X184282316Y-107565000D01*
X185287153Y-107565000D01*
X185303538Y-107604655D01*
X185762927Y-108064846D01*
X186363453Y-108314206D01*
X187013694Y-108314774D01*
X187614655Y-108066462D01*
X187710000Y-107971283D01*
X187710000Y-111141778D01*
X187709683Y-111141838D01*
X187493559Y-111280910D01*
X187416063Y-111394329D01*
X187314410Y-111495982D01*
X187258729Y-111265389D01*
X186775922Y-111097378D01*
X186265572Y-111126917D01*
X185931271Y-111265389D01*
X185875590Y-111495984D01*
X186595000Y-112215395D01*
X186609142Y-112201252D01*
X186788748Y-112380858D01*
X186774605Y-112395000D01*
X186788748Y-112409142D01*
X186609142Y-112588748D01*
X186595000Y-112574605D01*
X185875590Y-113294016D01*
X185931271Y-113524611D01*
X186414078Y-113692622D01*
X186924428Y-113663083D01*
X187258729Y-113524611D01*
X187314410Y-113294018D01*
X187416072Y-113395680D01*
X187480910Y-113496441D01*
X187693110Y-113641431D01*
X187730695Y-113649042D01*
X187739364Y-113692622D01*
X187777367Y-113883675D01*
X187839261Y-113976306D01*
X187969210Y-114170790D01*
X189615000Y-115816579D01*
X189615000Y-117947929D01*
X189480000Y-117812693D01*
X189480000Y-117475005D01*
X189480001Y-117475000D01*
X189412633Y-117136326D01*
X189412633Y-117136325D01*
X189220790Y-116849210D01*
X189220787Y-116849208D01*
X187315790Y-114944210D01*
X187288222Y-114925790D01*
X187028675Y-114752367D01*
X186972484Y-114741190D01*
X186690000Y-114684999D01*
X186689995Y-114685000D01*
X182611579Y-114685000D01*
X180140658Y-112214078D01*
X185297378Y-112214078D01*
X185326917Y-112724428D01*
X185465389Y-113058729D01*
X185695984Y-113114410D01*
X186415395Y-112395000D01*
X185695984Y-111675590D01*
X185465389Y-111731271D01*
X185297378Y-112214078D01*
X180140658Y-112214078D01*
X179955000Y-112028420D01*
X179955000Y-106680005D01*
X179955001Y-106680000D01*
X179887633Y-106341326D01*
X179887633Y-106341325D01*
X179695790Y-106054210D01*
X179695787Y-106054208D01*
X176520790Y-102879210D01*
X176233675Y-102687367D01*
X176177484Y-102676190D01*
X175895000Y-102619999D01*
X175894995Y-102620000D01*
X173990005Y-102620000D01*
X173990000Y-102619999D01*
X173989995Y-102620000D01*
X172720005Y-102620000D01*
X172720000Y-102619999D01*
X172719995Y-102620000D01*
X156210005Y-102620000D01*
X156210000Y-102619999D01*
X156209995Y-102620000D01*
X154940005Y-102620000D01*
X154940000Y-102619999D01*
X154939995Y-102620000D01*
X152400005Y-102620000D01*
X152400000Y-102619999D01*
X152399995Y-102620000D01*
X151130005Y-102620000D01*
X151130000Y-102619999D01*
X151129995Y-102620000D01*
X139700005Y-102620000D01*
X139700000Y-102619999D01*
X139361326Y-102687366D01*
X139361324Y-102687367D01*
X139361325Y-102687367D01*
X139074210Y-102879210D01*
X139074208Y-102879213D01*
X138439210Y-103514210D01*
X138247367Y-103801325D01*
X138247367Y-103801326D01*
X138179999Y-104140000D01*
X138180000Y-104140005D01*
X138180000Y-104280527D01*
X138050302Y-104367189D01*
X137780014Y-104771703D01*
X137677389Y-104554866D01*
X137262423Y-104178959D01*
X136874039Y-104018096D01*
X136652000Y-104140085D01*
X136652000Y-105283000D01*
X136672000Y-105283000D01*
X136672000Y-105537000D01*
X136652000Y-105537000D01*
X136652000Y-106679915D01*
X136874039Y-106801904D01*
X137262423Y-106641041D01*
X137677389Y-106265134D01*
X137780014Y-106048297D01*
X137922318Y-106261269D01*
X137818569Y-106413110D01*
X137767560Y-106665000D01*
X137767560Y-107965000D01*
X137811838Y-108200317D01*
X137950910Y-108416441D01*
X138163110Y-108561431D01*
X138415000Y-108612440D01*
X138577385Y-108612440D01*
X138401271Y-108685389D01*
X138345590Y-108915984D01*
X139065000Y-109635395D01*
X139784410Y-108915984D01*
X139728729Y-108685389D01*
X139519098Y-108612440D01*
X139715000Y-108612440D01*
X139950317Y-108568162D01*
X140166441Y-108429090D01*
X140311431Y-108216890D01*
X140362440Y-107965000D01*
X140362440Y-106665000D01*
X140318162Y-106429683D01*
X140208756Y-106259662D01*
X140390767Y-105987264D01*
X140500000Y-105438113D01*
X140500000Y-105381887D01*
X140390767Y-104832736D01*
X140094940Y-104390000D01*
X150587628Y-104390000D01*
X150530215Y-104528266D01*
X150529786Y-105019579D01*
X150717408Y-105473657D01*
X151064515Y-105821371D01*
X151518266Y-106009785D01*
X152009579Y-106010214D01*
X152463657Y-105822592D01*
X152811371Y-105475485D01*
X152999785Y-105021734D01*
X153000214Y-104530421D01*
X152942193Y-104390000D01*
X154573420Y-104390000D01*
X154690000Y-104506579D01*
X154690000Y-109198243D01*
X154597073Y-109105154D01*
X153996547Y-108855794D01*
X153346306Y-108855226D01*
X152745345Y-109103538D01*
X152285154Y-109562927D01*
X152035794Y-110163453D01*
X152035226Y-110813694D01*
X152052623Y-110855798D01*
X150504210Y-112404210D01*
X150312367Y-112691325D01*
X150312367Y-112691326D01*
X150244999Y-113030000D01*
X150245000Y-113030005D01*
X150245000Y-121919995D01*
X150244999Y-121920000D01*
X150300472Y-122198877D01*
X150312367Y-122258675D01*
X150468055Y-122491680D01*
X150504210Y-122545790D01*
X151774208Y-123815787D01*
X151774210Y-123815790D01*
X152020423Y-123980303D01*
X152061325Y-124007633D01*
X152400000Y-124075001D01*
X152400005Y-124075000D01*
X152579522Y-124075000D01*
X152877630Y-124373629D01*
X153069727Y-124453395D01*
X152938857Y-124507603D01*
X152869392Y-124749787D01*
X153670000Y-125550395D01*
X154470608Y-124749787D01*
X154401143Y-124507603D01*
X154260682Y-124457491D01*
X154460303Y-124375010D01*
X154853629Y-123982370D01*
X155066757Y-123469100D01*
X155067242Y-122913339D01*
X154855010Y-122399697D01*
X154462370Y-122006371D01*
X154254488Y-121920051D01*
X154460303Y-121835010D01*
X154853629Y-121442370D01*
X155066757Y-120929100D01*
X155067242Y-120373339D01*
X154855010Y-119859697D01*
X154744728Y-119749222D01*
X156200787Y-118293162D01*
X156200790Y-118293160D01*
X156392633Y-118006045D01*
X156408283Y-117927367D01*
X156460001Y-117667370D01*
X156460000Y-117667365D01*
X156460000Y-110813694D01*
X156480226Y-110813694D01*
X156728538Y-111414655D01*
X157187927Y-111874846D01*
X157230000Y-111892316D01*
X157230000Y-112897153D01*
X157190345Y-112913538D01*
X156730154Y-113372927D01*
X156480794Y-113973453D01*
X156480226Y-114623694D01*
X156728538Y-115224655D01*
X157187927Y-115684846D01*
X157230000Y-115702316D01*
X157230000Y-117474995D01*
X157229999Y-117475000D01*
X157260737Y-117629527D01*
X157297367Y-117813675D01*
X157425903Y-118006044D01*
X157489210Y-118100790D01*
X158462994Y-119074574D01*
X158270355Y-119538501D01*
X158269527Y-120487336D01*
X158631866Y-121364263D01*
X159302208Y-122035776D01*
X160178501Y-122399645D01*
X161127336Y-122400473D01*
X162004263Y-122038134D01*
X162675776Y-121367792D01*
X163039645Y-120491499D01*
X163040473Y-119542664D01*
X162678134Y-118665737D01*
X162007792Y-117994224D01*
X161131499Y-117630355D01*
X160182664Y-117629527D01*
X159714534Y-117822954D01*
X159000000Y-117108420D01*
X159000000Y-115702847D01*
X159039655Y-115686462D01*
X159499846Y-115227073D01*
X159749206Y-114626547D01*
X159749774Y-113976306D01*
X159501462Y-113375345D01*
X159042073Y-112915154D01*
X159000000Y-112897684D01*
X159000000Y-111892847D01*
X159039655Y-111876462D01*
X159499846Y-111417073D01*
X159749206Y-110816547D01*
X159749774Y-110166306D01*
X159501462Y-109565345D01*
X159042073Y-109105154D01*
X158441547Y-108855794D01*
X157791306Y-108855226D01*
X157190345Y-109103538D01*
X156730154Y-109562927D01*
X156480794Y-110163453D01*
X156480226Y-110813694D01*
X156460000Y-110813694D01*
X156460000Y-104506580D01*
X156576579Y-104390000D01*
X164705060Y-104390000D01*
X164409233Y-104832736D01*
X164300000Y-105381887D01*
X164300000Y-105438113D01*
X164409233Y-105987264D01*
X164720302Y-106452811D01*
X165185849Y-106763880D01*
X165735000Y-106873113D01*
X166284151Y-106763880D01*
X166749698Y-106452811D01*
X167005000Y-106070725D01*
X167260302Y-106452811D01*
X167390000Y-106539473D01*
X167390000Y-106948421D01*
X167273420Y-107065000D01*
X159751579Y-107065000D01*
X159732752Y-107046173D01*
X159749206Y-107006547D01*
X159749774Y-106356306D01*
X159501462Y-105755345D01*
X159042073Y-105295154D01*
X158441547Y-105045794D01*
X157791306Y-105045226D01*
X157190345Y-105293538D01*
X156730154Y-105752927D01*
X156480794Y-106353453D01*
X156480226Y-107003694D01*
X156728538Y-107604655D01*
X157187927Y-108064846D01*
X157788453Y-108314206D01*
X158438694Y-108314774D01*
X158480798Y-108297377D01*
X158759208Y-108575787D01*
X158759210Y-108575790D01*
X158983102Y-108725389D01*
X159046325Y-108767633D01*
X159385000Y-108835001D01*
X159385005Y-108835000D01*
X167273420Y-108835000D01*
X167390000Y-108951579D01*
X167390000Y-109087153D01*
X167350345Y-109103538D01*
X166890154Y-109562927D01*
X166640794Y-110163453D01*
X166640226Y-110813694D01*
X166888538Y-111414655D01*
X167347927Y-111874846D01*
X167948453Y-112124206D01*
X168598694Y-112124774D01*
X169199655Y-111876462D01*
X169659846Y-111417073D01*
X169909206Y-110816547D01*
X169909260Y-110754016D01*
X172635590Y-110754016D01*
X172691271Y-110984611D01*
X173174078Y-111152622D01*
X173684428Y-111123083D01*
X174018729Y-110984611D01*
X174074410Y-110754016D01*
X173355000Y-110034605D01*
X172635590Y-110754016D01*
X169909260Y-110754016D01*
X169909774Y-110166306D01*
X169706390Y-109674078D01*
X172057378Y-109674078D01*
X172086917Y-110184428D01*
X172225389Y-110518729D01*
X172455984Y-110574410D01*
X173175395Y-109855000D01*
X173534605Y-109855000D01*
X174254016Y-110574410D01*
X174484611Y-110518729D01*
X174652622Y-110035922D01*
X174623083Y-109525572D01*
X174484611Y-109191271D01*
X174254016Y-109135590D01*
X173534605Y-109855000D01*
X173175395Y-109855000D01*
X172455984Y-109135590D01*
X172225389Y-109191271D01*
X172057378Y-109674078D01*
X169706390Y-109674078D01*
X169661462Y-109565345D01*
X169202073Y-109105154D01*
X169160000Y-109087684D01*
X169160000Y-108585005D01*
X169160001Y-108585000D01*
X169160000Y-108584995D01*
X169160000Y-107315005D01*
X169160001Y-107315000D01*
X169160000Y-107314995D01*
X169160000Y-106539473D01*
X169289698Y-106452811D01*
X169559986Y-106048297D01*
X169662611Y-106265134D01*
X170077577Y-106641041D01*
X170465961Y-106801904D01*
X170688000Y-106679915D01*
X170688000Y-105537000D01*
X170668000Y-105537000D01*
X170668000Y-105283000D01*
X170688000Y-105283000D01*
X170688000Y-105263000D01*
X170942000Y-105263000D01*
X170942000Y-105283000D01*
X170962000Y-105283000D01*
X170962000Y-105537000D01*
X170942000Y-105537000D01*
X170942000Y-106679915D01*
X171164039Y-106801904D01*
X171552423Y-106641041D01*
X171967389Y-106265134D01*
X172070014Y-106048297D01*
X172225830Y-106281492D01*
X172108569Y-106453110D01*
X172057560Y-106705000D01*
X172057560Y-108005000D01*
X172101838Y-108240317D01*
X172240910Y-108456441D01*
X172453110Y-108601431D01*
X172705000Y-108652440D01*
X172867385Y-108652440D01*
X172691271Y-108725389D01*
X172635590Y-108955984D01*
X173355000Y-109675395D01*
X174074410Y-108955984D01*
X174018729Y-108725389D01*
X173809098Y-108652440D01*
X174005000Y-108652440D01*
X174240317Y-108608162D01*
X174456441Y-108469090D01*
X174601431Y-108256890D01*
X174652440Y-108005000D01*
X174652440Y-106705000D01*
X174608162Y-106469683D01*
X174485644Y-106279285D01*
X174680767Y-105987264D01*
X174790000Y-105438113D01*
X174790000Y-105381887D01*
X174680767Y-104832736D01*
X174384940Y-104390000D01*
X175528420Y-104390000D01*
X178185000Y-107046579D01*
X178185000Y-112394995D01*
X178184999Y-112395000D01*
X178237712Y-112659999D01*
X178252367Y-112733675D01*
X178372547Y-112913538D01*
X178444210Y-113020790D01*
X181619208Y-116195787D01*
X181619210Y-116195790D01*
X181906325Y-116387633D01*
X181962516Y-116398810D01*
X182245000Y-116455001D01*
X182245005Y-116455000D01*
X186323420Y-116455000D01*
X187328421Y-117460000D01*
X186880750Y-117460000D01*
X186722000Y-117618750D01*
X186722000Y-118618000D01*
X186742000Y-118618000D01*
X186742000Y-118872000D01*
X186722000Y-118872000D01*
X186722000Y-119871250D01*
X186880750Y-120030000D01*
X187371309Y-120030000D01*
X187604698Y-119933327D01*
X187710000Y-119828026D01*
X187710000Y-120283421D01*
X185053420Y-122940000D01*
X179393898Y-122940000D01*
X179318957Y-122758628D01*
X178789161Y-122227907D01*
X178096595Y-121940328D01*
X177346695Y-121939674D01*
X176653628Y-122226043D01*
X176122907Y-122755839D01*
X175835328Y-123448405D01*
X175834674Y-124198305D01*
X176121043Y-124891372D01*
X176650839Y-125422093D01*
X177343405Y-125709672D01*
X178093305Y-125710326D01*
X178786372Y-125423957D01*
X179317093Y-124894161D01*
X179393563Y-124710000D01*
X185419995Y-124710000D01*
X185420000Y-124710001D01*
X185702484Y-124653810D01*
X185758675Y-124642633D01*
X186045790Y-124450790D01*
X189220787Y-121275792D01*
X189220790Y-121275790D01*
X189412633Y-120988675D01*
X189443672Y-120832633D01*
X189480001Y-120650000D01*
X189480000Y-120649995D01*
X189480000Y-119677224D01*
X189615000Y-119542460D01*
X189615000Y-125715244D01*
X189423084Y-125250771D01*
X188752758Y-124579274D01*
X187876487Y-124215415D01*
X186927675Y-124214587D01*
X186050771Y-124576916D01*
X185379274Y-125247242D01*
X185015415Y-126123513D01*
X185014587Y-127072325D01*
X185376916Y-127949229D01*
X186047242Y-128620726D01*
X186129783Y-128655000D01*
X172051579Y-128655000D01*
X169095420Y-125698841D01*
X169205317Y-125678162D01*
X169421441Y-125539090D01*
X169566431Y-125326890D01*
X169600567Y-125158320D01*
X171566285Y-125158320D01*
X171695533Y-125451123D01*
X172395806Y-125719388D01*
X173145435Y-125699250D01*
X173744467Y-125451123D01*
X173873715Y-125158320D01*
X172720000Y-124004605D01*
X171566285Y-125158320D01*
X169600567Y-125158320D01*
X169617440Y-125075000D01*
X169617440Y-123500806D01*
X170825612Y-123500806D01*
X170845750Y-124250435D01*
X171093877Y-124849467D01*
X171386680Y-124978715D01*
X172540395Y-123825000D01*
X172899605Y-123825000D01*
X174053320Y-124978715D01*
X174346123Y-124849467D01*
X174614388Y-124149194D01*
X174594250Y-123399565D01*
X174346123Y-122800533D01*
X174053320Y-122671285D01*
X172899605Y-123825000D01*
X172540395Y-123825000D01*
X171386680Y-122671285D01*
X171093877Y-122800533D01*
X170825612Y-123500806D01*
X169617440Y-123500806D01*
X169617440Y-122575000D01*
X169601763Y-122491680D01*
X171566285Y-122491680D01*
X172720000Y-123645395D01*
X173873715Y-122491680D01*
X173744467Y-122198877D01*
X173044194Y-121930612D01*
X172294565Y-121950750D01*
X171695533Y-122198877D01*
X171566285Y-122491680D01*
X169601763Y-122491680D01*
X169573162Y-122339683D01*
X169434090Y-122123559D01*
X169221890Y-121978569D01*
X169037476Y-121941224D01*
X169092633Y-121858675D01*
X169092634Y-121858674D01*
X169160001Y-121520000D01*
X169160000Y-121519995D01*
X169160000Y-119030750D01*
X185310000Y-119030750D01*
X185310000Y-119521310D01*
X185406673Y-119754699D01*
X185585302Y-119933327D01*
X185818691Y-120030000D01*
X186309250Y-120030000D01*
X186468000Y-119871250D01*
X186468000Y-118872000D01*
X185468750Y-118872000D01*
X185310000Y-119030750D01*
X169160000Y-119030750D01*
X169160000Y-117968690D01*
X185310000Y-117968690D01*
X185310000Y-118459250D01*
X185468750Y-118618000D01*
X186468000Y-118618000D01*
X186468000Y-117618750D01*
X186309250Y-117460000D01*
X185818691Y-117460000D01*
X185585302Y-117556673D01*
X185406673Y-117735301D01*
X185310000Y-117968690D01*
X169160000Y-117968690D01*
X169160000Y-115702847D01*
X169199655Y-115686462D01*
X169659846Y-115227073D01*
X169909206Y-114626547D01*
X169909774Y-113976306D01*
X169661462Y-113375345D01*
X169202073Y-112915154D01*
X168601547Y-112665794D01*
X167951306Y-112665226D01*
X167350345Y-112913538D01*
X166890154Y-113372927D01*
X166640794Y-113973453D01*
X166640226Y-114623694D01*
X166888538Y-115224655D01*
X167347927Y-115684846D01*
X167390000Y-115702316D01*
X167390000Y-121153421D01*
X167094210Y-121449210D01*
X166902367Y-121736325D01*
X166902367Y-121736326D01*
X166864327Y-121927560D01*
X166470000Y-121927560D01*
X166234683Y-121971838D01*
X166018559Y-122110910D01*
X165873569Y-122323110D01*
X165822560Y-122575000D01*
X165822560Y-125075000D01*
X165866838Y-125310317D01*
X166005910Y-125526441D01*
X166218110Y-125671431D01*
X166470000Y-125722440D01*
X166864327Y-125722440D01*
X166891190Y-125857484D01*
X166902367Y-125913675D01*
X167081900Y-126182367D01*
X167094210Y-126200790D01*
X171059208Y-130165787D01*
X171059210Y-130165790D01*
X171346325Y-130357633D01*
X171402516Y-130368810D01*
X171685000Y-130425001D01*
X171685005Y-130425000D01*
X187959995Y-130425000D01*
X187960000Y-130425001D01*
X188242484Y-130368810D01*
X188298675Y-130357633D01*
X188585790Y-130165790D01*
X191125787Y-127625792D01*
X191125790Y-127625790D01*
X191317633Y-127338675D01*
X191385000Y-127000000D01*
X191385000Y-115450005D01*
X191385001Y-115450000D01*
X191317633Y-115111326D01*
X191317633Y-115111325D01*
X191125790Y-114824210D01*
X191125787Y-114824208D01*
X189742809Y-113441229D01*
X189841431Y-113296890D01*
X189892440Y-113045000D01*
X189892440Y-111745000D01*
X189848162Y-111509683D01*
X189709090Y-111293559D01*
X189496890Y-111148569D01*
X189480000Y-111145149D01*
X189480000Y-107315005D01*
X189480001Y-107315000D01*
X189412634Y-106976326D01*
X189296089Y-106801904D01*
X189220790Y-106689210D01*
X189220787Y-106689208D01*
X188585790Y-106054210D01*
X188519303Y-106009785D01*
X188298675Y-105862367D01*
X188242484Y-105851190D01*
X188104743Y-105823791D01*
X188076462Y-105755345D01*
X187617073Y-105295154D01*
X187016547Y-105045794D01*
X186366306Y-105045226D01*
X185765345Y-105293538D01*
X185305154Y-105752927D01*
X185287684Y-105795000D01*
X184282847Y-105795000D01*
X184266462Y-105755345D01*
X183807073Y-105295154D01*
X183206547Y-105045794D01*
X182556306Y-105045226D01*
X182514202Y-105062623D01*
X176520790Y-99069210D01*
X176507006Y-99060000D01*
X176233675Y-98877367D01*
X176177484Y-98866190D01*
X175895000Y-98809999D01*
X175894995Y-98810000D01*
X174384940Y-98810000D01*
X174680767Y-98367264D01*
X174790000Y-97818113D01*
X174790000Y-97761887D01*
X174680767Y-97212736D01*
X174369698Y-96747189D01*
X173904151Y-96436120D01*
X173355000Y-96326887D01*
X172805849Y-96436120D01*
X172340302Y-96747189D01*
X172085000Y-97129275D01*
X171829698Y-96747189D01*
X171700000Y-96660527D01*
X171700000Y-91114964D01*
X172164263Y-90923134D01*
X172835776Y-90252792D01*
X173199645Y-89376499D01*
X173200473Y-88427664D01*
X172838134Y-87550737D01*
X172167792Y-86879224D01*
X171291499Y-86515355D01*
X170342664Y-86514527D01*
X169465737Y-86876866D01*
X168794224Y-87547208D01*
X168599980Y-88015000D01*
X165100005Y-88015000D01*
X165100000Y-88014999D01*
X164817516Y-88071190D01*
X164761325Y-88082367D01*
X164474210Y-88274210D01*
X164474208Y-88274213D01*
X162828420Y-89920000D01*
X159143440Y-89920000D01*
X159143440Y-89789000D01*
X159099162Y-89553683D01*
X158960090Y-89337559D01*
X158747890Y-89192569D01*
X158496000Y-89141560D01*
X156464000Y-89141560D01*
X156228683Y-89185838D01*
X156012559Y-89324910D01*
X155910802Y-89473837D01*
X155825000Y-89416506D01*
X155825000Y-88900005D01*
X155825001Y-88900000D01*
X155757634Y-88561326D01*
X155665542Y-88423501D01*
X155565790Y-88274210D01*
X155565787Y-88274208D01*
X154930790Y-87639210D01*
X154793098Y-87547208D01*
X154643675Y-87447367D01*
X154587484Y-87436190D01*
X154305000Y-87379999D01*
X154304995Y-87380000D01*
X146685005Y-87380000D01*
X146685000Y-87379999D01*
X146346326Y-87447366D01*
X146346324Y-87447367D01*
X146346325Y-87447367D01*
X146059210Y-87639210D01*
X146059208Y-87639213D01*
X145424210Y-88274210D01*
X145232367Y-88561325D01*
X145232367Y-88561326D01*
X145164999Y-88900000D01*
X145165000Y-88900005D01*
X145165000Y-89141560D01*
X145034000Y-89141560D01*
X144798683Y-89185838D01*
X144582559Y-89324910D01*
X144437569Y-89537110D01*
X144386560Y-89789000D01*
X144386560Y-91821000D01*
X144430838Y-92056317D01*
X144569910Y-92272441D01*
X144782110Y-92417431D01*
X145034000Y-92468440D01*
X145165000Y-92468440D01*
X145165000Y-92978421D01*
X144789210Y-93354210D01*
X144597367Y-93641325D01*
X144597367Y-93641326D01*
X144529999Y-93980000D01*
X144530000Y-93980005D01*
X144530000Y-95117153D01*
X144490345Y-95133538D01*
X144030154Y-95592927D01*
X143780794Y-96193453D01*
X143780226Y-96843694D01*
X144028538Y-97444655D01*
X144487927Y-97904846D01*
X145088453Y-98154206D01*
X145738694Y-98154774D01*
X146339655Y-97906462D01*
X146799846Y-97447073D01*
X147049206Y-96846547D01*
X147049774Y-96196306D01*
X146801462Y-95595345D01*
X146342073Y-95135154D01*
X146300000Y-95117684D01*
X146300000Y-94346580D01*
X146675787Y-93970792D01*
X146675790Y-93970790D01*
X146867633Y-93683675D01*
X146867634Y-93683674D01*
X146935001Y-93345000D01*
X146935000Y-93344995D01*
X146935000Y-92468440D01*
X147066000Y-92468440D01*
X147301317Y-92424162D01*
X147517441Y-92285090D01*
X147619198Y-92136163D01*
X147705000Y-92193494D01*
X147705000Y-93344995D01*
X147704999Y-93345000D01*
X147748682Y-93564605D01*
X147772367Y-93683675D01*
X147964209Y-93970789D01*
X147964210Y-93970790D01*
X148340000Y-94346579D01*
X148340000Y-95117153D01*
X148300345Y-95133538D01*
X147840154Y-95592927D01*
X147590794Y-96193453D01*
X147590226Y-96843694D01*
X147838538Y-97444655D01*
X148297927Y-97904846D01*
X148898453Y-98154206D01*
X149548694Y-98154774D01*
X150149655Y-97906462D01*
X150609846Y-97447073D01*
X150859206Y-96846547D01*
X150859774Y-96196306D01*
X150611462Y-95595345D01*
X150152073Y-95135154D01*
X150110000Y-95117684D01*
X150110000Y-93980005D01*
X150110001Y-93980000D01*
X150042634Y-93641326D01*
X149871363Y-93385000D01*
X149850790Y-93354210D01*
X149850787Y-93354208D01*
X149475000Y-92978420D01*
X149475000Y-92193494D01*
X149757433Y-92004778D01*
X150115325Y-91469155D01*
X150241000Y-90837345D01*
X150241000Y-90772655D01*
X150115325Y-90140845D01*
X149757433Y-89605222D01*
X149221810Y-89247330D01*
X148732500Y-89150000D01*
X153938420Y-89150000D01*
X154055000Y-89266579D01*
X154055000Y-89416506D01*
X153772567Y-89605222D01*
X153414675Y-90140845D01*
X153289000Y-90772655D01*
X153289000Y-90837345D01*
X153414675Y-91469155D01*
X153772567Y-92004778D01*
X154308190Y-92362670D01*
X154940000Y-92488345D01*
X155571810Y-92362670D01*
X155911792Y-92135501D01*
X155999910Y-92272441D01*
X156212110Y-92417431D01*
X156464000Y-92468440D01*
X156595000Y-92468440D01*
X156595000Y-93344995D01*
X156594999Y-93345000D01*
X156638682Y-93564605D01*
X156662367Y-93683675D01*
X156854209Y-93970789D01*
X156854210Y-93970790D01*
X157230000Y-94346579D01*
X157230000Y-95117153D01*
X157190345Y-95133538D01*
X156730154Y-95592927D01*
X156480794Y-96193453D01*
X156480226Y-96843694D01*
X156728538Y-97444655D01*
X157187927Y-97904846D01*
X157788453Y-98154206D01*
X158438694Y-98154774D01*
X159039655Y-97906462D01*
X159499846Y-97447073D01*
X159749206Y-96846547D01*
X159749774Y-96196306D01*
X159501462Y-95595345D01*
X159042073Y-95135154D01*
X159000000Y-95117684D01*
X159000000Y-93980005D01*
X159000001Y-93980000D01*
X158932634Y-93641326D01*
X158761363Y-93385000D01*
X158740790Y-93354210D01*
X158740787Y-93354208D01*
X158550658Y-93164078D01*
X166977378Y-93164078D01*
X167006917Y-93674428D01*
X167145389Y-94008729D01*
X167375984Y-94064410D01*
X168095395Y-93345000D01*
X168454605Y-93345000D01*
X169174016Y-94064410D01*
X169404611Y-94008729D01*
X169572622Y-93525922D01*
X169543083Y-93015572D01*
X169404611Y-92681271D01*
X169174016Y-92625590D01*
X168454605Y-93345000D01*
X168095395Y-93345000D01*
X167375984Y-92625590D01*
X167145389Y-92681271D01*
X166977378Y-93164078D01*
X158550658Y-93164078D01*
X158365000Y-92978420D01*
X158365000Y-92468440D01*
X158496000Y-92468440D01*
X158615343Y-92445984D01*
X167555590Y-92445984D01*
X168275000Y-93165395D01*
X168994410Y-92445984D01*
X168938729Y-92215389D01*
X168455922Y-92047378D01*
X167945572Y-92076917D01*
X167611271Y-92215389D01*
X167555590Y-92445984D01*
X158615343Y-92445984D01*
X158731317Y-92424162D01*
X158947441Y-92285090D01*
X159092431Y-92072890D01*
X159143440Y-91821000D01*
X159143440Y-91690000D01*
X163194995Y-91690000D01*
X163195000Y-91690001D01*
X163477484Y-91633810D01*
X163533675Y-91622633D01*
X163820790Y-91430790D01*
X165466579Y-89785000D01*
X168600036Y-89785000D01*
X168791866Y-90249263D01*
X169462208Y-90920776D01*
X169930000Y-91115020D01*
X169930000Y-96660527D01*
X169800302Y-96747189D01*
X169545000Y-97129275D01*
X169404170Y-96918508D01*
X169521431Y-96746890D01*
X169572440Y-96495000D01*
X169572440Y-95195000D01*
X169528162Y-94959683D01*
X169389090Y-94743559D01*
X169176890Y-94598569D01*
X168925000Y-94547560D01*
X168762615Y-94547560D01*
X168938729Y-94474611D01*
X168994410Y-94244016D01*
X168275000Y-93524605D01*
X167555590Y-94244016D01*
X167611271Y-94474611D01*
X167820902Y-94547560D01*
X167625000Y-94547560D01*
X167389683Y-94591838D01*
X167173559Y-94730910D01*
X167028569Y-94943110D01*
X166977560Y-95195000D01*
X166977560Y-96495000D01*
X167021838Y-96730317D01*
X167144356Y-96920715D01*
X167005000Y-97129275D01*
X166749698Y-96747189D01*
X166284151Y-96436120D01*
X165735000Y-96326887D01*
X165185849Y-96436120D01*
X164720302Y-96747189D01*
X164409233Y-97212736D01*
X164300000Y-97761887D01*
X164300000Y-97818113D01*
X164409233Y-98367264D01*
X164705060Y-98810000D01*
X140094940Y-98810000D01*
X140390767Y-98367264D01*
X140500000Y-97818113D01*
X140500000Y-97761887D01*
X140390767Y-97212736D01*
X140079698Y-96747189D01*
X139614151Y-96436120D01*
X139065000Y-96326887D01*
X138515849Y-96436120D01*
X138050302Y-96747189D01*
X137795000Y-97129275D01*
X137539698Y-96747189D01*
X137410000Y-96660527D01*
X137410000Y-92075005D01*
X137410001Y-92075000D01*
X137342634Y-91736326D01*
X137266667Y-91622633D01*
X137150790Y-91449210D01*
X137150787Y-91449208D01*
X136987043Y-91285464D01*
X136997336Y-91285473D01*
X137874263Y-90923134D01*
X138545776Y-90252792D01*
X138909645Y-89376499D01*
X138910473Y-88427664D01*
X138548134Y-87550737D01*
X137877792Y-86879224D01*
X137410000Y-86684980D01*
X137410000Y-85725005D01*
X137410001Y-85725000D01*
X137342633Y-85386326D01*
X137342633Y-85386325D01*
X137150790Y-85099210D01*
X137150787Y-85099208D01*
X135425000Y-83373420D01*
X135425000Y-81272440D01*
X135790000Y-81272440D01*
X136025317Y-81228162D01*
X136241441Y-81089090D01*
X136386431Y-80876890D01*
X136437440Y-80625000D01*
X136437440Y-79748305D01*
X148054674Y-79748305D01*
X148341043Y-80441372D01*
X148870839Y-80972093D01*
X149563405Y-81259672D01*
X150313305Y-81260326D01*
X151006372Y-80973957D01*
X151537093Y-80444161D01*
X151824672Y-79751595D01*
X151825326Y-79001695D01*
X151538957Y-78308628D01*
X151355650Y-78125000D01*
X153042560Y-78125000D01*
X153042560Y-80625000D01*
X153086838Y-80860317D01*
X153225910Y-81076441D01*
X153438110Y-81221431D01*
X153690000Y-81272440D01*
X156190000Y-81272440D01*
X156425317Y-81228162D01*
X156641441Y-81089090D01*
X156786431Y-80876890D01*
X156820567Y-80708320D01*
X169106285Y-80708320D01*
X169235533Y-81001123D01*
X169935806Y-81269388D01*
X170685435Y-81249250D01*
X171284467Y-81001123D01*
X171413715Y-80708320D01*
X170260000Y-79554605D01*
X169106285Y-80708320D01*
X156820567Y-80708320D01*
X156837440Y-80625000D01*
X156837440Y-79050806D01*
X168365612Y-79050806D01*
X168385750Y-79800435D01*
X168633877Y-80399467D01*
X168926680Y-80528715D01*
X170080395Y-79375000D01*
X170439605Y-79375000D01*
X171593320Y-80528715D01*
X171886123Y-80399467D01*
X172154388Y-79699194D01*
X172134250Y-78949565D01*
X171886123Y-78350533D01*
X171593320Y-78221285D01*
X170439605Y-79375000D01*
X170080395Y-79375000D01*
X168926680Y-78221285D01*
X168633877Y-78350533D01*
X168365612Y-79050806D01*
X156837440Y-79050806D01*
X156837440Y-78125000D01*
X156821763Y-78041680D01*
X169106285Y-78041680D01*
X170260000Y-79195395D01*
X171330395Y-78125000D01*
X173362560Y-78125000D01*
X173362560Y-80625000D01*
X173406838Y-80860317D01*
X173545910Y-81076441D01*
X173758110Y-81221431D01*
X174010000Y-81272440D01*
X176510000Y-81272440D01*
X176745317Y-81228162D01*
X176961441Y-81089090D01*
X177106431Y-80876890D01*
X177132345Y-80748925D01*
X181995000Y-85611579D01*
X181995000Y-95117153D01*
X181955345Y-95133538D01*
X181495154Y-95592927D01*
X181245794Y-96193453D01*
X181245226Y-96843694D01*
X181493538Y-97444655D01*
X181952927Y-97904846D01*
X182553453Y-98154206D01*
X183203694Y-98154774D01*
X183804655Y-97906462D01*
X184264846Y-97447073D01*
X184282316Y-97405000D01*
X185287153Y-97405000D01*
X185303538Y-97444655D01*
X185762927Y-97904846D01*
X186363453Y-98154206D01*
X187013694Y-98154774D01*
X187614655Y-97906462D01*
X188074846Y-97447073D01*
X188324206Y-96846547D01*
X188324774Y-96196306D01*
X188076462Y-95595345D01*
X187617073Y-95135154D01*
X187016547Y-94885794D01*
X186366306Y-94885226D01*
X185765345Y-95133538D01*
X185305154Y-95592927D01*
X185287684Y-95635000D01*
X184282847Y-95635000D01*
X184266462Y-95595345D01*
X183807073Y-95135154D01*
X183765000Y-95117684D01*
X183765000Y-85245005D01*
X183765001Y-85245000D01*
X183697634Y-84906326D01*
X183633975Y-84811054D01*
X183505790Y-84619210D01*
X183505787Y-84619208D01*
X177635790Y-78749210D01*
X177348675Y-78557367D01*
X177292484Y-78546190D01*
X177157440Y-78519327D01*
X177157440Y-78125000D01*
X177113162Y-77889683D01*
X176974090Y-77673559D01*
X176761890Y-77528569D01*
X176510000Y-77477560D01*
X174010000Y-77477560D01*
X173774683Y-77521838D01*
X173558559Y-77660910D01*
X173413569Y-77873110D01*
X173362560Y-78125000D01*
X171330395Y-78125000D01*
X171413715Y-78041680D01*
X171284467Y-77748877D01*
X170584194Y-77480612D01*
X169834565Y-77500750D01*
X169235533Y-77748877D01*
X169106285Y-78041680D01*
X156821763Y-78041680D01*
X156793162Y-77889683D01*
X156654090Y-77673559D01*
X156441890Y-77528569D01*
X156190000Y-77477560D01*
X153690000Y-77477560D01*
X153454683Y-77521838D01*
X153238559Y-77660910D01*
X153093569Y-77873110D01*
X153042560Y-78125000D01*
X151355650Y-78125000D01*
X151009161Y-77777907D01*
X150316595Y-77490328D01*
X149566695Y-77489674D01*
X148873628Y-77776043D01*
X148342907Y-78305839D01*
X148055328Y-78998405D01*
X148054674Y-79748305D01*
X136437440Y-79748305D01*
X136437440Y-78125000D01*
X136393162Y-77889683D01*
X136254090Y-77673559D01*
X136041890Y-77528569D01*
X135790000Y-77477560D01*
X133290000Y-77477560D01*
X133054683Y-77521838D01*
X132838559Y-77660910D01*
X132693569Y-77873110D01*
X132642560Y-78125000D01*
X132642560Y-80625000D01*
X132686838Y-80860317D01*
X132825910Y-81076441D01*
X133038110Y-81221431D01*
X133290000Y-81272440D01*
X133655000Y-81272440D01*
X133655000Y-83739995D01*
X133654999Y-83740000D01*
X133711190Y-84022484D01*
X133722367Y-84078675D01*
X133910341Y-84360000D01*
X133914210Y-84365790D01*
X135640000Y-86091579D01*
X135640000Y-86685036D01*
X135175737Y-86876866D01*
X134504224Y-87547208D01*
X134309980Y-88015000D01*
X130307847Y-88015000D01*
X130291462Y-87975345D01*
X129832073Y-87515154D01*
X129231547Y-87265794D01*
X128581306Y-87265226D01*
X127980345Y-87513538D01*
X127520154Y-87972927D01*
X127270794Y-88573453D01*
X127270226Y-89223694D01*
X127518538Y-89824655D01*
X127977927Y-90284846D01*
X128578453Y-90534206D01*
X129228694Y-90534774D01*
X129829655Y-90286462D01*
X130289846Y-89827073D01*
X130307316Y-89785000D01*
X134310036Y-89785000D01*
X134501866Y-90249263D01*
X134807070Y-90555000D01*
X124460005Y-90555000D01*
X124460000Y-90554999D01*
X124459995Y-90555000D01*
X123190005Y-90555000D01*
X123190000Y-90554999D01*
X123189995Y-90555000D01*
X119746579Y-90555000D01*
X119630000Y-90438420D01*
X119630000Y-90302847D01*
X119669655Y-90286462D01*
X120129846Y-89827073D01*
X120379206Y-89226547D01*
X120379774Y-88576306D01*
X120131462Y-87975345D01*
X119672073Y-87515154D01*
X119071547Y-87265794D01*
X118421306Y-87265226D01*
X117820345Y-87513538D01*
X117360154Y-87972927D01*
X117110794Y-88573453D01*
X117110226Y-89223694D01*
X113047500Y-89223694D01*
X113047500Y-80708320D01*
X128386285Y-80708320D01*
X128515533Y-81001123D01*
X129215806Y-81269388D01*
X129965435Y-81249250D01*
X130564467Y-81001123D01*
X130693715Y-80708320D01*
X129540000Y-79554605D01*
X128386285Y-80708320D01*
X113047500Y-80708320D01*
X113047500Y-79050806D01*
X127645612Y-79050806D01*
X127665750Y-79800435D01*
X127913877Y-80399467D01*
X128206680Y-80528715D01*
X129360395Y-79375000D01*
X129719605Y-79375000D01*
X130873320Y-80528715D01*
X131166123Y-80399467D01*
X131434388Y-79699194D01*
X131414250Y-78949565D01*
X131166123Y-78350533D01*
X130873320Y-78221285D01*
X129719605Y-79375000D01*
X129360395Y-79375000D01*
X128206680Y-78221285D01*
X127913877Y-78350533D01*
X127645612Y-79050806D01*
X113047500Y-79050806D01*
X113047500Y-77072325D01*
X115014587Y-77072325D01*
X115376916Y-77949229D01*
X116047242Y-78620726D01*
X116923513Y-78984585D01*
X117872325Y-78985413D01*
X118749229Y-78623084D01*
X119331648Y-78041680D01*
X128386285Y-78041680D01*
X129540000Y-79195395D01*
X130693715Y-78041680D01*
X130564467Y-77748877D01*
X129864194Y-77480612D01*
X129114565Y-77500750D01*
X128515533Y-77748877D01*
X128386285Y-78041680D01*
X119331648Y-78041680D01*
X119420726Y-77952758D01*
X119784585Y-77076487D01*
X119784588Y-77072325D01*
X185014587Y-77072325D01*
X185376916Y-77949229D01*
X186047242Y-78620726D01*
X186923513Y-78984585D01*
X187872325Y-78985413D01*
X188749229Y-78623084D01*
X189420726Y-77952758D01*
X189784585Y-77076487D01*
X189785413Y-76127675D01*
X189423084Y-75250771D01*
X188752758Y-74579274D01*
X187876487Y-74215415D01*
X186927675Y-74214587D01*
X186050771Y-74576916D01*
X185379274Y-75247242D01*
X185015415Y-76123513D01*
X185014587Y-77072325D01*
X119784588Y-77072325D01*
X119785413Y-76127675D01*
X119423084Y-75250771D01*
X118752758Y-74579274D01*
X117876487Y-74215415D01*
X116927675Y-74214587D01*
X116050771Y-74576916D01*
X115379274Y-75247242D01*
X115015415Y-76123513D01*
X115014587Y-77072325D01*
X113047500Y-77072325D01*
X113047500Y-73012106D01*
X113812106Y-72247500D01*
X190987894Y-72247500D01*
X191752500Y-73012106D01*
M02*
