<?xml version="1.0" standalone="no"?>
 <!DOCTYPE svg PUBLIC "-//W3C//DTD SVG 1.1//EN" 
 "http://www.w3.org/Graphics/SVG/1.1/DTD/svg11.dtd"> 
<svg xmlns="http://www.w3.org/2000/svg" version="1.1" 
    width="8.81888cm" height="6.096cm" viewBox="0 0 34720 24000 ">
<title>SVG Picture created as magnetometer-brd.svg date 2017/10/23 16:45:35 </title>
  <desc>Picture generated by PCBNEW </desc>
<g style="fill:#000000; fill-opacity:1;stroke:#000000; stroke-opacity:1;
stroke-linecap:round; stroke-linejoin:round; "
 transform="translate(0 0) scale(1 1)">
</g>
<g style="fill:#000000; fill-opacity:0.0; 
stroke:#000000; stroke-width:-0.000393701; stroke-opacity:1; 
stroke-linecap:round; stroke-linejoin:round;">
</g>
<g style="fill:#840000; fill-opacity:0.0; 
stroke:#840000; stroke-width:-0.000393701; stroke-opacity:1; 
stroke-linecap:round; stroke-linejoin:round;">
</g>
<g style="fill:#840000; fill-opacity:0.0; 
stroke:#840000; stroke-width:0; stroke-opacity:1; 
stroke-linecap:round; stroke-linejoin:round;">
</g>
<g style="fill:#840000; fill-opacity:1.0; 
stroke:#840000; stroke-width:0; stroke-opacity:1; 
stroke-linecap:round; stroke-linejoin:round;">
<polyline style="fill-rule:evenodd;"
points="30839,15915
30839,16584
30169,16584
30169,15915
30839,15915
" /> 
<circle cx="29717.2" cy="16250" r="334.646" /> 
</g>
<g style="fill:#840000; fill-opacity:1.0; 
stroke:#840000; stroke-width:39.3701; stroke-opacity:1; 
stroke-linecap:round; stroke-linejoin:round;">
</g>
<g style="fill:#840000; fill-opacity:1.0; 
stroke:#840000; stroke-width:0; stroke-opacity:1; 
stroke-linecap:round; stroke-linejoin:round;">
<polyline style="fill-rule:evenodd;"
points="29382,19084
29382,18415
30051,18415
30051,19084
29382,19084
" /> 
<circle cx="30504.6" cy="18750" r="334.646" /> 
</g>
<g style="fill:#840000; fill-opacity:1.0; 
stroke:#840000; stroke-width:39.3701; stroke-opacity:1; 
stroke-linecap:round; stroke-linejoin:round;">
</g>
<g style="fill:#840000; fill-opacity:1.0; 
stroke:#840000; stroke-width:0; stroke-opacity:1; 
stroke-linecap:round; stroke-linejoin:round;">
<polyline style="fill-rule:evenodd;"
points="22839,10068
22169,10068
22169,9399
22839,9399
22839,10068
" /> 
<circle cx="22504.6" cy="8750" r="334.646" /> 
</g>
<g style="fill:#840000; fill-opacity:1.0; 
stroke:#840000; stroke-width:39.3701; stroke-opacity:1; 
stroke-linecap:round; stroke-linejoin:round;">
</g>
<g style="fill:#840000; fill-opacity:1.0; 
stroke:#840000; stroke-width:0; stroke-opacity:1; 
stroke-linecap:round; stroke-linejoin:round;">
<polyline style="fill-rule:evenodd;"
points="24169,13931
24839,13931
24839,14600
24169,14600
24169,13931
" /> 
<circle cx="24504.6" cy="15250" r="334.646" /> 
</g>
<g style="fill:#840000; fill-opacity:1.0; 
stroke:#840000; stroke-width:39.3701; stroke-opacity:1; 
stroke-linecap:round; stroke-linejoin:round;">
</g>
<g style="fill:#840000; fill-opacity:1.0; 
stroke:#840000; stroke-width:0; stroke-opacity:1; 
stroke-linecap:round; stroke-linejoin:round;">
<polyline style="fill-rule:evenodd;"
points="9339,10084
8669,10084
8669,9415
9339,9415
9339,10084
" /> 
<circle cx="9004.61" cy="8765.75" r="334.646" /> 
</g>
<g style="fill:#840000; fill-opacity:1.0; 
stroke:#840000; stroke-width:39.3701; stroke-opacity:1; 
stroke-linecap:round; stroke-linejoin:round;">
</g>
<g style="fill:#840000; fill-opacity:1.0; 
stroke:#840000; stroke-width:0; stroke-opacity:1; 
stroke-linecap:round; stroke-linejoin:round;">
<polyline style="fill-rule:evenodd;"
points="10669,13915
11339,13915
11339,14584
10669,14584
10669,13915
" /> 
<circle cx="11004.6" cy="15234.3" r="334.646" /> 
</g>
<g style="fill:#840000; fill-opacity:1.0; 
stroke:#840000; stroke-width:39.3701; stroke-opacity:1; 
stroke-linecap:round; stroke-linejoin:round;">
</g>
<g style="fill:#840000; fill-opacity:1.0; 
stroke:#840000; stroke-width:0; stroke-opacity:1; 
stroke-linecap:round; stroke-linejoin:round;">
<polyline style="fill-rule:evenodd;"
points="17775,7271
18733,7271
18733,8228
17775,8228
17775,7271
" /> 
</g>
<g style="fill:#840000; fill-opacity:1.0; 
stroke:#840000; stroke-width:957.48; stroke-opacity:1; 
stroke-linecap:round; stroke-linejoin:round;">
</g>
<g style="fill:#840000; fill-opacity:0.0; 
stroke:#840000; stroke-width:957.48; stroke-opacity:1; 
stroke-linecap:round; stroke-linejoin:round;">
<path d="M17254 7750
L17254 7750
" />
</g>
<g style="fill:#840000; fill-opacity:0.0; 
stroke:#840000; stroke-width:0; stroke-opacity:1; 
stroke-linecap:round; stroke-linejoin:round;">
</g>
<g style="fill:#840000; fill-opacity:1.0; 
stroke:#840000; stroke-width:0; stroke-opacity:1; 
stroke-linecap:round; stroke-linejoin:round;">
<polyline style="fill-rule:evenodd;"
points="14233,8228
13275,8228
13275,7271
14233,7271
14233,8228
" /> 
</g>
<g style="fill:#840000; fill-opacity:1.0; 
stroke:#840000; stroke-width:957.48; stroke-opacity:1; 
stroke-linecap:round; stroke-linejoin:round;">
</g>
<g style="fill:#840000; fill-opacity:0.0; 
stroke:#840000; stroke-width:957.48; stroke-opacity:1; 
stroke-linecap:round; stroke-linejoin:round;">
<path d="M14754 7750
L14754 7750
" />
</g>
<g style="fill:#840000; fill-opacity:1.0; 
stroke:#840000; stroke-width:0; stroke-opacity:1; 
stroke-linecap:round; stroke-linejoin:round;">
<circle cx="26223.1" cy="20750" r="570.866" /> 
</g>
<g style="fill:#840000; fill-opacity:1.0; 
stroke:#840000; stroke-width:39.3701; stroke-opacity:1; 
stroke-linecap:round; stroke-linejoin:round;">
</g>
<g style="fill:#840000; fill-opacity:1.0; 
stroke:#840000; stroke-width:0; stroke-opacity:1; 
stroke-linecap:round; stroke-linejoin:round;">
<polyline style="fill-rule:evenodd;"
points="21715,21320
21715,20179
22856,20179
22856,21320
21715,21320
" /> 
<circle cx="24254.6" cy="20750" r="570.866" /> 
</g>
<g style="fill:#840000; fill-opacity:1.0; 
stroke:#840000; stroke-width:39.3701; stroke-opacity:1; 
stroke-linecap:round; stroke-linejoin:round;">
</g>
<g style="fill:#840000; fill-opacity:1.0; 
stroke:#840000; stroke-width:0; stroke-opacity:1; 
stroke-linecap:round; stroke-linejoin:round;">
<polyline style="fill-rule:evenodd;"
points="25825,2679
25825,3820
24683,3820
24683,2679
25825,2679
" /> 
<circle cx="23286.1" cy="3250" r="570.866" /> 
</g>
<g style="fill:#840000; fill-opacity:1.0; 
stroke:#840000; stroke-width:39.3701; stroke-opacity:1; 
stroke-linecap:round; stroke-linejoin:round;">
</g>
<g style="fill:#840000; fill-opacity:1.0; 
stroke:#840000; stroke-width:0; stroke-opacity:1; 
stroke-linecap:round; stroke-linejoin:round;">
<polyline style="fill-rule:evenodd;"
points="17825,2679
17825,3820
16683,3820
16683,2679
17825,2679
" /> 
<circle cx="15286.1" cy="3250" r="570.866" /> 
</g>
<g style="fill:#840000; fill-opacity:1.0; 
stroke:#840000; stroke-width:39.3701; stroke-opacity:1; 
stroke-linecap:round; stroke-linejoin:round;">
</g>
<g style="fill:#840000; fill-opacity:1.0; 
stroke:#840000; stroke-width:0; stroke-opacity:1; 
stroke-linecap:round; stroke-linejoin:round;">
<polyline style="fill-rule:evenodd;"
points="10933,21320
10933,20179
12075,20179
12075,21320
10933,21320
" /> 
<circle cx="13473.1" cy="20750" r="570.866" /> 
</g>
<g style="fill:#840000; fill-opacity:1.0; 
stroke:#840000; stroke-width:39.3701; stroke-opacity:1; 
stroke-linecap:round; stroke-linejoin:round;">
</g>
<g style="fill:#840000; fill-opacity:1.0; 
stroke:#840000; stroke-width:0; stroke-opacity:1; 
stroke-linecap:round; stroke-linejoin:round;">
<polyline style="fill-rule:evenodd;"
points="9793,2679
9793,3820
8652,3820
8652,2679
9793,2679
" /> 
<circle cx="7254.61" cy="3250" r="570.866" /> 
</g>
<g style="fill:#840000; fill-opacity:1.0; 
stroke:#840000; stroke-width:39.3701; stroke-opacity:1; 
stroke-linecap:round; stroke-linejoin:round;">
</g>
<g style="fill:#840000; fill-opacity:1.0; 
stroke:#840000; stroke-width:0; stroke-opacity:1; 
stroke-linecap:round; stroke-linejoin:round;">
<circle cx="28254.6" cy="14000" r="472.24" /> 
</g>
<g style="fill:#840000; fill-opacity:1.0; 
stroke:#840000; stroke-width:39.3701; stroke-opacity:1; 
stroke-linecap:round; stroke-linejoin:round;">
</g>
<g style="fill:#840000; fill-opacity:1.0; 
stroke:#840000; stroke-width:0; stroke-opacity:1; 
stroke-linecap:round; stroke-linejoin:round;">
<circle cx="28254.6" cy="10000" r="472.24" /> 
</g>
<g style="fill:#840000; fill-opacity:1.0; 
stroke:#840000; stroke-width:39.3701; stroke-opacity:1; 
stroke-linecap:round; stroke-linejoin:round;">
</g>
<g style="fill:#840000; fill-opacity:1.0; 
stroke:#840000; stroke-width:0; stroke-opacity:1; 
stroke-linecap:round; stroke-linejoin:round;">
<circle cx="29754.6" cy="14000" r="472.24" /> 
</g>
<g style="fill:#840000; fill-opacity:1.0; 
stroke:#840000; stroke-width:39.3701; stroke-opacity:1; 
stroke-linecap:round; stroke-linejoin:round;">
</g>
<g style="fill:#840000; fill-opacity:1.0; 
stroke:#840000; stroke-width:0; stroke-opacity:1; 
stroke-linecap:round; stroke-linejoin:round;">
<circle cx="29754.6" cy="10000" r="472.24" /> 
</g>
<g style="fill:#840000; fill-opacity:1.0; 
stroke:#840000; stroke-width:39.3701; stroke-opacity:1; 
stroke-linecap:round; stroke-linejoin:round;">
</g>
<g style="fill:#840000; fill-opacity:1.0; 
stroke:#840000; stroke-width:0; stroke-opacity:1; 
stroke-linecap:round; stroke-linejoin:round;">
<circle cx="22504.6" cy="17000" r="472.24" /> 
</g>
<g style="fill:#840000; fill-opacity:1.0; 
stroke:#840000; stroke-width:39.3701; stroke-opacity:1; 
stroke-linecap:round; stroke-linejoin:round;">
</g>
<g style="fill:#840000; fill-opacity:1.0; 
stroke:#840000; stroke-width:0; stroke-opacity:1; 
stroke-linecap:round; stroke-linejoin:round;">
<circle cx="18504.6" cy="17000" r="472.24" /> 
</g>
<g style="fill:#840000; fill-opacity:1.0; 
stroke:#840000; stroke-width:39.3701; stroke-opacity:1; 
stroke-linecap:round; stroke-linejoin:round;">
</g>
<g style="fill:#840000; fill-opacity:1.0; 
stroke:#840000; stroke-width:0; stroke-opacity:1; 
stroke-linecap:round; stroke-linejoin:round;">
<circle cx="22504.6" cy="15500" r="472.24" /> 
</g>
<g style="fill:#840000; fill-opacity:1.0; 
stroke:#840000; stroke-width:39.3701; stroke-opacity:1; 
stroke-linecap:round; stroke-linejoin:round;">
</g>
<g style="fill:#840000; fill-opacity:1.0; 
stroke:#840000; stroke-width:0; stroke-opacity:1; 
stroke-linecap:round; stroke-linejoin:round;">
<circle cx="18504.6" cy="15500" r="472.24" /> 
</g>
<g style="fill:#840000; fill-opacity:1.0; 
stroke:#840000; stroke-width:39.3701; stroke-opacity:1; 
stroke-linecap:round; stroke-linejoin:round;">
</g>
<g style="fill:#840000; fill-opacity:1.0; 
stroke:#840000; stroke-width:0; stroke-opacity:1; 
stroke-linecap:round; stroke-linejoin:round;">
<circle cx="18504.6" cy="10000" r="472.24" /> 
</g>
<g style="fill:#840000; fill-opacity:1.0; 
stroke:#840000; stroke-width:39.3701; stroke-opacity:1; 
stroke-linecap:round; stroke-linejoin:round;">
</g>
<g style="fill:#840000; fill-opacity:1.0; 
stroke:#840000; stroke-width:0; stroke-opacity:1; 
stroke-linecap:round; stroke-linejoin:round;">
<circle cx="18504.6" cy="14000" r="472.24" /> 
</g>
<g style="fill:#840000; fill-opacity:1.0; 
stroke:#840000; stroke-width:39.3701; stroke-opacity:1; 
stroke-linecap:round; stroke-linejoin:round;">
</g>
<g style="fill:#840000; fill-opacity:1.0; 
stroke:#840000; stroke-width:0; stroke-opacity:1; 
stroke-linecap:round; stroke-linejoin:round;">
<circle cx="13504.6" cy="14000" r="472.24" /> 
</g>
<g style="fill:#840000; fill-opacity:1.0; 
stroke:#840000; stroke-width:39.3701; stroke-opacity:1; 
stroke-linecap:round; stroke-linejoin:round;">
</g>
<g style="fill:#840000; fill-opacity:1.0; 
stroke:#840000; stroke-width:0; stroke-opacity:1; 
stroke-linecap:round; stroke-linejoin:round;">
<circle cx="13504.6" cy="10000" r="472.24" /> 
</g>
<g style="fill:#840000; fill-opacity:1.0; 
stroke:#840000; stroke-width:39.3701; stroke-opacity:1; 
stroke-linecap:round; stroke-linejoin:round;">
</g>
<g style="fill:#840000; fill-opacity:1.0; 
stroke:#840000; stroke-width:0; stroke-opacity:1; 
stroke-linecap:round; stroke-linejoin:round;">
<circle cx="15004.6" cy="14000" r="472.24" /> 
</g>
<g style="fill:#840000; fill-opacity:1.0; 
stroke:#840000; stroke-width:39.3701; stroke-opacity:1; 
stroke-linecap:round; stroke-linejoin:round;">
</g>
<g style="fill:#840000; fill-opacity:1.0; 
stroke:#840000; stroke-width:0; stroke-opacity:1; 
stroke-linecap:round; stroke-linejoin:round;">
<circle cx="15004.6" cy="10000" r="472.24" /> 
</g>
<g style="fill:#840000; fill-opacity:1.0; 
stroke:#840000; stroke-width:39.3701; stroke-opacity:1; 
stroke-linecap:round; stroke-linejoin:round;">
</g>
<g style="fill:#840000; fill-opacity:1.0; 
stroke:#840000; stroke-width:0; stroke-opacity:1; 
stroke-linecap:round; stroke-linejoin:round;">
<circle cx="12754.6" cy="15500" r="472.24" /> 
</g>
<g style="fill:#840000; fill-opacity:1.0; 
stroke:#840000; stroke-width:39.3701; stroke-opacity:1; 
stroke-linecap:round; stroke-linejoin:round;">
</g>
<g style="fill:#840000; fill-opacity:1.0; 
stroke:#840000; stroke-width:0; stroke-opacity:1; 
stroke-linecap:round; stroke-linejoin:round;">
<circle cx="16754.6" cy="15500" r="472.24" /> 
</g>
<g style="fill:#840000; fill-opacity:1.0; 
stroke:#840000; stroke-width:39.3701; stroke-opacity:1; 
stroke-linecap:round; stroke-linejoin:round;">
</g>
<g style="fill:#840000; fill-opacity:1.0; 
stroke:#840000; stroke-width:0; stroke-opacity:1; 
stroke-linecap:round; stroke-linejoin:round;">
<circle cx="5004.61" cy="10000" r="472.24" /> 
</g>
<g style="fill:#840000; fill-opacity:1.0; 
stroke:#840000; stroke-width:39.3701; stroke-opacity:1; 
stroke-linecap:round; stroke-linejoin:round;">
</g>
<g style="fill:#840000; fill-opacity:1.0; 
stroke:#840000; stroke-width:0; stroke-opacity:1; 
stroke-linecap:round; stroke-linejoin:round;">
<circle cx="5004.61" cy="14000" r="472.24" /> 
</g>
<g style="fill:#840000; fill-opacity:1.0; 
stroke:#840000; stroke-width:39.3701; stroke-opacity:1; 
stroke-linecap:round; stroke-linejoin:round;">
</g>
<g style="fill:#840000; fill-opacity:1.0; 
stroke:#840000; stroke-width:0; stroke-opacity:1; 
stroke-linecap:round; stroke-linejoin:round;">
<circle cx="7004.61" cy="7000" r="472.24" /> 
</g>
<g style="fill:#840000; fill-opacity:1.0; 
stroke:#840000; stroke-width:39.3701; stroke-opacity:1; 
stroke-linecap:round; stroke-linejoin:round;">
</g>
<g style="fill:#840000; fill-opacity:1.0; 
stroke:#840000; stroke-width:0; stroke-opacity:1; 
stroke-linecap:round; stroke-linejoin:round;">
<circle cx="3004.61" cy="7000" r="472.24" /> 
</g>
<g style="fill:#840000; fill-opacity:1.0; 
stroke:#840000; stroke-width:39.3701; stroke-opacity:1; 
stroke-linecap:round; stroke-linejoin:round;">
</g>
<g style="fill:#840000; fill-opacity:1.0; 
stroke:#840000; stroke-width:0; stroke-opacity:1; 
stroke-linecap:round; stroke-linejoin:round;">
<circle cx="16754.6" cy="20500" r="378.74" /> 
</g>
<g style="fill:#840000; fill-opacity:1.0; 
stroke:#840000; stroke-width:39.3701; stroke-opacity:1; 
stroke-linecap:round; stroke-linejoin:round;">
</g>
<g style="fill:#840000; fill-opacity:1.0; 
stroke:#840000; stroke-width:0; stroke-opacity:1; 
stroke-linecap:round; stroke-linejoin:round;">
<circle cx="16754.6" cy="21500" r="378.74" /> 
</g>
<g style="fill:#840000; fill-opacity:1.0; 
stroke:#840000; stroke-width:39.3701; stroke-opacity:1; 
stroke-linecap:round; stroke-linejoin:round;">
</g>
<g style="fill:#840000; fill-opacity:1.0; 
stroke:#840000; stroke-width:0; stroke-opacity:1; 
stroke-linecap:round; stroke-linejoin:round;">
<circle cx="16754.6" cy="19500" r="378.74" /> 
</g>
<g style="fill:#840000; fill-opacity:1.0; 
stroke:#840000; stroke-width:39.3701; stroke-opacity:1; 
stroke-linecap:round; stroke-linejoin:round;">
</g>
<g style="fill:#840000; fill-opacity:1.0; 
stroke:#840000; stroke-width:787.402; stroke-opacity:1; 
stroke-linecap:round; stroke-linejoin:round;">
</g>
<g style="fill:#840000; fill-opacity:0.0; 
stroke:#840000; stroke-width:787.402; stroke-opacity:1; 
stroke-linecap:round; stroke-linejoin:round;">
<path d="M21504 13500
L21504 13500
" />
<path d="M22504 13500
L22504 13500
" />
<path d="M23504 13500
L23504 13500
" />
<path d="M24504 13500
L24504 13500
" />
<path d="M24504 10500
L24504 10500
" />
<path d="M23504 10500
L23504 10500
" />
<path d="M22504 10500
L22504 10500
" />
<path d="M21504 10500
L21504 10500
" />
<path d="M8004 13500
L8004 13500
" />
<path d="M9004 13500
L9004 13500
" />
<path d="M10004 13500
L10004 13500
" />
<path d="M11004 13500
L11004 13500
" />
<path d="M11004 10500
L11004 10500
" />
<path d="M10004 10500
L10004 10500
" />
<path d="M9004 10500
L9004 10500
" />
<path d="M8004 10500
L8004 10500
" />
</g>
<g style="fill:#840000; fill-opacity:1.0; 
stroke:#840000; stroke-width:0; stroke-opacity:1; 
stroke-linecap:round; stroke-linejoin:round;">
<circle cx="19504.6" cy="19250" r="767.74" /> 
</g>
<g style="fill:#840000; fill-opacity:1.0; 
stroke:#840000; stroke-width:39.3701; stroke-opacity:1; 
stroke-linecap:round; stroke-linejoin:round;">
</g>
<g style="fill:#840000; fill-opacity:1.0; 
stroke:#840000; stroke-width:0; stroke-opacity:1; 
stroke-linecap:round; stroke-linejoin:round;">
<circle cx="23504.6" cy="7000" r="767.74" /> 
</g>
<g style="fill:#840000; fill-opacity:1.0; 
stroke:#840000; stroke-width:39.3701; stroke-opacity:1; 
stroke-linecap:round; stroke-linejoin:round;">
</g>
<g style="fill:#840000; fill-opacity:1.0; 
stroke:#840000; stroke-width:0; stroke-opacity:1; 
stroke-linecap:round; stroke-linejoin:round;">
<circle cx="10004.6" cy="7000" r="767.74" /> 
</g>
<g style="fill:#840000; fill-opacity:1.0; 
stroke:#840000; stroke-width:39.3701; stroke-opacity:1; 
stroke-linecap:round; stroke-linejoin:round;">
</g>
<g style="fill:#840000; fill-opacity:1.0; 
stroke:#840000; stroke-width:0; stroke-opacity:1; 
stroke-linecap:round; stroke-linejoin:round;">
<circle cx="2475.08" cy="2157.48" r="767.717" /> 
</g>
<g style="fill:#840000; fill-opacity:1.0; 
stroke:#840000; stroke-width:39.3701; stroke-opacity:1; 
stroke-linecap:round; stroke-linejoin:round;">
</g>
<g style="fill:#840000; fill-opacity:1.0; 
stroke:#840000; stroke-width:0; stroke-opacity:1; 
stroke-linecap:round; stroke-linejoin:round;">
<circle cx="30034.1" cy="2157.48" r="767.717" /> 
</g>
<g style="fill:#840000; fill-opacity:1.0; 
stroke:#840000; stroke-width:39.3701; stroke-opacity:1; 
stroke-linecap:round; stroke-linejoin:round;">
</g>
<g style="fill:#840000; fill-opacity:1.0; 
stroke:#840000; stroke-width:0; stroke-opacity:1; 
stroke-linecap:round; stroke-linejoin:round;">
<circle cx="30034.1" cy="21842.5" r="767.717" /> 
</g>
<g style="fill:#840000; fill-opacity:1.0; 
stroke:#840000; stroke-width:39.3701; stroke-opacity:1; 
stroke-linecap:round; stroke-linejoin:round;">
</g>
<g style="fill:#840000; fill-opacity:1.0; 
stroke:#840000; stroke-width:0; stroke-opacity:1; 
stroke-linecap:round; stroke-linejoin:round;">
<circle cx="2475.08" cy="21842.5" r="767.717" /> 
</g>
<g style="fill:#840000; fill-opacity:1.0; 
stroke:#840000; stroke-width:39.3701; stroke-opacity:1; 
stroke-linecap:round; stroke-linejoin:round;">
</g>
<g style="fill:#000000; fill-opacity:1.0; 
stroke:#000000; stroke-width:39.3701; stroke-opacity:1; 
stroke-linecap:round; stroke-linejoin:round;">
</g>
<g style="fill:#008484; fill-opacity:1.0; 
stroke:#008484; stroke-width:39.3701; stroke-opacity:1; 
stroke-linecap:round; stroke-linejoin:round;">
</g>
<g style="fill:#008484; fill-opacity:0.0; 
stroke:#008484; stroke-width:39.3701; stroke-opacity:1; 
stroke-linecap:round; stroke-linejoin:round;">
</g>
<g style="fill:#008484; fill-opacity:0.0; 
stroke:#008484; stroke-width:59.0551; stroke-opacity:1; 
stroke-linecap:round; stroke-linejoin:round;">
<path d="M4694 22179
L4694 21904
L4786 22101
L4877 21904
L4877 22179
" />
<path d="M5127 22179
L5127 22035
L5114 22009
L5087 21996
L5035 21996
L5009 22009
" />
<path d="M5127 22166
L5101 22179
L5035 22179
L5009 22166
L4996 22140
L4996 22114
L5009 22087
L5035 22074
L5101 22074
L5127 22061
" />
<path d="M5376 21996
L5376 22219
L5363 22245
L5350 22258
L5324 22271
L5284 22271
L5258 22258
" />
<path d="M5376 22166
L5350 22179
L5297 22179
L5271 22166
L5258 22153
L5245 22127
L5245 22048
L5258 22022
L5271 22009
L5297 21996
L5350 21996
L5376 22009
" />
<path d="M5507 21996
L5507 22179
" />
<path d="M5507 22022
L5521 22009
L5547 21996
L5586 21996
L5612 22009
L5626 22035
L5626 22179
" />
<path d="M5862 22166
L5835 22179
L5783 22179
L5757 22166
L5744 22140
L5744 22035
L5757 22009
L5783 21996
L5835 21996
L5862 22009
L5875 22035
L5875 22061
L5744 22087
" />
<path d="M5954 21996
L6059 21996
" />
<path d="M5993 21904
L5993 22140
L6006 22166
L6032 22179
L6059 22179
" />
<path d="M6190 22179
L6164 22166
L6150 22153
L6137 22127
L6137 22048
L6150 22022
L6164 22009
L6190 21996
L6229 21996
L6255 22009
L6269 22022
L6282 22048
L6282 22127
L6269 22153
L6255 22166
L6229 22179
L6190 22179
" />
<path d="M6400 22179
L6400 21996
" />
<path d="M6400 22022
L6413 22009
L6439 21996
L6479 21996
L6505 22009
L6518 22035
L6518 22179
" />
<path d="M6518 22035
L6531 22009
L6557 21996
L6597 21996
L6623 22009
L6636 22035
L6636 22179
" />
<path d="M6872 22166
L6846 22179
L6793 22179
L6767 22166
L6754 22140
L6754 22035
L6767 22009
L6793 21996
L6846 21996
L6872 22009
L6885 22035
L6885 22061
L6754 22087
" />
<path d="M6964 21996
L7069 21996
" />
<path d="M7003 21904
L7003 22140
L7017 22166
L7043 22179
L7069 22179
" />
<path d="M7266 22166
L7240 22179
L7187 22179
L7161 22166
L7148 22140
L7148 22035
L7161 22009
L7187 21996
L7240 21996
L7266 22009
L7279 22035
L7279 22061
L7148 22087
" />
<path d="M7397 22179
L7397 21996
" />
<path d="M7397 22048
L7410 22022
L7423 22009
L7450 21996
L7476 21996
" />
<path d="M7778 22179
L7778 21904
" />
<path d="M7778 22009
L7804 21996
L7856 21996
L7883 22009
L7896 22022
L7909 22048
L7909 22127
L7896 22153
L7883 22166
L7856 22179
L7804 22179
L7778 22166
" />
<path d="M8066 22179
L8040 22166
L8027 22153
L8014 22127
L8014 22048
L8027 22022
L8040 22009
L8066 21996
L8106 21996
L8132 22009
L8145 22022
L8158 22048
L8158 22127
L8145 22153
L8132 22166
L8106 22179
L8066 22179
" />
<path d="M8395 22179
L8395 22035
L8381 22009
L8355 21996
L8303 21996
L8276 22009
" />
<path d="M8395 22166
L8368 22179
L8303 22179
L8276 22166
L8263 22140
L8263 22114
L8276 22087
L8303 22074
L8368 22074
L8395 22061
" />
<path d="M8526 22179
L8526 21996
" />
<path d="M8526 22048
L8539 22022
L8552 22009
L8578 21996
L8605 21996
" />
<path d="M8814 22179
L8814 21904
" />
<path d="M8814 22166
L8788 22179
L8736 22179
L8709 22166
L8696 22153
L8683 22127
L8683 22048
L8696 22022
L8709 22009
L8736 21996
L8788 21996
L8814 22009
" />
<path d="M4720 22624
L4720 22349
" />
<path d="M4720 22454
L4746 22440
L4799 22440
L4825 22454
L4838 22467
L4851 22493
L4851 22572
L4838 22598
L4825 22611
L4799 22624
L4746 22624
L4720 22611
" />
<path d="M4943 22440
L5009 22624
" />
<path d="M5074 22440
L5009 22624
L4982 22690
L4969 22703
L4943 22716
" />
<path d="M5376 22611
L5416 22624
L5481 22624
L5507 22611
L5521 22598
L5534 22572
L5534 22545
L5521 22519
L5507 22506
L5481 22493
L5429 22480
L5402 22467
L5389 22454
L5376 22427
L5376 22401
L5389 22375
L5402 22362
L5429 22349
L5494 22349
L5534 22362
" />
<path d="M5757 22611
L5730 22624
L5678 22624
L5652 22611
L5639 22585
L5639 22480
L5652 22454
L5678 22440
L5730 22440
L5757 22454
L5770 22480
L5770 22506
L5639 22532
" />
<path d="M6006 22624
L6006 22480
L5993 22454
L5967 22440
L5914 22440
L5888 22454
" />
<path d="M6006 22611
L5980 22624
L5914 22624
L5888 22611
L5875 22585
L5875 22559
L5888 22532
L5914 22519
L5980 22519
L6006 22506
" />
<path d="M6137 22440
L6137 22624
" />
<path d="M6137 22467
L6150 22454
L6177 22440
L6216 22440
L6242 22454
L6255 22480
L6255 22624
" />
<path d="M6728 22624
L6597 22624
L6597 22349
" />
<path d="M6925 22611
L6898 22624
L6846 22624
L6820 22611
L6807 22585
L6807 22480
L6820 22454
L6846 22440
L6898 22440
L6925 22454
L6938 22480
L6938 22506
L6807 22532
" />
<path d="M7174 22624
L7174 22480
L7161 22454
L7135 22440
L7082 22440
L7056 22454
" />
<path d="M7174 22611
L7148 22624
L7082 22624
L7056 22611
L7043 22585
L7043 22559
L7056 22532
L7082 22519
L7148 22519
L7174 22506
" />
<path d="M7279 22440
L7345 22624
L7410 22440
" />
<path d="M7620 22611
L7594 22624
L7542 22624
L7515 22611
L7502 22585
L7502 22480
L7515 22454
L7542 22440
L7594 22440
L7620 22454
L7633 22480
L7633 22506
L7502 22532
" />
<path d="M7725 22440
L7791 22624
" />
<path d="M7856 22440
L7791 22624
L7765 22690
L7751 22703
L7725 22716
" />
<path d="M8290 22624
L8290 22480
L8276 22454
L8250 22440
L8198 22440
L8171 22454
" />
<path d="M8290 22611
L8263 22624
L8198 22624
L8171 22611
L8158 22585
L8158 22559
L8171 22532
L8198 22519
L8263 22519
L8290 22506
" />
<path d="M8421 22440
L8421 22624
" />
<path d="M8421 22467
L8434 22454
L8460 22440
L8500 22440
L8526 22454
L8539 22480
L8539 22624
" />
<path d="M8788 22624
L8788 22349
" />
<path d="M8788 22611
L8762 22624
L8709 22624
L8683 22611
L8670 22598
L8657 22572
L8657 22493
L8670 22467
L8683 22454
L8709 22440
L8762 22440
L8788 22454
" />
<path d="M5665 23069
L5665 22793
" />
<path d="M5665 22925
L5822 22925
" />
<path d="M5822 23069
L5822 22793
" />
<path d="M6072 22885
L6072 23069
" />
<path d="M5954 22885
L5954 23030
L5967 23056
L5993 23069
L6032 23069
L6059 23056
L6072 23043
" />
<path d="M6321 22885
L6321 23108
L6308 23135
L6295 23148
L6269 23161
L6229 23161
L6203 23148
" />
<path d="M6321 23056
L6295 23069
L6242 23069
L6216 23056
L6203 23043
L6190 23017
L6190 22938
L6203 22912
L6216 22898
L6242 22885
L6295 22885
L6321 22898
" />
<path d="M6452 23069
L6452 22793
" />
<path d="M6570 23069
L6570 22925
L6557 22898
L6531 22885
L6492 22885
L6465 22898
L6452 22912
" />
<path d="M6912 23069
L6912 22793
L7017 22793
L7043 22807
L7056 22820
L7069 22846
L7069 22885
L7056 22912
L7043 22925
L7017 22938
L6912 22938
" />
<path d="M7227 23069
L7200 23056
L7187 23043
L7174 23017
L7174 22938
L7187 22912
L7200 22898
L7227 22885
L7266 22885
L7292 22898
L7305 22912
L7318 22938
L7318 23017
L7305 23043
L7292 23056
L7266 23069
L7227 23069
" />
<path d="M7397 22885
L7502 22885
" />
<path d="M7437 22793
L7437 23030
L7450 23056
L7476 23069
L7502 23069
" />
<path d="M7555 22885
L7660 22885
" />
<path d="M7594 22793
L7594 23030
L7607 23056
L7633 23069
L7660 23069
" />
<path d="M7738 23056
L7765 23069
L7817 23069
L7843 23056
L7856 23030
L7856 23017
L7843 22990
L7817 22977
L7778 22977
L7751 22964
L7738 22938
L7738 22925
L7751 22898
L7778 22885
L7817 22885
L7843 22898
" />
</g>
<g style="fill:#008484; fill-opacity:0.0; 
stroke:#008484; stroke-width:78.7402; stroke-opacity:1; 
stroke-linecap:round; stroke-linejoin:round;">
<path d="M25560 18278
L25860 18278
" />
<path d="M26254 18428
L26029 18428
" />
<path d="M26142 18428
L26142 18034
L26104 18090
L26067 18128
L26029 18146
" />
<path d="M26404 18071
L26423 18053
L26460 18034
L26554 18034
L26592 18053
L26610 18071
L26629 18109
L26629 18146
L26610 18203
L26385 18428
L26629 18428
" />
<path d="M26742 18034
L26873 18428
L27004 18034
" />
<path d="M23954 18053
L23917 18034
L23860 18034
L23804 18053
L23767 18090
L23748 18128
L23729 18203
L23729 18259
L23748 18334
L23767 18371
L23804 18409
L23860 18428
L23898 18428
L23954 18409
L23973 18390
L23973 18259
L23898 18259
" />
<path d="M24142 18428
L24142 18034
L24367 18428
L24367 18034
" />
<path d="M24554 18428
L24554 18034
L24648 18034
L24704 18053
L24742 18090
L24760 18128
L24779 18203
L24779 18259
L24760 18334
L24742 18371
L24704 18409
L24648 18428
L24554 18428
" />
<path d="M21560 18278
L21860 18278
" />
<path d="M21710 18428
L21710 18128
" />
<path d="M22254 18428
L22029 18428
" />
<path d="M22142 18428
L22142 18034
L22104 18090
L22067 18128
L22029 18146
" />
<path d="M22404 18071
L22423 18053
L22460 18034
L22554 18034
L22592 18053
L22610 18071
L22629 18109
L22629 18146
L22610 18203
L22385 18428
L22629 18428
" />
<path d="M22742 18034
L22873 18428
L23004 18034
" />
<path d="M10801 18034
L10932 18428
L11064 18034
" />
<path d="M11195 18221
L11326 18221
" />
<path d="M11382 18428
L11195 18428
L11195 18034
L11382 18034
" />
<path d="M11776 18428
L11645 18240
" />
<path d="M11551 18428
L11551 18034
L11701 18034
L11738 18053
L11757 18071
L11776 18109
L11776 18165
L11757 18203
L11738 18221
L11701 18240
L11551 18240
" />
<path d="M12170 18428
L12038 18240
" />
<path d="M11945 18428
L11945 18034
L12095 18034
L12132 18053
L12151 18071
L12170 18109
L12170 18165
L12151 18203
L12132 18221
L12095 18240
L11945 18240
" />
<path d="M13204 18053
L13167 18034
L13110 18034
L13054 18053
L13017 18090
L12998 18128
L12979 18203
L12979 18259
L12998 18334
L13017 18371
L13054 18409
L13110 18428
L13148 18428
L13204 18409
L13223 18390
L13223 18259
L13148 18259
" />
<path d="M13392 18428
L13392 18034
L13617 18428
L13617 18034
" />
<path d="M13804 18428
L13804 18034
L13898 18034
L13954 18053
L13992 18090
L14010 18128
L14029 18203
L14029 18259
L14010 18334
L13992 18371
L13954 18409
L13898 18428
L13804 18428
" />
<path d="M23104 5778
L23404 5778
" />
<path d="M25104 5778
L25404 5778
" />
<path d="M25254 5928
L25254 5628
" />
<path d="M17104 5778
L17404 5778
" />
<path d="M17254 5928
L17254 5628
" />
<path d="M15104 5778
L15404 5778
" />
<path d="M9104 5778
L9404 5778
" />
<path d="M9254 5928
L9254 5628
" />
<path d="M7104 5778
L7404 5778
" />
</g>
<g style="fill:#008484; fill-opacity:0.0; 
stroke:#008484; stroke-width:118.11; stroke-opacity:1; 
stroke-linecap:round; stroke-linejoin:round;">
<path d="M24634 482
L24915 482
L24915 1073
" />
<path d="M24437 792
L24240 792
" />
<path d="M24156 482
L24437 482
L24437 1073
L24156 1073
" />
<path d="M23903 482
L23903 1073
L23762 1073
L23678 1045
L23621 989
L23593 932
L23565 820
L23565 735
L23593 623
L23621 567
L23678 510
L23762 482
L23903 482
" />
<path d="M18574 482
L18574 1073
L18349 1073
L18293 1045
L18265 1017
L18237 960
L18237 876
L18265 820
L18293 792
L18349 764
L18574 764
" />
<path d="M17984 482
L17984 1073
" />
<path d="M17730 482
L17730 792
L17759 848
L17815 876
L17899 876
L17955 848
L17984 820
" />
<path d="M17365 482
L17421 510
L17449 539
L17477 595
L17477 764
L17449 820
L17421 848
L17365 876
L17281 876
L17224 848
L17196 820
L17168 764
L17168 595
L17196 539
L17224 510
L17281 482
L17365 482
" />
<path d="M16999 876
L16774 876
" />
<path d="M16915 1073
L16915 567
L16887 510
L16831 482
L16774 482
" />
<path d="M16493 482
L16549 510
L16578 539
L16606 595
L16606 764
L16578 820
L16549 848
L16493 876
L16409 876
L16353 848
L16324 820
L16296 764
L16296 595
L16324 539
L16353 510
L16409 482
L16493 482
" />
<path d="M15790 482
L15790 1073
" />
<path d="M15790 510
L15846 482
L15959 482
L16015 510
L16043 539
L16071 595
L16071 764
L16043 820
L16015 848
L15959 876
L15846 876
L15790 848
" />
<path d="M15509 482
L15509 876
" />
<path d="M15509 1073
L15537 1045
L15509 1017
L15481 1045
L15509 1073
L15509 1017
" />
<path d="M15143 482
L15200 510
L15228 539
L15256 595
L15256 764
L15228 820
L15200 848
L15143 876
L15059 876
L15003 848
L14975 820
L14946 764
L14946 595
L14975 539
L15003 510
L15059 482
L15143 482
" />
<path d="M14440 482
L14440 1073
" />
<path d="M14440 510
L14497 482
L14609 482
L14665 510
L14693 539
L14721 595
L14721 764
L14693 820
L14665 848
L14609 876
L14497 876
L14440 848
" />
<path d="M13934 510
L13990 482
L14103 482
L14159 510
L14187 567
L14187 792
L14159 848
L14103 876
L13990 876
L13934 848
L13906 792
L13906 735
L14187 679
" />
<path d="M8634 539
L8662 510
L8746 482
L8802 482
L8887 510
L8943 567
L8971 623
L8999 735
L8999 820
L8971 932
L8943 989
L8887 1045
L8802 1073
L8746 1073
L8662 1045
L8634 1017
" />
<path d="M8296 482
L8353 510
L8381 539
L8409 595
L8409 764
L8381 820
L8353 848
L8296 876
L8212 876
L8156 848
L8128 820
L8099 764
L8099 595
L8128 539
L8156 510
L8212 482
L8296 482
" />
<path d="M7846 482
L7846 876
" />
<path d="M7846 1073
L7874 1045
L7846 1017
L7818 1045
L7846 1073
L7846 1017
" />
<path d="M7481 482
L7537 510
L7565 567
L7565 1073
" />
<path d="M23087 23517
L23087 22926
L23312 22926
L23368 22954
L23396 22982
L23425 23039
L23425 23123
L23396 23179
L23368 23207
L23312 23235
L23087 23235
" />
<path d="M23762 23517
L23706 23489
L23678 23460
L23650 23404
L23650 23235
L23678 23179
L23706 23151
L23762 23123
L23846 23123
L23903 23151
L23931 23179
L23959 23235
L23959 23404
L23931 23460
L23903 23489
L23846 23517
L23762 23517
" />
<path d="M24156 23123
L24268 23517
L24381 23235
L24493 23517
L24606 23123
" />
<path d="M25056 23489
L24999 23517
L24887 23517
L24831 23489
L24802 23432
L24802 23207
L24831 23151
L24887 23123
L24999 23123
L25056 23151
L25084 23207
L25084 23264
L24802 23320
" />
<path d="M25337 23517
L25337 23123
" />
<path d="M25337 23235
L25365 23179
L25393 23151
L25449 23123
L25506 23123
" />
<path d="M11014 23517
L11014 22926
L11211 23348
L11407 22926
L11407 23517
" />
<path d="M11773 23517
L11717 23489
L11689 23460
L11660 23404
L11660 23235
L11689 23179
L11717 23151
L11773 23123
L11857 23123
L11914 23151
L11942 23179
L11970 23235
L11970 23404
L11942 23460
L11914 23489
L11857 23517
L11773 23517
" />
<path d="M12223 23123
L12223 23517
" />
<path d="M12223 23179
L12251 23151
L12307 23123
L12392 23123
L12448 23151
L12476 23207
L12476 23517
" />
<path d="M12757 23517
L12757 23123
" />
<path d="M12757 22926
L12729 22954
L12757 22982
L12785 22954
L12757 22926
L12757 22982
" />
<path d="M12954 23123
L13179 23123
" />
<path d="M13038 22926
L13038 23432
L13067 23489
L13123 23517
L13179 23517
" />
<path d="M13460 23517
L13404 23489
L13376 23460
L13348 23404
L13348 23235
L13376 23179
L13404 23151
L13460 23123
L13545 23123
L13601 23151
L13629 23179
L13657 23235
L13657 23404
L13629 23460
L13601 23489
L13545 23517
L13460 23517
" />
<path d="M13910 23517
L13910 23123
" />
<path d="M13910 23235
L13938 23179
L13966 23151
L14023 23123
L14079 23123
" />
<path d="M1717 14989
L1801 15017
L1942 15017
L1998 14989
L2026 14960
L2054 14904
L2054 14848
L2026 14792
L1998 14764
L1942 14735
L1829 14707
L1773 14679
L1745 14651
L1717 14595
L1717 14539
L1745 14482
L1773 14454
L1829 14426
L1970 14426
L2054 14454
" />
<path d="M2729 14398
L2223 15157
" />
<path d="M2926 15017
L2926 14426
L3263 15017
L3263 14426
" />
</g>
<g style="fill:#008484; fill-opacity:0.0; 
stroke:#008484; stroke-width:3149.61; stroke-opacity:1; 
stroke-linecap:round; stroke-linejoin:round;">
<path d="M2504 17000
L9004 17000
" />
</g>
<g style="fill:#008484; fill-opacity:0.0; 
stroke:#008484; stroke-width:59.0551; stroke-opacity:1; 
stroke-linecap:round; stroke-linejoin:round;">
<path d="M30081 17233
L30081 15266
" />
<path d="M30026 17230
L30026 16310
" />
<path d="M30026 16189
L30026 15269
" />
<path d="M29971 17224
L29971 16436
" />
<path d="M29971 16063
L29971 15275
" />
<path d="M29916 17214
L29916 16494
" />
<path d="M29916 16005
L29916 15285
" />
<path d="M29860 17201
L29860 16530
" />
<path d="M29860 15969
L29860 15298
" />
<path d="M29805 17185
L29805 16552
" />
<path d="M29805 15947
L29805 15314
" />
<path d="M29750 17166
L29750 16562
" />
<path d="M29750 15937
L29750 15333
" />
<path d="M29695 17142
L29695 16564
" />
<path d="M29695 15935
L29695 15357
" />
<path d="M29640 17114
L29640 16555
" />
<path d="M29640 15944
L29640 15385
" />
<path d="M29585 17082
L29585 16535
" />
<path d="M29585 15964
L29585 15417
" />
<path d="M29530 17044
L29530 16503
" />
<path d="M29530 15996
L29530 15455
" />
<path d="M29475 17001
L29475 16451
" />
<path d="M29475 16048
L29475 15498
" />
<path d="M29419 16950
L29419 16354
" />
<path d="M29419 16145
L29419 15549
" />
<path d="M29364 16892
L29364 15607
" />
<path d="M29309 16821
L29309 15678
" />
<path d="M29254 16735
L29254 15764
" />
<path d="M29199 16621
L29199 15878
" />
<path d="M29144 16435
L29144 16064
" />
<circle cx="29717.2" cy="16250" r="314.961" /> 
<circle cx="30110.9" cy="16250" r="999.016" /> 
<path d="M30140 17766
L30140 19733
" />
<path d="M30195 17769
L30195 18689
" />
<path d="M30195 18810
L30195 19730
" />
<path d="M30250 17775
L30250 18563
" />
<path d="M30250 18936
L30250 19724
" />
<path d="M30305 17785
L30305 18505
" />
<path d="M30305 18994
L30305 19714
" />
<path d="M30360 17798
L30360 18469
" />
<path d="M30360 19030
L30360 19701
" />
<path d="M30416 17814
L30416 18447
" />
<path d="M30416 19052
L30416 19685
" />
<path d="M30471 17833
L30471 18437
" />
<path d="M30471 19062
L30471 19666
" />
<path d="M30526 17857
L30526 18435
" />
<path d="M30526 19064
L30526 19642
" />
<path d="M30581 17885
L30581 18444
" />
<path d="M30581 19055
L30581 19614
" />
<path d="M30636 17917
L30636 18464
" />
<path d="M30636 19035
L30636 19582
" />
<path d="M30691 17955
L30691 18496
" />
<path d="M30691 19003
L30691 19544
" />
<path d="M30746 17998
L30746 18548
" />
<path d="M30746 18951
L30746 19501
" />
<path d="M30801 18049
L30801 18645
" />
<path d="M30801 18854
L30801 19450
" />
<path d="M30856 18107
L30856 19392
" />
<path d="M30912 18178
L30912 19321
" />
<path d="M30967 18264
L30967 19235
" />
<path d="M31022 18378
L31022 19121
" />
<path d="M31077 18564
L31077 18935
" />
<circle cx="30504.6" cy="18750" r="314.961" /> 
<circle cx="30110.9" cy="18750" r="999.016" /> 
<path d="M22012 9832
L22012 8651
" />
<path d="M22996 8651
L22996 9832
" />
<path d="M24996 14167
L24996 15348
" />
<path d="M24012 15348
L24012 14167
" />
<path d="M8512 9848
L8512 8667
" />
<path d="M9496 8667
L9496 9848
" />
<path d="M11496 14151
L11496 15332
" />
<path d="M10512 15332
L10512 14151
" />
<path d="M17754 8250
L16754 8250
" />
<path d="M18864 8360
L18254 8360
" />
<path d="M17754 8250
L17754 7250
" />
<path d="M18254 7139
L18864 7139
" />
<path d="M18864 7139
L18864 8360
" />
<path d="M17754 7250
L16754 7250
" />
<path d="M16754 7250
L16754 8250
" />
<path d="M14254 7250
L15254 7250
" />
<path d="M13144 7139
L13754 7139
" />
<path d="M14254 7250
L14254 8250
" />
<path d="M13754 8360
L13144 8360
" />
<path d="M13144 8360
L13144 7139
" />
<path d="M14254 8250
L15254 8250
" />
<path d="M15254 8250
L15254 7250
" />
<circle cx="26223.1" cy="20789.4" r="787.402" /> 
<path d="M25238 22364
L25238 22561
" />
<path d="M23270 22364
L23270 22561
" />
<circle cx="24254.6" cy="20789.4" r="787.402" /> 
<circle cx="22286.1" cy="20789.4" r="787.402" /> 
<path d="M21301 21773
L27207 21773
" />
<path d="M21301 19844
L27207 19844
" />
<path d="M21301 22364
L27207 22364
" />
<path d="M21301 22561
L27207 22561
" />
<path d="M27207 22561
L27207 18702
" />
<path d="M27207 18702
L21301 18702
" />
<path d="M21301 18702
L21301 22561
" />
<path d="M24270 1635
L24270 1438
" />
<circle cx="23286.1" cy="3210.63" r="787.402" /> 
<circle cx="25254.6" cy="3210.63" r="787.402" /> 
<path d="M26238 2226
L22301 2226
" />
<path d="M26238 4155
L22301 4155
" />
<path d="M26238 1635
L22301 1635
" />
<path d="M26238 1438
L22301 1438
" />
<path d="M22301 1438
L22301 5297
" />
<path d="M22301 5297
L26238 5297
" />
<path d="M26238 5297
L26238 1438
" />
<path d="M16270 1635
L16270 1438
" />
<circle cx="15286.1" cy="3210.63" r="787.402" /> 
<circle cx="17254.6" cy="3210.63" r="787.402" /> 
<path d="M18238 2226
L14301 2226
" />
<path d="M18238 4155
L14301 4155
" />
<path d="M18238 1635
L14301 1635
" />
<path d="M18238 1438
L14301 1438
" />
<path d="M14301 1438
L14301 5297
" />
<path d="M14301 5297
L18238 5297
" />
<path d="M18238 5297
L18238 1438
" />
<path d="M12488 22364
L12488 22561
" />
<circle cx="13473.1" cy="20789.4" r="787.402" /> 
<circle cx="11504.6" cy="20789.4" r="787.402" /> 
<path d="M10520 21773
L14457 21773
" />
<path d="M10520 19844
L14457 19844
" />
<path d="M10520 22364
L14457 22364
" />
<path d="M10520 22561
L14457 22561
" />
<path d="M14457 22561
L14457 18702
" />
<path d="M14457 18702
L10520 18702
" />
<path d="M10520 18702
L10520 22561
" />
<path d="M8238 1635
L8238 1438
" />
<circle cx="7254.61" cy="3210.63" r="787.402" /> 
<circle cx="9223.12" cy="3210.63" r="787.402" /> 
<path d="M10207 2226
L6270 2226
" />
<path d="M10207 4155
L6270 4155
" />
<path d="M10207 1635
L6270 1635
" />
<path d="M10207 1438
L6270 1438
" />
<path d="M6270 1438
L6270 5297
" />
<path d="M6270 5297
L10207 5297
" />
<path d="M10207 5297
L10207 1438
" />
<path d="M27754 13000
L27754 11000
" />
<path d="M27754 11000
L28754 11000
" />
<path d="M28754 11000
L28754 13000
" />
<path d="M28754 13000
L27754 13000
" />
<path d="M28254 13000
L28254 13500
" />
<path d="M28254 11000
L28254 10500
" />
<path d="M29254 13000
L29254 11000
" />
<path d="M29254 11000
L30254 11000
" />
<path d="M30254 11000
L30254 13000
" />
<path d="M30254 13000
L29254 13000
" />
<path d="M29754 13000
L29754 13500
" />
<path d="M29754 11000
L29754 10500
" />
<path d="M21504 17500
L19504 17500
" />
<path d="M19504 17500
L19504 16500
" />
<path d="M19504 16500
L21504 16500
" />
<path d="M21504 16500
L21504 17500
" />
<path d="M21504 17000
L22004 17000
" />
<path d="M19504 17000
L19004 17000
" />
<path d="M21504 16000
L19504 16000
" />
<path d="M19504 16000
L19504 15000
" />
<path d="M19504 15000
L21504 15000
" />
<path d="M21504 15000
L21504 16000
" />
<path d="M21504 15500
L22004 15500
" />
<path d="M19504 15500
L19004 15500
" />
<path d="M19004 11000
L19004 13000
" />
<path d="M19004 13000
L18004 13000
" />
<path d="M18004 13000
L18004 11000
" />
<path d="M18004 11000
L19004 11000
" />
<path d="M18504 11000
L18504 10500
" />
<path d="M18504 13000
L18504 13500
" />
<path d="M13004 13000
L13004 11000
" />
<path d="M13004 11000
L14004 11000
" />
<path d="M14004 11000
L14004 13000
" />
<path d="M14004 13000
L13004 13000
" />
<path d="M13504 13000
L13504 13500
" />
<path d="M13504 11000
L13504 10500
" />
<path d="M14504 13000
L14504 11000
" />
<path d="M14504 11000
L15504 11000
" />
<path d="M15504 11000
L15504 13000
" />
<path d="M15504 13000
L14504 13000
" />
<path d="M15004 13000
L15004 13500
" />
<path d="M15004 11000
L15004 10500
" />
<path d="M13754 15000
L15754 15000
" />
<path d="M15754 15000
L15754 16000
" />
<path d="M15754 16000
L13754 16000
" />
<path d="M13754 16000
L13754 15000
" />
<path d="M13754 15500
L13254 15500
" />
<path d="M15754 15500
L16254 15500
" />
<path d="M5504 11000
L5504 13000
" />
<path d="M5504 13000
L4504 13000
" />
<path d="M4504 13000
L4504 11000
" />
<path d="M4504 11000
L5504 11000
" />
<path d="M5004 11000
L5004 10500
" />
<path d="M5004 13000
L5004 13500
" />
<path d="M6004 7500
L4004 7500
" />
<path d="M4004 7500
L4004 6500
" />
<path d="M4004 6500
L6004 6500
" />
<path d="M6004 6500
L6004 7500
" />
<path d="M6004 7000
L6504 7000
" />
<path d="M4004 7000
L3504 7000
" />
<path d="M17554 19100
L17054 19100
" />
<path d="M17259 19410
L17359 19395
" />
<path d="M17359 19395
L17469 19325
" />
<path d="M17469 19325
L17554 19200
" />
<path d="M17554 19200
L17559 19025
" />
<path d="M17559 19025
L17479 18885
" />
<path d="M17479 18885
L17364 18815
" />
<path d="M17364 18815
L17239 18795
" />
<path d="M17239 18795
L17079 18835
" />
<path d="M17079 18835
L16979 18970
" />
<path d="M16979 18970
L16944 19040
" />
<path d="M16054 22400
L16054 18600
" />
<path d="M17254 18600
L17754 18600
" />
<path d="M17754 18600
L17754 22400
" />
<path d="M17754 22400
L15754 22400
" />
<path d="M15754 18600
L16754 18600
" />
<path d="M16754 18600
L17254 18600
" />
<path d="M20601 13446
L21101 13446
" />
<path d="M20601 10553
L21101 10553
" />
<path d="M25408 10553
L24908 10553
" />
<path d="M25408 13446
L24908 13446
" />
<path d="M20601 13446
L20601 10553
" />
<path d="M25408 13446
L25408 10553
" />
<path d="M21101 13446
L21101 13814
" />
<path d="M7101 13446
L7601 13446
" />
<path d="M7101 10553
L7601 10553
" />
<path d="M11908 10553
L11408 10553
" />
<path d="M11908 13446
L11408 13446
" />
<path d="M7101 13446
L7101 10553
" />
<path d="M11908 13446
L11908 10553
" />
<path d="M7601 13446
L7601 13814
" />
</g>
<g style="fill:#008484; fill-opacity:1.0; 
stroke:#008484; stroke-width:3.93701; stroke-opacity:1; 
stroke-linecap:round; stroke-linejoin:round;">
<polyline style="fill-rule:evenodd;"
points="27516,7645
27537,7655
27562,7673
27581,7692
27593,7717
27601,7749
27605,7794
27607,7853
27607,7879
27607,7935
27606,7975
27603,8002
27599,8021
27593,8035
27587,8045
27546,8085
27498,8110
27446,8117
27394,8106
27377,8099
27337,8078
27337,8402
27366,8387
27404,8375
27451,8372
27498,8378
27533,8390
27563,8414
27588,8447
27590,8451
27598,8467
27603,8483
27607,8503
27610,8529
27611,8566
27612,8616
27612,8673
27612,8852
27504,8852
27504,8521
27474,8495
27443,8475
27413,8471
27383,8481
27367,8490
27355,8504
27347,8524
27341,8553
27338,8595
27336,8653
27335,8691
27333,8848
27281,8851
27230,8853
27230,7880
27337,7880
27340,7934
27349,7972
27367,7995
27394,8007
27421,8009
27452,8007
27472,7996
27485,7982
27495,7968
27501,7951
27503,7928
27503,7893
27503,7864
27500,7820
27497,7791
27492,7773
27484,7761
27476,7754
27443,7738
27404,7736
27382,7741
27360,7760
27345,7797
27338,7851
27337,7880
27230,7880
27230,7637
27284,7637
27316,7638
27333,7643
27337,7651
27337,7652
27340,7660
27350,7659
27369,7650
27415,7635
27467,7634
27516,7645
" /> 
<polyline style="fill-rule:evenodd;"
points="27925,8376
27971,8388
28006,8410
28031,8440
28039,8452
28044,8465
28048,8482
28051,8505
28052,8538
28053,8584
28053,8646
28053,8663
28053,8852
28006,8852
27976,8850
27954,8845
27948,8842
27933,8836
27918,8842
27892,8849
27855,8852
27814,8850
27776,8845
27754,8839
27712,8811
27685,8773
27673,8723
27673,8722
27674,8699
27769,8699
27777,8725
27791,8739
27818,8750
27853,8754
27890,8752
27919,8744
27927,8738
27942,8713
27945,8684
27945,8647
27891,8647
27840,8651
27800,8662
27776,8679
27769,8699
27674,8699
27676,8667
27694,8623
27728,8590
27733,8587
27753,8578
27778,8572
27813,8569
27855,8568
27945,8568
27945,8530
27941,8501
27932,8481
27930,8480
27909,8471
27876,8468
27839,8469
27807,8476
27788,8485
27777,8493
27767,8494
27751,8488
27729,8473
27694,8446
27691,8444
27693,8435
27706,8420
27727,8403
27749,8389
27756,8385
27782,8379
27820,8374
27862,8372
27864,8372
27925,8376
" /> 
<polyline style="fill-rule:evenodd;"
points="28230,8373
28244,8377
28249,8387
28249,8392
28250,8404
28256,8406
28272,8397
28281,8392
28311,8379
28346,8373
28383,8373
28418,8377
28446,8386
28464,8399
28468,8415
28466,8419
28453,8437
28433,8459
28429,8462
28410,8478
28393,8484
28370,8480
28360,8477
28331,8472
28311,8474
28294,8484
28278,8496
28266,8512
28258,8533
28253,8564
28250,8608
28249,8666
28249,8701
28249,8852
28151,8852
28151,8372
28200,8372
28230,8373
" /> 
<polyline style="fill-rule:evenodd;"
points="28847,8852
28793,8852
28762,8852
28746,8848
28740,8839
28739,8834
28738,8823
28732,8821
28716,8827
28703,8834
28654,8849
28601,8850
28558,8839
28517,8811
28487,8771
28470,8723
28469,8720
28467,8691
28466,8649
28466,8617
28573,8617
28575,8659
28581,8694
28588,8714
28617,8741
28652,8750
28687,8742
28717,8719
28729,8704
28735,8685
28739,8658
28739,8617
28738,8577
28734,8541
28729,8517
28728,8515
28707,8490
28677,8476
28643,8474
28611,8484
28588,8505
28585,8510
28578,8536
28574,8574
28573,8617
28466,8617
28466,8601
28466,8575
28471,8512
28481,8464
28498,8429
28522,8403
28546,8387
28580,8376
28621,8373
28664,8376
28700,8385
28719,8396
28739,8414
28739,8186
28847,8186
28847,8852
" /> 
<polyline style="fill-rule:evenodd;"
points="29224,8374
29262,8377
29313,8529
29364,8681
29380,8627
29389,8594
29402,8549
29415,8499
29423,8473
29450,8372
29561,8372
29528,8477
29511,8529
29492,8592
29471,8657
29452,8715
29410,8848
29319,8853
29295,8772
29279,8722
29263,8666
29248,8617
29248,8615
29237,8581
29227,8558
29221,8550
29219,8551
29215,8564
29205,8593
29193,8633
29178,8681
29171,8708
29128,8852
29038,8852
28966,8625
28945,8561
28927,8502
28911,8453
28899,8415
28891,8391
28889,8384
28891,8377
28905,8373
28936,8374
28941,8374
28998,8377
29035,8514
29049,8564
29061,8608
29071,8642
29077,8663
29078,8666
29083,8662
29092,8642
29105,8609
29121,8566
29134,8526
29185,8371
29224,8374
" /> 
<polyline style="fill-rule:evenodd;"
points="29814,8375
29855,8385
29867,8390
29890,8404
29908,8420
29921,8440
29930,8467
29937,8505
29940,8555
29943,8620
29944,8664
29947,8852
29892,8852
29859,8851
29842,8846
29837,8838
29835,8830
29825,8831
29810,8838
29775,8849
29729,8852
29681,8847
29638,8835
29635,8833
29596,8806
29570,8768
29558,8723
29559,8707
29656,8707
29664,8729
29689,8744
29730,8753
29752,8754
29788,8751
29812,8740
29818,8735
29834,8707
29837,8681
29837,8647
29790,8647
29734,8649
29695,8658
29671,8674
29665,8681
29656,8707
29559,8707
29561,8677
29578,8632
29603,8602
29617,8589
29632,8580
29650,8575
29678,8572
29719,8570
29735,8570
29837,8566
29837,8535
29833,8503
29819,8483
29790,8471
29789,8470
29748,8465
29708,8472
29678,8488
29666,8495
29653,8494
29634,8483
29622,8475
29599,8458
29585,8445
29583,8442
29592,8423
29620,8401
29632,8393
29666,8380
29712,8372
29764,8371
29814,8375
" /> 
<polyline style="fill-rule:evenodd;"
points="30279,8372
30317,8379
30338,8390
30361,8409
30329,8449
30309,8474
30295,8486
30282,8488
30263,8482
30253,8478
30216,8473
30182,8484
30157,8508
30152,8515
30148,8535
30145,8573
30142,8624
30141,8687
30141,8696
30141,8852
30034,8852
30034,8372
30087,8372
30119,8373
30135,8376
30141,8385
30141,8392
30141,8413
30167,8392
30197,8379
30237,8372
30279,8372
" /> 
<polyline style="fill-rule:evenodd;"
points="30589,8375
30636,8387
30675,8412
30694,8431
30725,8475
30743,8527
30749,8590
30749,8595
30749,8647
30453,8647
30459,8674
30471,8698
30491,8723
30495,8727
30531,8749
30572,8753
30619,8739
30627,8735
30651,8723
30668,8716
30670,8716
30680,8722
30699,8736
30709,8745
30729,8763
30736,8775
30731,8787
30729,8790
30712,8803
30685,8820
30666,8829
30612,8846
30552,8852
30495,8845
30480,8841
30431,8814
30394,8774
30370,8719
30359,8649
30357,8612
30361,8559
30455,8559
30464,8563
30489,8566
30524,8568
30548,8568
30592,8568
30619,8566
30634,8563
30640,8557
30641,8549
30633,8522
30612,8496
30584,8476
30556,8468
30518,8475
30486,8496
30463,8527
30455,8559
30361,8559
30363,8535
30380,8473
30408,8426
30448,8395
30501,8377
30530,8374
30589,8375
" /> 
<polyline style="fill-rule:evenodd;"
points="27025,7642
27076,7665
27115,7702
27142,7755
27156,7824
27157,7835
27158,7910
27148,7976
27127,8029
27115,8047
27076,8083
27026,8107
26969,8116
26912,8111
26869,8096
26831,8070
26800,8036
26800,8036
26787,8015
26779,7994
26774,7967
26772,7930
26770,7899
26770,7871
26868,7871
26869,7899
26872,7936
26878,7959
26889,7976
26900,7986
26937,8007
26975,8009
27011,7995
27029,7978
27042,7961
27049,7945
27052,7924
27053,7893
27052,7864
27049,7823
27046,7797
27040,7779
27029,7766
27021,7758
26986,7739
26948,7738
26916,7749
26889,7774
26873,7815
26868,7871
26770,7871
26769,7838
26771,7792
26777,7758
26788,7731
26804,7707
26810,7700
26848,7664
26888,7644
26937,7635
26961,7634
27025,7642
" /> 
<polyline style="fill-rule:evenodd;"
points="27946,7648
27956,7652
27990,7677
28022,7713
28046,7753
28053,7771
28059,7804
28062,7843
28063,7860
28063,7911
27767,7911
27773,7938
27789,7970
27816,7998
27848,8015
27868,8019
27896,8015
27929,8003
27941,7998
27983,7977
28018,8005
28039,8023
28050,8038
28050,8043
28040,8053
28019,8070
28000,8083
27947,8106
27888,8116
27830,8113
27784,8099
27736,8069
27702,8029
27680,7977
27671,7912
27670,7882
27673,7813
27674,7811
27772,7811
27774,7818
27786,7821
27808,7823
27847,7823
27861,7823
27906,7822
27934,7821
27950,7817
27955,7810
27955,7808
27949,7793
27934,7770
27927,7762
27902,7740
27877,7732
27863,7731
27826,7740
27794,7764
27774,7800
27774,7801
27772,7811
27674,7811
27685,7759
27705,7716
27730,7685
27777,7652
27831,7634
27889,7632
27946,7648
" /> 
<polyline style="fill-rule:evenodd;"
points="29015,7635
29052,7642
29091,7657
29095,7659
29124,7674
29144,7688
29151,7697
29145,7712
29129,7734
29123,7743
29095,7775
29059,7754
29025,7740
28986,7732
28949,7732
28919,7739
28913,7743
28899,7763
28898,7787
28908,7805
28913,7808
28931,7813
28962,7818
29000,7823
29007,7824
29069,7834
29113,7852
29143,7879
29159,7917
29164,7964
29157,8016
29134,8057
29096,8088
29041,8106
28980,8114
28930,8114
28890,8107
28862,8098
28827,8081
28795,8062
28784,8054
28754,8030
28790,7994
28825,7958
28865,7985
28906,8005
28949,8016
28991,8017
29026,8009
29051,7991
29059,7977
29058,7954
29038,7936
28999,7924
28957,7918
28891,7908
28843,7887
28810,7857
28793,7815
28791,7767
28803,7716
28829,7677
28870,7651
28927,7636
28969,7634
29015,7635
" /> 
<polyline style="fill-rule:evenodd;"
points="29480,7643
29530,7670
29569,7712
29587,7747
29595,7777
29600,7821
29602,7871
29601,7922
29597,7966
29592,7990
29576,8022
29549,8057
29515,8087
29482,8106
29481,8107
29440,8115
29392,8115
29346,8108
29328,8102
29282,8075
29249,8041
29227,7996
29215,7937
29212,7906
29213,7867
29318,7867
29321,7924
29332,7967
29348,7995
29359,8003
29389,8008
29424,8007
29454,7999
29462,7994
29483,7969
29497,7930
29503,7882
29500,7832
29494,7801
29475,7766
29446,7743
29411,7736
29374,7744
29346,7763
29332,7780
29323,7796
29319,7817
29318,7851
29318,7867
29213,7867
29213,7823
29227,7755
29253,7702
29292,7664
29344,7641
29355,7638
29421,7632
29480,7643
" /> 
<polyline style="fill-rule:evenodd;"
points="29779,7789
29780,7861
29783,7916
29790,7955
29801,7982
29817,7999
29839,8007
29867,8009
29896,8006
29918,7998
29934,7981
29944,7954
29951,7913
29954,7858
29955,7789
29955,7637
30063,7637
30063,8107
30009,8107
29977,8106
29960,8101
29955,8093
29952,8085
29941,8086
29918,8098
29867,8115
29812,8113
29759,8095
29734,8080
29715,8064
29701,8044
29691,8018
29685,7982
29682,7933
29681,7870
29681,7821
29681,7637
29779,7637
29779,7789
" /> 
<polyline style="fill-rule:evenodd;"
points="30733,7641
30790,7665
30808,7677
30830,7695
30845,7709
30847,7714
30840,7724
30822,7741
30808,7753
30768,7785
30737,7759
30713,7742
30690,7736
30663,7738
30620,7748
30591,7770
30573,7806
30565,7857
30565,7857
30565,7915
30576,7957
30598,7985
30613,7995
30652,8007
30694,8007
30731,7995
30739,7990
30761,7975
30778,7973
30796,7984
30817,8003
30849,8036
30813,8065
30758,8099
30696,8115
30631,8114
30589,8103
30539,8076
30500,8034
30481,8004
30467,7962
30460,7908
30459,7849
30467,7793
30481,7746
30483,7742
30517,7694
30562,7660
30615,7639
30674,7632
30733,7641
" /> 
<polyline style="fill-rule:evenodd;"
points="31092,7635
31117,7641
31165,7664
31206,7698
31235,7739
31239,7748
31244,7772
31248,7807
31249,7843
31249,7911
31107,7911
31048,7911
31007,7913
30981,7916
30967,7923
30964,7934
30970,7950
30979,7969
31005,8000
31041,8016
31085,8015
31135,7998
31178,7977
31214,8005
31250,8034
31216,8065
31171,8094
31116,8112
31056,8117
30999,8108
30989,8105
30939,8079
30901,8039
30876,7986
30862,7917
30861,7915
30860,7840
30865,7814
30965,7814
30974,7818
30999,7821
31035,7823
31059,7823
31102,7823
31129,7822
31143,7819
31148,7813
31147,7804
31146,7801
31128,7768
31101,7742
31076,7730
31044,7731
31011,7746
30984,7769
30967,7798
30965,7814
30865,7814
30873,7774
30898,7719
30934,7676
30979,7646
31032,7632
31092,7635
" /> 
<polyline style="fill-rule:evenodd;"
points="28416,7645
28441,7657
28464,7673
28482,7693
28495,7717
28504,7750
28510,7794
28513,7852
28514,7926
28514,7933
28514,8107
28406,8107
28406,7947
28406,7887
28405,7844
28404,7814
28401,7794
28397,7781
28390,7771
28380,7761
28347,7739
28310,7735
28276,7749
28263,7759
28255,7768
28248,7779
28244,7793
28241,7814
28240,7845
28239,7890
28239,7945
28239,8107
28132,8107
28132,7637
28185,7637
28218,7638
28235,7643
28239,7651
28239,7652
28242,7660
28252,7659
28271,7650
28316,7636
28367,7634
28416,7645
" /> 
<polyline style="fill-rule:evenodd;"
points="30407,7636
30441,7647
30463,7660
30470,7670
30468,7682
30455,7701
30444,7715
30422,7739
30406,7750
30392,7749
30350,7738
30319,7739
30294,7751
30286,7758
30259,7783
30259,8107
30151,8107
30151,7637
30205,7637
30237,7638
30254,7643
30259,7651
30259,7652
30261,7661
30272,7660
30286,7653
30316,7641
30340,7633
30371,7631
30407,7636
" /> 
<polyline style="fill-rule:evenodd;"
points="29298,4387
29342,4622
29506,4689
29669,4757
29866,4623
29921,4586
29970,4553
30012,4525
30044,4504
30064,4492
30070,4490
30080,4496
30101,4515
30130,4543
30166,4578
30206,4618
30248,4661
30290,4703
30328,4743
30361,4778
30387,4806
30402,4825
30406,4831
30401,4843
30386,4868
30363,4904
30333,4949
30299,5000
30279,5029
30242,5083
30210,5131
30183,5171
30164,5202
30153,5220
30151,5224
30155,5235
30165,5260
30180,5296
30198,5339
30218,5387
30238,5434
30257,5478
30273,5515
30285,5542
30292,5555
30292,5555
30302,5558
30329,5563
30369,5571
30420,5581
30480,5592
30515,5599
30578,5611
30636,5623
30684,5633
30721,5641
30742,5647
30747,5649
30751,5662
30754,5691
30757,5733
30759,5784
30760,5841
30760,5901
30759,5960
30758,6015
30756,6062
30753,6099
30749,6121
30746,6125
30733,6131
30703,6138
30662,6148
30614,6157
30597,6161
30515,6176
30451,6188
30401,6197
30364,6205
30339,6211
30321,6216
30311,6221
30304,6226
30303,6227
30294,6241
30281,6270
30264,6309
30245,6355
30226,6405
30207,6454
30191,6500
30178,6539
30169,6567
30167,6580
30167,6581
30175,6592
30191,6617
30216,6653
30246,6697
30280,6747
30290,6761
30325,6813
30356,6860
30380,6900
30398,6930
30406,6947
30406,6949
30399,6960
30381,6982
30352,7013
30317,7050
30276,7090
30234,7132
30191,7174
30151,7212
30116,7244
30089,7268
30071,7282
30066,7284
30054,7279
30030,7264
29998,7244
29974,7227
29929,7196
29876,7160
29823,7124
29795,7105
29699,7039
29618,7083
29581,7102
29550,7117
29528,7126
29523,7127
29516,7118
29504,7094
29485,7055
29463,7006
29437,6947
29408,6881
29378,6811
29348,6738
29317,6666
29289,6596
29262,6530
29239,6471
29219,6421
29205,6383
29197,6358
29196,6349
29206,6339
29228,6321
29258,6300
29260,6299
29336,6238
29398,6167
29444,6088
29474,6003
29488,5915
29485,5826
29465,5739
29427,5654
29415,5636
29357,5561
29288,5502
29210,5457
29127,5427
29041,5413
28953,5415
28867,5434
28784,5468
28708,5520
28684,5541
28624,5606
28580,5675
28550,5753
28533,5829
28529,5915
28543,6002
28573,6086
28619,6164
28678,6235
28749,6294
28759,6300
28788,6320
28811,6338
28822,6349
28822,6349
28820,6362
28811,6389
28795,6430
28775,6482
28751,6542
28724,6609
28695,6680
28664,6753
28634,6825
28604,6894
28576,6959
28550,7016
28529,7064
28511,7099
28500,7121
28495,7127
28481,7122
28454,7111
28419,7093
28400,7083
28319,7039
28223,7105
28174,7138
28120,7175
28070,7209
28044,7227
28009,7251
27979,7270
27958,7281
27951,7284
27941,7277
27920,7259
27888,7230
27849,7194
27804,7152
27776,7124
27726,7076
27684,7032
27649,6996
27625,6968
27613,6951
27612,6948
27617,6935
27632,6908
27655,6871
27684,6826
27718,6775
27728,6761
27763,6710
27795,6664
27821,6626
27840,6598
27850,6583
27851,6581
27849,6569
27842,6542
27829,6504
27813,6459
27794,6410
27775,6360
27756,6314
27739,6274
27725,6244
27715,6227
27715,6227
27709,6222
27699,6217
27683,6212
27659,6206
27625,6199
27578,6190
27516,6178
27438,6164
27421,6161
27371,6151
27327,6141
27293,6133
27274,6127
27272,6125
27267,6112
27264,6083
27261,6041
27259,5990
27258,5932
27258,5872
27259,5813
27260,5759
27262,5711
27265,5675
27269,5654
27271,5649
27284,5645
27313,5637
27356,5628
27409,5617
27470,5605
27503,5599
27566,5587
27623,5576
27669,5567
27704,5561
27723,5556
27726,5555
27731,5545
27743,5520
27758,5484
27777,5441
27797,5394
27817,5346
27836,5302
27851,5264
27862,5237
27867,5224
27867,5223
27862,5213
27847,5189
27823,5153
27794,5109
27759,5058
27739,5029
27703,4975
27670,4927
27644,4886
27624,4854
27613,4835
27612,4831
27619,4821
27637,4800
27665,4770
27699,4733
27739,4692
27781,4650
27822,4608
27862,4569
27896,4535
27924,4509
27942,4493
27948,4490
27958,4495
27982,4510
28017,4533
28062,4562
28114,4597
28152,4623
28349,4757
28512,4689
28676,4622
28720,4387
28764,4151
29254,4151
29298,4387
" /> 
</g>
<g style="fill:#C2C200; fill-opacity:1.0; 
stroke:#C2C200; stroke-width:3.93701; stroke-opacity:1; 
stroke-linecap:round; stroke-linejoin:round;">
</g>
<g style="fill:#C2C200; fill-opacity:0.0; 
stroke:#C2C200; stroke-width:3.93701; stroke-opacity:1; 
stroke-linecap:round; stroke-linejoin:round;">
</g>
<g style="fill:#C2C200; fill-opacity:0.0; 
stroke:#C2C200; stroke-width:59.0551; stroke-opacity:1; 
stroke-linecap:round; stroke-linejoin:round;">
<path d="M28438 16390
L28420 16409
L28364 16428
L28326 16428
L28270 16409
L28232 16371
L28214 16334
L28195 16259
L28195 16203
L28214 16128
L28232 16090
L28270 16053
L28326 16034
L28364 16034
L28420 16053
L28438 16071
" />
<path d="M28813 16428
L28588 16428
" />
<path d="M28701 16428
L28701 16034
L28663 16090
L28626 16128
L28588 16146
" />
<path d="M28401 18890
L28382 18909
L28326 18928
L28289 18928
L28232 18909
L28195 18871
L28176 18834
L28157 18759
L28157 18703
L28176 18628
L28195 18590
L28232 18553
L28289 18534
L28326 18534
L28382 18553
L28401 18571
" />
<path d="M28551 18571
L28570 18553
L28607 18534
L28701 18534
L28739 18553
L28757 18571
L28776 18609
L28776 18646
L28757 18703
L28532 18928
L28776 18928
" />
<path d="M21438 9390
L21420 9409
L21364 9428
L21326 9428
L21270 9409
L21232 9371
L21214 9334
L21195 9259
L21195 9203
L21214 9128
L21232 9090
L21270 9053
L21326 9034
L21364 9034
L21420 9053
L21438 9071
" />
<path d="M21570 9034
L21813 9034
L21682 9184
L21738 9184
L21776 9203
L21795 9221
L21813 9259
L21813 9353
L21795 9390
L21776 9409
L21738 9428
L21626 9428
L21588 9409
L21570 9390
" />
<path d="M23438 14898
L23420 14917
L23364 14935
L23326 14935
L23270 14917
L23232 14879
L23214 14842
L23195 14767
L23195 14711
L23214 14636
L23232 14598
L23270 14561
L23326 14542
L23364 14542
L23420 14561
L23438 14579
" />
<path d="M23776 14673
L23776 14935
" />
<path d="M23682 14523
L23588 14804
L23832 14804
" />
<path d="M7954 9398
L7935 9417
L7879 9435
L7842 9435
L7786 9417
L7748 9379
L7729 9342
L7711 9267
L7711 9211
L7729 9136
L7748 9098
L7786 9061
L7842 9042
L7879 9042
L7935 9061
L7954 9079
" />
<path d="M8310 9042
L8123 9042
L8104 9229
L8123 9211
L8160 9192
L8254 9192
L8292 9211
L8310 9229
L8329 9267
L8329 9360
L8310 9398
L8292 9417
L8254 9435
L8160 9435
L8123 9417
L8104 9398
" />
<path d="M9938 14882
L9920 14901
L9864 14920
L9826 14920
L9770 14901
L9732 14863
L9714 14826
L9695 14751
L9695 14695
L9714 14620
L9732 14582
L9770 14545
L9826 14526
L9864 14526
L9920 14545
L9938 14564
" />
<path d="M10276 14526
L10201 14526
L10163 14545
L10145 14564
L10107 14620
L10088 14695
L10088 14845
L10107 14882
L10126 14901
L10163 14920
L10238 14920
L10276 14901
L10295 14882
L10313 14845
L10313 14751
L10295 14714
L10276 14695
L10238 14676
L10163 14676
L10126 14695
L10107 14714
L10088 14751
" />
<path d="M19176 7534
L19176 7815
L19157 7871
L19120 7909
L19064 7928
L19026 7928
" />
<path d="M19364 7928
L19364 7534
L19513 7534
L19551 7553
L19570 7571
L19588 7609
L19588 7665
L19570 7703
L19551 7721
L19513 7740
L19364 7740
" />
<path d="M19963 7928
L19738 7928
" />
<path d="M19851 7928
L19851 7534
L19813 7590
L19776 7628
L19738 7646
" />
<path d="M12176 7534
L12176 7815
L12157 7871
L12120 7909
L12064 7928
L12026 7928
" />
<path d="M12364 7928
L12364 7534
L12513 7534
L12551 7553
L12570 7571
L12588 7609
L12588 7665
L12570 7703
L12551 7721
L12513 7740
L12364 7740
" />
<path d="M12738 7571
L12757 7553
L12795 7534
L12888 7534
L12926 7553
L12945 7571
L12963 7609
L12963 7646
L12945 7703
L12720 7928
L12963 7928
" />
<path d="M20432 20928
L20432 20534
L20582 20534
L20620 20553
L20638 20571
L20657 20609
L20657 20665
L20638 20703
L20620 20721
L20582 20740
L20432 20740
" />
<path d="M21032 20928
L20807 20928
" />
<path d="M20919 20928
L20919 20534
L20882 20590
L20844 20628
L20807 20646
" />
<path d="M21495 3428
L21495 3034
L21645 3034
L21682 3053
L21701 3071
L21720 3109
L21720 3165
L21701 3203
L21682 3221
L21645 3240
L21495 3240
" />
<path d="M21870 3071
L21889 3053
L21926 3034
L22020 3034
L22057 3053
L22076 3071
L22095 3109
L22095 3146
L22076 3203
L21851 3428
L22095 3428
" />
<path d="M13464 3428
L13464 3034
L13614 3034
L13651 3053
L13670 3071
L13688 3109
L13688 3165
L13670 3203
L13651 3221
L13614 3240
L13464 3240
" />
<path d="M13820 3034
L14063 3034
L13932 3184
L13988 3184
L14026 3203
L14045 3221
L14063 3259
L14063 3353
L14045 3390
L14026 3409
L13988 3428
L13876 3428
L13838 3409
L13820 3390
" />
<path d="M9682 20928
L9682 20534
L9832 20534
L9870 20553
L9888 20571
L9907 20609
L9907 20665
L9888 20703
L9870 20721
L9832 20740
L9682 20740
" />
<path d="M10244 20665
L10244 20928
" />
<path d="M10151 20515
L10057 20796
L10301 20796
" />
<path d="M5432 3428
L5432 3034
L5582 3034
L5620 3053
L5638 3071
L5657 3109
L5657 3165
L5638 3203
L5620 3221
L5582 3240
L5432 3240
" />
<path d="M6013 3034
L5826 3034
L5807 3221
L5826 3203
L5863 3184
L5957 3184
L5994 3203
L6013 3221
L6032 3259
L6032 3353
L6013 3390
L5994 3409
L5957 3428
L5863 3428
L5826 3409
L5807 3390
" />
<path d="M27188 12178
L27057 11990
" />
<path d="M26964 12178
L26964 11784
L27114 11784
L27151 11803
L27170 11821
L27188 11859
L27188 11915
L27170 11953
L27151 11971
L27114 11990
L26964 11990
" />
<path d="M27563 12178
L27338 12178
" />
<path d="M27451 12178
L27451 11784
L27413 11840
L27376 11878
L27338 11896
" />
<path d="M30688 12178
L30557 11990
" />
<path d="M30464 12178
L30464 11784
L30614 11784
L30651 11803
L30670 11821
L30688 11859
L30688 11915
L30670 11953
L30651 11971
L30614 11990
L30464 11990
" />
<path d="M30838 11821
L30857 11803
L30895 11784
L30988 11784
L31026 11803
L31045 11821
L31063 11859
L31063 11896
L31045 11953
L30820 12178
L31063 12178
" />
<path d="M20438 18178
L20307 17990
" />
<path d="M20214 18178
L20214 17784
L20364 17784
L20401 17803
L20420 17821
L20438 17859
L20438 17915
L20420 17953
L20401 17971
L20364 17990
L20214 17990
" />
<path d="M20570 17784
L20813 17784
L20682 17934
L20738 17934
L20776 17953
L20795 17971
L20813 18009
L20813 18103
L20795 18140
L20776 18159
L20738 18178
L20626 18178
L20588 18159
L20570 18140
" />
<path d="M20438 14678
L20307 14490
" />
<path d="M20214 14678
L20214 14284
L20364 14284
L20401 14303
L20420 14321
L20438 14359
L20438 14415
L20420 14453
L20401 14471
L20364 14490
L20214 14490
" />
<path d="M20776 14415
L20776 14678
" />
<path d="M20682 14265
L20588 14546
L20832 14546
" />
<path d="M17438 12178
L17307 11990
" />
<path d="M17214 12178
L17214 11784
L17364 11784
L17401 11803
L17420 11821
L17438 11859
L17438 11915
L17420 11953
L17401 11971
L17364 11990
L17214 11990
" />
<path d="M17795 11784
L17607 11784
L17588 11971
L17607 11953
L17645 11934
L17738 11934
L17776 11953
L17795 11971
L17813 12009
L17813 12103
L17795 12140
L17776 12159
L17738 12178
L17645 12178
L17607 12159
L17588 12140
" />
<path d="M12438 12178
L12307 11990
" />
<path d="M12214 12178
L12214 11784
L12364 11784
L12401 11803
L12420 11821
L12438 11859
L12438 11915
L12420 11953
L12401 11971
L12364 11990
L12214 11990
" />
<path d="M12776 11784
L12701 11784
L12663 11803
L12645 11821
L12607 11878
L12588 11953
L12588 12103
L12607 12140
L12626 12159
L12663 12178
L12738 12178
L12776 12159
L12795 12140
L12813 12103
L12813 12009
L12795 11971
L12776 11953
L12738 11934
L12663 11934
L12626 11953
L12607 11971
L12588 12009
" />
<path d="M15938 12178
L15807 11990
" />
<path d="M15714 12178
L15714 11784
L15864 11784
L15901 11803
L15920 11821
L15938 11859
L15938 11915
L15920 11953
L15901 11971
L15864 11990
L15714 11990
" />
<path d="M16070 11784
L16332 11784
L16163 12178
" />
<path d="M14786 14300
L14655 14112
" />
<path d="M14562 14300
L14562 13906
L14712 13906
L14749 13925
L14768 13943
L14786 13981
L14786 14037
L14768 14075
L14749 14093
L14712 14112
L14562 14112
" />
<path d="M15011 14075
L14974 14056
L14955 14037
L14936 14000
L14936 13981
L14955 13943
L14974 13925
L15011 13906
L15086 13906
L15124 13925
L15143 13943
L15161 13981
L15161 14000
L15143 14037
L15124 14056
L15086 14075
L15011 14075
L14974 14093
L14955 14112
L14936 14150
L14936 14225
L14955 14262
L14974 14281
L15011 14300
L15086 14300
L15124 14281
L15143 14262
L15161 14225
L15161 14150
L15143 14112
L15124 14093
L15086 14075
" />
<path d="M3938 12178
L3807 11990
" />
<path d="M3714 12178
L3714 11784
L3864 11784
L3901 11803
L3920 11821
L3938 11859
L3938 11915
L3920 11953
L3901 11971
L3864 11990
L3714 11990
" />
<path d="M4126 12178
L4201 12178
L4238 12159
L4257 12140
L4295 12084
L4313 12009
L4313 11859
L4295 11821
L4276 11803
L4238 11784
L4163 11784
L4126 11803
L4107 11821
L4088 11859
L4088 11953
L4107 11990
L4126 12009
L4163 12028
L4238 12028
L4276 12009
L4295 11990
L4313 11953
" />
<path d="M4751 8178
L4620 7990
" />
<path d="M4526 8178
L4526 7784
L4676 7784
L4714 7803
L4732 7821
L4751 7859
L4751 7915
L4732 7953
L4714 7971
L4676 7990
L4526 7990
" />
<path d="M5126 8178
L4901 8178
" />
<path d="M5013 8178
L5013 7784
L4976 7840
L4938 7878
L4901 7896
" />
<path d="M5370 7784
L5407 7784
L5445 7803
L5463 7821
L5482 7859
L5501 7934
L5501 8028
L5482 8103
L5463 8140
L5445 8159
L5407 8178
L5370 8178
L5332 8159
L5313 8140
L5295 8103
L5276 8028
L5276 7934
L5295 7859
L5313 7821
L5332 7803
L5370 7784
" />
<path d="M16520 23178
L16389 22990
" />
<path d="M16295 23178
L16295 22784
L16445 22784
L16482 22803
L16501 22821
L16520 22859
L16520 22915
L16501 22953
L16482 22971
L16445 22990
L16295 22990
" />
<path d="M16632 22784
L16763 23178
L16895 22784
" />
<path d="M17232 23178
L17007 23178
" />
<path d="M17120 23178
L17120 22784
L17082 22840
L17045 22878
L17007 22896
" />
<path d="M19704 11784
L19704 12103
L19723 12140
L19742 12159
L19779 12178
L19854 12178
L19892 12159
L19910 12140
L19929 12103
L19929 11784
" />
<path d="M20323 12178
L20098 12178
" />
<path d="M20210 12178
L20210 11784
L20173 11840
L20135 11878
L20098 11896
" />
<path d="M6204 11784
L6204 12103
L6223 12140
L6242 12159
L6279 12178
L6354 12178
L6392 12159
L6410 12140
L6429 12103
L6429 11784
" />
<path d="M6598 11821
L6617 11803
L6654 11784
L6748 11784
L6785 11803
L6804 11821
L6823 11859
L6823 11896
L6804 11953
L6579 12178
L6823 12178
" />
<path d="M19148 20284
L19242 20678
L19317 20396
L19392 20678
L19485 20284
" />
<path d="M19842 20678
L19617 20678
" />
<path d="M19729 20678
L19729 20284
L19692 20340
L19654 20378
L19617 20396
" />
<path d="M23148 8034
L23242 8428
L23317 8146
L23392 8428
L23485 8034
" />
<path d="M23617 8071
L23635 8053
L23673 8034
L23767 8034
L23804 8053
L23823 8071
L23842 8109
L23842 8146
L23823 8203
L23598 8428
L23842 8428
" />
<path d="M9648 8034
L9742 8428
L9817 8146
L9892 8428
L9985 8034
" />
<path d="M10098 8034
L10342 8034
L10210 8184
L10267 8184
L10304 8203
L10323 8221
L10342 8259
L10342 8353
L10323 8390
L10304 8409
L10267 8428
L10154 8428
L10117 8409
L10098 8390
" />
</g>
<g style="fill:#000000; fill-opacity:0.0; 
stroke:#000000; stroke-width:59.0551; stroke-opacity:1; 
stroke-linecap:round; stroke-linejoin:round;">
</g>
<g style="fill:#848484; fill-opacity:0.0; 
stroke:#848484; stroke-width:59.0551; stroke-opacity:1; 
stroke-linecap:round; stroke-linejoin:round;">
</g>
<g style="fill:#848484; fill-opacity:0.0; 
stroke:#848484; stroke-width:19.685; stroke-opacity:1; 
stroke-linecap:round; stroke-linejoin:round;">
<circle cx="30110.9" cy="16250" r="1102.36" /> 
<circle cx="30110.9" cy="18750" r="1102.36" /> 
<path d="M21914 10088
L21914 8395
" />
<path d="M21914 8395
L23095 8395
" />
<path d="M23095 8395
L23095 10088
" />
<path d="M23095 10088
L21914 10088
" />
<path d="M25095 13911
L25095 15604
" />
<path d="M25095 15604
L23914 15604
" />
<path d="M23914 15604
L23914 13911
" />
<path d="M23914 13911
L25095 13911
" />
<path d="M8414 10104
L8414 8411
" />
<path d="M8414 8411
L9595 8411
" />
<path d="M9595 8411
L9595 10104
" />
<path d="M9595 10104
L8414 10104
" />
<path d="M11595 13895
L11595 15588
" />
<path d="M11595 15588
L10414 15588
" />
<path d="M10414 15588
L10414 13895
" />
<path d="M10414 13895
L11595 13895
" />
<path d="M18943 7061
L16561 7061
" />
<path d="M18943 8438
L16561 8438
" />
<path d="M18943 7061
L18943 8438
" />
<path d="M16561 7061
L16561 8438
" />
<path d="M13065 8438
L15447 8438
" />
<path d="M13065 7061
L15447 7061
" />
<path d="M13065 8438
L13065 7061
" />
<path d="M15447 8438
L15447 7061
" />
<path d="M21223 22639
L21223 18624
" />
<path d="M27286 22639
L21223 22639
" />
<path d="M27286 18624
L27286 22639
" />
<path d="M21223 18624
L27286 18624
" />
<path d="M26317 5375
L22223 5375
" />
<path d="M26317 1360
L26317 5375
" />
<path d="M22223 1360
L26317 1360
" />
<path d="M22223 5375
L22223 1360
" />
<path d="M18317 5375
L14223 5375
" />
<path d="M18317 1360
L18317 5375
" />
<path d="M14223 1360
L18317 1360
" />
<path d="M14223 5375
L14223 1360
" />
<path d="M10441 18624
L14536 18624
" />
<path d="M10441 22639
L10441 18624
" />
<path d="M14536 22639
L10441 22639
" />
<path d="M14536 18624
L14536 22639
" />
<path d="M10286 5375
L6191 5375
" />
<path d="M10286 1360
L10286 5375
" />
<path d="M6191 1360
L10286 1360
" />
<path d="M6191 5375
L6191 1360
" />
<path d="M27664 14492
L27664 9511
" />
<path d="M28845 14492
L27664 14492
" />
<path d="M27664 9511
L28845 9511
" />
<path d="M28845 14492
L28845 9511
" />
<path d="M29164 14492
L29164 9511
" />
<path d="M30345 14492
L29164 14492
" />
<path d="M29164 9511
L30345 9511
" />
<path d="M30345 14492
L30345 9511
" />
<path d="M22996 17590
L18016 17590
" />
<path d="M22996 16409
L22996 17590
" />
<path d="M18016 17590
L18016 16409
" />
<path d="M22996 16409
L18016 16409
" />
<path d="M22996 16090
L18016 16090
" />
<path d="M22996 14909
L22996 16090
" />
<path d="M18016 16090
L18016 14909
" />
<path d="M22996 14909
L18016 14909
" />
<path d="M19095 9507
L19095 14488
" />
<path d="M17914 9507
L19095 9507
" />
<path d="M19095 14488
L17914 14488
" />
<path d="M17914 9507
L17914 14488
" />
<path d="M12914 14492
L12914 9511
" />
<path d="M14095 14492
L12914 14492
" />
<path d="M12914 9511
L14095 9511
" />
<path d="M14095 14492
L14095 9511
" />
<path d="M14414 14492
L14414 9511
" />
<path d="M15595 14492
L14414 14492
" />
<path d="M14414 9511
L15595 9511
" />
<path d="M15595 14492
L15595 9511
" />
<path d="M12262 14909
L17242 14909
" />
<path d="M12262 16090
L12262 14909
" />
<path d="M17242 14909
L17242 16090
" />
<path d="M12262 16090
L17242 16090
" />
<path d="M5595 9507
L5595 14488
" />
<path d="M4414 9507
L5595 9507
" />
<path d="M5595 14488
L4414 14488
" />
<path d="M4414 9507
L4414 14488
" />
<path d="M7496 7590
L2516 7590
" />
<path d="M7496 6409
L7496 7590
" />
<path d="M2516 7590
L2516 6409
" />
<path d="M7496 6409
L2516 6409
" />
<path d="M20540 13913
L25480 13913
" />
<path d="M20540 10094
L25480 10094
" />
<path d="M20540 13913
L20540 10094
" />
<path d="M25480 13913
L25480 10094
" />
<path d="M7040 13913
L11980 13913
" />
<path d="M7040 10094
L11980 10094
" />
<path d="M7040 13913
L7040 10094
" />
<path d="M11980 13913
L11980 10094
" />
</g>
<g style="fill:#000000; fill-opacity:0.0; 
stroke:#000000; stroke-width:19.685; stroke-opacity:1; 
stroke-linecap:round; stroke-linejoin:round;">
</g>
<g style="fill:#C2C200; fill-opacity:0.0; 
stroke:#C2C200; stroke-width:19.685; stroke-opacity:1; 
stroke-linecap:round; stroke-linejoin:round;">
</g>
<g style="fill:#C2C200; fill-opacity:0.0; 
stroke:#C2C200; stroke-width:59.0551; stroke-opacity:1; 
stroke-linecap:round; stroke-linejoin:round;">
<path d="M30045 16428
L29820 16428
" />
<path d="M29932 16428
L29932 16034
L29895 16090
L29857 16128
L29820 16146
" />
<path d="M30382 16165
L30382 16428
" />
<path d="M30214 16165
L30214 16371
L30232 16409
L30270 16428
L30326 16428
L30364 16409
L30382 16390
" />
<path d="M30045 18928
L29820 18928
" />
<path d="M29932 18928
L29932 18534
L29895 18590
L29857 18628
L29820 18646
" />
<path d="M30382 18665
L30382 18928
" />
<path d="M30214 18665
L30214 18871
L30232 18909
L30270 18928
L30326 18928
L30364 18909
L30382 18890
" />
<path d="M22682 9690
L22682 9915
" />
<path d="M22682 9803
L22289 9803
L22345 9840
L22382 9878
L22401 9915
" />
<path d="M22289 9446
L22289 9409
L22307 9371
L22326 9353
L22364 9334
L22438 9315
L22532 9315
L22607 9334
L22645 9353
L22663 9371
L22682 9409
L22682 9446
L22663 9484
L22645 9503
L22607 9521
L22532 9540
L22438 9540
L22364 9521
L22326 9503
L22307 9484
L22289 9446
" />
<path d="M22289 9071
L22289 9034
L22307 8996
L22326 8978
L22364 8959
L22438 8940
L22532 8940
L22607 8959
L22645 8978
L22663 8996
L22682 9034
L22682 9071
L22663 9109
L22645 9128
L22607 9146
L22532 9165
L22438 9165
L22364 9146
L22326 9128
L22307 9109
L22289 9071
" />
<path d="M22420 8771
L22682 8771
" />
<path d="M22457 8771
L22438 8753
L22420 8715
L22420 8659
L22438 8621
L22476 8603
L22682 8603
" />
<path d="M24682 15198
L24682 15423
" />
<path d="M24682 15310
L24289 15310
L24345 15348
L24382 15385
L24401 15423
" />
<path d="M24289 14954
L24289 14917
L24307 14879
L24326 14860
L24364 14842
L24438 14823
L24532 14823
L24607 14842
L24645 14860
L24663 14879
L24682 14917
L24682 14954
L24663 14992
L24645 15010
L24607 15029
L24532 15048
L24438 15048
L24364 15029
L24326 15010
L24307 14992
L24289 14954
" />
<path d="M24289 14579
L24289 14542
L24307 14504
L24326 14486
L24364 14467
L24438 14448
L24532 14448
L24607 14467
L24645 14486
L24663 14504
L24682 14542
L24682 14579
L24663 14617
L24645 14636
L24607 14654
L24532 14673
L24438 14673
L24364 14654
L24326 14636
L24307 14617
L24289 14579
" />
<path d="M24420 14279
L24682 14279
" />
<path d="M24457 14279
L24438 14261
L24420 14223
L24420 14167
L24438 14129
L24476 14111
L24682 14111
" />
<path d="M9182 9690
L9182 9915
" />
<path d="M9182 9803
L8789 9803
L8845 9840
L8882 9878
L8901 9915
" />
<path d="M8789 9446
L8789 9409
L8807 9371
L8826 9353
L8864 9334
L8938 9315
L9032 9315
L9107 9334
L9145 9353
L9163 9371
L9182 9409
L9182 9446
L9163 9484
L9145 9503
L9107 9521
L9032 9540
L8938 9540
L8864 9521
L8826 9503
L8807 9484
L8789 9446
" />
<path d="M8789 9071
L8789 9034
L8807 8996
L8826 8978
L8864 8959
L8938 8940
L9032 8940
L9107 8959
L9145 8978
L9163 8996
L9182 9034
L9182 9071
L9163 9109
L9145 9128
L9107 9146
L9032 9165
L8938 9165
L8864 9146
L8826 9128
L8807 9109
L8789 9071
" />
<path d="M8920 8771
L9182 8771
" />
<path d="M8957 8771
L8938 8753
L8920 8715
L8920 8659
L8938 8621
L8976 8603
L9182 8603
" />
<path d="M11182 15182
L11182 15407
" />
<path d="M11182 15295
L10789 15295
L10845 15332
L10882 15370
L10901 15407
" />
<path d="M10789 14938
L10789 14901
L10807 14863
L10826 14845
L10864 14826
L10938 14807
L11032 14807
L11107 14826
L11145 14845
L11163 14863
L11182 14901
L11182 14938
L11163 14976
L11145 14995
L11107 15013
L11032 15032
L10938 15032
L10864 15013
L10826 14995
L10807 14976
L10789 14938
" />
<path d="M10789 14564
L10789 14526
L10807 14489
L10826 14470
L10864 14451
L10938 14432
L11032 14432
L11107 14451
L11145 14470
L11163 14489
L11182 14526
L11182 14564
L11163 14601
L11145 14620
L11107 14639
L11032 14657
L10938 14657
L10864 14639
L10826 14620
L10807 14601
L10789 14564
" />
<path d="M10920 14264
L11182 14264
" />
<path d="M10957 14264
L10938 14245
L10920 14207
L10920 14151
L10938 14114
L10976 14095
L11182 14095
" />
<path d="M16611 6721
L16479 6721
" />
<path d="M16479 6928
L16479 6534
L16667 6534
" />
<path d="M16967 6909
L16929 6928
L16854 6928
L16817 6909
L16798 6871
L16798 6721
L16817 6684
L16854 6665
L16929 6665
L16967 6684
L16985 6721
L16985 6759
L16798 6796
" />
<path d="M17304 6909
L17267 6928
L17192 6928
L17154 6909
L17135 6871
L17135 6721
L17154 6684
L17192 6665
L17267 6665
L17304 6684
L17323 6721
L17323 6759
L17135 6796
" />
<path d="M17660 6928
L17660 6534
" />
<path d="M17660 6909
L17623 6928
L17548 6928
L17510 6909
L17492 6890
L17473 6853
L17473 6740
L17492 6703
L17510 6684
L17548 6665
L17623 6665
L17660 6684
" />
<path d="M17848 6928
L17848 6534
" />
<path d="M17848 6684
L17885 6665
L17960 6665
L17998 6684
L18017 6703
L18035 6740
L18035 6853
L18017 6890
L17998 6909
L17960 6928
L17885 6928
L17848 6909
" />
<path d="M18373 6928
L18373 6721
L18354 6684
L18317 6665
L18242 6665
L18204 6684
" />
<path d="M18373 6909
L18335 6928
L18242 6928
L18204 6909
L18185 6871
L18185 6834
L18204 6796
L18242 6778
L18335 6778
L18373 6759
" />
<path d="M18729 6909
L18691 6928
L18617 6928
L18579 6909
L18560 6890
L18542 6853
L18542 6740
L18560 6703
L18579 6684
L18617 6665
L18691 6665
L18729 6684
" />
<path d="M18898 6928
L18898 6534
" />
<path d="M18935 6778
L19048 6928
" />
<path d="M19048 6665
L18898 6815
" />
<path d="M13870 6928
L13682 6928
L13682 6534
" />
<path d="M14057 6928
L14020 6909
L14001 6890
L13982 6853
L13982 6740
L14001 6703
L14020 6684
L14057 6665
L14114 6665
L14151 6684
L14170 6703
L14188 6740
L14188 6853
L14170 6890
L14151 6909
L14114 6928
L14057 6928
" />
<path d="M14526 6909
L14488 6928
L14413 6928
L14376 6909
L14357 6890
L14338 6853
L14338 6740
L14357 6703
L14376 6684
L14413 6665
L14488 6665
L14526 6684
" />
<path d="M14695 6928
L14695 6534
" />
<path d="M14732 6778
L14845 6928
" />
<path d="M14845 6665
L14695 6815
" />
<path d="M23445 19428
L23445 19034
L23595 19034
L23632 19053
L23651 19071
L23670 19109
L23670 19165
L23651 19203
L23632 19221
L23595 19240
L23445 19240
" />
<path d="M23895 19428
L23857 19409
L23838 19390
L23820 19353
L23820 19240
L23838 19203
L23857 19184
L23895 19165
L23951 19165
L23988 19184
L24007 19203
L24026 19240
L24026 19353
L24007 19390
L23988 19409
L23951 19428
L23895 19428
" />
<path d="M24157 19165
L24232 19428
L24307 19240
L24382 19428
L24457 19165
" />
<path d="M24757 19409
L24719 19428
L24644 19428
L24607 19409
L24588 19371
L24588 19221
L24607 19184
L24644 19165
L24719 19165
L24757 19184
L24776 19221
L24776 19259
L24588 19296
" />
<path d="M24944 19428
L24944 19165
" />
<path d="M24944 19240
L24963 19203
L24982 19184
L25019 19165
L25057 19165
" />
<path d="M24017 4928
L23829 4928
L23829 4534
" />
<path d="M24148 4721
L24279 4721
" />
<path d="M24335 4928
L24148 4928
L24148 4534
L24335 4534
" />
<path d="M24504 4928
L24504 4534
L24598 4534
L24654 4553
L24692 4590
L24710 4628
L24729 4703
L24729 4759
L24710 4834
L24692 4871
L24654 4909
L24598 4928
L24504 4928
" />
<path d="M14723 4928
L14723 4534
L14873 4534
L14911 4553
L14929 4571
L14948 4609
L14948 4665
L14929 4703
L14911 4721
L14873 4740
L14723 4740
" />
<path d="M15117 4928
L15117 4534
" />
<path d="M15286 4928
L15286 4721
L15267 4684
L15229 4665
L15173 4665
L15136 4684
L15117 4703
" />
<path d="M15529 4928
L15492 4909
L15473 4890
L15454 4853
L15454 4740
L15473 4703
L15492 4684
L15529 4665
L15586 4665
L15623 4684
L15642 4703
L15661 4740
L15661 4853
L15642 4890
L15623 4909
L15586 4928
L15529 4928
" />
<path d="M15773 4665
L15923 4665
" />
<path d="M15829 4534
L15829 4871
L15848 4909
L15886 4928
L15923 4928
" />
<path d="M16111 4928
L16073 4909
L16054 4890
L16036 4853
L16036 4740
L16054 4703
L16073 4684
L16111 4665
L16167 4665
L16204 4684
L16223 4703
L16242 4740
L16242 4853
L16223 4890
L16204 4909
L16167 4928
L16111 4928
" />
<path d="M16579 4928
L16579 4534
" />
<path d="M16579 4909
L16542 4928
L16467 4928
L16429 4909
L16410 4890
L16392 4853
L16392 4740
L16410 4703
L16429 4684
L16467 4665
L16542 4665
L16579 4684
" />
<path d="M16767 4928
L16767 4665
" />
<path d="M16767 4534
L16748 4553
L16767 4571
L16785 4553
L16767 4534
L16767 4571
" />
<path d="M17010 4928
L16973 4909
L16954 4890
L16935 4853
L16935 4740
L16954 4703
L16973 4684
L17010 4665
L17067 4665
L17104 4684
L17123 4703
L17142 4740
L17142 4853
L17123 4890
L17104 4909
L17067 4928
L17010 4928
" />
<path d="M17479 4928
L17479 4534
" />
<path d="M17479 4909
L17442 4928
L17367 4928
L17329 4909
L17310 4890
L17292 4853
L17292 4740
L17310 4703
L17329 4684
L17367 4665
L17442 4665
L17479 4684
" />
<path d="M17817 4909
L17779 4928
L17704 4928
L17667 4909
L17648 4871
L17648 4721
L17667 4684
L17704 4665
L17779 4665
L17817 4684
L17835 4721
L17835 4759
L17648 4796
" />
<path d="M11479 19428
L11479 19034
L11610 19315
L11741 19034
L11741 19428
" />
<path d="M11985 19428
L11948 19409
L11929 19390
L11910 19353
L11910 19240
L11929 19203
L11948 19184
L11985 19165
L12041 19165
L12079 19184
L12098 19203
L12116 19240
L12116 19353
L12098 19390
L12079 19409
L12041 19428
L11985 19428
" />
<path d="M12285 19165
L12285 19428
" />
<path d="M12285 19203
L12304 19184
L12341 19165
L12398 19165
L12435 19184
L12454 19221
L12454 19428
" />
<path d="M12641 19428
L12641 19165
" />
<path d="M12641 19034
L12623 19053
L12641 19071
L12660 19053
L12641 19034
L12641 19071
" />
<path d="M12773 19165
L12923 19165
" />
<path d="M12829 19034
L12829 19371
L12848 19409
L12885 19428
L12923 19428
" />
<path d="M13110 19428
L13073 19409
L13054 19390
L13035 19353
L13035 19240
L13054 19203
L13073 19184
L13110 19165
L13166 19165
L13204 19184
L13223 19203
L13241 19240
L13241 19353
L13223 19390
L13204 19409
L13166 19428
L13110 19428
" />
<path d="M13410 19428
L13410 19165
" />
<path d="M13410 19240
L13429 19203
L13447 19184
L13485 19165
L13522 19165
" />
<path d="M7970 4890
L7951 4909
L7895 4928
L7857 4928
L7801 4909
L7763 4871
L7745 4834
L7726 4759
L7726 4703
L7745 4628
L7763 4590
L7801 4553
L7857 4534
L7895 4534
L7951 4553
L7970 4571
" />
<path d="M8194 4928
L8157 4909
L8138 4890
L8120 4853
L8120 4740
L8138 4703
L8157 4684
L8194 4665
L8251 4665
L8288 4684
L8307 4703
L8326 4740
L8326 4853
L8307 4890
L8288 4909
L8251 4928
L8194 4928
" />
<path d="M8494 4928
L8494 4665
" />
<path d="M8494 4534
L8476 4553
L8494 4571
L8513 4553
L8494 4534
L8494 4571
" />
<path d="M8738 4928
L8701 4909
L8682 4871
L8682 4534
" />
<path d="M28039 12703
L28039 12459
L28188 12590
L28188 12534
L28207 12496
L28226 12478
L28263 12459
L28357 12459
L28395 12478
L28413 12496
L28432 12534
L28432 12646
L28413 12684
L28395 12703
" />
<path d="M28039 12328
L28039 12084
L28188 12215
L28188 12159
L28207 12121
L28226 12103
L28263 12084
L28357 12084
L28395 12103
L28413 12121
L28432 12159
L28432 12271
L28413 12309
L28395 12328
" />
<path d="M28039 11840
L28039 11803
L28057 11765
L28076 11746
L28114 11728
L28188 11709
L28282 11709
L28357 11728
L28395 11746
L28413 11765
L28432 11803
L28432 11840
L28413 11878
L28395 11896
L28357 11915
L28282 11934
L28188 11934
L28114 11915
L28076 11896
L28057 11878
L28039 11840
" />
<path d="M28432 11315
L28245 11446
" />
<path d="M28432 11540
L28039 11540
L28039 11390
L28057 11353
L28076 11334
L28114 11315
L28170 11315
L28207 11334
L28226 11353
L28245 11390
L28245 11540
" />
<path d="M29932 12309
L29539 12309
L29932 12084
L29539 12084
" />
<path d="M29932 11896
L29539 11896
L29539 11746
L29557 11709
L29576 11690
L29614 11671
L29670 11671
L29707 11690
L29726 11709
L29745 11746
L29745 11896
" />
<path d="M20026 16784
L20270 16784
L20139 16934
L20195 16934
L20232 16953
L20251 16971
L20270 17009
L20270 17103
L20251 17140
L20232 17159
L20195 17178
L20082 17178
L20045 17159
L20026 17140
" />
<path d="M20438 17178
L20438 16784
" />
<path d="M20476 17028
L20588 17178
" />
<path d="M20588 16915
L20438 17065
" />
<path d="M20720 16784
L20963 16784
L20832 16934
L20888 16934
L20926 16953
L20945 16971
L20963 17009
L20963 17103
L20945 17140
L20926 17159
L20888 17178
L20776 17178
L20738 17159
L20720 17140
" />
<path d="M20270 15678
L20045 15678
" />
<path d="M20157 15678
L20157 15284
L20120 15340
L20082 15378
L20045 15396
" />
<path d="M20513 15284
L20551 15284
L20588 15303
L20607 15321
L20626 15359
L20645 15434
L20645 15528
L20626 15603
L20607 15640
L20588 15659
L20551 15678
L20513 15678
L20476 15659
L20457 15640
L20438 15603
L20420 15528
L20420 15434
L20438 15359
L20457 15321
L20476 15303
L20513 15284
" />
<path d="M20813 15678
L20813 15284
" />
<path d="M20851 15528
L20963 15678
" />
<path d="M20963 15415
L20813 15565
" />
<path d="M18682 12234
L18682 12459
" />
<path d="M18682 12346
L18289 12346
L18345 12384
L18382 12421
L18401 12459
" />
<path d="M18289 11990
L18289 11953
L18307 11915
L18326 11896
L18364 11878
L18438 11859
L18532 11859
L18607 11878
L18645 11896
L18663 11915
L18682 11953
L18682 11990
L18663 12028
L18645 12046
L18607 12065
L18532 12084
L18438 12084
L18364 12065
L18326 12046
L18307 12028
L18289 11990
" />
<path d="M18682 11690
L18289 11690
" />
<path d="M18532 11653
L18682 11540
" />
<path d="M18420 11540
L18570 11690
" />
<path d="M13682 12421
L13682 12646
" />
<path d="M13682 12534
L13289 12534
L13345 12571
L13382 12609
L13401 12646
" />
<path d="M13457 12196
L13438 12234
L13420 12253
L13382 12271
L13364 12271
L13326 12253
L13307 12234
L13289 12196
L13289 12121
L13307 12084
L13326 12065
L13364 12046
L13382 12046
L13420 12065
L13438 12084
L13457 12121
L13457 12196
L13476 12234
L13495 12253
L13532 12271
L13607 12271
L13645 12253
L13663 12234
L13682 12196
L13682 12121
L13663 12084
L13645 12065
L13607 12046
L13532 12046
L13495 12065
L13476 12084
L13457 12121
" />
<path d="M13289 11803
L13289 11765
L13307 11728
L13326 11709
L13364 11690
L13438 11671
L13532 11671
L13607 11690
L13645 11709
L13663 11728
L13682 11765
L13682 11803
L13663 11840
L13645 11859
L13607 11878
L13532 11896
L13438 11896
L13364 11878
L13326 11859
L13307 11840
L13289 11803
" />
<path d="M13682 11503
L13289 11503
" />
<path d="M13532 11465
L13682 11353
" />
<path d="M13420 11353
L13570 11503
" />
<path d="M15182 12234
L15182 12459
" />
<path d="M15182 12346
L14789 12346
L14845 12384
L14882 12421
L14901 12459
" />
<path d="M14789 11990
L14789 11953
L14807 11915
L14826 11896
L14864 11878
L14938 11859
L15032 11859
L15107 11878
L15145 11896
L15163 11915
L15182 11953
L15182 11990
L15163 12028
L15145 12046
L15107 12065
L15032 12084
L14938 12084
L14864 12065
L14826 12046
L14807 12028
L14789 11990
" />
<path d="M15182 11690
L14789 11690
" />
<path d="M15032 11653
L15182 11540
" />
<path d="M14920 11540
L15070 11690
" />
<path d="M14520 15678
L14295 15678
" />
<path d="M14407 15678
L14407 15284
L14370 15340
L14332 15378
L14295 15396
" />
<path d="M14763 15284
L14801 15284
L14838 15303
L14857 15321
L14876 15359
L14895 15434
L14895 15528
L14876 15603
L14857 15640
L14838 15659
L14801 15678
L14763 15678
L14726 15659
L14707 15640
L14688 15603
L14670 15528
L14670 15434
L14688 15359
L14707 15321
L14726 15303
L14763 15284
" />
<path d="M15063 15678
L15063 15284
" />
<path d="M15101 15528
L15213 15678
" />
<path d="M15213 15415
L15063 15565
" />
<path d="M5182 12234
L5182 12459
" />
<path d="M5182 12346
L4789 12346
L4845 12384
L4882 12421
L4901 12459
" />
<path d="M4789 11990
L4789 11953
L4807 11915
L4826 11896
L4864 11878
L4938 11859
L5032 11859
L5107 11878
L5145 11896
L5163 11915
L5182 11953
L5182 11990
L5163 12028
L5145 12046
L5107 12065
L5032 12084
L4938 12084
L4864 12065
L4826 12046
L4807 12028
L4789 11990
" />
<path d="M5182 11690
L4789 11690
" />
<path d="M5032 11653
L5182 11540
" />
<path d="M4920 11540
L5070 11690
" />
<path d="M4770 7178
L4545 7178
" />
<path d="M4657 7178
L4657 6784
L4620 6840
L4582 6878
L4545 6896
" />
<path d="M5126 6784
L4938 6784
L4920 6971
L4938 6953
L4976 6934
L5070 6934
L5107 6953
L5126 6971
L5145 7009
L5145 7103
L5126 7140
L5107 7159
L5070 7178
L4976 7178
L4938 7159
L4920 7140
" />
<path d="M5313 7178
L5313 6784
" />
<path d="M5351 7028
L5463 7178
" />
<path d="M5463 6915
L5313 7065
" />
<path d="M16932 20734
L16932 20959
" />
<path d="M16932 20846
L16539 20846
L16595 20884
L16632 20921
L16651 20959
" />
<path d="M16539 20490
L16539 20453
L16557 20415
L16576 20396
L16614 20378
L16688 20359
L16782 20359
L16857 20378
L16895 20396
L16913 20415
L16932 20453
L16932 20490
L16913 20528
L16895 20546
L16857 20565
L16782 20584
L16688 20584
L16614 20565
L16576 20546
L16557 20528
L16539 20490
" />
<path d="M16932 20190
L16539 20190
" />
<path d="M16782 20153
L16932 20040
" />
<path d="M16670 20040
L16820 20190
" />
<path d="M22170 11784
L22395 11784
" />
<path d="M22282 12178
L22282 11784
" />
<path d="M22714 12178
L22526 12178
L22526 11784
" />
<path d="M22920 11784
L22957 11784
L22995 11803
L23013 11821
L23032 11859
L23051 11934
L23051 12028
L23032 12103
L23013 12140
L22995 12159
L22957 12178
L22920 12178
L22882 12159
L22864 12140
L22845 12103
L22826 12028
L22826 11934
L22845 11859
L22864 11821
L22882 11803
L22920 11784
" />
<path d="M23182 11784
L23445 11784
L23276 12178
" />
<path d="M23801 12178
L23576 12178
" />
<path d="M23688 12178
L23688 11784
L23651 11840
L23613 11878
L23576 11896
" />
<path d="M8670 11784
L8895 11784
" />
<path d="M8782 12178
L8782 11784
" />
<path d="M9214 12178
L9026 12178
L9026 11784
" />
<path d="M9420 11784
L9457 11784
L9495 11803
L9513 11821
L9532 11859
L9551 11934
L9551 12028
L9532 12103
L9513 12140
L9495 12159
L9457 12178
L9420 12178
L9382 12159
L9364 12140
L9345 12103
L9326 12028
L9326 11934
L9345 11859
L9364 11821
L9382 11803
L9420 11784
" />
<path d="M9682 11784
L9945 11784
L9776 12178
" />
<path d="M10301 12178
L10076 12178
" />
<path d="M10188 12178
L10188 11784
L10151 11840
L10113 11878
L10076 11896
" />
<path d="M18829 19034
L18960 19428
L19092 19034
" />
<path d="M19129 19465
L19429 19465
" />
<path d="M19523 19428
L19523 19034
L19673 19034
L19710 19053
L19729 19071
L19748 19109
L19748 19165
L19729 19203
L19710 19221
L19673 19240
L19523 19240
" />
<path d="M19917 19428
L19917 19034
L20010 19034
L20067 19053
L20104 19090
L20123 19128
L20142 19203
L20142 19259
L20123 19334
L20104 19371
L20067 19409
L20010 19428
L19917 19428
" />
<path d="M22501 6784
L22632 7178
L22764 6784
" />
<path d="M22801 7215
L23101 7215
" />
<path d="M23195 6971
L23326 6971
" />
<path d="M23382 7178
L23195 7178
L23195 6784
L23382 6784
" />
<path d="M23551 7178
L23551 6915
" />
<path d="M23551 6990
L23570 6953
L23588 6934
L23626 6915
L23663 6915
" />
<path d="M23795 7178
L23795 6915
" />
<path d="M23795 6990
L23813 6953
L23832 6934
L23870 6915
L23907 6915
" />
<path d="M24095 7178
L24057 7159
L24038 7140
L24020 7103
L24020 6990
L24038 6953
L24057 6934
L24095 6915
L24151 6915
L24188 6934
L24207 6953
L24226 6990
L24226 7103
L24207 7140
L24188 7159
L24151 7178
L24095 7178
" />
<path d="M24395 7178
L24395 6915
" />
<path d="M24395 6990
L24413 6953
L24432 6934
L24470 6915
L24507 6915
" />
<path d="M9151 6784
L9282 7178
L9414 6784
" />
<path d="M9451 7215
L9751 7215
" />
<path d="M10070 7140
L10051 7159
L9995 7178
L9957 7178
L9901 7159
L9864 7121
L9845 7084
L9826 7009
L9826 6953
L9845 6878
L9864 6840
L9901 6803
L9957 6784
L9995 6784
L10051 6803
L10070 6821
" />
<path d="M10295 7178
L10257 7159
L10238 7140
L10220 7103
L10220 6990
L10238 6953
L10257 6934
L10295 6915
L10351 6915
L10388 6934
L10407 6953
L10426 6990
L10426 7103
L10407 7140
L10388 7159
L10351 7178
L10295 7178
" />
<path d="M10595 7178
L10595 6915
" />
<path d="M10595 6784
L10576 6803
L10595 6821
L10613 6803
L10595 6784
L10595 6821
" />
<path d="M10838 7178
L10801 7159
L10782 7121
L10782 6784
" />
</g>
<g style="fill:#000000; fill-opacity:0.0; 
stroke:#000000; stroke-width:59.0551; stroke-opacity:1; 
stroke-linecap:round; stroke-linejoin:round;">
</g>
<g style="fill:#C2C200; fill-opacity:0.0; 
stroke:#C2C200; stroke-width:59.0551; stroke-opacity:1; 
stroke-linecap:round; stroke-linejoin:round;">
</g>
<g style="fill:#C2C200; fill-opacity:0.0; 
stroke:#C2C200; stroke-width:9.84252; stroke-opacity:1; 
stroke-linecap:round; stroke-linejoin:round;">
<path d="M506 188
L32002 188
" />
<path d="M32002 188
L32002 23811
" />
<path d="M32002 23811
L506 23811
" />
<path d="M506 23811
L506 188
" />
</g> 
</svg>
